<?xml version="1.0" encoding="utf-8"?>
<!-- Generator: Adobe Illustrator 27.9.0, SVG Export Plug-In . SVG Version: 6.00 Build 0)  -->
<svg version="1.1" baseProfile="basic" id="Icon" xmlns="http://www.w3.org/2000/svg" xmlns:xlink="http://www.w3.org/1999/xlink"
	 x="0px" y="0px" viewBox="0 0 512 512" xml:space="preserve">
<path d="M472,189.5h-64.8c-4.4,0-8,3.6-8,8s3.6,8,8,8H472c4.4,0,8,3.6,8,8v37.7H348.8c26.5-24.8,43.2-60.1,43.2-99.2
	c0-75-61-136-136-136S120,77,120,152c0,39.1,16.7,74.4,43.2,99.2H32v-37.7c0-4.4,3.6-8,8-8h65.2c4.4,0,8-3.6,8-8s-3.6-8-8-8H40
	c-13.2,0-24,10.8-24,24V472c0,13.2,10.8,24,24,24h432c13.2,0,24-10.8,24-24V213.5C496,200.3,485.2,189.5,472,189.5z M136,152
	c0-66.2,53.8-120,120-120s120,53.8,120,120s-53.8,120-120,120S136,218.2,136,152z M184,267.2c20.9,13.1,45.5,20.8,72,20.8
	s51.1-7.7,72-20.8h152v60H32v-60H184z M472,480H40c-4.4,0-8-3.6-8-8V343.2h448V472C480,476.4,476.4,480,472,480z"/>
<path d="M154.3,392.3H56c-4.4,0-8,3.6-8,8V456c0,4.4,3.6,8,8,8h98.3c4.4,0,8-3.6,8-8v-55.7C162.3,395.9,158.7,392.3,154.3,392.3z
	 M146.3,448H64v-39.7h82.3V448z"/>
<path d="M300.1,420.2h-39c-4.4,0-8,3.6-8,8s3.6,8,8,8h39c4.4,0,8-3.6,8-8S304.5,420.2,300.1,420.2z"/>
<path d="M378.1,420.2h-39c-4.4,0-8,3.6-8,8s3.6,8,8,8h39c4.4,0,8-3.6,8-8S382.5,420.2,378.1,420.2z"/>
<path fill="#448AFF" d="M318.5,144h-125c-4.4,0-8,3.6-8,8s3.6,8,8,8h125c4.4,0,8-3.6,8-8S322.9,144,318.5,144z"/>
<path fill="#448AFF" d="M264,214.5v-125c0-4.4-3.6-8-8-8s-8,3.6-8,8v125c0,4.4,3.6,8,8,8S264,218.9,264,214.5z"/>
<path d="M456,420.2h-39c-4.4,0-8,3.6-8,8s3.6,8,8,8h39c4.4,0,8-3.6,8-8S460.4,420.2,456,420.2z"/>
</svg>
