<?xml version="1.0" encoding="utf-8"?>
<!-- Generator: Adobe Illustrator 27.9.0, SVG Export Plug-In . SVG Version: 6.00 Build 0)  -->
<svg version="1.1" baseProfile="basic" id="Icon" xmlns="http://www.w3.org/2000/svg" xmlns:xlink="http://www.w3.org/1999/xlink"
	 x="0px" y="0px" viewBox="0 0 512 512" xml:space="preserve">
<path fill="#448AFF" d="M494.3,443.2l-36.1-231.3c-1.6-10.5-10.6-18.1-21.2-18.1h-64.7c-4.4,0-8,3.6-8,8s3.6,8,8,8h64.7
	c2.7,0,5,1.9,5.4,4.6l14,89.6H82.6l-13.7-87.9c-0.3-2.2,0.6-3.7,1.2-4.4c0.6-0.7,2-1.9,4.1-1.9h58.5c4.4,0,8-3.6,8-8s-3.6-8-8-8
	H74.2c-6.3,0-12.2,2.7-16.3,7.5c-3.7,4.3-5.3,9.8-5,15.3L17.8,430.4c-1.2,7.1,0.9,14.3,5.6,19.7c4.7,5.4,11.6,8.4,18.8,8.2l49.3-1.5
	c3.6,6.8,10.7,11.2,18.8,11.2h362.7c6.3,0,12.2-2.7,16.3-7.5C493.5,455.7,495.2,449.4,494.3,443.2L494.3,443.2z M41.7,442.3
	c-2.4,0.1-4.7-0.9-6.3-2.7s-2.3-4.2-1.9-6.6l27.1-165.1l27,173L41.7,442.3z M477.2,450c-0.6,0.7-2,1.9-4.1,1.9H110.3
	c-2.7,0-5-1.9-5.4-4.6L85.1,320h373.8l19.6,125.6C478.8,447.8,477.8,449.3,477.2,450z"/>
<path fill="#448AFF" d="M438.3,352.3H242.7c-2.3,0-4.6,1-6.1,2.8c-1.5,1.8-2.2,4.1-1.8,6.4l10.3,66.1c0.6,3.9,4,6.8,7.9,6.8h195.6
	c2.3,0,4.6-1,6.1-2.8c1.5-1.8,2.2-4.1,1.8-6.4l-10.3-66.1C445.6,355.2,442.2,352.3,438.3,352.3L438.3,352.3z M259.9,418.5l-7.8-50.1
	h179.4l7.8,50.1H259.9z"/>
<path fill="#448AFF" d="M254.5,252.1c57.3,0,104-46.7,104-104s-46.7-104-104-104s-104,46.7-104,104S197.2,252.1,254.5,252.1z
	 M254.5,60.1c48.5,0,88,39.5,88,88s-39.5,88-88,88s-88-39.5-88-88S206,60.1,254.5,60.1z"/>
<path fill="#448AFF" d="M317,140.1H192c-4.4,0-8,3.6-8,8s3.6,8,8,8h125c4.4,0,8-3.6,8-8S321.4,140.1,317,140.1z"/>
<path fill="#448AFF" d="M262.5,210.5v-125c0-4.4-3.6-8-8-8s-8,3.6-8,8v125c0,4.4,3.6,8,8,8S262.5,215,262.5,210.5z"/>
</svg>
