<?xml version="1.0" encoding="utf-8"?>
<!-- Generator: Adobe Illustrator 27.9.0, SVG Export Plug-In . SVG Version: 6.00 Build 0)  -->
<svg version="1.1" baseProfile="tiny" id="Layer_1" xmlns="http://www.w3.org/2000/svg" xmlns:xlink="http://www.w3.org/1999/xlink"
	 x="0px" y="0px" viewBox="0 0 496 496" overflow="visible" xml:space="preserve">
<path fill="#448AFF" d="M240,104c0,39.8-32.2,72-72,72s-72-32.2-72-72s32.2-72,72-72S240,64.2,240,104z"/>
<path fill="#448AFF" d="M64,496H16c-8.8,0-16-7.2-16-16v-96c0-8.8,7.2-16,16-16h48c8.8,0,16,7.2,16,16v96C80,488.8,72.8,496,64,496z
	"/>
<path d="M385.4,360c-8.2,0-15.9,3.2-21.7,9l-7.4,7.4l-1.6-6.4c-2.6-10.5-12.1-17.9-22.9-17.9c-10.5,0-19.8,7-22.7,17.1L298,408h-49
	l-20.9-5.2c-2.4-0.6-4.1-2.8-4.1-5.2c0-1.4,0.6-2.8,1.6-3.8l29.4-29.5c5.8-5.8,9-13.5,9-21.7c0-16.9-13.7-30.6-30.6-30.6
	c-8.2,0-15.9,3.2-21.7,9l-66.3,66.3c-3,3-7,4.7-11.3,4.7H80v16h54.1c8.5,0,16.6-3.3,22.6-9.4l66.3-66.3c2.8-2.8,6.4-4.3,10.3-4.3
	c8.1,0,14.6,6.6,14.6,14.6c0,3.8-1.6,7.6-4.3,10.3l-29.4,29.4c-4,4-6.3,9.4-6.3,15.1c0,9.8,6.7,18.4,16.2,20.8l21.9,5.5l75.3,0.2
	c6.4,0,12.4-2.5,17-7l36.7-36.7c2.8-2.8,6.4-4.3,10.3-4.3c8.1,0,14.6,6.6,14.6,14.6c0,3.8-1.6,7.6-4.3,10.3l-40.5,40.5
	c-4.6,4.6-10.5,7.7-16.9,8.9l-70,12.7c-3.3,0.6-6.6,0.9-10,0.9H80v16h178.2c4.3,0,8.7-0.4,12.9-1.2l70-12.7
	c9.6-1.8,18.4-6.3,25.4-13.3l40.5-40.5c5.8-5.8,9-13.5,9-21.7C416,373.7,402.3,360,385.4,360z M327,405.7c-1.5,1.5-3.5,2.3-5.7,2.3
	h-6.8l9.8-34.5c0.9-3.3,3.9-5.5,7.3-5.5c3.5,0,6.6,2.4,7.4,5.8l3.9,15.8L327,405.7z"/>
<path d="M264,136h72V64h19.5c2.2,0,4.4,0.3,6.6,0.9l47.4,13.5c3.6,1,7.3,1.6,11,1.6H456V64h-35.5c-2.2,0-4.4-0.3-6.6-0.9l-47.4-13.5
	c-3.6-1-7.3-1.6-11-1.6H336V0H0v208h336v-25l7.7,3.1c21.7,8.7,46.4,7.8,68.1-3.1c9.2-4.6,19.5-7,29.8-7H456v-16h-14.4
	c-12.8,0-25.6,3-37.4,9c-16.8,8.4-37.1,9.3-54.6,2.3l-13.3-5.3c-9.8-3.9-20.1-5.9-30.7-5.9H240C240,146.8,250.8,136,264,136z
	 M240,176h65.6c4.9,0,9.7,0.5,14.4,1.6V192H16V16h304v104h-56c-22.1,0-40,17.9-40,40C224,168.8,231.2,176,240,176z"/>
<path fill="#448AFF" d="M480,192h-16c-8.8,0-16-7.2-16-16V64c0-8.8,7.2-16,16-16h16c8.8,0,16,7.2,16,16v112
	C496,184.8,488.8,192,480,192z"/>
<path d="M304,64h-16V48h-16V32h32V64z"/>
<path d="M48,64H32V32h32v16H48V64z"/>
<path d="M64,176H32v-32h16v16h16V176z"/>
<path fill="#448AFF" d="M312,264v-56h-64v56h-32l64,64l64-64H312z"/>
<path d="M400,272h16v56h-16V272z"/>
<path d="M400,240h16v16h-16V240z"/>
<path d="M400,208h16v16h-16V208z"/>
<path d="M368,272h16v64h-16V272z"/>
<path d="M32,368h16v72H32V368z"/>
<path d="M32,456h16v40H32V456z"/>
<path d="M368,240h16v16h-16V240z"/>
<polygon points="222.6,96 211.9,96 219.9,71.4 205.5,71.4 190.3,117.6 175.5,71.4 161.5,71.4 146.2,117.2 131.5,71.4 115.8,71.4 
	123.9,96 113.4,96 113.4,112 129.2,112 137.2,136.6 153.3,136.6 168.1,92.5 182.4,136.6 198.6,136.6 206.7,112 222.6,112 "/>
</svg>
