<?xml version="1.0" encoding="utf-8"?>
<!-- Generator: Adobe Illustrator 27.9.0, SVG Export Plug-In . SVG Version: 6.00 Build 0)  -->
<svg version="1.1" baseProfile="tiny" id="_x33_0" xmlns="http://www.w3.org/2000/svg" xmlns:xlink="http://www.w3.org/1999/xlink"
	 x="0px" y="0px" viewBox="0 0 512 512" overflow="visible" xml:space="preserve">
<g>
	<path fill="#448AFF" d="M16,280h176v176H16V280z"/>
	<g>
		<path d="M160,232H48c-22.1,0-40,17.9-40,40v192c0,22.1,17.9,40,40,40h112c22.1,0,40-17.9,40-40V272C200,249.9,182.1,232,160,232z
			 M184,464c0,13.2-10.8,24-24,24H48c-13.2,0-24-10.8-24-24V272c0-13.2,10.8-24,24-24h112c13.2,0,24,10.8,24,24V464z"/>
		<path d="M218.3,362.3l144-144l11.3,11.3l-144,144L218.3,362.3z"/>
		<path d="M218.3,314.3l48-48l11.3,11.3l-48,48L218.3,314.3z"/>
		<path d="M282.3,250.3l32-32l11.3,11.3l-32,32L282.3,250.3z"/>
		<path d="M218.3,266.3l80-80l11.3,11.3l-80,80L218.3,266.3z"/>
		<path d="M202.3,234.3l32-32l11.3,11.3l-32,32L202.3,234.3z"/>
		<path d="M250.3,186.3l32-32l11.3,11.3l-32,32L250.3,186.3z"/>
		<path d="M178.3,210.3l64-64l11.3,11.3l-64,64L178.3,210.3z"/>
		<path d="M258.3,130.4l16-16l11.3,11.3l-16,16L258.3,130.4z"/>
		<path d="M138.3,202.3l144-144l11.3,11.3l-144,144L138.3,202.3z"/>
	</g>
	<path d="M396.3,26.4c-48.5,0-88,39.5-88,88s39.5,88,88,88s88-39.5,88-88S444.8,26.4,396.3,26.4z M396.3,186.4
		c-39.7,0-72-32.3-72-72s32.3-72,72-72s72,32.3,72,72S436,186.4,396.3,186.4z"/>
	<g>
		<path d="M429.2,102.1c0,14.5-10.9,23.5-28.3,23.5h-13v32.9h-15.1V78.3H401C418.4,78.4,429.2,87.4,429.2,102.1z M414,102.1
			c0-7.2-4.7-11.3-13.9-11.3h-12.2v22.6h12.3C409.3,113.3,414,109.1,414,102.1z"/>
	</g>
</g>
<g>
	<path d="M141.2,352c0,14.5-10.9,23.5-28.3,23.5h-13v32.9H84.8v-80.1H113C130.4,328.4,141.2,337.4,141.2,352z M126,352
		c0-7.2-4.7-11.3-13.9-11.3H99.9v22.6h12.3C121.3,363.2,126,359,126,352z"/>
</g>
</svg>
