<?xml version="1.0" encoding="utf-8"?>
<!-- Generator: Adobe Illustrator 27.9.0, SVG Export Plug-In . SVG Version: 6.00 Build 0)  -->
<svg version="1.1" baseProfile="tiny" id="_x33_0_Cannon"
	 xmlns="http://www.w3.org/2000/svg" xmlns:xlink="http://www.w3.org/1999/xlink" x="0px" y="0px" viewBox="0 0 512 512"
	 overflow="visible" xml:space="preserve">
<path fill="#448AFF" d="M267.6,127.5l64.3-64.3l116.9,116.9l-64.3,64.3L267.6,127.5z"/>
<path fill="#448AFF" d="M189.7,403.7l-16.3-65.1l-65.1-16.3l57.1-24.5l-8.4-58.6l42.4,42.4l54.3-23.3l-23.3,54.3l42.4,42.4
	l-58.6-8.4L189.7,403.7z"/>
<path d="M489.6,162.7L349.3,22.4C340,13.1,327.6,8,314.4,8s-25.6,5.1-34.9,14.4L227,75c-12.2,12.2-16.6,29.3-13.3,45.1
	c-3.3-0.7-6.8-1.1-10.3-1.1c-13.2,0-25.6,5.1-34.9,14.4L22.4,279.6c-19.2,19.2-19.2,50.5,0,69.7L63.2,390l5.7-5.7
	c7.3-7.3,16.9-11.5,27.2-12c11.7-0.7,23.2,3.7,31.6,12c8.4,8.4,12.8,19.9,12,31.7c-0.5,10.2-4.8,19.8-12,27.1l-5.7,5.7l40.7,40.7
	c9.3,9.3,21.7,14.4,34.9,14.5c13.2-0.1,25.6-5.2,34.8-14.5l146.1-146.1c9.3-9.3,14.4-21.7,14.4-34.9c0-3.5-0.4-6.9-1.1-10.2
	c3.3,0.7,6.7,1.1,10.2,1.1c13.2,0,25.6-5.1,34.9-14.4l52.6-52.6C508.8,213.2,508.8,181.9,489.6,162.7L489.6,162.7z M138.9,373.1
	c-10.7-10.7-25.1-16.6-40.1-16.7L63,320.5c-1.6-1.6-2.5-3.7-2.5-6.2c0-2.2,0.8-4.3,2.4-5.9L197.4,174c1.6-1.6,3.6-2.5,6-2.5h0.2
	c2.2,0,4.2,0.9,5.8,2.4L338,302.6c3.3,3.3,3.3,8.7,0,12.1L203.6,449c-3.3,3.3-8.7,3.3-12.1,0l-35.9-35.9
	C155.6,398.2,149.6,383.8,138.9,373.1L138.9,373.1z M478.2,221.1l-52.6,52.6c-6.3,6.3-14.7,9.8-23.6,9.8s-17.3-3.5-23.6-9.8
	L367.2,285c6.3,6.3,9.8,14.7,9.8,23.6s-3.5,17.3-9.8,23.6l-146.1,146c-6.3,6.3-14.7,9.8-23.5,9.8c-9,0-17.3-3.5-23.6-9.8l-29.8-29.8
	c3.6-4.8,6.4-10.1,8.3-15.8l27.7,27.7c4.8,4.8,11.1,7.2,17.3,7.2s12.6-2.4,17.3-7.2l134.4-134.4c9.6-9.6,9.6-25.1,0-34.7
	L220.8,162.7c-4.7-4.7-10.9-7.1-17.2-7.1c-6.7,0.1-12.8,2.4-17.5,7.1L51.7,297.1c-4.7,4.7-7.2,10.9-7.1,17.2
	c-0.1,6.6,2.4,12.8,7.1,17.5l27.7,27.7c-5.6,1.9-11,4.7-15.8,8.3L33.8,338c-13-13-13-34.1,0-47.1l146.1-146.1
	c6.3-6.3,14.7-9.8,23.6-9.8c8.9,0,17.3,3.5,23.6,9.8l40.9,40.9l11.3-11.3l-40.9-40.9c-13-13-13-34.1,0-47.1L291,33.8
	c6.3-6.3,14.7-9.8,23.6-9.8s17.3,3.5,23.6,9.8l140,140.2C491.2,187,491.2,208.1,478.2,221.1L478.2,221.1z"/>
<path d="M355.5,168.6l40.9-40.9l11.3,11.3l-40.9,40.9L355.5,168.6z"/>
<path d="M378.8,191.9l40.9-40.9l11.3,11.3l-40.9,40.9L378.8,191.9z"/>
<path d="M378.8,238.7l64.3-64.3l11.3,11.3L390.1,250L378.8,238.7z"/>
<path d="M355.5,215.3l11.7-11.7l11.3,11.3l-11.7,11.7L355.5,215.3z"/>
<path d="M332.1,191.9l11.7-11.7l11.3,11.3l-11.7,11.7L332.1,191.9z"/>
<path d="M332.1,145.2l40.9-40.9l11.3,11.3l-40.9,40.9L332.1,145.2z"/>
<path d="M308.8,121.8l40.9-40.9L361,92.2l-40.9,40.9L308.8,121.8z"/>
<path d="M262,121.8l64.3-64.3l11.3,11.3l-64.3,64.3L262,121.8z"/>
<path d="M285.4,145.2l11.7-11.7l11.3,11.3l-11.7,11.7L285.4,145.2z"/>
<path d="M308.7,168.6l11.7-11.7l11.3,11.3L320,179.9L308.7,168.6z"/>
<path d="M279.5,197.4l11.3-11.3l23.4,23.4l-11.3,11.3L279.5,197.4z"/>
<path d="M314.6,232.4l11.3-11.3l35.1,35.1l-11.3,11.3L314.6,232.4z"/>
</svg>
