<?xml version="1.0" encoding="utf-8"?>
<!-- Generator: Adobe Illustrator 27.9.0, SVG Export Plug-In . SVG Version: 6.00 Build 0)  -->
<svg version="1.1" id="Layer_1" xmlns="http://www.w3.org/2000/svg" xmlns:xlink="http://www.w3.org/1999/xlink" x="0px" y="0px"
	 viewBox="0 0 496 496" style="enable-background:new 0 0 496 496;" xml:space="preserve">
<path fill="#448AFF" d="M400,128c0,53-43,96-96,96s-96-43-96-96s43-96,96-96S400,75,400,128z"/>
<path fill="#448AFF" d="M352,368c0,53-43,96-96,96s-96-43-96-96s43-96,96-96S352,315,352,368z"/>
<path d="M496,60.7L435.3,0H164.7L152,12.7L139.3,0H48v240H0v256h91.3l12.7-12.7l12.7,12.7H448V272h48V60.7z M440,27.3L468.7,56H440
	V27.3z M432,480H123.3L112,468.7V448H96v20.7L84.7,480H16V256h68.7L96,267.3V288h16v-20.7l11.3-11.3H432V480z M448,256v-16H160v-24
	h-16v24h-27.3L104,252.7L91.3,240H64V16h68.7L144,27.3V56h16V27.3L171.3,16H424v56h56v184H448z"/>
<path d="M144,72h16v32h-16V72z"/>
<path d="M144,120h16v32h-16V120z"/>
<path d="M144,168h16v32h-16V168z"/>
<path d="M258.3,162.3l80-80l11.3,11.3l-80,80L258.3,162.3z"/>
<path d="M272,88h16v16h-16V88z"/>
<path d="M320,152h16v16h-16V152z"/>
<path d="M96,304h16v32H96V304z"/>
<path d="M96,352h16v32H96V352z"/>
<path d="M96,400h16v32H96V400z"/>
<path d="M210.3,402.3l80-80l11.3,11.3l-80,80L210.3,402.3z"/>
<path d="M224,328h16v16h-16V328z"/>
<path d="M272,392h16v16h-16V392z"/>
<path d="M336,448h16v16h-16V448z"/>
<path d="M368,448h16v16h-16V448z"/>
<path d="M400,448h16v16h-16V448z"/>
</svg>
