<?xml version="1.0" encoding="utf-8"?>
<!-- Generator: Adobe Illustrator 27.9.0, SVG Export Plug-In . SVG Version: 6.00 Build 0)  -->
<svg version="1.1" id="Layer_3" xmlns="http://www.w3.org/2000/svg" xmlns:xlink="http://www.w3.org/1999/xlink" x="0px" y="0px"
	 viewBox="0 0 512 512" style="enable-background:new 0 0 512 512;" xml:space="preserve">
<path d="M171,252.6l-13.1-9.2c3.7-5.2,7.3-10.4,10.8-15.8l13.4,8.8C178.5,241.9,174.8,247.3,171,252.6z"/>
<path d="M187.3,228.3l-13.5-8.6c13.6-21.5,25.9-44.2,36.5-67.6l5.2-11.4l14.6,6.6l-5.2,11.4C213.9,182.8,201.3,206.2,187.3,228.3z"
	/>
<path d="M299.8,295.7l-7.6-14.1c4.7-2.6,9.5-5.1,14.4-7.6l7.2,14.3C309.1,290.7,304.4,293.1,299.8,295.7z M328,281.4l-6.8-14.5
	c2.7-1.3,5.4-2.5,8.2-3.8l6.5-3l6.6,14.6l-6.5,3C333.2,278.9,330.6,280.1,328,281.4z M356.9,268.1l-6.6-14.6l14.6-6.6l6.6,14.6
	L356.9,268.1z"/>
<path fill="#448AFF" d="M119,255L233,369l-42.2,37.8L81.2,297.2L119,255z"/>
<path d="M390.8,165.4l-12.6-9.8l27.2-34.9l-38-38l-34.9,27.2l-9.8-12.6l46.1-35.8l58,58L390.8,165.4z"/>
<path d="M117.9,408C97,408,80,391,80,370.1c0-7.6,2.3-15,6.6-21.4l-13.2-9c-6.1,9-9.4,19.5-9.4,30.4c0,29.7,24.2,53.9,53.9,53.9
	c0.8,0,1.6,0,2.5-0.1l-0.7-16L117.9,408z"/>
<path d="M427.3,271.3l-6.6-14.6l-78.2,35.5c-39.1,17.8-75.4,39.9-108.9,66.1l-104-104c26.1-33.4,48.3-69.8,66.1-108.9l35.5-78.2
	l-14.6-6.6l-35.5,78.2c-29.1,63.9-70,120.5-121.5,168.1C42.1,323.2,32,346.2,32,370.1c0,47.4,38.5,85.9,85.9,85.9
	c21.1,0,41.4-7.8,57.1-21.7l59.1,59.1c6.9,6.9,16,10.6,25.7,10.6c20,0,36.3-16.3,36.3-36.3c0-9.7-3.8-18.8-10.6-25.7L267.3,424
	l9.9-9.9c7-7,10.8-16.3,10.8-26.1s-3.8-19.2-10.8-26.1l-9-9c25.5-17.6,52.4-33,81-46L427.3,271.3z M221.1,368.4
	c-10.4,8.6-20.5,17.6-30.3,27.1l-98.4-98.4c9.4-9.8,18.4-19.9,27.1-30.3L221.1,368.4z M117.9,440C79.4,440,48,408.6,48,370.1
	c0-19.4,8.2-38.2,22.5-51.4c3.6-3.4,7.1-6.9,10.6-10.3l98.4,98.4c-3.4,3.5-7,7-10.3,10.6C156.1,431.8,137.3,440,117.9,440z
	 M280,467.7c0,11.2-9.1,20.3-20.3,20.3c-5.4,0-10.5-2.1-14.3-5.9L186.3,423c9.4-9.8,19-19.3,29-28.4l58.8,58.8
	C277.9,457.2,280,462.3,280,467.7L280,467.7z M265.9,373.2c4,4,6.1,9.2,6.1,14.8s-2.2,10.9-6.1,14.8l-9.9,9.9l-28.6-28.6
	c8.9-7.6,18.1-14.9,27.5-21.9L265.9,373.2z"/>
<path fill="#448AFF" d="M449.4,288c-8.2,0-15.9-3.2-21.7-9L209,60.3c-5.8-5.8-9-13.5-9-21.7C200,21.7,213.7,8,230.6,8
	c8.2,0,15.9,3.2,21.7,9L471,235.7c5.8,5.8,9,13.5,9,21.6C480,274.3,466.3,288,449.4,288L449.4,288z"/>
</svg>
