<?xml version="1.0" encoding="utf-8"?>
<!-- Generator: Adobe Illustrator 27.9.0, SVG Export Plug-In . SVG Version: 6.00 Build 0)  -->
<svg version="1.1" id="Layer_1" xmlns="http://www.w3.org/2000/svg" xmlns:xlink="http://www.w3.org/1999/xlink" x="0px" y="0px"
	 viewBox="0 0 496 496" style="enable-background:new 0 0 496 496;" xml:space="preserve">
<g>
	<path fill="#448AFF" d="M104,256C46.7,256,0,209.3,0,152S46.7,48,104,48s104,46.7,104,104S161.3,256,104,256z"/>
	<path fill="#448AFF" d="M449.4,199.7l-33.9-33.9c-6.2-6.2-16.4-6.2-22.6,0l-56.6,56.6c-6.2,6.2-6.2,16.4,0,22.6l3.1,3.1H376
		c8.8,0,16,7.2,16,16v7.8l5.7,2.2l51.7-51.7C455.6,216.1,455.6,205.9,449.4,199.7z"/>
	<path fill="#448AFF" d="M352,416h-80c-8.8,0-16-7.2-16-16v-48c0-8.8,7.2-16,16-16h80c8.8,0,16,7.2,16,16v48
		C368,408.8,360.8,416,352,416z"/>
</g>
<polygon points="158.6,144 147.9,144 155.9,119.4 141.5,119.4 126.3,165.6 111.5,119.4 97.5,119.4 82.2,165.2 67.5,119.4 
	51.8,119.4 59.9,144 49.4,144 49.4,160 65.2,160 73.2,184.6 89.3,184.6 104.1,140.5 118.4,184.6 134.6,184.6 142.7,160 158.6,160 
	"/>
<path d="M128,400h16v16h-16V400z"/>
<path d="M160,400h16v16h-16V400z"/>
<path d="M192,400h16v16h-16V400z"/>
<path d="M224,400h16v16h-16V400z"/>
<path d="M128,368h112v16H128V368z"/>
<path d="M256,384h32v32h16v-48h-48V384z"/>
<path d="M336,336h-16v48h48v-16h-32V336z"/>
<path d="M489,194L375.8,80.9c-9.1-9.1-24.9-9-33.9,0L180.7,240H120c-13.2,0-24,10.8-24,24v160c0,13.2,10.8,24,24,24h256
	c13.2,0,24-10.8,24-24V316.9l89-89c4.5-4.5,7-10.6,7-17C496,204.6,493.5,198.5,489,194z M381.5,109.2l11.3,11.3L273.3,240h-22
	L381.5,109.2z M120,256h67.2l166-163.8c3.1-3.1,8.2-3.1,11.3,0l5.7,5.7L212.8,256H376c4.4,0,8,3.6,8,8v8H112v-8
	C112,259.6,115.6,256,120,256z M384,288v16H112v-16H384z M376,432H120c-4.4,0-8-3.6-8-8V320h272v104C384,428.4,380.4,432,376,432z
	 M477.7,216.6L400,294.3V264c0-13.2-10.8-24-24-24h-80.1l108.2-108.2l73.5,73.5C480.8,208.4,480.8,213.5,477.7,216.6z"/>
</svg>
