<?xml version="1.0" encoding="utf-8"?>
<!-- Generator: Adobe Illustrator 27.9.0, SVG Export Plug-In . SVG Version: 6.00 Build 0)  -->
<svg version="1.1" id="Layer_5" xmlns="http://www.w3.org/2000/svg" xmlns:xlink="http://www.w3.org/1999/xlink" x="0px" y="0px"
	 viewBox="0 0 512 512" style="enable-background:new 0 0 512 512;" xml:space="preserve">
<g>
	<g>
		<g>
			<path fill="#448AFF" d="M355.1,379.9H156.9c-13.7,0-24.8-11.1-24.8-24.8V289c0-13.7,11.1-24.8,24.8-24.8h198.2
				c13.7,0,24.8,11.1,24.8,24.8v66.1C379.9,368.8,368.8,379.9,355.1,379.9z"/>
		</g>
	</g>
	<g>
		<path d="M239.5,247.7h33c22.8,0,41.3-18.5,41.3-41.3v-49.5c0-10.8-6.9-19.8-16.5-23.3v-26.3c0-22.8-18.5-41.3-41.3-41.3
			s-41.3,18.5-41.3,41.3v26.3c-9.6,3.4-16.5,12.5-16.5,23.3v49.5C198.2,229.2,216.7,247.7,239.5,247.7z M256,82.6
			c13.7,0,24.8,11.1,24.8,24.8v24.8h-49.5v-24.8C231.2,93.7,242.3,82.6,256,82.6z M214.7,156.9c0-4.6,3.7-8.3,8.3-8.3H289
			c4.6,0,8.3,3.7,8.3,8.3v49.5c0,13.7-11.1,24.8-24.8,24.8h-33c-13.7,0-24.8-11.1-24.8-24.8V156.9z"/>
		<path d="M247.7,214.7h16.5v-33h16.5v-16.5h-49.5v16.5h16.5V214.7z"/>
		<circle cx="140.4" cy="41.3" r="8.3"/>
		<circle cx="173.4" cy="41.3" r="8.3"/>
		<path d="M412.4,36.2C409.8,15.8,392.6,0,371.6,0H140.4c-22.8,0-41.3,18.5-41.3,41.3v429.4c0,22.8,18.5,41.3,41.3,41.3h231.2
			c22.8,0,41.3-18.5,41.3-41.3v-226 M295,16.5L290.8,33h-69.7L217,16.5H295z M371.6,495.5H140.4c-13.7,0-24.8-11.1-24.8-24.8v-57.8
			h280.8v57.8C396.4,484.4,385.3,495.5,371.6,495.5z M396.4,239.5v156.9H115.6V41.3c0-13.7,11.1-24.8,24.8-24.8H200l8.2,33h95.5
			l8.2-33h59.6c13.7,0,24.8,11.1,24.8,24.8v0"/>
		<path d="M280.8,429.4h-49.5c-9.1,0-16.5,7.4-16.5,16.5v16.5c0,9.1,7.4,16.5,16.5,16.5h49.5c9.1,0,16.5-7.4,16.5-16.5v-16.5
			C297.3,436.8,289.9,429.4,280.8,429.4z M231.2,462.5v-16.5h49.5l0,16.5H231.2z"/>
		<path d="M363.4,429.4h-16.5c-9.1,0-16.5,7.4-16.5,16.5v16.5c0,9.1,7.4,16.5,16.5,16.5h16.5c9.1,0,16.5-7.4,16.5-16.5v-16.5
			C379.9,436.8,372.5,429.4,363.4,429.4z M346.8,462.5v-16.5h16.5l0,16.5H346.8z"/>
		<path d="M165.2,429.4h-16.5c-9.1,0-16.5,7.4-16.5,16.5v16.5c0,9.1,7.4,16.5,16.5,16.5h16.5c9.1,0,16.5-7.4,16.5-16.5v-16.5
			C181.7,436.8,174.3,429.4,165.2,429.4z M148.6,462.5v-16.5h16.5l0,16.5H148.6z"/>
		<path d="M198.2,297.3h-16.5v16.5h-16.5v16.5h16.5v16.5h16.5v-16.5h16.5v-16.5h-16.5V297.3z"/>
		<path d="M264.3,297.3h-16.5v16.5h-16.5v16.5h16.5v16.5h16.5v-16.5h16.5v-16.5h-16.5V297.3z"/>
		<path d="M330.3,297.3h-16.5v16.5h-16.5v16.5h16.5v16.5h16.5v-16.5h16.5v-16.5h-16.5V297.3z"/>
	</g>
</g>
</svg>
