<?xml version="1.0" encoding="utf-8"?>
<!-- Generator: Adobe Illustrator 27.9.0, SVG Export Plug-In . SVG Version: 6.00 Build 0)  -->
<svg version="1.1" id="_x33_0" xmlns="http://www.w3.org/2000/svg" xmlns:xlink="http://www.w3.org/1999/xlink" x="0px" y="0px"
	 viewBox="0 0 512 512" style="enable-background:new 0 0 512 512;" xml:space="preserve">
<g>
	<g>
		<path fill="#448AFF" d="M152.2,84.3h40.9v114.5h-40.9V84.3z"/>
	</g>
	<g>
		<g>
			<path fill="#448AFF" d="M446.6,198.8H266.7c-9,0-16.4-7.3-16.4-16.4V51.6c0-9,7.3-16.4,16.4-16.4h179.9c9,0,16.4,7.3,16.4,16.4
				v130.8C462.9,191.4,455.6,198.8,446.6,198.8z"/>
		</g>
	</g>
	<g>
		<path d="M495.6,313.2V27.1c0-13.5-11-24.5-24.5-24.5H242.2c-13.5,0-24.5,11-24.5,24.5v24.5H0l20.1,40.3L3.4,117l16.4,24.5
			L3.4,166.1l16.7,25.1L0,231.5h217.6v53c-3,1-5.9,2.2-8.8,3.6L93.1,345.9h-88v130.8h88.4l17.9,7.2c15.2,6.1,31.3,9.2,47.8,9.2
			c26.9,0,53.2-8.6,74.9-24.2v24.2c0,9,7.3,16.4,16.4,16.4h245.3c9,0,16.4-7.3,16.4-16.4V329.6C512,320.6,504.7,313.2,495.6,313.2
			L495.6,313.2z M328.6,362.3h167.1v16.4H331.8c0.1-0.8,0.3-1.6,0.3-2.4C332.1,371.2,330.8,366.5,328.6,362.3z M301.9,345.9h-2.4
			h-1.8c-5.7,0-11.2,1.6-16,4.6L250.4,370v-40.4h245.3v16.4H301.9z M299.4,305.1h-4.8l-3.7-3.7c-2.5-2.5-5.1-4.6-7.8-6.7v-6h16.4
			V305.1z M348.5,305.1v-16.4h16.4l0,16.4H348.5z M413.9,305.1v-16.4h16.4l0,16.4H413.9z M26.5,215.1L39,190l-16-23.9l16.4-24.5
			L23.1,117l16-23.9L26.5,67.9h191.2v147.2H26.5z M234,27.1c0-4.5,3.7-8.2,8.2-8.2h228.9c4.5,0,8.2,3.7,8.2,8.2v286.2h-35
			c1.4-2.4,2.3-5.2,2.3-8.2v-16.4c0-9-7.3-16.4-16.4-16.4h-16.4c-9,0-16.4,7.3-16.4,16.4v16.4c0,3,0.9,5.8,2.3,8.2h-20.9
			c1.4-2.4,2.3-5.2,2.3-8.2v-16.4c0-9-7.3-16.4-16.4-16.4h-16.4c-9,0-16.4,7.3-16.4,16.4v16.4c0,3,0.9,5.8,2.3,8.2h-20.9
			c1.4-2.4,2.3-5.2,2.3-8.2v-16.4c0-9-7.3-16.4-16.4-16.4h-16.4c-8,0-14.6,5.7-16,13.2c-8.3-3.3-17.2-5.1-26.4-5.1
			c-2.2,0-4.4,0.2-6.7,0.4L234,27.1z M86.8,460.4H21.4v-98.1h65.4V460.4z M117.4,468.7l-14.2-5.7V359.2l113-56.5
			c7.6-3.8,16-5.8,24.5-5.8c14.6,0,28.3,5.7,38.7,16l0.3,0.3h-29.3c-9,0-16.4,7.3-16.4,16.4v50.7l-4.9,3.1
			c-6.7,4.2-15.5,4.6-22.6,1.1l-9.7-4.9l-7.3,14.6l9.7,4.9c12.1,6,27.1,5.3,38.6-1.8l52.4-32.8c2.2-1.4,4.8-2.1,7.4-2.1h1.8h2.4
			c7.7,0,13.9,6.2,13.9,13.9c0,4.3-1.9,8.2-5.2,10.9l-81.4,65.1C198.1,477,154.3,483.5,117.4,468.7L117.4,468.7z M250.4,493.1v-36.9
			l70.4-56.3c1.8-1.4,3.4-3.1,4.8-4.8h170.1v98.1H250.4z"/>
		<path d="M462.9,427.7h-16.4c-9,0-16.4,7.3-16.4,16.4v16.4c0,9,7.3,16.4,16.4,16.4h16.4c9,0,16.4-7.3,16.4-16.4v-16.4
			C479.3,435,472,427.7,462.9,427.7z M446.6,460.4v-16.4h16.4l0,16.4H446.6z"/>
		<path d="M397.5,427.7h-16.4c-9,0-16.4,7.3-16.4,16.4v16.4c0,9,7.3,16.4,16.4,16.4h16.4c9,0,16.4-7.3,16.4-16.4v-16.4
			C413.9,435,406.5,427.7,397.5,427.7z M381.2,460.4v-16.4h16.4l0,16.4H381.2z"/>
		<path d="M283.1,444.1h16.4v16.4h-16.4V444.1z"/>
		<path d="M315.8,444.1h32.7v16.4h-32.7V444.1z"/>
		<polygon points="419.4,109 408.7,109 416.7,84.4 402.3,84.4 387.1,130.6 372.3,84.4 358.3,84.4 343,130.2 328.3,84.4 312.6,84.4 
			320.7,109 310.2,109 310.2,125 326,125 334,149.6 350.1,149.6 364.9,105.5 379.2,149.6 395.4,149.6 403.5,125 419.4,125 		"/>
		<path d="M283.1,264.2h16.4c9,0,16.4-7.3,16.4-16.4v-16.4c0-9-7.3-16.4-16.4-16.4h-16.4c-9,0-16.4,7.3-16.4,16.4v16.4
			C266.7,256.8,274,264.2,283.1,264.2z M283.1,231.5h16.4l0,16.4h-16.4V231.5z"/>
		<path d="M348.5,264.2h16.4c9,0,16.4-7.3,16.4-16.4v-16.4c0-9-7.3-16.4-16.4-16.4h-16.4c-9,0-16.4,7.3-16.4,16.4v16.4
			C332.1,256.8,339.4,264.2,348.5,264.2z M348.5,231.5h16.4l0,16.4h-16.4V231.5z"/>
		<path d="M413.9,264.2h16.4c9,0,16.4-7.3,16.4-16.4v-16.4c0-9-7.3-16.4-16.4-16.4h-16.4c-9,0-16.4,7.3-16.4,16.4v16.4
			C397.5,256.8,404.9,264.2,413.9,264.2z M413.9,231.5h16.4l0,16.4h-16.4V231.5z"/>
		<path d="M119.5,84.3h-16.4c-9,0-16.4,7.3-16.4,16.4v81.8c0,9,7.3,16.4,16.4,16.4h16.4c9,0,16.4-7.3,16.4-16.4v-81.8
			C135.9,91.6,128.5,84.3,119.5,84.3z M119.5,100.6V117h-16.4v-16.4H119.5z M119.5,133.4v16.4h-16.4v-16.4H119.5z M103.2,182.4
			v-16.4h16.4v16.4H103.2z"/>
		<path d="M152.2,84.3h16.4v16.4h-16.4V84.3z"/>
		<path d="M152.2,117h16.4v81.8h-16.4V117z"/>
		<path d="M54.1,84.3h16.4v16.4H54.1V84.3z"/>
		<path d="M54.1,117h16.4v16.4H54.1V117z"/>
		<path d="M54.1,149.7h16.4v16.4H54.1V149.7z"/>
		<path d="M54.1,182.4h16.4v16.4H54.1V182.4z"/>
		<path d="M184.9,84.3h16.4v114.5h-16.4V84.3z"/>
		<path d="M54.1,264.2h16.4v16.4H54.1V264.2z"/>
		<path d="M86.8,264.2h16.4v16.4H86.8V264.2z"/>
		<path d="M119.5,264.2h16.4v16.4h-16.4V264.2z"/>
		<path d="M152.2,264.2h16.4v16.4h-16.4V264.2z"/>
	</g>
</g>
</svg>
