<?xml version="1.0" encoding="utf-8"?>
<!-- Generator: Adobe Illustrator 27.9.0, SVG Export Plug-In . SVG Version: 6.00 Build 0)  -->
<svg version="1.1" baseProfile="basic" id="Capa_1" xmlns="http://www.w3.org/2000/svg" xmlns:xlink="http://www.w3.org/1999/xlink"
	 x="0px" y="0px" viewBox="0 0 496 496" xml:space="preserve">
<g>
	<circle fill="#448AFF" cx="276" cy="264" r="88"/>
	<path fill="#448AFF" d="M321.7,42.3l-40-40c-3.1-3.1-8.2-3.1-11.3,0l-40,40c-2.3,2.3-3,5.7-1.7,8.7c1.2,3,4.2,4.9,7.4,4.9h16v48
		c0,4.4,3.6,8,8,8h32c4.4,0,8-3.6,8-8V56h16c3.2,0,6.2-1.9,7.4-4.9C324.6,48.1,323.9,44.6,321.7,42.3z"/>
	<path fill="#448AFF" d="M441.7,82.3l-40-40c-3.1-3.1-8.2-3.1-11.3,0l-40,40c-2.3,2.3-3,5.7-1.7,8.7c1.2,3,4.2,4.9,7.4,4.9h16v24
		c0,4.4,3.6,8,8,8h32c4.4,0,8-3.6,8-8V96h16c3.2,0,6.2-1.9,7.4-4.9C444.6,88.1,443.9,84.6,441.7,82.3z"/>
	<path fill="#448AFF" d="M201.7,82.3l-40-40c-3.1-3.1-8.2-3.1-11.3,0l-40,40c-2.3,2.3-3,5.7-1.7,8.7c1.2,3,4.2,4.9,7.4,4.9h16v24
		c0,4.4,3.6,8,8,8h32c4.4,0,8-3.6,8-8V96h16c3.2,0,6.2-1.9,7.4-4.9C204.6,88.1,203.9,84.6,201.7,82.3z"/>
</g>
<path d="M151.3,384H476V144H76v78.4l-16.9,21.7c-4.4,5.7-7.2,12.5-8.1,19.6L44.3,317c-0.2,1.6-0.3,3.3-0.3,5v68c0,1.7,0.1,3.3,0.3,5
	l6.6,53H20v48h128v-48h-24v-36.7L151.3,384z M92,160h368v208H167.3l13.4-13.4c4.6-4.6,7.3-11.1,7.3-17.7c0-13.8-11.2-25-25-25
	c-6.7,0-12.9,2.6-17.7,7.3l-27.2,27.2l-7.7-15.3c-1.7-3.3-2.5-7-2.5-10.7v-46.2c0-5,1.5-9.9,4.5-14l31-43.5c2.9-4.1,4.5-9,4.5-14
	V200c0-13.3-10.8-24.1-24.1-24.1c-7.5,0-14.4,3.4-19,9.3L92,201.8V160z M132,480H36v-16h96V480z M67.1,448l-6.9-55
	c-0.1-1-0.2-2-0.2-3v-68c0-1,0.1-2,0.2-3l6.7-53.3c0.5-4.3,2.2-8.3,4.9-11.8l45.8-58.8c1.6-2,3.9-3.1,6.4-3.1c4.5,0,8.1,3.6,8.1,8.1
	v2.7c0,1.7-0.5,3.3-1.5,4.7l-31,43.5c-4.9,6.8-7.5,14.8-7.5,23.2v46.2c0,6.2,1.5,12.4,4.2,17.9l6.8,13.7H100v16h19.3l37.4-37.4
	c1.7-1.7,3.9-2.6,6.3-2.6c4.9,0,9,4,9,9c0,2.4-1,4.7-2.6,6.3L108,404.7V448H67.1L67.1,448z"/>
<polygon points="428,216 444,216 444,176 404,176 404,192 428,192 "/>
<polygon points="444,312 428,312 428,336 404,336 404,352 444,352 "/>
<polygon points="330.6,256 319.9,256 327.9,231.5 313.5,231.5 298.3,277.6 283.5,231.5 269.5,231.5 254.2,277.2 239.5,231.5 
	223.8,231.5 231.9,256 221.4,256 221.4,272 237.2,272 245.2,296.6 261.3,296.6 276.1,252.5 290.4,296.6 306.6,296.6 314.7,272 
	330.6,272 "/>
</svg>
