<?xml version="1.0" encoding="utf-8"?>
<!-- Generator: Adobe Illustrator 27.9.0, SVG Export Plug-In . SVG Version: 6.00 Build 0)  -->
<svg version="1.1" id="Layer_1" xmlns="http://www.w3.org/2000/svg" xmlns:xlink="http://www.w3.org/1999/xlink" x="0px" y="0px"
	 viewBox="0 0 496 496" style="enable-background:new 0 0 496 496;" xml:space="preserve">
<path fill="#448AFF" d="M232,335.7h224v96H232V335.7z"/>
<path d="M496,492.4l-32-15.4l-24,11.5l-24-11.5l-24,11.5l-24-11.5l-24,11.5l-24-11.5l-24,11.5l-24-11.5l-24,11.5L224,477.1l-32,15.4
	V327.7h16V467l16-7.7l24,11.5l24-11.5l24,11.5l24-11.5l24,11.5l24-11.5l24,11.5l24-11.5l24,11.5l24-11.5l16,7.7V28.4l-16,7.7
	l-24-11.5l-24,11.5l-24-11.5l-24,11.5l-24-11.5l-24,11.5l-24-11.5l-24,11.5l-24-11.5l-24,11.5l-16-7.7v139.3h-16V3l32,15.4
	l24.1-11.5l24,11.5l24-11.5l24,11.5l24-11.5l24,11.5l24-11.5l24,11.5l24-11.5l24,11.5L496,3V492.4z"/>
<path d="M224,327.7v112h240v-112H224z M384,407.7v16h-16v-80h16v48h16v-48h16v80h-16v-16H384z M336,343.7h16v80h-16V343.7z
	 M320,423.7h-16v-80h16V423.7z M240,343.7h16v48h16v-48h16v80h-16v-16h-16v16h-16V343.7z M448,423.7h-16v-80h16V423.7z"/>
<path d="M448,55.7h16v16h-16V55.7z"/>
<path d="M416,55.7h16v16h-16V55.7z"/>
<path d="M384,55.7h16v16h-16V55.7z"/>
<path d="M224,87.7h240v16H224V87.7z"/>
<path d="M224,119.7h240v16H224V119.7z"/>
<path d="M224,176.5h16v16h-16V176.5z"/>
<path d="M256,176.5h16v16h-16V176.5z"/>
<path d="M288,176.5h16v16h-16V176.5z"/>
<path d="M320,175.7h144v16H320V175.7z"/>
<path d="M224,207.7h240v16H224V207.7z"/>
<path d="M352,239.7h112v16H352V239.7z"/>
<path d="M224,239.7h112v16H224V239.7z"/>
<path d="M224,271.7h240v16H224V271.7z"/>
<path fill="#448AFF" d="M120,127.7c-66.2,0-120,53.8-120,120s53.8,120,120,120s120-53.8,120-120S186.2,127.7,120,127.7z"/>
<g>
	<path d="M153.2,232.2c0,14.5-10.9,23.5-28.3,23.5h-13.1v32.9H96.8v-80.1H125C142.4,208.4,153.2,217.6,153.2,232.2z M138,232.2
		c0-7.2-4.7-11.3-13.9-11.3h-12.3v22.6h12.3C133.4,243.4,138,239.2,138,232.2z"/>
</g>
<path d="M120,335.7c-48.5,0-88-39.5-88-88c0-20.2,7.1-40,19.9-55.7l12.4,10.1C53.8,215,48,231.2,48,247.7c0,39.7,32.3,72,72,72
	c16.6,0,32.7-5.8,45.6-16.3l10.1,12.4C160,328.7,140.2,335.7,120,335.7z"/>
<path d="M188.1,303.4l-12.4-10.1c10.5-12.8,16.3-29,16.3-45.6c0-39.7-32.3-72-72-72c-16.6,0-32.7,5.8-45.6,16.3l-10.1-12.4
	c15.7-12.8,35.4-19.9,55.7-19.9c48.5,0,88,39.5,88,88C208,268,200.9,287.7,188.1,303.4z"/>
</svg>
