<?xml version="1.0" encoding="utf-8"?>
<!-- Generator: Adobe Illustrator 27.9.0, SVG Export Plug-In . SVG Version: 6.00 Build 0)  -->
<svg version="1.1" baseProfile="basic" id="Capa_1" xmlns="http://www.w3.org/2000/svg" xmlns:xlink="http://www.w3.org/1999/xlink"
	 x="0px" y="0px" viewBox="0 0 496 496" xml:space="preserve">
<path fill="#448AFF" d="M350,207.5c-3.9-4.9-6-10.9-6-17.1v-3c0-10.5,6-19.5,14.7-24.1C341.4,123.7,302,96,256,96
	c-28.8,0-55,11-74.9,28.9c1.8,3.3,2.9,7.1,2.9,11.1c0,13.3-10.7,24-24,24c13.3,0,24,10.7,24,24s-10.7,24-24,24c13.3,0,24,10.7,24,24
	s-10.7,24-24,24c13.3,0,24,10.7,24,24c0,4-1.1,7.8-2.9,11.1C201,309,227.2,320,256,320c53.5,0,98.1-37.5,109.3-87.6
	C361.2,223.5,356.1,215.2,350,207.5z"/>
<g>
	<path d="M192,280c0-9.6-4.3-18.1-11.1-24c6.7-5.9,11.1-14.4,11.1-24s-4.3-18.1-11.1-24c6.7-5.9,11.1-14.4,11.1-24
		s-4.3-18.1-11.1-24c6.7-5.9,11.1-14.4,11.1-24c0-17.6-14.4-32-32-32H96c-17.6,0-32,14.4-32,32c0,9.6,4.3,18.1,11.1,24
		c-6.7,5.9-11.1,14.4-11.1,24s4.3,18.1,11.1,24c-6.7,5.9-11.1,14.4-11.1,24s4.3,18.1,11.1,24c-6.7,5.9-11.1,14.4-11.1,24
		c0,17.6,14.4,32,32,32h64C177.6,312,192,297.6,192,280z M80,136c0-8.8,7.2-16,16-16h64c8.8,0,16,7.2,16,16s-7.2,16-16,16H96
		C87.2,152,80,144.8,80,136z M80,184c0-8.8,7.2-16,16-16h64c8.8,0,16,7.2,16,16s-7.2,16-16,16H96C87.2,200,80,192.8,80,184z M80,232
		c0-8.8,7.2-16,16-16h64c8.8,0,16,7.2,16,16s-7.2,16-16,16H96C87.2,248,80,240.8,80,232z M80,280c0-8.8,7.2-16,16-16h64
		c8.8,0,16,7.2,16,16s-7.2,16-16,16H96C87.2,296,80,288.8,80,280z"/>
	<path d="M398.3,164.4c-6.7-7.9-16.5-12.4-26.9-12.4c-19.5,0-35.4,15.9-35.4,35.4v3c0,8,2.8,15.9,7.8,22.1
		c15.6,19.5,24.2,44.1,24.2,69.1V312h16v-30.4c0-28.6-9.9-56.7-27.8-79.1c-2.7-3.4-4.2-7.7-4.2-12.1v-3c0-10.7,8.7-19.4,19.4-19.4
		c5.7,0,11,2.5,14.7,6.8c24.4,28.5,37.9,64.8,37.9,102.4v60.2c0,13.6-3.2,27.2-9.3,39.4L392,422.1V496h16v-70.1l21-42
		c7.2-14.4,11-30.4,11-46.5v-60.2C440,235.8,425.2,195.8,398.3,164.4z"/>
	<path d="M368,352H144v-24h-16v64c0,22.1,17.9,40,40,40h16v64h16v-64h144c22.1,0,40-17.9,40-40v-64h-16V352z M344,416H168
		c-13.2,0-24-10.8-24-24v-24h224v24C368,405.2,357.2,416,344,416z"/>
	<path d="M144,64h224v72h16V40c0-22.1-17.9-40-40-40H168c-22.1,0-40,17.9-40,40v48h16V64z M168,16h176c13.2,0,24,10.8,24,24v8H144
		v-8C144,26.8,154.8,16,168,16z"/>
	<rect x="216" y="384" width="80" height="16"/>
</g>
<g>
	<rect x="416" y="48" fill="#E56565" width="16" height="16"/>
	<rect x="416" y="80" fill="#E56565" width="16" height="16"/>
	<rect x="432" y="64" fill="#E56565" width="16" height="16"/>
	<rect x="400" y="64" fill="#E56565" width="16" height="16"/>
	<rect x="16" y="368" fill="#E56565" width="16" height="16"/>
	<rect x="16" y="400" fill="#E56565" width="16" height="16"/>
	<rect x="32" y="384" fill="#E56565" width="16" height="16"/>
	<rect y="384" fill="#E56565" width="16" height="16"/>
	<rect x="464" y="128" fill="#E56565" width="16" height="16"/>
	<rect x="464" y="160" fill="#E56565" width="16" height="16"/>
	<rect x="480" y="144" fill="#E56565" width="16" height="16"/>
	<rect x="448" y="144" fill="#E56565" width="16" height="16"/>
	<rect x="80" y="16" fill="#E56565" width="16" height="16"/>
	<rect x="80" y="48" fill="#E56565" width="16" height="16"/>
	<rect x="96" y="32" fill="#E56565" width="16" height="16"/>
	<rect x="64" y="32" fill="#E56565" width="16" height="16"/>
	<rect x="16" y="72" fill="#E56565" width="16" height="16"/>
	<rect x="16" y="104" fill="#E56565" width="16" height="16"/>
	<rect x="32" y="88" fill="#E56565" width="16" height="16"/>
	<rect y="88" fill="#E56565" width="16" height="16"/>
</g>
<g>
	<path d="M290.9,191.6c0,14.5-10.9,23.5-28.3,23.5h-13.1V248h-15.1v-80.1h28.2C280,167.9,290.9,177,290.9,191.6z M275.6,191.6
		c0-7.2-4.7-11.3-13.9-11.3h-12.3v22.6h12.3C271,202.8,275.6,198.6,275.6,191.6z"/>
</g>
</svg>
