<svg enable-background="new 0 0 512 512" height="512" viewBox="0 0 512 512" width="512"
    xmlns="http://www.w3.org/2000/svg">
    <g id="_x30_6_Mobile_App" fill="#448AFF">
        <g>
            <g>
                <path
                    d="m362.916.009h-213.832c-18.917 0-34.308 15.391-34.308 34.308v443.365c0 18.917 15.391 34.308 34.308 34.308h213.832c18.917 0 34.308-15.391 34.308-34.308v-443.365c0-18.916-15.391-34.308-34.308-34.308zm-213.832 15.835h213.832c10.185 0 18.474 8.288 18.474 18.474v387.416h-250.78v-387.417c0-10.185 8.289-18.473 18.474-18.473zm92.321 447.06c0-8.076 6.492-14.621 14.621-14.621 8.076 0 14.568 6.545 14.568 14.621 0 8.075-6.492 14.62-14.568 14.62-8.129 0-14.621-6.545-14.621-14.62z" />
            </g>
            <g>
                <path
                    d="m292.367 58.069h-72.732c-4.374 0-7.917-3.544-7.917-7.917s3.544-7.917 7.917-7.917h72.732c4.374 0 7.917 3.544 7.917 7.917s-3.543 7.917-7.917 7.917z" />
            </g>
            <path
                d="m256 153.815c-37.686 0-68.352 30.666-68.352 68.352s30.666 68.352 68.352 68.352 68.352-30.666 68.352-68.352-30.666-68.352-68.352-68.352zm27.566 58.259-31.385 31.385c-3.093 3.093-8.103 3.093-11.195 0l-12.551-12.549c-3.093-3.09-3.093-8.103 0-11.195 3.088-3.093 8.103-3.093 11.195 0l6.953 6.951 25.788-25.788c3.093-3.093 8.103-3.093 11.195 0 3.093 3.09 3.093 8.106 0 11.196z" />
        </g>
    </g>
</svg>