<svg xmlns="http://www.w3.org/2000/svg" width="24" height="24" fill="none" viewBox="0 0 24 24">
  <g clip-path="url(#a)">
    <path fill="#374957" d="M17 7.964V7a3 3 0 0 0-2-2.816V2h4a1 1 0 0 0 0-2h-7a3 3 0 0 0-3 3v1.184A3 3 0 0 0 7 7v.964A8.943 8.943 0 0 0 2 16v2a6.006 6.006 0 0 0 6 6h8a6.006 6.006 0 0 0 6-6v-2a8.944 8.944 0 0 0-5-8.036ZM11 3a1 1 0 0 1 1-1h1v2h-2V3ZM9 7a1 1 0 0 1 1-1h4a1 1 0 0 1 1 1v1H9V7Zm11 11a4 4 0 0 1-4 4H8a4 4 0 0 1-4-4v-2a6.968 6.968 0 0 1 3.394-6h9.212A6.969 6.969 0 0 1 20 16v2Zm-5-4H9a3 3 0 0 0 0 6h6a3 3 0 0 0 0-6Zm0 4H9a1 1 0 0 1 0-2h6a1 1 0 0 1 0 2Z"/>
  </g>
  <defs>
    <clipPath id="a">
      <path fill="#fff" d="M0 0h24v24H0z"/>
    </clipPath>
  </defs>
</svg>
