<svg xmlns="http://www.w3.org/2000/svg" width="24" height="24" fill="none" viewBox="0 0 24 24">
  <g clip-path="url(#a)">
    <path fill="#374957" d="M12 24a5.42 5.42 0 0 1-3.808-1.552L4.25 18.805A11 11 0 1 1 19.777 3.222a11 11 0 0 1 0 15.556l-3.991 3.69A5.39 5.39 0 0 1 12 24Zm0-22a9 9 0 0 0-6.364 15.364L9.57 21a3.516 3.516 0 0 0 4.838.02l3.984-3.683a9 9 0 0 0-.03-12.7A8.94 8.94 0 0 0 12 2Zm0 16a7 7 0 1 1 7-7 7.008 7.008 0 0 1-7 7Zm0-12a5 5 0 1 0 0 10 5 5 0 0 0 0-10Zm1.707 6.707a1 1 0 0 0 0-1.414L13 10.586V9a1 1 0 0 0-2 0v2a1 1 0 0 0 .293.707l1 1a1 1 0 0 0 1.414 0Z"/>
  </g>
  <defs>
    <clipPath id="a">
      <path fill="#fff" d="M0 0h24v24H0z"/>
    </clipPath>
  </defs>
</svg>
