<svg xmlns="http://www.w3.org/2000/svg" width="24" height="24" fill="none" viewBox="0 0 24 24">
  <g clip-path="url(#a)">
    <path fill="#374957" d="M23 22H3a1 1 0 0 1-1-1V1a1 1 0 0 0-2 0v20a3 3 0 0 0 3 3h20a1 1 0 0 0 0-2Z"/>
    <path fill="#374957" d="M15 20a1 1 0 0 0 1-1v-7a1 1 0 0 0-2 0v7a1 1 0 0 0 1 1Zm-8 0a1 1 0 0 0 1-1v-7a1 1 0 1 0-2 0v7a1 1 0 0 0 1 1Zm12 0a1 1 0 0 0 1-1V7a1 1 0 1 0-2 0v12a1 1 0 0 0 1 1Zm-8 0a1 1 0 0 0 1-1V7a1 1 0 0 0-2 0v12a1 1 0 0 0 1 1Z"/>
  </g>
  <defs>
    <clipPath id="a">
      <path fill="#fff" d="M0 0h24v24H0z"/>
    </clipPath>
  </defs>
</svg>
