<svg xmlns="http://www.w3.org/2000/svg" width="24" height="24" fill="none" viewBox="0 0 24 24">
  <g clip-path="url(#a)">
    <path fill="#374957" d="M19 20H5a5.006 5.006 0 0 1-5-5V9a5.006 5.006 0 0 1 5-5h14a5.006 5.006 0 0 1 5 5v6a5.006 5.006 0 0 1-5 5ZM5 6a3 3 0 0 0-3 3v6a3 3 0 0 0 3 3h14a3 3 0 0 0 3-3V9a3 3 0 0 0-3-3H5Zm7 10a4 4 0 1 1 0-8 4 4 0 0 1 0 8Zm0-6a2 2 0 1 0 0 4 2 2 0 0 0 0-4ZM5 8a1 1 0 1 0 0 2 1 1 0 0 0 0-2Zm13 1a1 1 0 1 0 2 0 1 1 0 0 0-2 0ZM5 14a1 1 0 1 0 0 2.002A1 1 0 0 0 5 14Zm13 1a1 1 0 1 0 2 0 1 1 0 0 0-2 0Z"/>
  </g>
  <defs>
    <clipPath id="a">
      <path fill="#fff" d="M0 0h24v24H0z"/>
    </clipPath>
  </defs>
</svg>
