<svg xmlns="http://www.w3.org/2000/svg" width="24" height="24" fill="none" viewBox="0 0 24 24">
  <g clip-path="url(#a)">
    <path fill="#374957" d="M23.967 10.416a12.04 12.04 0 1 0-13.55 13.55c.162.022.325.032.489.032a3.993 3.993 0 0 0 2.805-1.184l9.1-9.1a3.962 3.962 0 0 0 1.156-3.298Zm-21.9.474a10.034 10.034 0 0 1 19.8-.884 12.006 12.006 0 0 0-11.86 11.852A9.988 9.988 0 0 1 2.063 10.89h.004ZM12.3 21.4c-.086.082-.18.157-.278.224a10 10 0 0 1 9.606-9.607c-.067.1-.141.193-.224.28L12.3 21.398Z"/>
  </g>
  <defs>
    <clipPath id="a">
      <path fill="#fff" d="M0 0h24v24H0z"/>
    </clipPath>
  </defs>
</svg>
