<svg xmlns="http://www.w3.org/2000/svg" width="24" height="24" fill="none" viewBox="0 0 24 24">
  <g clip-path="url(#a)">
    <path fill="#374957" d="M12 0a12 12 0 1 0 12 12A12.013 12.013 0 0 0 12 0Zm9.573 9.12-8.908 1.732a4.945 4.945 0 0 1-.368-.679l-3.34-7.7A9.987 9.987 0 0 1 21.573 9.12ZM12 22A9.995 9.995 0 0 1 7.124 3.278l3.338 7.691a7.011 7.011 0 0 0 2.167 2.772l6.653 5.092A9.965 9.965 0 0 1 12 22Zm8.5-4.755-6.125-4.688 7.581-1.473c.027.3.046.607.046.916a9.925 9.925 0 0 1-1.502 5.245Z"/>
  </g>
  <defs>
    <clipPath id="a">
      <path fill="#fff" d="M0 0h24v24H0z"/>
    </clipPath>
  </defs>
</svg>
