<svg xmlns="http://www.w3.org/2000/svg" width="24" height="24" fill="none" viewBox="0 0 24 24">
  <g clip-path="url(#a)">
    <path fill="#374957" d="M21 15a3 3 0 0 0-3 3v3a3 3 0 0 0 6 0v-3a3 3 0 0 0-3-3Zm1 6a1 1 0 0 1-2 0v-3a1 1 0 0 1 2 0v3Zm-9-9V7a1 1 0 1 0-2 0v4H8a1 1 0 0 0 0 2h4a1 1 0 0 0 1-1Z"/>
    <path fill="#374957" d="M23 2a1 1 0 0 0-1 1v2.374A12.001 12.001 0 1 0 7.636 23.182a1 1 0 1 0 .728-1.864A10 10 0 1 1 20.636 7H18a1 1 0 1 0 0 2h3a3 3 0 0 0 3-3V3a1 1 0 0 0-1-1Z"/>
    <path fill="#374957" d="M15.383 15.075a1 1 0 0 0-1.09.218l-3 3a1 1 0 0 0 1.414 1.413L14 18.413V23a1 1 0 0 0 2 0v-7a1 1 0 0 0-.617-.925Z"/>
  </g>
  <defs>
    <clipPath id="a">
      <path fill="#fff" d="M0 0h24v24H0z"/>
    </clipPath>
  </defs>
</svg>
