<svg xmlns="http://www.w3.org/2000/svg" width="24" height="24" fill="none" viewBox="0 0 24 24">
  <g clip-path="url(#a)">
    <path fill="#374957" d="M19 6h-6V3a1 1 0 0 0-2 0v3H5a5.006 5.006 0 0 0-5 5v4a5.006 5.006 0 0 0 5 5h14a5.006 5.006 0 0 0 5-5v-4a5.006 5.006 0 0 0-5-5Zm3 9a3 3 0 0 1-3 3H5a3 3 0 0 1-3-3v-4a3 3 0 0 1 3-3h14a3 3 0 0 1 3 3v4Z"/>
    <path fill="#374957" d="M15 14H9a1 1 0 0 0 0 2h6a1 1 0 1 0 0-2Zm-5-2h1a1 1 0 1 0 0-2h-1a1 1 0 0 0 0 2Zm9-2h-4a1 1 0 0 0 0 2h4a1 1 0 1 0 0-2ZM6 10H5a1 1 0 0 0 0 2h1a1 1 0 1 0 0-2Zm-1 6a1 1 0 1 0 0-2 1 1 0 0 0 0 2Zm14 0a1 1 0 1 0 0-2 1 1 0 0 0 0 2Z"/>
  </g>
  <defs>
    <clipPath id="a">
      <path fill="#fff" d="M0 0h24v24H0z"/>
    </clipPath>
  </defs>
</svg>
