<svg xmlns="http://www.w3.org/2000/svg" width="24" height="24" fill="none" viewBox="0 0 24 24">
  <g clip-path="url(#a)">
    <path fill="#374957" d="M4 6a2.982 2.982 0 0 1-2.122-.879L.334 3.747a1 1 0 0 1 1.332-1.494L3.25 3.667a1 1 0 0 0 1.456.04L8.31.277a1 1 0 0 1 1.378 1.447l-3.59 3.414A2.964 2.964 0 0 1 4 6Zm20-2a1 1 0 0 0-1-1H13a1 1 0 1 0 0 2h10a1 1 0 0 0 1-1ZM6.1 13.138l3.589-3.414A1 1 0 1 0 8.31 8.276l-3.6 3.431a1.023 1.023 0 0 1-1.414 0l-1.59-1.585a1 1 0 0 0-1.414 1.414l1.585 1.585a3 3 0 0 0 4.226.017H6.1ZM24 12a1 1 0 0 0-1-1H13a1 1 0 1 0 0 2h10a1 1 0 0 0 1-1ZM6.1 21.138l3.585-3.414a1 1 0 1 0-1.378-1.448l-3.6 3.431a1.002 1.002 0 0 1-1.456-.04l-1.585-1.414a1 1 0 1 0-1.332 1.494l1.544 1.374a3 3 0 0 0 4.226.017H6.1ZM24 20a1 1 0 0 0-1-1H13a1 1 0 1 0 0 2h10a1 1 0 0 0 1-1Z"/>
  </g>
  <defs>
    <clipPath id="a">
      <path fill="#fff" d="M0 0h24v24H0z"/>
    </clipPath>
  </defs>
</svg>
