<svg xmlns="http://www.w3.org/2000/svg" width="24" height="24" fill="none" viewBox="0 0 24 24">
  <g clip-path="url(#a)">
    <path fill="#374957" d="M13 3V1a1 1 0 1 0-2 0v2a7.008 7.008 0 0 0-7 7v6a8 8 0 0 0 16 0v-6a7.008 7.008 0 0 0-7-7Zm5 13a6 6 0 1 1-12 0v-6a5.006 5.006 0 0 1 5-5h2a5.006 5.006 0 0 1 5 5v6Z"/>
    <path fill="#374957" d="M12 7a1 1 0 0 0-1 1v2a1 1 0 0 0 2 0V8a1 1 0 0 0-1-1Z"/>
  </g>
  <defs>
    <clipPath id="a">
      <path fill="#fff" d="M0 0h24v24H0z"/>
    </clipPath>
  </defs>
</svg>
