<svg xmlns="http://www.w3.org/2000/svg" width="24" height="24" fill="none" viewBox="0 0 24 24">
  <g clip-path="url(#a)">
    <path fill="#374957" d="M7.515 5.008a.744.744 0 0 0-1.382.013l-1.977 5.187a.625.625 0 0 0 1.168.448l.339-.889h2.31l.336.887a.625.625 0 0 0 1.17-.44L7.515 5.007ZM6.139 8.514l.684-1.8.679 1.8H6.139Zm5.093-3.97a.626.626 0 0 0-.625.625v5.262a.625.625 0 0 0 1.25 0V5.17a.625.625 0 0 0-.625-.625Z"/>
    <path fill="#374957" d="M19 0H5a5.006 5.006 0 0 0-5 5v14a5.006 5.006 0 0 0 5 5h11.343a4.967 4.967 0 0 0 3.536-1.464l2.656-2.658A4.967 4.967 0 0 0 24 16.343V5a5.006 5.006 0 0 0-5-5ZM2 19V5a3 3 0 0 1 3-3h14a3 3 0 0 1 3 3v10h-4a3 3 0 0 0-3 3v4H5a3 3 0 0 1-3-3Zm16.465 2.122a2.97 2.97 0 0 1-1.465.8V18a1 1 0 0 1 1-1h3.925a3.016 3.016 0 0 1-.8 1.464l-2.66 2.658Z"/>
  </g>
  <defs>
    <clipPath id="a">
      <path fill="#fff" d="M0 0h24v24H0z"/>
    </clipPath>
  </defs>
</svg>
