<svg xmlns="http://www.w3.org/2000/svg" width="24" height="24" fill="none" viewBox="0 0 24 24">
  <g clip-path="url(#a)">
    <path fill="#374957" d="M3 7V3a2 2 0 0 1 2-2h4a1 1 0 0 1 0 2H6.44l5.905 5.926a.221.221 0 0 0 .313.001l6.884-6.884a1 1 0 0 1 1.414 1.414l-6.884 6.884a2.2 2.2 0 0 1-1.57.65 2.206 2.206 0 0 1-1.572-.653L5 4.39V7a1 1 0 0 1-2 0Zm21 13.107-.085 1.264a2.707 2.707 0 0 1-2.715 2.651c-.044 0-2.522-.322-2.522-.322a2.726 2.726 0 0 1-2.649-2.654l-.155-1.292A11.11 11.11 0 0 0 12 19a10.682 10.682 0 0 0-3.863.744l-.157 1.3A2.726 2.726 0 0 1 5.326 23.7s-2.478.322-2.522.322A2.724 2.724 0 0 1 .084 21.3L0 20.176A5.249 5.249 0 0 1 1.556 16.4c4.491-4.488 16.4-4.487 20.887 0A5.216 5.216 0 0 1 24 20.107Zm-2-.07a3.2 3.2 0 0 0-.974-2.22c-3.982-3.985-14.627-3.429-18.057 0A3.225 3.225 0 0 0 2 20.105l.081 1.127a.747.747 0 0 0 .671.79s2.458-.32 2.5-.32a.724.724 0 0 0 .722-.723c0-.04.24-2.05.24-2.05a1 1 0 0 1 .584-.794A12.532 12.532 0 0 1 11.942 17h.063a13.36 13.36 0 0 1 5.18 1.128 1 1 0 0 1 .6.8s.24 2.01.24 2.05a.724.724 0 0 0 .721.722c.044 0 2.5.32 2.5.32a.722.722 0 0 0 .67-.719L22 20.037Z"/>
  </g>
  <defs>
    <clipPath id="a">
      <path fill="#fff" d="M0 0h24v24H0z"/>
    </clipPath>
  </defs>
</svg>
