<svg xmlns="http://www.w3.org/2000/svg" width="24" height="24" fill="none" viewBox="0 0 24 24">
  <g clip-path="url(#a)">
    <path fill="#374957" d="M16 16a1 1 0 1 1-2 0 1 1 0 0 1 2 0Zm3-1a1 1 0 1 0 0 2 1 1 0 0 0 0-2Zm-2-3a1 1 0 1 0 0 2 1 1 0 0 0 0-2Zm7 4a7.99 7.99 0 0 1-13.194 6.073A4.005 4.005 0 0 1 7.39 24H4.61a4 4 0 0 1-3.624-2.3A11.08 11.08 0 0 1 0 17a11.78 11.78 0 0 1 1.736-5.463A8.441 8.441 0 0 0 3 8c-.114-.741-.3-1.47-.554-2.175A7.168 7.168 0 0 1 2 4a4 4 0 0 1 8 0 7.17 7.17 0 0 1-.446 1.825C9.3 6.53 9.114 7.259 9 8a6.7 6.7 0 0 0 .907 2.839A7.987 7.987 0 0 1 24 16ZM4 4c.016.15.211.772.354 1.226.338.892.555 1.825.646 2.774h2c.09-.95.308-1.882.646-2.774A12 12 0 0 0 8 3.973 2 2 0 0 0 4 4Zm5.2 16.856A9.084 9.084 0 0 0 10 17a10.1 10.1 0 0 0-1.512-4.542A18.394 18.394 0 0 1 7.368 10H4.632a18.393 18.393 0 0 1-1.12 2.458A10.1 10.1 0 0 0 2 17a9.092 9.092 0 0 0 .8 3.857A2 2 0 0 0 4.61 22h2.78a2 2 0 0 0 1.81-1.144ZM22 16a5.992 5.992 0 0 0-11.084-3.163A9.657 9.657 0 0 1 12 17c0 1.033-.137 2.062-.408 3.059A5.993 5.993 0 0 0 22 16Z"/>
  </g>
  <defs>
    <clipPath id="a">
      <path fill="#fff" d="M0 0h24v24H0z"/>
    </clipPath>
  </defs>
</svg>
