<svg xmlns="http://www.w3.org/2000/svg" width="24" height="24" fill="none" viewBox="0 0 24 24">
  <path fill="#374957" d="M16.9 4.02a5.008 5.008 0 0 0-9.8 0 5.506 5.506 0 0 0-4.325 8.257L9.02 22.333a3.52 3.52 0 0 0 5.96 0l6.261-10.08A5.507 5.507 0 0 0 16.9 4.02ZM20 9.5c-.002.193-.02.384-.056.573a34.654 34.654 0 0 1-6.624.884C11.33 5.647 19.593 3.842 20 9.5ZM12 2a3 3 0 0 1 2.893 2.25A5.52 5.52 0 0 0 12 6.34a5.52 5.52 0 0 0-2.893-2.09A3 3 0 0 1 12 2ZM7.5 6a3.517 3.517 0 0 1 3.181 4.955 35.959 35.959 0 0 1-6.624-.88A3.5 3.5 0 0 1 7.5 6Zm5.778 15.286a1.54 1.54 0 0 1-2.558 0l-5.55-8.94c4.515.826 9.142.826 13.656 0l-5.548 8.94Z"/>
</svg>
