<svg xmlns="http://www.w3.org/2000/svg" width="24" height="24" fill="none" viewBox="0 0 24 24">
  <g clip-path="url(#a)">
    <path fill="#374957" d="M19 0H5a5.006 5.006 0 0 0-5 5v14a5.006 5.006 0 0 0 5 5h14a5.006 5.006 0 0 0 5-5V5a5.006 5.006 0 0 0-5-5Zm-3 11h-3V8h3v3Zm2-3h4v3h-4V8Zm-5-2V2h3v4h-3Zm-2 0H8V2h3v4Zm0 2v3H8V8h3Zm-5 3H2V8h4v3Zm-4 2h4v3H2v-3Zm6 0h3v3H8v-3Zm3 5v4H8v-4h3Zm2 0h3v4h-3v-4Zm0-2v-3h3v3h-3Zm5-3h4v3h-4v-3Zm4-8v1h-4V2h1a3 3 0 0 1 3 3ZM5 2h1v4H2V5a3 3 0 0 1 3-3ZM2 19v-1h4v4H5a3 3 0 0 1-3-3Zm17 3h-1v-4h4v1a3 3 0 0 1-3 3Z"/>
  </g>
  <defs>
    <clipPath id="a">
      <path fill="#fff" d="M0 0h24v24H0z"/>
    </clipPath>
  </defs>
</svg>
