<svg xmlns="http://www.w3.org/2000/svg" width="24" height="24" fill="none" viewBox="0 0 24 24">
  <g clip-path="url(#a)">
    <path fill="#374957" d="M11.83 24a.999.999 0 0 1-.71-1.71l8.17-8.17a3 3 0 0 0 0-4.24l-8.17-8.17A1.004 1.004 0 0 1 12.54.29l8.17 8.17a5 5 0 0 1 0 7.08l-8.17 8.17a1 1 0 0 1-.71.29Z"/>
    <path fill="#374957" d="M1.83 24a.999.999 0 0 1-.71-1.71l9.59-9.58a.998.998 0 0 0 0-1.42L1.12 1.71A1.004 1.004 0 1 1 2.54.29l9.58 9.59a3 3 0 0 1 0 4.24l-9.58 9.59a1 1 0 0 1-.71.29Z"/>
  </g>
  <defs>
    <clipPath id="a">
      <path fill="#fff" d="M0 0h24v24H0z"/>
    </clipPath>
  </defs>
</svg>
