<svg xmlns="http://www.w3.org/2000/svg" width="24" height="24" fill="none" viewBox="0 0 24 24">
  <g clip-path="url(#a)">
    <path fill="#374957" d="M15 0H9a5.006 5.006 0 0 0-5 5v14a5.006 5.006 0 0 0 5 5h6a5.006 5.006 0 0 0 5-5V5a5.006 5.006 0 0 0-5-5ZM9 2h6a3 3 0 0 1 3 3v11H6V5a3 3 0 0 1 3-3Zm6 20H9a3 3 0 0 1-3-3v-1h12v1a3 3 0 0 1-3 3Z"/>
    <path fill="#374957" d="M12 21a1 1 0 1 0 0-2 1 1 0 0 0 0 2Z"/>
  </g>
  <defs>
    <clipPath id="a">
      <path fill="#fff" d="M0 0h24v24H0z"/>
    </clipPath>
  </defs>
</svg>
