<svg xmlns="http://www.w3.org/2000/svg" width="24" height="24" fill="none" viewBox="0 0 24 24">
  <g clip-path="url(#a)">
    <path fill="#374957" d="M20 11h-1V5a4 4 0 0 0-4-4H4a4 4 0 0 0-4 4v11a2.994 2.994 0 0 0 2.071 2.837A3.4 3.4 0 0 0 2 19.5a3.5 3.5 0 0 0 7 0 3.465 3.465 0 0 0-.041-.5h6.082a3.36 3.36 0 0 0-.041.5 3.5 3.5 0 1 0 7 0 3.4 3.4 0 0 0-.071-.662A2.994 2.994 0 0 0 24 16v-1a4 4 0 0 0-4-4ZM2 11V7h2v4H2Zm4-4h2v4H6V7Zm4 0h3v10h-3V7Zm5 0h2v4h-2V7ZM4 3h11a2 2 0 0 1 2 2H2a2 2 0 0 1 2-2ZM2 13h6v4H3a1 1 0 0 1-1-1v-3Zm5 6.5a1.5 1.5 0 0 1-3 0c0-.172.032-.341.093-.5h2.814c.061.159.093.328.093.5ZM18.5 21a1.5 1.5 0 0 1-1.5-1.5c0-.172.032-.341.093-.5h2.814c.061.159.093.328.093.5a1.5 1.5 0 0 1-1.5 1.5Zm3.5-5a1 1 0 0 1-1 1h-6v-4h5a2 2 0 0 1 2 2v1Z"/>
  </g>
  <defs>
    <clipPath id="a">
      <path fill="#fff" d="M0 0h24v24H0z"/>
    </clipPath>
  </defs>
</svg>
