<svg xmlns="http://www.w3.org/2000/svg" width="24" height="24" fill="none" viewBox="0 0 24 24">
  <g clip-path="url(#a)">
    <path fill="#374957" d="M19 0H5a5.006 5.006 0 0 0-5 5v14a5.006 5.006 0 0 0 5 5h14a5.006 5.006 0 0 0 5-5V5a5.006 5.006 0 0 0-5-5Zm1 11h2v2h-2v-2Zm0-2V7h2v2h-2Zm-2 2H6V2h12v9ZM4 13H2v-2h2v2Zm0-4H2V7h2v2Zm-2 6h2v2H2v-2Zm4-2h12v9H6v-9Zm14 2h2v2h-2v-2Zm2-10h-2V2.184A3 3 0 0 1 22 5ZM4 2.184V5H2a3 3 0 0 1 2-2.816ZM2 19h2v2.816A3 3 0 0 1 2 19Zm18 2.816V19h2a3 3 0 0 1-2 2.816Z"/>
  </g>
  <defs>
    <clipPath id="a">
      <path fill="#fff" d="M0 0h24v24H0z"/>
    </clipPath>
  </defs>
</svg>
