<svg xmlns="http://www.w3.org/2000/svg" width="24" height="24" fill="none" viewBox="0 0 24 24">
  <g clip-path="url(#a)">
    <path fill="#374957" d="M7 14a1 1 0 0 1-1 1H5a1 1 0 0 1 0-2h1a1 1 0 0 1 1 1Zm4-1h-1a1 1 0 0 0 0 2h1a1 1 0 0 0 0-2Zm-5 4H5a1 1 0 0 0 0 2h1a1 1 0 0 0 0-2Zm5 0h-1a1 1 0 0 0 0 2h1a1 1 0 0 0 0-2ZM6 5H5a1 1 0 0 0 0 2h1a1 1 0 0 0 0-2Zm5 0h-1a1 1 0 0 0 0 2h1a1 1 0 1 0 0-2ZM6 9H5a1 1 0 0 0 0 2h1a1 1 0 0 0 0-2Zm5 0h-1a1 1 0 0 0 0 2h1a1 1 0 0 0 0-2Zm13 1v9a5.006 5.006 0 0 1-5 5H5a5.006 5.006 0 0 1-5-5V5a5.006 5.006 0 0 1 5-5h6a5.006 5.006 0 0 1 5 5h3a5.006 5.006 0 0 1 5 5ZM5 22h9V5a3 3 0 0 0-3-3H5a3 3 0 0 0-3 3v14a3 3 0 0 0 3 3Zm17-12a3 3 0 0 0-3-3h-3v15h3a3 3 0 0 0 3-3v-9Zm-3 3a1 1 0 1 0 0 2 1 1 0 0 0 0-2Zm0 4a1 1 0 1 0 0 2 1 1 0 0 0 0-2Zm0-8a1 1 0 1 0 0 2 1 1 0 0 0 0-2Z"/>
  </g>
  <defs>
    <clipPath id="a">
      <path fill="#fff" d="M0 0h24v24H0z"/>
    </clipPath>
  </defs>
</svg>
