<svg xmlns="http://www.w3.org/2000/svg" width="24" height="24" fill="none" viewBox="0 0 24 24">
  <path fill="#374957" d="M19.783 12.079a73.63 73.63 0 0 0-.555-1.873A23.037 23.037 0 0 1 18 5a1 1 0 1 1 2 0 1 1 0 1 0 2 0 3 3 0 0 0-6 0c.025.764.132 1.522.32 2.263L11.52 11 5.97 7H9a1 1 0 0 0 0-2H5.971A1.969 1.969 0 0 0 4.81 8.559l5.071 3.712-1.438 1.119a4.954 4.954 0 1 0 1.15 1.638l7.29-5.669c.14.476.726 2.384.855 2.823a4.994 4.994 0 1 0 2.046-.1v-.003ZM5 20a3 3 0 1 1 0-6 3 3 0 0 1 0 6Zm14 0a3 3 0 1 1 0-6 3 3 0 0 1 0 6Z"/>
</svg>
