<svg xmlns="http://www.w3.org/2000/svg" width="24" height="24" fill="none" viewBox="0 0 24 24">
  <path fill="#374957" d="M8.175 22.447a5.43 5.43 0 0 0 7.573.02l3.982-3.68c4.314-4.256 4.36-11.203.104-15.517-4.256-4.313-11.203-4.36-15.516-.104l-.104.104C-.071 7.555-.07 14.502 4.215 18.787l.027.027 3.933 3.633ZM5.625 4.681a8.977 8.977 0 1 1 12.723 12.667l-3.974 3.673a3.506 3.506 0 0 1-4.825-.018l-3.925-3.627a8.977 8.977 0 0 1 0-12.695Zm1.36 6.347c0-.55.446-.997.997-.997h2.993V7.039a.997.997 0 0 1 1.994 0v2.992h2.993a.997.997 0 1 1 0 1.995h-2.993v2.992a.998.998 0 0 1-1.994 0v-2.992H7.982a.997.997 0 0 1-.997-.998Z"/>
</svg>
