<svg xmlns="http://www.w3.org/2000/svg" width="24" height="24" fill="none" viewBox="0 0 24 24">
  <g clip-path="url(#a)">
    <path fill="#374957" d="M20.527 4.217 14.5.737a5.015 5.015 0 0 0-5 0l-6.027 3.48a5.014 5.014 0 0 0-2.5 4.33v6.96a5.016 5.016 0 0 0 2.5 4.33l6.027 3.48a5.012 5.012 0 0 0 5 0l6.027-3.48a5.017 5.017 0 0 0 2.5-4.33v-6.96a5.014 5.014 0 0 0-2.5-4.33ZM10.5 2.47a3 3 0 0 1 3 0l6.027 3.479c.153.096.296.207.429.33l-6.193 3.575a3.53 3.53 0 0 1-3.526 0L4.044 6.279c.133-.123.276-.234.429-.33l6.027-3.48ZM4.473 18.105a3.008 3.008 0 0 1-1.5-2.6V8.547c.007-.18.03-.36.071-.535l6.193 3.575a5.492 5.492 0 0 0 1.763.635v9.569a2.897 2.897 0 0 1-.5-.206l-6.027-3.48Zm16.554-2.6a3.009 3.009 0 0 1-1.5 2.6l-6.027 3.48c-.16.084-.327.153-.5.206v-9.57a5.491 5.491 0 0 0 1.763-.634l6.193-3.575c.04.176.064.355.071.535v6.958Z"/>
  </g>
  <defs>
    <clipPath id="a">
      <path fill="#fff" d="M0 0h24v24H0z"/>
    </clipPath>
  </defs>
</svg>
