<svg xmlns="http://www.w3.org/2000/svg" width="24" height="24" fill="none" viewBox="0 0 24 24">
  <g clip-path="url(#a)">
    <path fill="#374957" d="M9.878 18.122a3 3 0 0 0 4.244 0l3.211-3.211A1 1 0 0 0 15.92 13.5l-2.926 2.927L13 1a1 1 0 0 0-1-1 1 1 0 0 0-1 1l-.009 15.408-2.91-2.908a1 1 0 0 0-1.414 1.415l3.211 3.207Z"/>
    <path fill="#374957" d="M23 16a1 1 0 0 0-1 1v4a1 1 0 0 1-1 1H3a1 1 0 0 1-1-1v-4a1 1 0 1 0-2 0v4a3 3 0 0 0 3 3h18a3 3 0 0 0 3-3v-4a1 1 0 0 0-1-1Z"/>
  </g>
  <defs>
    <clipPath id="a">
      <path fill="#fff" d="M0 0h24v24H0z"/>
    </clipPath>
  </defs>
</svg>
