<svg xmlns="http://www.w3.org/2000/svg" width="24" height="24" fill="none" viewBox="0 0 24 24">
  <g clip-path="url(#a)">
    <path fill="#374957" d="M12 15a1 1 0 0 1-1-1 3.954 3.954 0 0 1 1.963-3.195 1.994 1.994 0 0 0 .445-3.168 2.024 2.024 0 0 0-1.045-.556A2 2 0 0 0 10 9.052a1 1 0 1 1-2 0 4 4 0 0 1 1.43-3.065 4 4 0 1 1 4.5 6.57A1.988 1.988 0 0 0 13 14a1 1 0 0 1-1 1Zm.793 8.76C14.953 22.892 22 19.48 22 12.043v-5.17a4.993 4.993 0 0 0-3.426-4.747L12.315.051a.985.985 0 0 0-.63 0L5.426 2.126A4.993 4.993 0 0 0 2 6.872v5.171c0 6.562 7.005 10.576 9.153 11.65.26.157.547.26.847.307a2.24 2.24 0 0 0 .793-.24Zm5.151-19.736A3 3 0 0 1 20 6.872v5.171c0 6.183-6.087 9.111-7.953 9.861C10.16 20.96 4 17.46 4 12.044V6.871a3 3 0 0 1 2.056-2.848L12 2.054l5.944 1.97ZM12 17a1 1 0 1 0 0 2 1 1 0 0 0 0-2Z"/>
  </g>
  <defs>
    <clipPath id="a">
      <path fill="#fff" d="M0 0h24v24H0z"/>
    </clipPath>
  </defs>
</svg>
