<svg xmlns="http://www.w3.org/2000/svg" width="24" height="24" fill="none" viewBox="0 0 24 24">
  <g clip-path="url(#a)">
    <path fill="#374957" d="M19 24H5a5.006 5.006 0 0 1-5-5V5a5.006 5.006 0 0 1 5-5h14a5.006 5.006 0 0 1 5 5v14a5.006 5.006 0 0 1-5 5ZM5 2a3 3 0 0 0-3 3v14a3 3 0 0 0 3 3h14a3 3 0 0 0 3-3V5a3 3 0 0 0-3-3H5Zm6 10a1 1 0 1 0 2 0 1 1 0 0 0-2 0ZM6 7a1 1 0 1 0 2 0 1 1 0 0 0-2 0Zm10 0a1 1 0 1 0 2 0 1 1 0 0 0-2 0ZM6 17a1 1 0 1 0 2 0 1 1 0 0 0-2 0Zm10 0a1 1 0 1 0 2 0 1 1 0 0 0-2 0Z"/>
  </g>
  <defs>
    <clipPath id="a">
      <path fill="#fff" d="M0 0h24v24H0z"/>
    </clipPath>
  </defs>
</svg>
