<svg xmlns="http://www.w3.org/2000/svg" width="24" height="24" fill="none" viewBox="0 0 24 24">
  <g clip-path="url(#a)">
    <path fill="#374957" d="M23.112 5.165a3.027 3.027 0 0 0 0-4.28 3.094 3.094 0 0 0-4.276 0L16.4 3.325c-1.012 1.013-3.123.789-4.579-.013a2.6 2.6 0 0 0-3.057 4.144L10.18 8.87l-8.155 8.154a3.455 3.455 0 0 0-.593 4.129l-1.139 1.14a1 1 0 0 0 1.414 1.414l1.14-1.14a3.455 3.455 0 0 0 4.128-.592l8.154-8.155 1.416 1.416a2.6 2.6 0 0 0 4.144-3.057c-.8-1.456-1.025-3.568-.013-4.58l2.436-2.434ZM5.56 20.56a1.536 1.536 0 0 1-2.12 0 1.5 1.5 0 0 1 0-2.121l8.154-8.154 2.121 2.12L5.56 20.56Zm13.7-14.376c-1.759 1.759-1.5 4.832-.325 6.958a.578.578 0 0 1-.119.679.621.621 0 0 1-.859 0L10.178 6.04A.611.611 0 0 1 10.606 5c.088 0 .174.021.251.063 2.126 1.17 5.2 1.434 6.958-.325l2.44-2.438a1.045 1.045 0 0 1 1.445 0 1.023 1.023 0 0 1 0 1.449l-2.44 2.436Z"/>
  </g>
  <defs>
    <clipPath id="a">
      <path fill="#fff" d="M0 0h24v24H0z"/>
    </clipPath>
  </defs>
</svg>
