<svg xmlns="http://www.w3.org/2000/svg" width="24" height="24" fill="none" viewBox="0 0 24 24">
  <g clip-path="url(#a)">
    <path fill="#374957" d="M24 11.5A4.475 4.475 0 0 0 22.294 8 4.48 4.48 0 0 0 19.5 0h-15a4.481 4.481 0 0 0-2.794 8 4.443 4.443 0 0 0 0 7A4.481 4.481 0 0 0 4.5 23h15a4.48 4.48 0 0 0 2.794-8A4.476 4.476 0 0 0 24 11.5Zm-22-7A2.5 2.5 0 0 1 4.5 2H5v1a1 1 0 1 0 2 0V2h2v1a1 1 0 1 0 2 0V2h8.5a2.5 2.5 0 1 1 0 5h-15A2.5 2.5 0 0 1 2 4.5Zm20 14a2.5 2.5 0 0 1-2.5 2.5h-15a2.5 2.5 0 1 1 0-5H5v1a1 1 0 1 0 2 0v-1h2v1a1 1 0 1 0 2 0v-1h8.5a2.5 2.5 0 0 1 2.5 2.5ZM4.5 14a2.5 2.5 0 1 1 0-5H5v1a1 1 0 1 0 2 0V9h2v1a1 1 0 1 0 2 0V9h8.5a2.5 2.5 0 1 1 0 5h-15Z"/>
  </g>
  <defs>
    <clipPath id="a">
      <path fill="#fff" d="M0 0h24v24H0z"/>
    </clipPath>
  </defs>
</svg>
