<svg xmlns="http://www.w3.org/2000/svg" width="24" height="24" fill="none" viewBox="0 0 24 24">
  <g clip-path="url(#a)">
    <path fill="#374957" d="M21.736 16.4A5.01 5.01 0 0 0 17 13h-4v-1.084a6 6 0 1 0-2 0V13H7a5.009 5.009 0 0 0-4.736 3.4 4 4 0 1 0 2.447-.334A3 3 0 0 1 7 15h4v1.127a4 4 0 1 0 2 0V15h4a3 3 0 0 1 2.289 1.063 4 4 0 1 0 2.447.334v.003ZM8 6a4 4 0 1 1 8 0 4 4 0 0 1-8 0ZM6 20a2 2 0 1 1-4 0 2 2 0 0 1 4 0Zm8 0a2 2 0 1 1-4.001 0 2 2 0 0 1 4 0Zm6 2a2 2 0 1 1 0-4 2 2 0 0 1 0 4Z"/>
  </g>
  <defs>
    <clipPath id="a">
      <path fill="#fff" d="M0 0h24v24H0z"/>
    </clipPath>
  </defs>
</svg>
