<svg xmlns="http://www.w3.org/2000/svg" width="24" height="24" fill="none" viewBox="0 0 24 24">
  <g clip-path="url(#a)">
    <path fill="#374957" d="M21 10h-3.307l-4.247-8.437A3 3 0 0 0 10.812 0h-.182A2.63 2.63 0 0 0 8.1 3.36L10.028 10H7.644a2.982 2.982 0 0 1-2.122-.88L4.105 7.7a2.409 2.409 0 0 0-2.814-.433A2.319 2.319 0 0 0 .125 8.689a2.525 2.525 0 0 0 .228 1.966l1.614 2.825A5.012 5.012 0 0 0 6.307 16h3.712L8.35 20.447A2.63 2.63 0 0 0 10.81 24a2.971 2.971 0 0 0 2.606-1.513L17.464 16H21a3 3 0 1 0 0-6ZM10.025 2.805A.63.63 0 0 1 10.63 2h.182a.989.989 0 0 1 .863.49l3.78 7.51H12.11l-2.085-7.195ZM21 14h-4.091a1 1 0 0 0-.848.47l-4.371 7.01a1 1 0 0 1-.878.52.628.628 0 0 1-.588-.85l2.174-5.8A.998.998 0 0 0 11.46 14H6.308a3 3 0 0 1-2.6-1.511L2.089 9.662a.523.523 0 0 1-.047-.4.323.323 0 0 1 .158-.211.415.415 0 0 1 .487.067l1.417 1.417A4.972 4.972 0 0 0 7.644 12H21a1 1 0 0 1 0 2Z"/>
  </g>
  <defs>
    <clipPath id="a">
      <path fill="#fff" d="M0 0h24v24H0z"/>
    </clipPath>
  </defs>
</svg>
