<svg xmlns="http://www.w3.org/2000/svg" width="24" height="24" fill="none" viewBox="0 0 24 24">
  <g clip-path="url(#a)">
    <path fill="#374957" d="M23.707 16.324a1 1 0 0 0-1.414 0l-5.627 5.628-2.688-2.653a1.002 1.002 0 0 0-1.435 1.4l2.744 2.7a1.876 1.876 0 0 0 1.345.6h.033A1.872 1.872 0 0 0 18 23.446l5.707-5.708a1 1 0 0 0 0-1.414Z"/>
    <path fill="#374957" d="M11.09 21.958a10 10 0 1 1 10.869-9.048 1 1 0 0 0 .907 1.09.99.99 0 0 0 1.085-.908A12 12 0 1 0 10.91 23.95h.091a1 1 0 0 0 .089-2v.008Z"/>
    <path fill="#374957" d="M11 7v4.586l-2.707 2.707a1 1 0 1 0 1.414 1.414l3-3A1 1 0 0 0 13 12V7a1 1 0 0 0-2 0Z"/>
  </g>
  <defs>
    <clipPath id="a">
      <path fill="#fff" d="M0 0h24v24H0z"/>
    </clipPath>
  </defs>
</svg>
