<svg xmlns="http://www.w3.org/2000/svg" width="24" height="24" fill="none" viewBox="0 0 24 24">
  <g clip-path="url(#a)">
    <path fill="#374957" d="M23 18h-3v-3a1 1 0 1 0-2 0v3h-3a1 1 0 0 0 0 2h3v3a1 1 0 0 0 2 0v-3h3a1 1 0 1 0 0-2ZM11 7v4.586l-2.707 2.707a1 1 0 1 0 1.414 1.414l3-3A1 1 0 0 0 13 12V7a1 1 0 0 0-2 0Z"/>
    <path fill="#374957" d="M14.728 21.624a9.985 9.985 0 1 1 6.9-6.895 1 1 0 1 0 1.924.542 11.99 11.99 0 1 0-8.276 8.277.999.999 0 0 0 .229-1.847.999.999 0 0 0-.773-.077h-.004Z"/>
  </g>
  <defs>
    <clipPath id="a">
      <path fill="#fff" d="M0 0h24v24H0z"/>
    </clipPath>
  </defs>
</svg>
