<svg xmlns="http://www.w3.org/2000/svg" width="24" height="24" fill="none" viewBox="0 0 24 24">
  <g clip-path="url(#a)">
    <path fill="#374957" d="M20 4h-5a4 4 0 0 0-4-4H4a4 4 0 0 0-4 4v19a1 1 0 1 0 2 0V13h8a4 4 0 0 0 4 4h6a4 4 0 0 0 4-4V8a4 4 0 0 0-4-4ZM2 11V4a2 2 0 0 1 2-2h7a2 2 0 0 1 2 2v5a2 2 0 0 1-2 2H2Zm20 2a2 2 0 0 1-2 2h-6a2 2 0 0 1-2-2v-.142A4 4 0 0 0 15 9V6h5a2 2 0 0 1 2 2v5Z"/>
  </g>
  <defs>
    <clipPath id="a">
      <path fill="#fff" d="M0 0h24v24H0z"/>
    </clipPath>
  </defs>
</svg>
