<svg xmlns="http://www.w3.org/2000/svg" width="24" height="24" fill="none" viewBox="0 0 24 24">
  <g clip-path="url(#a)">
    <path fill="#374957" d="M17 13.184V10a1 1 0 0 0-1-1V2.414A2.41 2.41 0 0 0 12.508.257l-2.622 1.31A3.4 3.4 0 0 0 8 4.62V9a1 1 0 0 0-1 1v3.184A3 3 0 0 0 5 16v3a5.006 5.006 0 0 0 5 5h4a5.006 5.006 0 0 0 5-5v-3a3 3 0 0 0-2-2.816ZM9 13v-2h6v2H9Zm1-8.38a1.407 1.407 0 0 1 .781-1.264l2.62-1.31a.411.411 0 0 1 .6.368V9h-4V4.62ZM17 19a3 3 0 0 1-3 3h-4a3 3 0 0 1-3-3v-3a1 1 0 0 1 1-1h8a1 1 0 0 1 1 1v3Z"/>
  </g>
  <defs>
    <clipPath id="a">
      <path fill="#fff" d="M0 0h24v24H0z"/>
    </clipPath>
  </defs>
</svg>
