<svg xmlns="http://www.w3.org/2000/svg" width="24" height="24" fill="none" viewBox="0 0 24 24">
  <g clip-path="url(#a)">
    <path fill="#374957" d="M3 21.123a1 1 0 0 1-.567-.177 5.37 5.37 0 0 1 .51-9.3 7.648 7.648 0 0 1-.8-5.179 8 8 0 0 1 15.49-.84 1.085 1.085 0 0 0 .722.732 7.983 7.983 0 0 1 5.312 5.354 1 1 0 0 1-1.916.572 5.988 5.988 0 0 0-3.983-4.014 3.1 3.1 0 0 1-2.044-2.05 6 6 0 1 0-11.06 4.511 1.994 1.994 0 0 1-.792 2.687 3.37 3.37 0 0 0-.3 5.881A1 1 0 0 1 3 21.123ZM19.1 24c.358-.017.714-.07 1.062-.158a4.947 4.947 0 0 0 3.7-3.7 5.012 5.012 0 0 0-3.557-6s-.63-.145-.766-.47a6 6 0 0 0-11.367.855 6.38 6.38 0 0 0-.057 2.732 3.5 3.5 0 0 0 .45 6.59A3.8 3.8 0 0 0 9.4 24h9.7Zm-1.4-9.556a2.647 2.647 0 0 0 2.088 1.633 3.02 3.02 0 0 1 2.132 3.62 2.977 2.977 0 0 1-2.855 2.276c-1.665.033-8.271.038-9.6 0a1.71 1.71 0 0 1-.38-.055A1.471 1.471 0 0 1 8.058 20.9a1.493 1.493 0 0 1 .85-1.795 2.017 2.017 0 0 0 1.18-2.305 3.992 3.992 0 0 1 1.335-3.883 4 4 0 0 1 6.273 1.53l.005-.003Z"/>
  </g>
  <defs>
    <clipPath id="a">
      <path fill="#fff" d="M0 0h24v24H0z"/>
    </clipPath>
  </defs>
</svg>
