<svg xmlns="http://www.w3.org/2000/svg" width="24" height="24" fill="none" viewBox="0 0 24 24">
  <g clip-path="url(#a)">
    <path fill="#374957" d="M17.762 24C9.632 24.275-5.017 9.745 1.784 1.867l1.15-1A3.08 3.08 0 0 1 7.26.91a1 1 0 0 1 .086.1l1.8 2.339a3.108 3.108 0 0 1-.01 4.28L7.978 9.086a12.789 12.789 0 0 0 6.931 6.946l1.464-1.165a3.17 3.17 0 0 1 4.282-.006l2.34 1.8c.035.026.069.055.1.085a3.11 3.11 0 0 1 0 4.378l-.91 1.05A6.152 6.152 0 0 1 17.761 24ZM5.072 2a1.094 1.094 0 0 0-.775.32l-1.15 1C-2.5 10.108 14.776 26.423 20.72 20.808l.912-1.051a1.101 1.101 0 0 0 .085-1.56l-2.327-1.786a.81.81 0 0 1-.1-.087 1.122 1.122 0 0 0-1.548 0 .991.991 0 0 1-.084.076L15.7 17.96a1 1 0 0 1-.979.152A15.011 15.011 0 0 1 5.901 9.3a1 1 0 0 1 .145-1L7.6 6.344a.85.85 0 0 1 .075-.084 1.1 1.1 0 0 0 0-1.55.864.864 0 0 1-.086-.1L5.806 2.288a1.093 1.093 0 0 0-.735-.282V2Zm17.492 10.576c4.99-7.345-3.8-16.126-11.137-11.137a1 1 0 1 0 1.144 1.64c5.474-3.76 12.11 2.884 8.353 8.354a1.001 1.001 0 1 0 1.64 1.143Zm-3.858-1.865a1 1 0 0 0 0-1.414L17 7.59V5a1 1 0 1 0-2 0v3a1 1 0 0 0 .293.707l2 2a1 1 0 0 0 1.414 0v.004Z"/>
  </g>
  <defs>
    <clipPath id="a">
      <path fill="#fff" d="M0 0h24v24H0z"/>
    </clipPath>
  </defs>
</svg>
