<svg xmlns="http://www.w3.org/2000/svg" width="24" height="24" fill="none" viewBox="0 0 24 24">
  <g clip-path="url(#a)">
    <path fill="#374957" d="M21.77 8.948a1.239 1.239 0 0 1-.7-1.7 3.239 3.239 0 0 0-4.315-4.316 1.239 1.239 0 0 1-1.7-.7 3.239 3.239 0 0 0-6.1 0 1.238 1.238 0 0 1-1.7.7A3.239 3.239 0 0 0 2.934 7.25a1.237 1.237 0 0 1-.7 1.7 3.24 3.24 0 0 0 0 6.1 1.238 1.238 0 0 1 .705 1.7 3.238 3.238 0 0 0 4.311 4.317 1.24 1.24 0 0 1 1.7.7 3.24 3.24 0 0 0 6.1 0 1.239 1.239 0 0 1 1.7-.7 3.239 3.239 0 0 0 4.316-4.315 1.239 1.239 0 0 1 .7-1.7 3.239 3.239 0 0 0 0-6.1l.004-.003Zm-.67 4.22a3.24 3.24 0 0 0-1.84 4.441 1.239 1.239 0 0 1-1.652 1.651 3.237 3.237 0 0 0-4.441 1.84 1.238 1.238 0 0 1-2.334 0 3.24 3.24 0 0 0-4.442-1.84 1.24 1.24 0 0 1-1.65-1.652 3.238 3.238 0 0 0-1.841-4.44 1.239 1.239 0 0 1 0-2.335 3.237 3.237 0 0 0 1.84-4.442 1.239 1.239 0 0 1 1.651-1.65 3.24 3.24 0 0 0 4.442-1.84 1.238 1.238 0 0 1 2.334 0 3.24 3.24 0 0 0 4.442 1.84 1.24 1.24 0 0 1 1.651 1.651 3.237 3.237 0 0 0 1.84 4.441 1.238 1.238 0 0 1 0 2.334Z"/>
  </g>
  <defs>
    <clipPath id="a">
      <path fill="#fff" d="M0 0h24v24H0z"/>
    </clipPath>
  </defs>
</svg>
