<svg xmlns="http://www.w3.org/2000/svg" width="24" height="24" fill="none" viewBox="0 0 24 24">
  <g clip-path="url(#a)">
    <path fill="#374957" d="M12 24a12 12 0 1 1 12-12 12.013 12.013 0 0 1-12 12Zm0-22a10 10 0 1 0 10 10A10.011 10.011 0 0 0 12 2Zm0 18a8 8 0 1 1 8-8 8.009 8.009 0 0 1-8 8Zm0-14a6 6 0 1 0 0 12 6 6 0 0 0 0-12Zm-.143 9.515 3-5A1 1 0 0 0 14 9h-4a1 1 0 1 0 0 2h2.234l-2.091 3.485a.999.999 0 1 0 1.714 1.03Z"/>
  </g>
  <defs>
    <clipPath id="a">
      <path fill="#fff" d="M0 0h24v24H0z"/>
    </clipPath>
  </defs>
</svg>
