<svg xmlns="http://www.w3.org/2000/svg" width="24" height="24" fill="none" viewBox="0 0 24 24">
  <g clip-path="url(#a)">
    <path fill="#374957" d="M22 7a2 2 0 0 0 2-2V1a1 1 0 0 0-2 0v4h-4c-.018 0-.032.009-.05.01a6.41 6.41 0 0 0-11.89 0C6.039 5.011 6.021 5 6 5H2V1a1 1 0 0 0-2 0v4a2 2 0 0 0 2 2h3.485l-1.013 4H1a1 1 0 0 0 0 2h2.965l-.145.573-.02.127a8.368 8.368 0 0 0-.07 1.032A8.2 8.2 0 0 0 4.053 17H2a2 2 0 0 0-2 2v4a1 1 0 1 0 2 0v-4h2.93a8.248 8.248 0 0 0 14.14 0H22v4a1 1 0 0 0 2 0v-4a2 2 0 0 0-2-2h-2.053a8.2 8.2 0 0 0 .325-2.273A8.359 8.359 0 0 0 20.2 13.7l-.175-.7H23a1 1 0 0 0 0-2h-3.478l-1.009-4H22ZM12 21a6.28 6.28 0 0 1-6.272-6.273A6.19 6.19 0 0 1 5.775 14l2.03-8.03a4.448 4.448 0 0 1 8.376-.041L18.225 14c.03.24.045.483.047.725A6.28 6.28 0 0 1 12 21Z"/>
  </g>
  <defs>
    <clipPath id="a">
      <path fill="#fff" d="M0 0h24v24H0z"/>
    </clipPath>
  </defs>
</svg>
