<svg xmlns="http://www.w3.org/2000/svg" width="24" height="24" fill="none" viewBox="0 0 24 24">
  <g clip-path="url(#a)">
    <path fill="#374957" d="M14.957 10.355c.001.345.28.623.625.623 0 0 1.072 0 1.486-.011C18.6 10.94 19.7 9.608 19.7 7.8c0-1.9-1.08-3.178-2.686-3.178H15.57a.627.627 0 0 0-.625.627l.01 5.105Zm2.06-4.483c1.06 0 1.437 1 1.437 1.929 0 .928-.434 1.9-1.405 1.916-.2 0-.538.006-.844.009L16.2 5.873h.818Zm-4.895 1.383c-.273-.093-.556-.144-.835-.217a1.254 1.254 0 0 1-.594-.3.59.59 0 0 1-.152-.618.6.6 0 0 1 .491-.328c.206-.012.413.018.607.09.28.087.553.19.82.308.294.13.641.206.878-.074a.608.608 0 0 0 .032-.737 1.082 1.082 0 0 0-.407-.355 3.179 3.179 0 0 0-2.426-.33c-.433.137-.8.431-1.026.825a1.72 1.72 0 0 0-.207.605c-.056.383.027.773.234 1.1.233.342.57.6.961.735.409.168.818.331 1.233.483.178.057.343.151.482.276a.566.566 0 0 1 .149.58.723.723 0 0 1-.457.407c-.312.118-.654.13-.974.035a2.669 2.669 0 0 1-.848-.5c-.026-.02-.111-.085-.127-.1a.6.6 0 0 0-.76.051.625.625 0 0 0-.043.883c.597.634 1.43.99 2.3.986a2.138 2.138 0 0 0 2.178-1.66 1.767 1.767 0 0 0-.6-1.624 2.663 2.663 0 0 0-.909-.52ZM4.121 5.169v5.262a.625.625 0 0 0 1.25 0V8.768h.84a2.11 2.11 0 1 0 0-4.22l-.006-.004H4.74a.644.644 0 0 0-.443.192.642.642 0 0 0-.176.433Zm2.084 2.345h-.832l-.006-1.72h.838a.86.86 0 1 1 0 1.72Z"/>
    <path fill="#374957" d="M19 0H5a5.006 5.006 0 0 0-5 5v14a5.006 5.006 0 0 0 5 5h11.343a4.968 4.968 0 0 0 3.536-1.464l2.656-2.658A4.968 4.968 0 0 0 24 16.343V5a5.006 5.006 0 0 0-5-5ZM2 19V5a3 3 0 0 1 3-3h14a3 3 0 0 1 3 3v10h-4a3 3 0 0 0-3 3v4H5a3 3 0 0 1-3-3Zm16.465 2.122a2.97 2.97 0 0 1-1.465.8V18a1 1 0 0 1 1-1h3.925a3.016 3.016 0 0 1-.8 1.464l-2.66 2.658Z"/>
  </g>
  <defs>
    <clipPath id="a">
      <path fill="#fff" d="M0 0h24v24H0z"/>
    </clipPath>
  </defs>
</svg>
