<svg xmlns="http://www.w3.org/2000/svg" width="24" height="24" fill="none" viewBox="0 0 24 24">
  <g clip-path="url(#a)">
    <path fill="#374957" d="M17 14a2 2 0 1 0 0 4 2 2 0 0 0 0-4Zm-9-3a4 4 0 1 0 0 8 4 4 0 0 0 0-8Zm0 6a2 2 0 1 1 0-4 2 2 0 0 1 0 4Z"/>
    <path fill="#374957" d="M21.59 6.7 13.75.85a4.959 4.959 0 0 0-5.708.11A19.887 19.887 0 0 0 1.1 10.57a1.083 1.083 0 0 0-.032.155c-.11.216-.205.44-.283.67a13.86 13.86 0 0 0 0 9.212A5 5 0 0 0 5.525 24H9.15a2.039 2.039 0 0 0 1.922-1.457 1.509 1.509 0 0 1 2.858 0A2.039 2.039 0 0 0 15.851 24h3.15a5.006 5.006 0 0 0 5-5v-7.493A6.026 6.026 0 0 0 21.588 6.7ZM9.24 2.562a2.941 2.941 0 0 1 3.36-.08L19.99 8H5.525c-.39 0-.777.045-1.156.135a18.189 18.189 0 0 1 4.87-5.573ZM22 19a3 3 0 0 1-3 3l-3.166-.066A3.511 3.511 0 0 0 9.15 22H5.525a3 3 0 0 1-2.843-2.038 11.869 11.869 0 0 1 0-7.923A3.006 3.006 0 0 1 5.526 10H21.7c.197.478.298.99.3 1.507V19Z"/>
  </g>
  <defs>
    <clipPath id="a">
      <path fill="#fff" d="M0 0h24v24H0z"/>
    </clipPath>
  </defs>
</svg>
