<svg xmlns="http://www.w3.org/2000/svg" width="24" height="24" fill="none" viewBox="0 0 24 24">
  <g clip-path="url(#a)">
    <path fill="#374957" d="M17 0H7a5.006 5.006 0 0 0-5 5v14a5.006 5.006 0 0 0 5 5h10a5.006 5.006 0 0 0 5-5V5a5.006 5.006 0 0 0-5-5ZM7 2h10a3 3 0 0 1 3 3v6H4V5a3 3 0 0 1 3-3Zm10 20H7a3 3 0 0 1-3-3v-6h16v6a3 3 0 0 1-3 3Z"/>
    <path fill="#374957" d="M11 7h2a1 1 0 1 0 0-2h-2a1 1 0 1 0 0 2Zm2 10h-2a1 1 0 0 0 0 2h2a1 1 0 1 0 0-2Z"/>
  </g>
  <defs>
    <clipPath id="a">
      <path fill="#fff" d="M0 0h24v24H0z"/>
    </clipPath>
  </defs>
</svg>
