<svg xmlns="http://www.w3.org/2000/svg" width="24" height="24" fill="none" viewBox="0 0 24 24">
  <g clip-path="url(#a)">
    <path fill="#374957" d="M18.656.93 6.464 13.122A4.966 4.966 0 0 0 5 16.657V18a1 1 0 0 0 1 1h1.343a4.967 4.967 0 0 0 3.535-1.464L23.07 5.344a3.125 3.125 0 0 0 0-4.414 3.194 3.194 0 0 0-4.414 0Zm3 3L9.464 16.122a3.02 3.02 0 0 1-2.12.878H7v-.343a3.02 3.02 0 0 1 .878-2.12L20.07 2.343a1.148 1.148 0 0 1 1.586 0 1.123 1.123 0 0 1 0 1.586Z"/>
    <path fill="#374957" d="M23 8.979a1 1 0 0 0-1 1V15h-4a3 3 0 0 0-3 3v4H5a3 3 0 0 1-3-3V5a3 3 0 0 1 3-3h9.042a1 1 0 1 0 0-2H5a5.006 5.006 0 0 0-5 5v14a5.006 5.006 0 0 0 5 5h11.343a4.967 4.967 0 0 0 3.536-1.464l2.656-2.658A4.967 4.967 0 0 0 24 16.343V9.979a1 1 0 0 0-1-1Zm-4.535 12.143a2.97 2.97 0 0 1-1.465.8V18a1 1 0 0 1 1-1h3.925a3.016 3.016 0 0 1-.8 1.464l-2.66 2.658Z"/>
  </g>
  <defs>
    <clipPath id="a">
      <path fill="#fff" d="M0 0h24v24H0z"/>
    </clipPath>
  </defs>
</svg>
