<svg xmlns="http://www.w3.org/2000/svg" width="24" height="24" fill="none" viewBox="0 0 24 24">
  <g clip-path="url(#a)">
    <path fill="#374957" d="M20.457 4.555 12.487.126a1 1 0 0 0-.973 0l-7.97 4.429A3 3 0 0 0 2 7.177V19a5.006 5.006 0 0 0 5 5h10a5.005 5.005 0 0 0 5-5V7.177a3 3 0 0 0-1.543-2.622ZM20 19a3 3 0 0 1-3 3H7a3 3 0 0 1-3-3V7.177a1 1 0 0 1 .515-.877L12 2.144 19.486 6.3a1 1 0 0 1 .514.877V19Z"/>
    <path fill="#374957" d="M12 8.5a1.5 1.5 0 1 0 0-3 1.5 1.5 0 0 0 0 3Z"/>
  </g>
  <defs>
    <clipPath id="a">
      <path fill="#fff" d="M0 0h24v24H0z"/>
    </clipPath>
  </defs>
</svg>
