<svg xmlns="http://www.w3.org/2000/svg" width="24" height="24" fill="none" viewBox="0 0 24 24">
  <g clip-path="url(#a)">
    <path fill="#374957" d="M19 0H5a5.006 5.006 0 0 0-5 5v14a5.006 5.006 0 0 0 5 5h14a5.006 5.006 0 0 0 5-5V5a5.006 5.006 0 0 0-5-5ZM7 22v-1a5 5 0 1 1 10 0v1H7Zm15-3a3 3 0 0 1-3 3v-1a7 7 0 1 0-14 0v1a3 3 0 0 1-3-3V5a3 3 0 0 1 3-3h14a3 3 0 0 1 3 3v14Z"/>
    <path fill="#374957" d="M12 4a4 4 0 1 0 0 8 4 4 0 0 0 0-8Zm0 6a2 2 0 1 1 0-4 2 2 0 0 1 0 4Z"/>
  </g>
  <defs>
    <clipPath id="a">
      <path fill="#fff" d="M0 0h24v24H0z"/>
    </clipPath>
  </defs>
</svg>
