<svg xmlns="http://www.w3.org/2000/svg" width="24" height="24" fill="none" viewBox="0 0 24 24">
  <g clip-path="url(#a)">
    <path fill="#374957" d="M13 16a8 8 0 1 0-8-8 8.009 8.009 0 0 0 8 8Zm0-14a6 6 0 1 1 0 12 6 6 0 0 1 0-12Zm9.907 12.773A11.992 11.992 0 0 1 14 19.939v2.06h4a1 1 0 0 1 0 2H8a1 1 0 1 1 0-2h4v-2.05A11.994 11.994 0 0 1 3.743.363a1 1 0 1 1 1.542 1.274 10 10 0 1 0 15.971 12.006 1 1 0 1 1 1.651 1.13Z"/>
  </g>
  <defs>
    <clipPath id="a">
      <path fill="#fff" d="M0 0h24v24H0z"/>
    </clipPath>
  </defs>
</svg>
