<svg xmlns="http://www.w3.org/2000/svg" width="24" height="24" fill="none" viewBox="0 0 24 24">
  <g clip-path="url(#a)">
    <path fill="#374957" d="M19 3h-6.528a1.019 1.019 0 0 1-.447-.1L8.869 1.316A3.014 3.014 0 0 0 7.528 1H5a5.006 5.006 0 0 0-5 5v12a5.006 5.006 0 0 0 5 5h14a5.005 5.005 0 0 0 5-5V8a5.006 5.006 0 0 0-5-5ZM5 3h2.528a1.02 1.02 0 0 1 .447.1l3.156 1.58c.416.208.875.318 1.341.32H19a3 3 0 0 1 2.779 1.882L2 6.994V6a3 3 0 0 1 3-3Zm14 18H5a3 3 0 0 1-3-3V8.994l20-.113v9.12a3 3 0 0 1-3 3Z"/>
  </g>
  <defs>
    <clipPath id="a">
      <path fill="#fff" d="M0 0h24v24H0z"/>
    </clipPath>
  </defs>
</svg>
