<svg xmlns="http://www.w3.org/2000/svg" width="24" height="24" fill="none" viewBox="0 0 24 24">
  <g clip-path="url(#a)">
    <path fill="#374957" d="M19.99 15H1a1 1 0 0 0 0 2h18.99a4 4 0 0 0 3.825-5.192A13.94 13.94 0 0 0 10.455 2H1a1 1 0 0 0 0 2h3v3H1a1 1 0 0 0 0 2h19.213a12.046 12.046 0 0 1 1.694 3.406 1.968 1.968 0 0 1-.3 1.773 1.99 1.99 0 0 1-1.617.82ZM9 7H6V4h3v3Zm2 0V4.024A11.952 11.952 0 0 1 18.407 7H11Zm12 13H1a1 1 0 0 0 0 2h22a1 1 0 1 0 0-2Z"/>
  </g>
  <defs>
    <clipPath id="a">
      <path fill="#fff" d="M0 0h24v24H0z"/>
    </clipPath>
  </defs>
</svg>
