<svg xmlns="http://www.w3.org/2000/svg" width="24" height="24" fill="none" viewBox="0 0 24 24">
  <g clip-path="url(#a)">
    <path fill="#374957" d="m23.72 22.3-5.96-5.96c3.496-4.276 2.864-10.577-1.413-14.074C12.071-1.23 5.77-.598 2.274 3.678-1.223 7.954-.591 14.255 3.686 17.752a10.002 10.002 0 0 0 12.661 0l5.96 5.96A.999.999 0 0 0 23.72 22.3ZM2.044 10.025a7.988 7.988 0 1 1 7.988 7.988 7.997 7.997 0 0 1-7.988-7.988ZM12.03 6.03a2.887 2.887 0 0 0-1.998.814 2.887 2.887 0 0 0-1.997-.814A3.105 3.105 0 0 0 5.04 9.226c0 1.997 2.038 4.057 3.748 5.432.728.58 1.76.58 2.489 0 1.71-1.375 3.748-3.435 3.748-5.432a3.104 3.104 0 0 0-2.995-3.195Zm-1.992 7.07c-1.85-1.488-3.001-2.976-3.001-3.875a1.112 1.112 0 0 1 .998-1.198c.604.06 1.049.593.999 1.198a.999.999 0 1 0 1.997 0 1.112 1.112 0 0 1 .999-1.198c.604.06 1.048.593.998 1.198 0 .899-1.15 2.387-2.99 3.874Z"/>
  </g>
  <defs>
    <clipPath id="a">
      <path fill="#fff" d="M0 0h24v24H0z"/>
    </clipPath>
  </defs>
</svg>
