<svg xmlns="http://www.w3.org/2000/svg" width="24" height="24" fill="none" viewBox="0 0 24 24">
  <g clip-path="url(#a)">
    <path fill="#374957" d="M13.861 24h-3.722c-2.34.01-4.592-.9-6.268-2.534A14.76 14.76 0 0 1 .164 15.15 4.01 4.01 0 0 1 4 10h16a4.011 4.011 0 0 1 3.838 5.15 14.742 14.742 0 0 1-3.708 6.316A8.918 8.918 0 0 1 13.861 24ZM4 12a1.98 1.98 0 0 0-1.6.8 2.019 2.019 0 0 0-.322 1.791 12.933 12.933 0 0 0 3.2 5.46A6.907 6.907 0 0 0 10.139 22h3.722a6.9 6.9 0 0 0 4.856-1.951 12.919 12.919 0 0 0 3.2-5.46 2.02 2.02 0 0 0-1.025-2.38A1.978 1.978 0 0 0 20 12H4Zm12-6a4.383 4.383 0 0 0-1.293-3.121A2.4 2.4 0 0 1 14 1.168V1a1 1 0 0 0-2 0v.168a4.384 4.384 0 0 0 1.293 3.122A2.401 2.401 0 0 1 14 6a1 1 0 1 0 2 0Zm-4 1v-.308a4.388 4.388 0 0 0-1.292-3.121A2.4 2.4 0 0 1 10 1.864V1a1 1 0 1 0-2 0v.864a4.386 4.386 0 0 0 1.293 3.121A2.4 2.4 0 0 1 10 6.692V7a1 1 0 1 0 2 0Z"/>
  </g>
  <defs>
    <clipPath id="a">
      <path fill="#fff" d="M0 0h24v24H0z"/>
    </clipPath>
  </defs>
</svg>
