<svg xmlns="http://www.w3.org/2000/svg" width="24" height="24" fill="none" viewBox="0 0 24 24">
  <g clip-path="url(#a)">
    <path fill="#374957" d="M12 16a3 3 0 0 0 1.342-.314l2-1A2.986 2.986 0 0 0 17 12V9.033a2.985 2.985 0 0 0-1.658-2.683l-2-1a3.014 3.014 0 0 0-2.683 0l-2 1a2.985 2.985 0 0 0-1.66 2.683V12a2.986 2.986 0 0 0 1.659 2.684l2 1c.417.208.876.316 1.342.316Zm-3-4V9.033a1 1 0 0 1 .05-.3l2.18 1.09a1.72 1.72 0 0 0 1.539 0l2.18-1.09a1 1 0 0 1 .05.3V12a.994.994 0 0 1-.552.895l-2 1c-.282.14-.613.14-.895 0l-2-1A.994.994 0 0 1 9 12Zm10 10h-2.71l3.488-3.222c4.296-4.296 4.296-11.26 0-15.556-4.296-4.296-11.26-4.296-15.556 0-4.296 4.295-4.296 11.26 0 15.556C4.23 18.788 7.708 22 7.708 22h-2.71a1 1 0 1 0 0 2h14a1 1 0 0 0 0-2ZM5.636 4.636a9 9 0 1 1 12.757 12.7l-3.985 3.681A3.513 3.513 0 0 1 9.57 21l-3.935-3.636a9.01 9.01 0 0 1 0-12.728Z"/>
  </g>
  <defs>
    <clipPath id="a">
      <path fill="#fff" d="M0 0h24v24H0z"/>
    </clipPath>
  </defs>
</svg>
