<svg xmlns="http://www.w3.org/2000/svg" width="24" height="24" fill="none" viewBox="0 0 24 24">
  <g clip-path="url(#a)">
    <path fill="#374957" d="M23 14h-1V5a5.006 5.006 0 0 0-5-5H7a5.006 5.006 0 0 0-5 5v9H1a1 1 0 0 0 0 2h10v4H9a3 3 0 0 0-3 3 1 1 0 1 0 2 0 1 1 0 0 1 1-1h6a1 1 0 0 1 1 1 1 1 0 0 0 2 0 3 3 0 0 0-3-3h-2v-4h10a1 1 0 0 0 0-2ZM4 5a3 3 0 0 1 3-3h10a3 3 0 0 1 3 3v9H4V5Z"/>
  </g>
  <defs>
    <clipPath id="a">
      <path fill="#fff" d="M0 0h24v24H0z"/>
    </clipPath>
  </defs>
</svg>
