<svg xmlns="http://www.w3.org/2000/svg" width="24" height="24" fill="none" viewBox="0 0 24 24">
  <g clip-path="url(#a)">
    <path fill="#374957" d="M19 0H5a5.006 5.006 0 0 0-5 5v14a5.006 5.006 0 0 0 5 5h14a5.006 5.006 0 0 0 5-5V5a5.006 5.006 0 0 0-5-5ZM5 2h14a3 3 0 0 1 3 3v14a2.95 2.95 0 0 1-.3 1.285l-9.163-9.163a5.001 5.001 0 0 0-7.072 0L2 14.586V5a3 3 0 0 1 3-3Zm0 20a3 3 0 0 1-3-3v-1.586l4.878-4.878a3 3 0 0 1 4.244 0l9.163 9.164c-.4.196-.84.298-1.285.3H5Z"/>
    <path fill="#374957" d="M16 10.5a3.5 3.5 0 1 0 0-7 3.5 3.5 0 0 0 0 7Zm0-5a1.5 1.5 0 1 1 0 3 1.5 1.5 0 0 1 0-3Z"/>
  </g>
  <defs>
    <clipPath id="a">
      <path fill="#fff" d="M0 0h24v24H0z"/>
    </clipPath>
  </defs>
</svg>
