<svg xmlns="http://www.w3.org/2000/svg" width="24" height="24" fill="none" viewBox="0 0 24 24">
  <g clip-path="url(#a)">
    <path fill="#374957" d="M23.119.872a2.985 2.985 0 0 0-2.405-.857C17.921.285 8.528 1.448 4.9 5.072a9.931 9.931 0 0 0-.671 13.28l-3.94 3.94a1 1 0 0 0 1.414 1.414l3.94-3.94a9.929 9.929 0 0 0 13.285-.666c3.676-3.678 4.8-13.041 5.059-15.823a2.988 2.988 0 0 0-.868-2.405Zm-5.6 16.81a7.925 7.925 0 0 1-10.439.657l9.632-9.632a1 1 0 0 0-1.414-1.414l-9.637 9.631a7.924 7.924 0 0 1 .657-10.438C8.827 3.978 15.745 2.5 20.907 2.005A1 1 0 0 1 22 3.088c-.5 5.387-1.941 12.048-4.486 14.593h.005Z"/>
  </g>
  <defs>
    <clipPath id="a">
      <path fill="#fff" d="M0 0h24v24H0z"/>
    </clipPath>
  </defs>
</svg>
