<svg xmlns="http://www.w3.org/2000/svg" width="24" height="24" fill="none" viewBox="0 0 24 24">
  <g clip-path="url(#a)">
    <path fill="#374957" d="M12.003-.002C5.366-.002-.015 5.378-.015 12.016c0 6.638 5.38 12.019 12.018 12.019 6.638 0 12.019-5.381 12.019-12.019 0-6.637-5.38-12.018-12.019-12.018ZM21.875 10.5v.003a9.99 9.99 0 0 1-2.938 1.23 18.2 18.2 0 0 0-3.069-8.953 10.017 10.017 0 0 1 6.007 7.72ZM12 2c.253 0 .5.019.75.038a16.227 16.227 0 0 1 4.2 9.949 9.97 9.97 0 0 1-4-.69A12.031 12.031 0 0 0 8.5 2.646 9.92 9.92 0 0 1 12 2ZM6.487 3.665a9.991 9.991 0 0 1 2.455 2.266 18.253 18.253 0 0 0-6.708 8.2A9.957 9.957 0 0 1 6.487 3.665Zm-3.13 13.34a16.26 16.26 0 0 1 6.62-9.355 9.964 9.964 0 0 1 .992 3.89 12.033 12.033 0 0 0-4.715 8.63 10.056 10.056 0 0 1-2.898-3.165ZM12 22a9.949 9.949 0 0 1-3.772-.744A9.982 9.982 0 0 1 8.9 17.48a17.9 17.9 0 0 0 10.475 1.249A9.963 9.963 0 0 1 12 22Zm-2.2-6.31a9.96 9.96 0 0 1 2.37-2.55c1.413.571 2.922.868 4.447.873a12.07 12.07 0 0 0 5.348-1.25 9.905 9.905 0 0 1-.943 3.522A16.256 16.256 0 0 1 9.8 15.69Z"/>
  </g>
  <defs>
    <clipPath id="a">
      <path fill="#fff" d="M0 0h24v24H0z"/>
    </clipPath>
  </defs>
</svg>
