<svg xmlns="http://www.w3.org/2000/svg" width="24" height="24" fill="none" viewBox="0 0 24 24">
  <g clip-path="url(#a)">
    <path fill="#374957" d="M5 14a1 1 0 1 0 0-2 1 1 0 0 0 0 2Zm-4-4a1 1 0 1 0 0-2 1 1 0 0 0 0 2Zm4-4a1 1 0 1 0 0-2 1 1 0 0 0 0 2ZM1 2a1 1 0 1 0 0-2 1 1 0 0 0 0 2Zm22 12a1 1 0 1 0 0-2 1 1 0 0 0 0 2Zm-4-4a1 1 0 1 0 0-2 1 1 0 0 0 0 2Zm4-4a1 1 0 1 0 0-2 1 1 0 0 0 0 2Zm-4-4a1 1 0 1 0 0-2 1 1 0 0 0 0 2Zm-5 22a1 1 0 1 0 0-2 1 1 0 0 0 0 2Zm-4-4a1 1 0 1 0 0-2 1 1 0 0 0 0 2Zm4-4a1 1 0 1 0 0-2 1 1 0 0 0 0 2Zm-4-4a1 1 0 1 0 0-2 1 1 0 0 0 0 2Zm5-9a2 2 0 0 1-2-2 1 1 0 1 0-2 0 2 2 0 0 1-2 2 1 1 0 0 0 0 2 2 2 0 0 1 2 2 1 1 0 0 0 2 0 2 2 0 0 1 2-2 1 1 0 1 0 0-2ZM7 19a2 2 0 0 1-2-2 1 1 0 1 0-2 0 2 2 0 0 1-2 2 1 1 0 1 0 0 2 2 2 0 0 1 2 2 1 1 0 0 0 2 0 2 2 0 0 1 2-2 1 1 0 0 0 0-2Zm16 0a2 2 0 0 1-2-2 1 1 0 0 0-2 0 2 2 0 0 1-2 2 1 1 0 1 0 0 2 2 2 0 0 1 2 2 1 1 0 1 0 2 0 2 2 0 0 1 2-2 1 1 0 0 0 0-2Z"/>
  </g>
  <defs>
    <clipPath id="a">
      <path fill="#fff" d="M0 0h24v24H0z"/>
    </clipPath>
  </defs>
</svg>
