<svg xmlns="http://www.w3.org/2000/svg" width="24" height="24" fill="none" viewBox="0 0 24 24">
  <g clip-path="url(#a)">
    <path fill="#374957" d="M21.122 13A2.881 2.881 0 0 0 24 10.12a5.13 5.13 0 0 0-2.106-4.137L15.009.978a5.1 5.1 0 0 0-6.018 0L2.106 5.984A5.13 5.13 0 0 0 0 10.121 2.881 2.881 0 0 0 2.878 13H11v10a1 1 0 0 0 2 0V13h8.122ZM15.5 8.073c.327.492.501 1.069.5 1.66v1.265h-3V4.312l2.5 3.762Zm5.218-.475A3.124 3.124 0 0 1 22 10.121a.88.88 0 0 1-.878.878H18V9.733c0-.984-.29-1.946-.835-2.766l-2.5-3.77L20.718 7.6ZM2 10.121A3.124 3.124 0 0 1 3.282 7.6l6.057-4.4-2.5 3.77A4.983 4.983 0 0 0 6 9.733V11H2.878A.879.879 0 0 1 2 10.121ZM8 11V9.733a2.986 2.986 0 0 1 .5-1.659L11 4.312V11H8Zm-4 8H2v-3a1 1 0 1 0-2 0v7a1 1 0 1 0 2 0v-2h2a1 1 0 0 1 1 1v1a1 1 0 1 0 2 0v-1a3 3 0 0 0-3-3Zm19-4a1 1 0 0 0-1 1v3h-2a3 3 0 0 0-3 3v1a1 1 0 0 0 2 0v-1a1 1 0 0 1 1-1h2v2a1 1 0 0 0 2 0v-7a1 1 0 0 0-1-1Z"/>
  </g>
  <defs>
    <clipPath id="a">
      <path fill="#fff" d="M0 0h24v24H0z"/>
    </clipPath>
  </defs>
</svg>
