<svg xmlns="http://www.w3.org/2000/svg" width="24" height="24" fill="none" viewBox="0 0 24 24">
  <g clip-path="url(#a)">
    <path fill="#374957" d="M9 24H1a1 1 0 0 1 0-2h8a1 1 0 1 1 0 2Zm-2-4H1a1 1 0 1 1 0-2h6a1 1 0 0 1 0 2Zm-2-4H1a1 1 0 1 1 0-2h4a1 1 0 0 1 0 2Z"/>
    <path fill="#374957" d="M13 23.955a1.001 1.001 0 0 1-.089-2A10 10 0 1 0 2.041 11.09a1 1 0 0 1-1.992-.18A12 12 0 0 1 24 12a11.933 11.933 0 0 1-10.91 11.95.917.917 0 0 1-.09.005Z"/>
    <path fill="#374957" d="M12 6a1 1 0 0 0-1 1v5a1 1 0 0 0 .293.707l3 3a1 1 0 0 0 1.414-1.414L13 11.586V7a1 1 0 0 0-1-1Z"/>
  </g>
  <defs>
    <clipPath id="a">
      <path fill="#fff" d="M0 0h24v24H0z"/>
    </clipPath>
  </defs>
</svg>
