<svg xmlns="http://www.w3.org/2000/svg" width="24" height="24" fill="none" viewBox="0 0 24 24">
  <g clip-path="url(#a)">
    <path fill="#374957" d="M22.9 8.956a1.987 1.987 0 0 0-2.092.184l-1.833 1.36A5.007 5.007 0 0 0 14 6h-.085L9.793 1.88A2.976 2.976 0 0 0 7.672 1H1a1 1 0 0 0 0 2h6.672c.265.001.52.107.707.294L11.086 6H5a5.006 5.006 0 0 0-5 5v8a5.006 5.006 0 0 0 5 5h9a5.007 5.007 0 0 0 4.975-4.5l1.83 1.364a2 2 0 0 0 3.2-1.6v-8.521A1.988 1.988 0 0 0 22.9 8.956ZM17 19a3 3 0 0 1-3 3H5a3 3 0 0 1-3-3v-8a3 3 0 0 1 3-3h9a3 3 0 0 1 3 3v8Zm5 .257-3-2.236V12.98l3-2.236v8.514Z"/>
  </g>
  <defs>
    <clipPath id="a">
      <path fill="#fff" d="M0 0h24v24H0z"/>
    </clipPath>
  </defs>
</svg>
