<svg xmlns="http://www.w3.org/2000/svg" width="24" height="24" fill="none" viewBox="0 0 24 24">
  <g clip-path="url(#a)">
    <path fill="#374957" d="M15.909 24a2.912 2.912 0 0 1-2.91-2.91V15a1 1 0 0 0-2 0v6.09a2.91 2.91 0 0 1-5.417 1.476C3.186 18.462 0 12.278 0 6a5.785 5.785 0 0 1 6-6 12.8 12.8 0 0 1 3.915.615A7.037 7.037 0 0 0 12 1a7.037 7.037 0 0 0 2.085-.385A12.792 12.792 0 0 1 18 0a5.785 5.785 0 0 1 6 6c0 6.278-3.186 12.462-5.582 16.567A2.91 2.91 0 0 1 15.908 24Zm-3.91-12a3 3 0 0 1 3 3v6.09a.911.911 0 0 0 1.692.47C18.97 17.652 22 11.791 22 6a3.851 3.851 0 0 0-4-4c-1.14-.001-2.274.18-3.358.535A8.959 8.959 0 0 1 12 3a8.953 8.953 0 0 1-2.642-.464A10.758 10.758 0 0 0 6 2C2.045 2 2 5.836 2 6c0 5.794 3.03 11.655 5.31 15.56A.91.91 0 0 0 9 21.09V15a3 3 0 0 1 3-3Z"/>
  </g>
  <defs>
    <clipPath id="a">
      <path fill="#fff" d="M0 0h24v24H0z"/>
    </clipPath>
  </defs>
</svg>
