<svg xmlns="http://www.w3.org/2000/svg" width="24" height="24" fill="none" viewBox="0 0 24 24">
  <g clip-path="url(#a)">
    <path fill="#374957" d="M6.962 5.818a.625.625 0 0 0 0-1.25h-2.2a.625.625 0 0 0-.625.625v5.214c0 .345.28.625.625.625h2.2a.625.625 0 1 0 0-1.25h-1.57V8.425H6.8a.625.625 0 0 0 0-1.25H5.391V5.818h1.571Zm1.889-.649v5.262a.625.625 0 0 0 1.25 0V8.768h.839a2.11 2.11 0 0 0 0-4.22l-.001-.004H9.475a.63.63 0 0 0-.473.203.618.618 0 0 0-.151.422Zm2.088 2.345h-.832V5.79h.837a.86.86 0 1 1 0 1.72l-.005.004Z"/>
    <path fill="#374957" d="M19 0H5a5.006 5.006 0 0 0-5 5v14a5.006 5.006 0 0 0 5 5h11.343a4.968 4.968 0 0 0 3.536-1.464l2.656-2.658A4.968 4.968 0 0 0 24 16.343V5a5.006 5.006 0 0 0-5-5ZM2 19V5a3 3 0 0 1 3-3h14a3 3 0 0 1 3 3v10h-4a3 3 0 0 0-3 3v4H5a3 3 0 0 1-3-3Zm16.465 2.122a2.97 2.97 0 0 1-1.465.8V18a1 1 0 0 1 1-1h3.925a3.016 3.016 0 0 1-.8 1.464l-2.66 2.658Z"/>
    <path fill="#374957" d="M16.857 7.255c-.273-.093-.556-.144-.835-.217a1.253 1.253 0 0 1-.594-.3.59.59 0 0 1-.152-.618.6.6 0 0 1 .49-.328c.207-.012.414.018.608.09.279.086.552.19.819.308.295.13.64.206.879-.074a.61.61 0 0 0 .032-.737 1.089 1.089 0 0 0-.407-.355 3.179 3.179 0 0 0-2.426-.33 1.81 1.81 0 0 0-1.026.825 1.72 1.72 0 0 0-.207.605c-.056.383.027.773.234 1.1.233.342.57.6.96.735.41.168.818.331 1.233.483a1.3 1.3 0 0 1 .482.276.564.564 0 0 1 .15.58.723.723 0 0 1-.457.407c-.312.118-.654.13-.974.035a2.67 2.67 0 0 1-.848-.5c-.026-.02-.111-.085-.127-.1a.6.6 0 0 0-.76.051.625.625 0 0 0-.043.883c.596.634 1.43.99 2.3.986a2.138 2.138 0 0 0 2.178-1.66 1.767 1.767 0 0 0-.6-1.624 2.663 2.663 0 0 0-.91-.52Z"/>
  </g>
  <defs>
    <clipPath id="a">
      <path fill="#fff" d="M0 0h24v24H0z"/>
    </clipPath>
  </defs>
</svg>
