<svg xmlns="http://www.w3.org/2000/svg" width="24" height="24" fill="none" viewBox="0 0 24 24">
  <g clip-path="url(#a)">
    <path fill="#374957" d="M23.414.586a2.022 2.022 0 0 0-1.941-.513 16.462 16.462 0 0 0-6.479 3.983l-9.476 9.475a14.582 14.582 0 0 0-4.376-1.522 1 1 0 0 0-.286 1.98 12.633 12.633 0 0 1 5.353 2.386L2.5 20.085l-.793-.793a1 1 0 1 0-1.414 1.414l3 3a1 1 0 1 0 1.414-1.414l-.793-.793 3.709-3.71a12.609 12.609 0 0 1 2.387 5.354 1 1 0 0 0 1.981-.285 14.513 14.513 0 0 0-1.522-4.376l9.475-9.476a16.519 16.519 0 0 0 4.01-6.574 1.994 1.994 0 0 0-.54-1.846Zm-4.885 7.005L9.362 16.76c-.303-.4-.633-.778-.988-1.134a11.364 11.364 0 0 0-1.133-.988l9.167-9.167a14.384 14.384 0 0 1 5.584-3.464 14.452 14.452 0 0 1-3.463 5.585Z"/>
  </g>
  <defs>
    <clipPath id="a">
      <path fill="#fff" d="M0 0h24v24H0z"/>
    </clipPath>
  </defs>
</svg>
