<svg xmlns="http://www.w3.org/2000/svg" width="24" height="24" fill="none" viewBox="0 0 24 24">
  <g clip-path="url(#a)">
    <path fill="#374957" d="m22.459 8.1-6.924-6.636A5.026 5.026 0 0 0 8.48 1.45L1.54 8.1A5.028 5.028 0 0 0 0 11.708V19a5.006 5.006 0 0 0 5 5h14a5.006 5.006 0 0 0 5-5v-7.292A5.026 5.026 0 0 0 22.459 8.1ZM9.879 2.878a3.013 3.013 0 0 1 4.258.016l6.747 6.464-6.763 6.764a3.074 3.074 0 0 1-4.242 0L3.115 9.358l6.764-6.48ZM22 19a3 3 0 0 1-3 3H5a3 3 0 0 1-3-3v-7.292c.001-.194.02-.388.059-.578l6.406 6.406a5.024 5.024 0 0 0 7.07 0l6.406-6.406c.038.19.058.384.059.578V19Z"/>
  </g>
  <defs>
    <clipPath id="a">
      <path fill="#fff" d="M0 0h24v24H0z"/>
    </clipPath>
  </defs>
</svg>
