<svg xmlns="http://www.w3.org/2000/svg" width="24" height="24" fill="none" viewBox="0 0 24 24">
  <g clip-path="url(#a)">
    <path fill="#374957" d="M12 24a.998.998 0 0 1-.71-.29l-8.17-8.17a5 5 0 0 1 0-7.08L11.29.29a1.004 1.004 0 0 1 1.42 1.42L4.54 9.88a3 3 0 0 0 0 4.24l8.17 8.17A1.001 1.001 0 0 1 12 24Z"/>
    <path fill="#374957" d="M22 24a.999.999 0 0 1-.71-.29l-9.58-9.59a3 3 0 0 1 0-4.24L21.29.29a1.004 1.004 0 0 1 1.42 1.42l-9.59 9.58a1.001 1.001 0 0 0 0 1.42l9.59 9.58A1 1 0 0 1 22 24Z"/>
  </g>
  <defs>
    <clipPath id="a">
      <path fill="#fff" d="M0 0h24v24H0z"/>
    </clipPath>
  </defs>
</svg>
