<svg xmlns="http://www.w3.org/2000/svg" width="24" height="24" fill="none" viewBox="0 0 24 24">
  <g clip-path="url(#a)">
    <path fill="#374957" d="M19.948 24H4.052a4.03 4.03 0 0 1-4.048-3.818 3.947 3.947 0 0 1 .414-1.954L8.38 4.212a4.068 4.068 0 0 1 7.253.026l7.922 13.941a3.966 3.966 0 0 1-.156 3.91A4.03 4.03 0 0 1 19.948 24ZM12 4a2.013 2.013 0 0 0-1.842 1.13l-.026.048-7.948 13.99a1.919 1.919 0 0 0 .116 1.866A2.045 2.045 0 0 0 4.052 22h15.9a2.045 2.045 0 0 0 1.752-.966 1.938 1.938 0 0 0 .09-1.916l-7.926-13.94A2.04 2.04 0 0 0 12 4Z"/>
  </g>
  <defs>
    <clipPath id="a">
      <path fill="#fff" d="M0 0h24v24H0z"/>
    </clipPath>
  </defs>
</svg>
