<svg xmlns="http://www.w3.org/2000/svg" width="24" height="24" fill="none" viewBox="0 0 24 24">
  <g clip-path="url(#a)">
    <path fill="#374957" d="M19 3.022V1a1 1 0 0 0-2 0v1.1a5 5 0 0 0-1-.1h-1V1a1 1 0 0 0-2 0v1h-2V1a1 1 0 0 0-2 0v1H8a5 5 0 0 0-1 .1V1a1 1 0 0 0-2 0v2.022A4.979 4.979 0 0 0 3 7v12a5.006 5.006 0 0 0 5 5h8a5.006 5.006 0 0 0 5-5V7a4.978 4.978 0 0 0-2-3.978ZM19 19a3 3 0 0 1-3 3H8a3 3 0 0 1-3-3V7a3 3 0 0 1 3-3h8a3 3 0 0 1 3 3v12ZM17 8a1 1 0 0 1-1 1H8a1 1 0 0 1 0-2h8a1 1 0 0 1 1 1Zm0 4a1 1 0 0 1-1 1H8a1 1 0 0 1 0-2h8a1 1 0 0 1 1 1Zm-4 4a1 1 0 0 1-1 1H8a1 1 0 0 1 0-2h4a1 1 0 0 1 1 1Z"/>
  </g>
  <defs>
    <clipPath id="a">
      <path fill="#fff" d="M0 0h24v24H0z"/>
    </clipPath>
  </defs>
</svg>
