<svg xmlns="http://www.w3.org/2000/svg" width="24" height="24" fill="none" viewBox="0 0 24 24">
  <g clip-path="url(#a)">
    <path fill="#374957" d="M23 24a1 1 0 0 1-1-1 6.006 6.006 0 0 0-6-6h-5.83v1.585A2 2 0 0 1 6.756 20L.877 14.12a3 3 0 0 1 0-4.242L6.756 4a2 2 0 0 1 3.414 1.414V7H15a9.01 9.01 0 0 1 9 9v7a1 1 0 0 1-1 1ZM8.17 5.412l-5.879 5.88a1 1 0 0 0 0 1.413l5.879 5.88v-2.587a1 1 0 0 1 1-1H16a7.985 7.985 0 0 1 6 2.714V16a7.008 7.008 0 0 0-7-7H9.17a1 1 0 0 1-1-1V5.413Z"/>
  </g>
  <defs>
    <clipPath id="a">
      <path fill="#fff" d="M0 0h24v24H0z"/>
    </clipPath>
  </defs>
</svg>
