<svg xmlns="http://www.w3.org/2000/svg" width="24" height="24" fill="none" viewBox="0 0 24 24">
  <g clip-path="url(#a)">
    <path fill="#374957" d="M23 5a3 3 0 0 0-3-3h-.17A3.006 3.006 0 0 0 17 0H7a3.006 3.006 0 0 0-2.829 2h-.17a3 3 0 0 0-1.979 5.238L3.57 19.62A5.007 5.007 0 0 0 8.531 24h6.938a5.008 5.008 0 0 0 4.961-4.38l1.548-12.382A2.98 2.98 0 0 0 23 5Zm-3.883 9h-3.2c-.892-5.287-6.947-5.284-7.838 0h-3.2l-.75-6h15.738l-.75 6ZM14 15c-.105 3.954-3.895 3.953-4 0 .105-3.954 3.9-3.953 4 0ZM4 4h1a1 1 0 0 0 1-1 1 1 0 0 1 1-1h10a1 1 0 0 1 1 1 1 1 0 0 0 1 1h1a1 1 0 0 1 0 2H4a1 1 0 0 1 0-2Zm14.445 15.372A3 3 0 0 1 15.47 22H8.531a3 3 0 0 1-2.977-2.628L5.134 16H8.08c.892 5.287 6.948 5.284 7.838 0h2.948l-.422 3.372Z"/>
  </g>
  <defs>
    <clipPath id="a">
      <path fill="#fff" d="M0 0h24v24H0z"/>
    </clipPath>
  </defs>
</svg>
