<svg xmlns="http://www.w3.org/2000/svg" width="24" height="24" fill="none" viewBox="0 0 24 24">
  <g clip-path="url(#a)">
    <path fill="#374957" d="M12 10a4 4 0 1 0 0 8 4 4 0 0 0 0-8Zm0 6a2 2 0 1 1 0-4 2 2 0 0 1 0 4Z"/>
    <path fill="#374957" d="m22.536 4.122-2.658-2.658A4.966 4.966 0 0 0 16.343 0H5a5.006 5.006 0 0 0-5 5v14a5.006 5.006 0 0 0 5 5h14a5.006 5.006 0 0 0 5-5V7.657a4.965 4.965 0 0 0-1.464-3.535ZM17 2.08V3a3 3 0 0 1-3 3h-4a3 3 0 0 1-3-3V2h9.343c.221.002.442.029.657.08ZM22 19a3 3 0 0 1-3 3H5a3 3 0 0 1-3-3V5a3 3 0 0 1 3-3v1a5.006 5.006 0 0 0 5 5h4a4.99 4.99 0 0 0 4.962-4.624l2.16 2.16A3.02 3.02 0 0 1 22 7.657V19Z"/>
  </g>
  <defs>
    <clipPath id="a">
      <path fill="#fff" d="M0 0h24v24H0z"/>
    </clipPath>
  </defs>
</svg>
