<svg xmlns="http://www.w3.org/2000/svg" width="24" height="24" fill="none" viewBox="0 0 24 24">
  <g clip-path="url(#a)">
    <path fill="#374957" d="M17.5 1.917a6.4 6.4 0 0 0-5.5 3.3 6.4 6.4 0 0 0-5.5-3.3A6.8 6.8 0 0 0 0 8.966c0 4.546 4.786 9.513 8.8 12.88a4.974 4.974 0 0 0 6.4 0c4.014-3.367 8.8-8.334 8.8-12.88a6.8 6.8 0 0 0-6.5-7.05Zm-3.585 18.4a2.973 2.973 0 0 1-3.83 0C4.947 16.006 2 11.87 2 8.967a4.8 4.8 0 0 1 4.5-5.05 4.8 4.8 0 0 1 4.5 5.05 1 1 0 1 0 2 0 4.8 4.8 0 0 1 4.5-5.05 4.8 4.8 0 0 1 4.5 5.05c0 2.902-2.947 7.039-8.085 11.345v.005Z"/>
  </g>
  <defs>
    <clipPath id="a">
      <path fill="#fff" d="M0 0h24v24H0z"/>
    </clipPath>
  </defs>
</svg>
