<svg xmlns="http://www.w3.org/2000/svg" width="24" height="24" fill="none" viewBox="0 0 24 24">
  <g clip-path="url(#a)">
    <path fill="#374957" d="M24 11.1a3.044 3.044 0 0 0-2.664-3.055c.3-.545.736-1.813.654-5a2.093 2.093 0 0 0-.849-1.645 2 2 0 0 0-1.733-.322A12.055 12.055 0 0 0 15.3 3.14 21.323 21.323 0 0 0 13.676.81a2.205 2.205 0 0 0-3.351 0 21.35 21.35 0 0 0-1.618 2.325 12.24 12.24 0 0 0-4.121-2.06 1.981 1.981 0 0 0-1.727.326 2.091 2.091 0 0 0-.849 1.642c-.082 3.188.357 4.455.652 5A3.045 3.045 0 0 0 0 11.1c0 4.29 6.387 7.185 9.478 8.335a6.44 6.44 0 0 0-1.192 1.433 2.027 2.027 0 0 0-.012 2.06A2.128 2.128 0 0 0 10.118 24h3.764a2.128 2.128 0 0 0 1.844-1.076 2.027 2.027 0 0 0-.011-2.059 5.709 5.709 0 0 0-.648-.865H16a2 2 0 0 1 2 2 1 1 0 0 0 2 0 3.991 3.991 0 0 0-2.683-3.759c3.098-1.5 6.683-3.93 6.683-7.14Zm-7.628-6.216A8.754 8.754 0 0 1 19.943 3s.046.02.048.093c.063 2.434-.214 3.72-.47 4.083a1.891 1.891 0 0 1-1.28.806 1.79 1.79 0 0 1-1.385-.388 1.9 1.9 0 0 1-.484-2.71Zm-4.48-2.832a.139.139 0 0 1 .169-.038.137.137 0 0 1 .048.038c.762.91 1.41 1.91 1.928 2.977.02.035.044.069.069.1a3.76 3.76 0 0 0-.039 1.493 2.24 2.24 0 0 1-4.078.123 1.073 1.073 0 0 0-.071-.092c.094-.493.088-1-.018-1.49a.185.185 0 0 0 .014-.025 13.78 13.78 0 0 1 1.978-3.086Zm-7.883 1.04A.123.123 0 0 1 4.047 3c1.33.34 2.562.984 3.6 1.882A1.929 1.929 0 0 1 7.122 7.6a1.77 1.77 0 0 1-2.092.118 1.87 1.87 0 0 1-.552-.536c-.256-.368-.532-1.655-.469-4.09ZM13.882 22h-3.764c-.062 0-.1-.046-.112-.116a5.836 5.836 0 0 1 1.963-1.843 5.646 5.646 0 0 1 2.019 1.894.123.123 0 0 1-.106.065Zm.794-4.79a8.49 8.49 0 0 0 1.311-3.047 1 1 0 1 0-1.974-.326 9.2 9.2 0 0 1-2 3.637 10.374 10.374 0 0 1-2.036-3.693 1 1 0 1 0-1.952.438 9.882 9.882 0 0 0 1.359 3.014C6.3 15.965 2 13.64 2 11.1A1.067 1.067 0 0 1 3.082 10h17.836A1.066 1.066 0 0 1 22 11.1c0 2.523-4.245 4.835-7.324 6.11Z"/>
  </g>
  <defs>
    <clipPath id="a">
      <path fill="#fff" d="M0 0h24v24H0z"/>
    </clipPath>
  </defs>
</svg>
