<svg xmlns="http://www.w3.org/2000/svg" width="24" height="24" fill="none" viewBox="0 0 24 24">
  <g clip-path="url(#a)">
    <path fill="#374957" d="M18 7a1 1 0 1 1-2 0 1 1 0 0 1 2 0Zm-4 2a1 1 0 1 0 0 2 1 1 0 0 0 0-2Zm-3 3a1 1 0 1 0 0 2 1 1 0 0 0 0-2Zm12.866-9.042-.075.21C22.289 7.338 20.848 11.3 18 14.82V15a11.022 11.022 0 0 1-3.6 8.135c-.6.553-1.384.861-2.2.865A3.21 3.21 0 0 1 9 20.794v-1.151a4.95 4.95 0 0 1-1.961-1.191L7 18.414l-2.293 2.293a1 1 0 0 1-1.414-1.414L5.586 17l-.039-.038A4.98 4.98 0 0 1 4.353 15h-.99A3.366 3.366 0 0 1 .938 9.3 10.922 10.922 0 0 1 9 6h.18C12.7 3.153 16.66 1.712 20.826.21l.216-.076a2.2 2.2 0 0 1 2.824 2.824ZM3.363 13H4.1a5 5 0 0 1 .891-2.45A25.361 25.361 0 0 1 6.8 8.244a8.507 8.507 0 0 0-4.4 2.426 1.406 1.406 0 0 0-.4.968A1.364 1.364 0 0 0 3.363 13ZM15.7 17.252a25.558 25.558 0 0 1-2.252 1.759 4.983 4.983 0 0 1-2.448.876v.907A1.208 1.208 0 0 0 12.207 22a1.27 1.27 0 0 0 .852-.345 9 9 0 0 0 2.641-4.403Zm6.237-15.19a.19.19 0 0 0-.217-.047l-.215.078c-4.844 1.745-9.027 3.253-12.629 6.854A20.87 20.87 0 0 0 6.628 11.7a3 3 0 0 0 .333 3.85l1.492 1.49a3 3 0 0 0 3.849.335c.98-.67 1.9-1.422 2.751-2.248 3.6-3.6 5.11-7.787 6.856-12.633l.076-.211a.191.191 0 0 0-.048-.22Z"/>
  </g>
  <defs>
    <clipPath id="a">
      <path fill="#fff" d="M0 0h24v24H0z"/>
    </clipPath>
  </defs>
</svg>
