<svg xmlns="http://www.w3.org/2000/svg" width="24" height="24" fill="none" viewBox="0 0 24 24">
  <g clip-path="url(#a)">
    <path fill="#374957" d="M5.005 24H19a4.999 4.999 0 0 0 4.522-7.132L16.535 2.9a5 5 0 0 0-9.057-.026l-7 14-.008.026A5 5 0 0 0 5.005 24Zm3.4-2 2.717-5.438A.958.958 0 0 1 12 16a.974.974 0 0 1 .893.588L15.6 22H8.405Zm-6.127-4.252 7-14.012a3 3 0 0 1 5.454.027l6.988 13.973A3 3 0 0 1 19 22h-1.164L14.7 15.72a2.972 2.972 0 0 0-5.377-.027L6.168 22H5.005a3 3 0 0 1-2.727-4.252Z"/>
  </g>
  <defs>
    <clipPath id="a">
      <path fill="#fff" d="M0 0h24v24H0z"/>
    </clipPath>
  </defs>
</svg>
