<svg xmlns="http://www.w3.org/2000/svg" width="24" height="24" fill="none" viewBox="0 0 24 24">
  <g clip-path="url(#a)">
    <path fill="#374957" d="M12 0a12 12 0 1 0 12 12A12.013 12.013 0 0 0 12 0Zm10 12a10 10 0 0 1-.186 1.9l-1.932-.58a7.444 7.444 0 0 0 0-2.64l1.932-.58A10 10 0 0 1 22 12Zm-.76-3.816-1.93.579a8.048 8.048 0 0 0-4.073-4.073l.579-1.93a10.058 10.058 0 0 1 5.424 5.424ZM12 18a6 6 0 1 1 0-12 6 6 0 0 1 0 12Zm1.9-15.814-.58 1.932a7.442 7.442 0 0 0-2.64 0l-.58-1.932a9.8 9.8 0 0 1 3.8 0Zm-5.716.574.579 1.93A8.048 8.048 0 0 0 4.69 8.763l-1.93-.579A10.058 10.058 0 0 1 8.184 2.76ZM2 12a10 10 0 0 1 .186-1.9l1.932.58a7.442 7.442 0 0 0 0 2.64l-1.932.58A10 10 0 0 1 2 12Zm.76 3.816 1.93-.579a8.048 8.048 0 0 0 4.073 4.073l-.579 1.93a10.058 10.058 0 0 1-5.424-5.424Zm7.34 6 .58-1.932a7.444 7.444 0 0 0 2.64 0l.58 1.932a9.801 9.801 0 0 1-3.8 0Zm5.716-.575-.579-1.929a8.048 8.048 0 0 0 4.073-4.073l1.93.579a10.053 10.053 0 0 1-5.424 5.421v.002Zm-1.185-10.349a1.848 1.848 0 0 1 0 2.216l-1.893 2.523a.922.922 0 0 1-1.476 0l-1.893-2.523a1.848 1.848 0 0 1 0-2.216l1.893-2.523a.922.922 0 0 1 1.476 0l1.893 2.523Z"/>
  </g>
  <defs>
    <clipPath id="a">
      <path fill="#fff" d="M0 0h24v24H0z"/>
    </clipPath>
  </defs>
</svg>
