<svg xmlns="http://www.w3.org/2000/svg" width="24" height="24" fill="none" viewBox="0 0 24 24">
  <g clip-path="url(#a)">
    <path fill="#374957" d="M23.679 11.408a12.057 12.057 0 0 0-8.968-7.144 2.995 2.995 0 1 0-5.422 0 12.058 12.058 0 0 0-8.965 7.144 4.04 4.04 0 0 0 .353 3.811c.356.535.837.975 1.4 1.284l.6 3.372A4.993 4.993 0 0 0 7.6 24h8.8a4.99 4.99 0 0 0 4.922-4.125l.6-3.37a3.974 3.974 0 0 0 1.4-1.285 4.043 4.043 0 0 0 .357-3.812ZM11.999 2a1 1 0 1 1 0 2 1 1 0 0 1 0-2Zm7.358 17.525A3 3 0 0 1 16.4 22H7.6a3 3 0 0 1-2.954-2.475l-.371-2.08A3 3 0 0 0 8 17.22a2.99 2.99 0 0 0 4 0 2.99 2.99 0 0 0 4 0 3 3 0 0 0 3.728.225l-.371 2.08Zm2.3-5.413A1.956 1.956 0 0 1 20 15a1.647 1.647 0 0 0-1.22.625 1.01 1.01 0 0 1-1.56 0 1.53 1.53 0 0 0-2.44 0 1.01 1.01 0 0 1-1.56 0 1.53 1.53 0 0 0-2.44 0 1.01 1.01 0 0 1-1.56 0 1.53 1.53 0 0 0-2.44 0 1.01 1.01 0 0 1-1.56 0A1.644 1.644 0 0 0 4 15a1.955 1.955 0 0 1-1.656-.888 2.016 2.016 0 0 1-.177-1.928c3.267-8.2 16.4-8.2 19.668 0a2.017 2.017 0 0 1-.177 1.928h-.001Z"/>
  </g>
  <defs>
    <clipPath id="a">
      <path fill="#fff" d="M0 0h24v24H0z"/>
    </clipPath>
  </defs>
</svg>
