<svg xmlns="http://www.w3.org/2000/svg" width="24" height="24" fill="none" viewBox="0 0 24 24">
  <g clip-path="url(#a)">
    <path fill="#374957" d="M22.139 17.778 13.592 5.534a3 3 0 1 0-3.184 0L1.86 17.778a4.122 4.122 0 0 0-.46 4.242A3.989 3.989 0 0 0 5.127 24h13.746a3.989 3.989 0 0 0 3.727-1.98 4.122 4.122 0 0 0-.461-4.242ZM11.73 22l5.458-7.819 1.41 2.027L14.562 22h-2.83Zm-5.192 0 8.054-11.538 1.376 1.972L9.292 22H6.539Zm-3.37-.906a2.148 2.148 0 0 1 .33-2.172L12 6.747l1.382 1.978c-.014.018-.034.027-.047.045L4.2 21.86a1.638 1.638 0 0 1-1.03-.766Zm17.66 0a2.054 2.054 0 0 1-1.956.906H17l2.822-4.044.675.966c.5.608.629 1.442.333 2.172Z"/>
  </g>
  <defs>
    <clipPath id="a">
      <path fill="#fff" d="M0 0h24v24H0z"/>
    </clipPath>
  </defs>
</svg>
