<svg xmlns="http://www.w3.org/2000/svg" width="24" height="24" fill="none" viewBox="0 0 24 24">
  <g clip-path="url(#a)">
    <path fill="#374957" d="M19 5h-3V4a3 3 0 0 0-3-3h-2a3 3 0 0 0-3 3v1H5a5.006 5.006 0 0 0-5 5v8a5.006 5.006 0 0 0 5 5h14a5.006 5.006 0 0 0 5-5v-8a5.006 5.006 0 0 0-5-5Zm-9-1a1 1 0 0 1 1-1h2a1 1 0 0 1 1 1v1h-4V4Zm12 14a3 3 0 0 1-3 3H5a3 3 0 0 1-3-3v-8a3 3 0 0 1 3-3h14a3 3 0 0 1 3 3v8Zm-6-4a1 1 0 0 1-1 1h-2v2a1 1 0 0 1-2 0v-2H9a1 1 0 0 1 0-2h2v-2a1 1 0 0 1 2 0v2h2a1 1 0 0 1 1 1Z"/>
  </g>
  <defs>
    <clipPath id="a">
      <path fill="#fff" d="M0 0h24v24H0z"/>
    </clipPath>
  </defs>
</svg>
