<svg xmlns="http://www.w3.org/2000/svg" width="24" height="24" fill="none" viewBox="0 0 24 24">
  <g clip-path="url(#a)">
    <path fill="#374957" d="M16.63 2.9A91.499 91.499 0 0 1 14.178.768 2.952 2.952 0 0 0 11.8.026a2.845 2.845 0 0 0-2.032 1.3 20.372 20.372 0 0 0-2.492 6.45A6.125 6.125 0 0 1 6.8 6.96a2 2 0 0 0-3.3-.473 9.066 9.066 0 0 0-2.586 6.421A10.98 10.98 0 0 0 9.136 23.64c.908.229 1.84.347 2.776.352.03 0 .35-.003.478-.012 5.97-.193 10.707-5.093 10.7-11.066-.004-4.53-2.996-7.07-6.46-10.014Zm-4.743 19.085a3.766 3.766 0 0 1-2.035-.806c-.87-.615-1.445-1.517-1.582-2.557-.17-1.622.83-3.743 2.873-6.139a1.12 1.12 0 0 1 .857-.392c.325-.002.634.14.843.39 1.872 2.222 2.9 4.272 2.9 5.773-.006 1.972-1.547 3.532-3.51 3.722a1.892 1.892 0 0 1-.346.01Zm5.69-1.902c-.06.046-.125.083-.185.127.23-.627.35-1.29.351-1.958 0-2.527-1.835-5.235-3.373-7.062a3.1 3.1 0 0 0-2.366-1.1H12a3.117 3.117 0 0 0-2.376 1.093c-2.445 2.864-3.568 5.437-3.338 7.648.055.513.186 1.015.39 1.49a9.094 9.094 0 0 1-3.759-7.413A7.062 7.062 0 0 1 5 7.828c.23.48.508.935.827 1.361a1.847 1.847 0 0 0 1.906.7 1.9 1.9 0 0 0 1.451-1.474 18.653 18.653 0 0 1 2.27-6.022.842.842 0 0 1 .608-.384c.28-.038.562.05.77.241.858.78 1.7 1.5 2.5 2.177 3.338 2.835 5.751 4.883 5.751 8.487a9.033 9.033 0 0 1-3.504 7.171l-.003-.002Z"/>
  </g>
  <defs>
    <clipPath id="a">
      <path fill="#fff" d="M0 0h24v24H0z"/>
    </clipPath>
  </defs>
</svg>
