<svg xmlns="http://www.w3.org/2000/svg" width="24" height="24" fill="none" viewBox="0 0 24 24">
  <g clip-path="url(#a)">
    <path fill="#374957" d="M23.535 14.726a1.99 1.99 0 0 0-1.726-.717A11.993 11.993 0 0 0 13 18.987V13.91A6.006 6.006 0 0 0 18 8c0-2.793-1.943-5.152-3.844-7.09a3.085 3.085 0 0 0-4.312 0C7.944 2.847 6 5.206 6 8a6.006 6.006 0 0 0 5 5.91v5.077a11.993 11.993 0 0 0-8.809-4.978 1.994 1.994 0 0 0-1.726.716 1.97 1.97 0 0 0-.393 1.792C2.112 23.855 11.592 24 11.994 24h.012c.4 0 9.884-.145 11.923-7.483a1.976 1.976 0 0 0-.394-1.791ZM8 8c0-2.654 3.318-5.719 3.338-5.736C10.973 3.2 8.693 8.9 11 9a1 1 0 0 0 1-1 13.474 13.474 0 0 1 1.257-5.137C14.688 4.393 16 6.154 16 8a4 4 0 0 1-8 0Zm-5.994 8a10.267 10.267 0 0 1 8.462 5.863C7.971 21.517 3.2 20.3 2.006 16Zm11.54 5.861A10.38 10.38 0 0 1 22 15.982c-1.194 4.303-5.954 5.53-8.455 5.88Z"/>
  </g>
  <defs>
    <clipPath id="a">
      <path fill="#fff" d="M0 0h24v24H0z"/>
    </clipPath>
  </defs>
</svg>
