<svg xmlns="http://www.w3.org/2000/svg" width="24" height="24" fill="none" viewBox="0 0 24 24">
  <g clip-path="url(#a)">
    <path fill="#374957" d="M23 22H5a3 3 0 0 1-3-3V1a1 1 0 0 0-2 0v18a5.006 5.006 0 0 0 5 5h18a1 1 0 0 0 0-2Z"/>
    <path fill="#374957" d="M6 20a1 1 0 0 0 1-1v-7a1 1 0 1 0-2 0v7a1 1 0 0 0 1 1Zm4-10v9a1 1 0 0 0 2 0v-9a1 1 0 1 0-2 0Zm5 3v6a1 1 0 0 0 2 0v-6a1 1 0 1 0-2 0Zm5-4v10a1 1 0 1 0 2 0V9a1 1 0 0 0-2 0ZM6 9a1 1 0 0 0 .707-.293l3.586-3.586a1.025 1.025 0 0 1 1.414 0l2.172 2.172a3 3 0 0 0 4.242 0l5.586-5.586A1 1 0 0 0 22.293.293l-5.586 5.585a1 1 0 0 1-1.414 0L13.12 3.707a3 3 0 0 0-4.242 0L5.293 7.293A1 1 0 0 0 6 9Z"/>
  </g>
  <defs>
    <clipPath id="a">
      <path fill="#fff" d="M0 0h24v24H0z"/>
    </clipPath>
  </defs>
</svg>
