<svg xmlns="http://www.w3.org/2000/svg" width="24" height="24" fill="none" viewBox="0 0 24 24">
  <g clip-path="url(#a)">
    <path fill="#374957" d="M0 23v-7a9.01 9.01 0 0 1 9-9h4.83V5.412A2 2 0 0 1 17.244 4l5.88 5.88a3 3 0 0 1 0 4.241L17.244 20a2 2 0 0 1-3.414-1.415V17H8a6.006 6.006 0 0 0-6 6 1 1 0 1 1-2 0ZM15.83 8a1 1 0 0 1-1 1H9a7.008 7.008 0 0 0-7 7v1.713A7.985 7.985 0 0 1 8 15h6.83a1 1 0 0 1 1 1v2.586l5.879-5.879a1 1 0 0 0 0-1.414l-5.879-5.88V8Z"/>
  </g>
  <defs>
    <clipPath id="a">
      <path fill="#fff" d="M0 0h24v24H0z"/>
    </clipPath>
  </defs>
</svg>
