<svg xmlns="http://www.w3.org/2000/svg" width="24" height="24" fill="none" viewBox="0 0 24 24">
  <g clip-path="url(#a)">
    <path fill="#374957" d="M23 11h-2V9a1 1 0 1 0-2 0v2h-2a1 1 0 0 0 0 2h2v2a1 1 0 0 0 2 0v-2h2a1 1 0 0 0 0-2ZM9 12a6 6 0 1 0-6-6 6.006 6.006 0 0 0 6 6ZM9 2a4 4 0 1 1 0 8 4 4 0 0 1 0-8Zm0 12a9.01 9.01 0 0 0-9 9 1 1 0 1 0 2 0 7 7 0 1 1 14 0 1 1 0 0 0 2 0 9.01 9.01 0 0 0-9-9Z"/>
  </g>
  <defs>
    <clipPath id="a">
      <path fill="#fff" d="M0 0h24v24H0z"/>
    </clipPath>
  </defs>
</svg>
