<svg xmlns="http://www.w3.org/2000/svg" width="24" height="24" fill="none" viewBox="0 0 24 24">
  <g clip-path="url(#a)">
    <path fill="#374957" d="M23 3H13a1 1 0 0 0-1 1v3.27L9.6 3.11a2 2 0 0 0-3.47 0l-6 10.39A1 1 0 0 0 1 15h4.29a7 7 0 1 0 13.42 0H23a1 1 0 0 0 1-1V4a1 1 0 0 0-1-1ZM2.73 13l5.13-8.89L11.29 10a7 7 0 0 0-5 3H2.73ZM12 22a5 5 0 1 1 0-10.001 5 5 0 0 1 0 10Zm10-9h-4.26A7.07 7.07 0 0 0 14 10.29V5h8v8Z"/>
  </g>
  <defs>
    <clipPath id="a">
      <path fill="#fff" d="M0 0h24v24H0z"/>
    </clipPath>
  </defs>
</svg>
