<svg xmlns="http://www.w3.org/2000/svg" width="24" height="24" fill="none" viewBox="0 0 24 24">
  <g clip-path="url(#a)">
    <path fill="#374957" d="M23 13H1a1 1 0 1 1 0-2h22a1 1 0 0 1 0 2Zm-4.066-5.873a2.427 2.427 0 0 0-1.284-2.731L9.668.429A3.3 3.3 0 0 0 6.4.434 2.81 2.81 0 0 0 5 2.914v3.087a3 3 0 0 0 3 3h8.318a2.538 2.538 0 0 0 2.616-1.874ZM8.737 2.2l8.012 3.98a.421.421 0 0 1 .24.477c-.074.308-.494.34-.671.34H8A1 1 0 0 1 7 6V2.915a.825.825 0 0 1 .418-.758c.18-.104.385-.158.593-.156a1.5 1.5 0 0 1 .726.2Zm.891 21.394 8.033-3.994a2.425 2.425 0 0 0 1.273-2.726A2.538 2.538 0 0 0 16.318 15H8a3 3 0 0 0-3 3v3.085a2.808 2.808 0 0 0 1.4 2.48A3.211 3.211 0 0 0 8.032 24a3.286 3.286 0 0 0 1.596-.408v.002ZM16.318 17c.177 0 .6.033.671.34a.417.417 0 0 1-.229.473l-8.06 4.01a1.313 1.313 0 0 1-1.279.02.824.824 0 0 1-.421-.758V18a1 1 0 0 1 1-1h8.318Z"/>
  </g>
  <defs>
    <clipPath id="a">
      <path fill="#fff" d="M0 0h24v24H0z"/>
    </clipPath>
  </defs>
</svg>
