<svg xmlns="http://www.w3.org/2000/svg" width="24" height="24" fill="none" viewBox="0 0 24 24">
  <g clip-path="url(#a)">
    <path fill="#374957" d="M20.466 1.967 14.78.22a5.01 5.01 0 0 0-6.224 3.24L8.368 4H5a5.006 5.006 0 0 0-5 5v10a5.006 5.006 0 0 0 5 5h6a4.977 4.977 0 0 0 3.92-1.934c.228.033.458.05.689.052a4.976 4.976 0 0 0 4.775-3.563l3.416-10.4a5.02 5.02 0 0 0-3.334-6.188ZM11 22H5a3 3 0 0 1-3-3V9a3 3 0 0 1 3-3h6a3 3 0 0 1 3 3v10a3 3 0 0 1-3 3ZM21.887 7.563l-3.412 10.4a2.992 2.992 0 0 1-2.6 2.134c.082-.36.124-.728.125-1.097V9a5.006 5.006 0 0 0-5-5h-.507a3 3 0 0 1 3.7-1.867l5.686 1.746a3.006 3.006 0 0 1 2.008 3.684ZM12 13c0 1.45-1.544 3.39-2.714 4.378a1.991 1.991 0 0 1-2.572 0C5.544 16.39 4 14.45 4 13a2 2 0 0 1 4 0 2 2 0 0 1 4 0Z"/>
  </g>
  <defs>
    <clipPath id="a">
      <path fill="#fff" d="M0 0h24v24H0z"/>
    </clipPath>
  </defs>
</svg>
