<svg xmlns="http://www.w3.org/2000/svg" width="24" height="24" fill="none" viewBox="0 0 24 24">
  <g clip-path="url(#a)">
    <path fill="#374957" d="M21.781 20.367a7.494 7.494 0 0 0 2.2-4.73 7.96 7.96 0 0 0-5.62-8.276 1.089 1.089 0 0 1-.722-.734A7.96 7.96 0 0 0 4.57 3.154L1.707.293A1 1 0 0 0 .293 1.707l22 22a1 1 0 0 0 1.414-1.414l-1.926-1.926ZM9.101 3.065a5.992 5.992 0 0 1 6.623 4.155 3.1 3.1 0 0 0 2.044 2.052 5.97 5.97 0 0 1 4.213 6.21 5.407 5.407 0 0 1-1.627 3.458L5.982 4.568A5.952 5.952 0 0 1 9.1 3.065Zm7.892 18.763a1 1 0 0 1-.887 1.1c-.439.047-.88.07-1.32.07h-9.1A5.843 5.843 0 0 1 .056 18.3a5.446 5.446 0 0 1 2.881-5.65 7.646 7.646 0 0 1-.858-4.79 1 1 0 0 1 1.981.279 5.968 5.968 0 0 0 .6 3.585 2 2 0 0 1-.79 2.7 3.467 3.467 0 0 0-1.833 3.6A3.81 3.81 0 0 0 5.683 21h9.1c.37 0 .74-.02 1.107-.06a1.008 1.008 0 0 1 1.104.888Z"/>
  </g>
  <defs>
    <clipPath id="a">
      <path fill="#fff" d="M0 0h24v24H0z"/>
    </clipPath>
  </defs>
</svg>
