<svg xmlns="http://www.w3.org/2000/svg" width="24" height="24" fill="none" viewBox="0 0 24 24">
  <g clip-path="url(#a)">
    <path fill="#374957" d="M21.341 5.125A2.986 2.986 0 0 0 19.001 4h-4.328l.127-1.11a1 1 0 0 1 .99-.89H20a1 1 0 1 0 0-2h-4.21a3 3 0 0 0-2.98 2.669L12.66 4H5a3.02 3.02 0 0 0-2.945 3.556l1.512 12.066A5.008 5.008 0 0 0 8.53 24h6.941a5.01 5.01 0 0 0 4.962-4.379l1.5-11.968a2.982 2.982 0 0 0-.59-2.528ZM19.001 6a1 1 0 0 1 .78.375 1.067 1.067 0 0 1 .18.937L19.621 10h-5.616l.445-4H19Zm-14.78.374A1 1 0 0 1 5.001 6h7.436l-.445 4H4.374l-.35-2.784a.993.993 0 0 1 .197-.842Zm14.226 13A3.005 3.005 0 0 1 15.47 22H8.53a3 3 0 0 1-2.977-2.626L4.626 12h14.745l-.924 7.374Zm-5.009-4.264-.444 4a1.001 1.001 0 0 1-1.954.169.998.998 0 0 1-.034-.389l.444-4a1.014 1.014 0 0 1 1.105-.884 1 1 0 0 1 .883 1.104Z"/>
  </g>
  <defs>
    <clipPath id="a">
      <path fill="#fff" d="M0 0h24v24H0z"/>
    </clipPath>
  </defs>
</svg>
