<svg xmlns="http://www.w3.org/2000/svg" width="24" height="24" fill="none" viewBox="0 0 24 24">
  <g clip-path="url(#a)">
    <path fill="#374957" d="M16 15a1 1 0 0 1-1 1h-2v2a1 1 0 0 1-2 0v-2H9a1 1 0 1 1 0-2h2v-2a1 1 0 0 1 2 0v2h2a1 1 0 0 1 1 1Zm8-7v10a5.006 5.006 0 0 1-5 5H5a5.005 5.005 0 0 1-5-5V6a5.006 5.006 0 0 1 5-5h2.528c.465 0 .924.109 1.341.316L12.025 2.9c.14.067.292.101.447.1H19a5.006 5.006 0 0 1 5 5ZM2 6v1h19.816A3 3 0 0 0 19 5h-6.528c-.465 0-.924-.108-1.341-.316L7.975 3.105A1.016 1.016 0 0 0 7.528 3H5a3 3 0 0 0-3 3Zm20 12V9H2v9a3 3 0 0 0 3 3h14a3 3 0 0 0 3-3Z"/>
  </g>
  <defs>
    <clipPath id="a">
      <path fill="#fff" d="M0 0h24v24H0z"/>
    </clipPath>
  </defs>
</svg>
