<svg xmlns="http://www.w3.org/2000/svg" width="24" height="24" fill="none" viewBox="0 0 24 24">
  <g clip-path="url(#a)">
    <path fill="#374957" d="M17 24H7.005a4.014 4.014 0 0 1-3.848-2.879 3.94 3.94 0 0 1-.113-1.679A12.522 12.522 0 0 1 7.445 12a12.522 12.522 0 0 1-4.4-7.444A3.94 3.94 0 0 1 3.961 1.4 4.014 4.014 0 0 1 7.005 0H17a4.017 4.017 0 0 1 3.848 2.877 3.95 3.95 0 0 1 .114 1.678A12.557 12.557 0 0 1 16.552 12a12.557 12.557 0 0 1 4.405 7.448 3.945 3.945 0 0 1-.918 3.156A4.018 4.018 0 0 1 17 24Zm0-22H7.005a2.015 2.015 0 0 0-1.928 1.428 1.92 1.92 0 0 0-.056.828c.376 2.5 1.924 4.84 4.6 6.957a1 1 0 0 1 0 1.568c-2.676 2.119-4.22 4.461-4.6 6.96a1.921 1.921 0 0 0 .456 1.559 2.015 2.015 0 0 0 1.528.7H17a2.015 2.015 0 0 0 1.928-1.427c.08-.268.098-.55.056-.827-.373-2.487-1.92-4.829-4.6-6.962a1.001 1.001 0 0 1 0-1.564c2.681-2.133 4.228-4.475 4.6-6.963a1.918 1.918 0 0 0-.46-1.557A2.013 2.013 0 0 0 17 2Zm-1.319 18H8.318a1 1 0 0 1-.927-1.374 11.184 11.184 0 0 1 3.471-4.272l.518-.412a1 1 0 0 1 1.245 0l.51.406a11.3 11.3 0 0 1 3.472 4.276A1 1 0 0 1 15.681 20Zm-5.647-2h3.928A11.57 11.57 0 0 0 12 16a11.296 11.296 0 0 0-1.966 2Z"/>
  </g>
  <defs>
    <clipPath id="a">
      <path fill="#fff" d="M0 0h24v24H0z"/>
    </clipPath>
  </defs>
</svg>
