<svg xmlns="http://www.w3.org/2000/svg" width="24" height="24" fill="none" viewBox="0 0 24 24">
  <g clip-path="url(#a)">
    <path fill="#374957" d="M18.581 2.14 12.316.053a1 1 0 0 0-.632 0L5.42 2.14A4.993 4.993 0 0 0 2 6.884V12c0 7.563 9.2 11.74 9.594 11.914a1 1 0 0 0 .812 0C12.8 23.74 22 19.564 22 12V6.884a4.993 4.993 0 0 0-3.419-4.743Zm1.42 9.86c0 5.456-6.32 9.034-8 9.89-1.684-.853-8-4.42-8-9.89V6.885a3 3 0 0 1 2.051-2.846L12 2.055l5.948 1.983A3 3 0 0 1 20 6.884V12Z"/>
    <path fill="#374957" d="m15.3 8.3-4.188 4.2-2.244-2.34a1.001 1.001 0 1 0-1.441 1.386l2.306 2.4a1.873 1.873 0 0 0 1.345.6h.033a1.872 1.872 0 0 0 1.335-.553l4.272-4.272a1.003 1.003 0 1 0-1.418-1.42Z"/>
  </g>
  <defs>
    <clipPath id="a">
      <path fill="#fff" d="M0 0h24v24H0z"/>
    </clipPath>
  </defs>
</svg>
