<svg xmlns="http://www.w3.org/2000/svg" width="24" height="24" fill="none" viewBox="0 0 24 24">
  <g clip-path="url(#a)">
    <path fill="#374957" d="M15 20H5a5.006 5.006 0 0 1-5-5V5a5.006 5.006 0 0 1 5-5h10a5.006 5.006 0 0 1 5 5v10a5.006 5.006 0 0 1-5 5ZM5 2a3 3 0 0 0-3 3v10a3 3 0 0 0 3 3h10a3 3 0 0 0 3-3V5a3 3 0 0 0-3-3H5Zm19 17V6a1 1 0 0 0-2 0v13a3 3 0 0 1-3 3H6a1 1 0 0 0 0 2h13a5.006 5.006 0 0 0 5-5Z"/>
  </g>
  <defs>
    <clipPath id="a">
      <path fill="#fff" d="M0 0h24v24H0z"/>
    </clipPath>
  </defs>
</svg>
