<svg xmlns="http://www.w3.org/2000/svg" width="24" height="24" fill="none" viewBox="0 0 24 24">
  <g clip-path="url(#a)">
    <path fill="#374957" d="M23.241.435a1.983 1.983 0 0 0-1.7-.383 6.131 6.131 0 0 0-4.14 3.73A21.876 21.876 0 0 0 12 3c-1.826.035-3.64.297-5.4.782A6.133 6.133 0 0 0 2.455.052a1.982 1.982 0 0 0-1.7.383A2 2 0 0 0 0 2.006v7.852a10.927 10.927 0 0 0 3.222 7.778l4.657 4.657a5.862 5.862 0 0 0 8.242 0l4.657-4.657A10.932 10.932 0 0 0 24 9.858V2.006a1.994 1.994 0 0 0-.759-1.57ZM5.051 5.316a1 1 0 0 0 1.264.633A20.924 20.924 0 0 1 12 5c1.93.053 3.843.372 5.685.95a1 1 0 0 0 1.263-.634c.617-1.849 1.671-2.995 3.052-3.31v6.167c-2.428.56-9 2.811-9 10.827v.184a2.869 2.869 0 0 0-2 0V19c0-8.015-6.57-10.268-9-10.827V2c1.381.321 2.435 1.468 3.051 3.316Zm-.415 10.906a8.929 8.929 0 0 1-2.618-6c.682.18 1.345.422 1.982.723V11a3.78 3.78 0 0 0 3.6 2.978A8.852 8.852 0 0 1 9 19v1.586l-4.364-4.364Zm14.728 0L15 20.586V19a8.853 8.853 0 0 1 1.4-5.022A3.783 3.783 0 0 0 20 11v-.055a11.43 11.43 0 0 1 1.982-.722 8.929 8.929 0 0 1-2.618 6Z"/>
  </g>
  <defs>
    <clipPath id="a">
      <path fill="#fff" d="M0 0h24v24H0z"/>
    </clipPath>
  </defs>
</svg>
