<svg xmlns="http://www.w3.org/2000/svg" width="24" height="24" fill="none" viewBox="0 0 24 24">
  <g clip-path="url(#a)">
    <path fill="#374957" d="M23.955 21.319a1 1 0 0 0-1.252-.658l-1.3.4-.931-2.737a4.953 4.953 0 0 0 2.328-5.717l-1.843-5.475A3.023 3.023 0 0 0 17.28 5.11l-3.852 1.074A2.966 2.966 0 0 0 12 7.078a2.97 2.97 0 0 0-1.428-.894L6.719 5.11A3.008 3.008 0 0 0 3.052 7.1l-1.867 5.557a4.956 4.956 0 0 0 2.364 5.682l-.944 2.728L1.3 20.66a1 1 0 1 0-.6 1.91l2.16.67c.015 0 .024.018.039.024.015.006.052.006.078.013l2.18.677a1 1 0 0 0 .595-1.91l-1.236-.385.935-2.7a5 5 0 0 0 .559.04 5 5 0 0 0 4.79-3.608l1.2-3.556 1.183 3.5A5 5 0 0 0 17.99 19a4.93 4.93 0 0 0 .58-.04l.919 2.7-1.244.386a1 1 0 1 0 .594 1.91l2.175-.675c.026-.007.053 0 .079-.013.026-.013.026-.02.042-.025l2.162-.671a1.001 1.001 0 0 0 .658-1.253ZM13.357 8.592a.99.99 0 0 1 .608-.482l3.85-1.073A1 1 0 0 1 18.08 7a1.023 1.023 0 0 1 .972.739l.76 2.26H13.49l-.215-.636a.999.999 0 0 1 .082-.771ZM5.917 7c.09 0 .18.012.266.036l3.852 1.074a1 1 0 0 1 .7 1.223L10.51 10H4.187l.77-2.29a1.008 1.008 0 0 1 .96-.71Zm2.975 7.8a3 3 0 0 1-5.5.669 2.95 2.95 0 0 1-.292-2.224L3.514 12h6.322l-.944 2.8Zm7.632 1.808a3.025 3.025 0 0 1-1.431-1.86L14.163 12h6.324l.4 1.194a3 3 0 0 1-4.366 3.418l.003-.004ZM15.553 3.9a1 1 0 0 0 1.347-.453l1-2a1 1 0 0 0-1.79-.894l-1 2a1 1 0 0 0 .443 1.347Zm-8.448-.453A1.003 1.003 0 1 0 8.9 2.553l-1-2a1 1 0 0 0-1.79.894l.995 2ZM12 4a1 1 0 0 0 1-1V1a1 1 0 0 0-2 0v2a1 1 0 0 0 1 1Z"/>
  </g>
  <defs>
    <clipPath id="a">
      <path fill="#fff" d="M0 0h24v24H0z"/>
    </clipPath>
  </defs>
</svg>
