<svg xmlns="http://www.w3.org/2000/svg" width="24" height="24" fill="none" viewBox="0 0 24 24">
  <g clip-path="url(#a)">
    <path fill="#374957" d="M10 16a2 2 0 1 0 0-4 2 2 0 0 0 0 4Zm-4.293.293a1 1 0 0 0-1.414 1.414l2 2a1 1 0 1 0 1.414-1.414l-2-2Z"/>
    <path fill="#374957" d="M23.482.518a1.768 1.768 0 0 0-2.5 0l-.214.214a6.035 6.035 0 0 0-1.534 2.62l-2.975 2.975a5.894 5.894 0 0 0-7.7.232c-.16.159-.308.329-.445.508a2.283 2.283 0 0 1-1.554.96 7.055 7.055 0 0 0-4.5 2.037c-2.956 2.957-2.7 8.025.575 11.3A8.8 8.8 0 0 0 8.814 24a7.163 7.163 0 0 0 5.122-2.059 7.055 7.055 0 0 0 2.038-4.5 2.282 2.282 0 0 1 .959-1.554 4.95 4.95 0 0 0 .508-.445 5.9 5.9 0 0 0 .232-7.7l2.975-2.975a6.035 6.035 0 0 0 2.62-1.534l.214-.214a1.767 1.767 0 0 0 0-2.5Zm-7.455 13.51a2.891 2.891 0 0 1-.3.264 4.194 4.194 0 0 0-1.745 2.99 5.072 5.072 0 0 1-1.458 3.24c-2.175 2.174-5.975 1.92-8.468-.575-2.493-2.494-2.756-6.292-.577-8.468a5.072 5.072 0 0 1 3.239-1.458 4.192 4.192 0 0 0 2.99-1.745 2.89 2.89 0 0 1 .265-.3A3.41 3.41 0 0 1 12.419 7c.86.011 1.7.272 2.415.752l-1.541 1.541a1 1 0 1 0 1.414 1.414l1.538-1.538a3.858 3.858 0 0 1-.218 4.858Z"/>
  </g>
  <defs>
    <clipPath id="a">
      <path fill="#fff" d="M0 0h24v24H0z"/>
    </clipPath>
  </defs>
</svg>
