<svg xmlns="http://www.w3.org/2000/svg" width="24" height="24" fill="none" viewBox="0 0 24 24">
  <g clip-path="url(#a)">
    <path fill="#374957" d="M20 0h-1.757a3.975 3.975 0 0 0-2.829 1.172l-3.242 3.242A4.022 4.022 0 0 0 11 7.242v3.463c-3.266 2.415-7.58 5.633-8.12 6.174a2.993 2.993 0 0 0-.578 3.4L.293 22.293a1 1 0 0 0 1.414 1.414L3.714 21.7a2.964 2.964 0 0 0 3.407-.579c.541-.54 3.76-4.855 6.18-8.12h3.461a3.974 3.974 0 0 0 2.83-1.173l3.241-3.242A4.022 4.022 0 0 0 24 5.758V4a4 4 0 0 0-4-4ZM5.707 19.707a1.021 1.021 0 0 1-1.414 0 1 1 0 0 1 0-1.414c.34-.336 3-2.343 5.948-4.534-2.192 2.947-4.199 5.61-4.534 5.948ZM22 5.758a2.012 2.012 0 0 1-.586 1.414l-3.242 3.242a1.99 1.99 0 0 1-1.415.586h-1.986l.991-1.348 3.945-3.945a1.002 1.002 0 0 0-.316-1.645 1 1 0 0 0-1.098.231L14.35 8.237 13 9.23V7.242a2.01 2.01 0 0 1 .586-1.414l3.242-3.242A1.989 1.989 0 0 1 18.243 2H20a2 2 0 0 1 2 2v1.758Z"/>
  </g>
  <defs>
    <clipPath id="a">
      <path fill="#fff" d="M0 0h24v24H0z"/>
    </clipPath>
  </defs>
</svg>
