<svg xmlns="http://www.w3.org/2000/svg" width="24" height="24" fill="none" viewBox="0 0 24 24">
  <g clip-path="url(#a)">
    <path fill="#374957" d="M12 23.927a4.99 4.99 0 0 1-3.536-1.462l-6.93-6.93a5 5 0 0 1 0-7.07l6.93-6.932a5.008 5.008 0 0 1 7.072 0l6.93 6.931a5 5 0 0 1 0 7.07l-6.93 6.931A4.99 4.99 0 0 1 12 23.927ZM12 2.07a2.992 2.992 0 0 0-2.122.877l-6.93 6.931a3 3 0 0 0 0 4.242l6.93 6.931a3 3 0 0 0 4.244 0l6.93-6.93a3 3 0 0 0 0-4.243l-6.93-6.93A2.993 2.993 0 0 0 12 2.07Z"/>
  </g>
  <defs>
    <clipPath id="a">
      <path fill="#fff" d="M0 0h24v24H0z"/>
    </clipPath>
  </defs>
</svg>
