<svg xmlns="http://www.w3.org/2000/svg" width="24" height="24" fill="none" viewBox="0 0 24 24">
  <g clip-path="url(#a)">
    <path fill="#374957" d="m20.859 15.331-3.772 6.155A5.236 5.236 0 0 1 12.589 24a5.212 5.212 0 0 1-3-.955 4.741 4.741 0 0 1-6.69-6.566l-1.314-1.313a5.265 5.265 0 0 1 .955-8.2L8.307 3.4a8.859 8.859 0 0 1 10.327.551l1.659-1.659a1 1 0 1 1 1.414 1.414L20.05 5.364a8.951 8.951 0 0 1 .809 9.967ZM8.065 21.647l-3.72-3.72a2.72 2.72 0 0 0 .464 3.264 2.827 2.827 0 0 0 3.256.456Zm9.92-15.6A6.887 6.887 0 0 0 9.37 5.1L3.592 8.666A3.265 3.265 0 0 0 3 13.752l7.29 7.291a3.265 3.265 0 0 0 5.093-.6l3.755-6.125a6.937 6.937 0 0 0-1.152-8.276v.005ZM19.266 24a1 1 0 0 1-.591-1.808 8.634 8.634 0 0 0 3.315-5.407 1 1 0 1 1 1.953.43 10.7 10.7 0 0 1-4.088 6.593 1 1 0 0 1-.59.192ZM1 5.74a1 1 0 0 1-.8-1.595A10.692 10.692 0 0 1 6.913.02a1 1 0 1 1 .4 1.96A8.636 8.636 0 0 0 1.8 5.334a1 1 0 0 1-.8.405Z"/>
  </g>
  <defs>
    <clipPath id="a">
      <path fill="#fff" d="M0 0h24v24H0z"/>
    </clipPath>
  </defs>
</svg>
