<svg xmlns="http://www.w3.org/2000/svg" width="24" height="24" fill="none" viewBox="0 0 24 24">
  <g clip-path="url(#a)">
    <path fill="#374957" d="M9.5 11a1.5 1.5 0 1 0 0-3 1.5 1.5 0 0 0 0 3Zm9-8a1.5 1.5 0 1 0 0-3 1.5 1.5 0 0 0 0 3Zm3 5a1.5 1.5 0 1 0 0-3 1.5 1.5 0 0 0 0 3Zm-12 8a1.5 1.5 0 1 0 0-3 1.5 1.5 0 0 0 0 3Zm5 0a1.5 1.5 0 1 0 0-3 1.5 1.5 0 0 0 0 3Z"/>
    <path fill="#374957" d="M23.943 10.854a1 1 0 0 0-.9-.9A10 10 0 0 1 14.048.958a1 1 0 0 0-.9-.9A11.797 11.797 0 0 0 12 0a12 12 0 1 0 11.943 10.854ZM12 22a10 10 0 0 1 0-20h.17A12.006 12.006 0 0 0 22 11.83V12a10.011 10.011 0 0 1-10 10Z"/>
  </g>
  <defs>
    <clipPath id="a">
      <path fill="#fff" d="M0 0h24v24H0z"/>
    </clipPath>
  </defs>
</svg>
