<svg xmlns="http://www.w3.org/2000/svg" width="24" height="24" fill="none" viewBox="0 0 24 24">
  <g clip-path="url(#a)">
    <path fill="#374957" d="M19 0h-5a1 1 0 1 0 0 2h5a2.95 2.95 0 0 1 1.285.3L.293 22.293a1 1 0 1 0 1.414 1.414L21.7 3.715c.196.4.298.84.3 1.285v5a1 1 0 1 0 2 0V5a5.006 5.006 0 0 0-5-5Z"/>
    <path fill="#374957" d="M6 10a4 4 0 1 0 0-8 4 4 0 0 0 0 8Zm0-6a2 2 0 1 1 0 4 2 2 0 0 1 0-4Zm12 10a4 4 0 1 0 0 8 4 4 0 0 0 0-8Zm0 6a2 2 0 1 1 0-4 2 2 0 0 1 0 4Z"/>
  </g>
  <defs>
    <clipPath id="a">
      <path fill="#fff" d="M0 0h24v24H0z"/>
    </clipPath>
  </defs>
</svg>
