<svg xmlns="http://www.w3.org/2000/svg" width="24" height="24" fill="none" viewBox="0 0 24 24">
  <g clip-path="url(#a)">
    <path fill="#374957" d="M8.164 8a2.5 2.5 0 0 1-1.579-.594 4.833 4.833 0 0 1-1.557-3.26C4.785 1.651 6.145.18 7.614.016A2.655 2.655 0 0 1 9.6.611a4.178 4.178 0 0 1 1.376 2.9c.224 2.324-.848 4.49-2.812 4.49Zm-.328-6c-.577.064-.92.883-.817 1.946.03.714.324 1.392.826 1.9A.539.539 0 0 0 8.2 6c.351-.039.916-.94.783-2.3C8.641 1.834 7.861 2 7.836 2.005V2ZM3.164 14a2.5 2.5 0 0 1-1.579-.594 4.833 4.833 0 0 1-1.557-3.26c-.243-2.495 1.117-3.966 2.586-4.13A2.663 2.663 0 0 1 4.6 6.61a4.179 4.179 0 0 1 1.376 2.9C6.2 11.834 5.077 14 3.164 14Zm-.328-6c-.577.064-.92.883-.817 1.946.03.714.324 1.392.826 1.9A.556.556 0 0 0 3.2 12c.351-.039.916-.94.783-2.3C3.718 7.872 2.861 8 2.836 8.005V8Zm13 0c-1.708.012-3.034-2.166-2.807-4.492a4.178 4.178 0 0 1 1.376-2.9 2.66 2.66 0 0 1 1.981-.59c1.47.163 2.83 1.634 2.586 4.127a4.833 4.833 0 0 1-1.557 3.262A2.5 2.5 0 0 1 15.836 8Zm-.816-4.3c-.133 1.355.432 2.257.783 2.3a.553.553 0 0 0 .352-.145 2.868 2.868 0 0 0 .826-1.9c.21-2.62-1.78-2.45-1.96-.255ZM20.836 14c-1.862 0-3.034-2.166-2.807-4.492a4.178 4.178 0 0 1 1.376-2.9 2.653 2.653 0 0 1 1.981-.594c1.47.164 2.83 1.635 2.586 4.128a4.833 4.833 0 0 1-1.557 3.262 2.5 2.5 0 0 1-1.579.596Zm-.816-4.3c-.133 1.355.432 2.257.783 2.3a.573.573 0 0 0 .352-.145 2.868 2.868 0 0 0 .826-1.9c.1-1.063-.24-1.882-.817-1.946C21.14 8 20.115 7.911 20.02 9.7ZM16 24a4.852 4.852 0 0 1-2.447-.606 3.332 3.332 0 0 0-3.106 0C7.434 25.084 3.922 23.227 4 19c0-4.635 4.507-9 8-9 3.493 0 8 4.364 8 9 0 2.944-1.645 5-4 5Zm-4-3a4.865 4.865 0 0 1 2.447.605C16.684 22.823 18.035 21.172 18 19c0-3.38-3.52-7-6-7-2.479 0-6 3.62-6 7-.032 2.17 1.308 3.823 3.553 2.605A4.866 4.866 0 0 1 12 21Z"/>
  </g>
  <defs>
    <clipPath id="a">
      <path fill="#fff" d="M0 0h24v24H0z"/>
    </clipPath>
  </defs>
</svg>
