<svg xmlns="http://www.w3.org/2000/svg" width="24" height="24" fill="none" viewBox="0 0 24 24">
  <g clip-path="url(#a)">
    <path fill="#374957" d="M19.95 5.536 16.464 2.05A6.954 6.954 0 0 0 11.514 0H7a5.006 5.006 0 0 0-5 5v14a5.006 5.006 0 0 0 5 5h10a5.006 5.006 0 0 0 5-5v-8.515a6.955 6.955 0 0 0-2.05-4.949ZM18.536 6.95c.305.315.567.668.78 1.05H15a1 1 0 0 1-1-1V2.683a5.02 5.02 0 0 1 1.05.781l3.486 3.486ZM20 19a3 3 0 0 1-3 3H7a3 3 0 0 1-3-3V5a3 3 0 0 1 3-3h4.515c.165 0 .323.032.485.047V7a3 3 0 0 0 3 3h4.953c.015.162.047.32.047.485V19Zm-3.276-5.689a1 1 0 0 1-.035 1.413l-3.59 3.414a3 3 0 0 1-4.225-.017l-1.54-1.374a1 1 0 1 1 1.332-1.494l1.585 1.414a1 1 0 0 0 1.456.04l3.6-3.43a1.002 1.002 0 0 1 1.417.034Z"/>
  </g>
  <defs>
    <clipPath id="a">
      <path fill="#fff" d="M0 0h24v24H0z"/>
    </clipPath>
  </defs>
</svg>
