<svg xmlns="http://www.w3.org/2000/svg" width="24" height="24" fill="none" viewBox="0 0 24 24">
  <g clip-path="url(#a)">
    <path fill="#374957" d="M23.707 15.294a1 1 0 0 0-1.414 0L19.5 18.087l-2.793-2.793a1 1 0 0 0-1.414 1.414l2.793 2.793-2.793 2.793a1 1 0 1 0 1.414 1.414l2.793-2.793 2.793 2.793a1 1 0 0 0 1.414-1.414L20.914 19.5l2.793-2.793a1 1 0 0 0 0-1.414Z"/>
    <path fill="#374957" d="M12 22a10 10 0 1 1 10-10 1 1 0 0 0 2 0 12 12 0 1 0-12 12 1 1 0 0 0 0-2Z"/>
    <path fill="#374957" d="M12 6a1 1 0 0 0-1 1v4.586l-2.707 2.707a1 1 0 1 0 1.414 1.414l3-3A1 1 0 0 0 13 12V7a1 1 0 0 0-1-1Z"/>
  </g>
  <defs>
    <clipPath id="a">
      <path fill="#fff" d="M0 0h24v24H0z"/>
    </clipPath>
  </defs>
</svg>
