<svg xmlns="http://www.w3.org/2000/svg" width="24" height="24" fill="none" viewBox="0 0 24 24">
  <g clip-path="url(#a)">
    <path fill="#374957" d="M22.1 1.9C18.664-1.53 9.372-.065 4.652 4.654-.068 9.372-1.531 18.665 1.9 22.1a8.106 8.106 0 0 0 5.767 1.88 17.434 17.434 0 0 0 11.68-4.633c4.72-4.717 6.185-14.009 2.753-17.445Zm-5.767.1a6.232 6.232 0 0 1 4.35 1.315C21.7 4.332 22.112 6.3 21.96 8.545l-6.5-6.5c.295-.018.59-.044.874-.044ZM3.316 20.685C2.3 19.67 1.889 17.701 2.04 15.456l6.5 6.5c-2.241.155-4.21-.254-5.225-1.27Zm14.618-2.75a14.685 14.685 0 0 1-6.93 3.657l-8.6-8.6a14.674 14.674 0 0 1 3.662-6.924 14.645 14.645 0 0 1 6.94-3.646l8.586 8.586a14.673 14.673 0 0 1-3.658 6.928Zm-.227-6.227a1 1 0 0 1-1.414 0L15 10.415l-1.586 1.587 1.293 1.293a1 1 0 1 1-1.414 1.413L12 13.415l-1.586 1.587 1.293 1.293a1 1 0 1 1-1.414 1.413l-4-4a1 1 0 0 1 1.414-1.414L9 13.586l1.586-1.585-1.293-1.293a1 1 0 0 1 1.414-1.414L12 10.586l1.586-1.585-1.293-1.293a1 1 0 0 1 1.414-1.414l4 4a1 1 0 0 1 0 1.413Z"/>
  </g>
  <defs>
    <clipPath id="a">
      <path fill="#fff" d="M0 0h24v24H0z"/>
    </clipPath>
  </defs>
</svg>
