<svg xmlns="http://www.w3.org/2000/svg" width="24" height="24" fill="none" viewBox="0 0 24 24">
  <g clip-path="url(#a)">
    <path fill="#374957" d="M24 11.247A12.011 12.011 0 1 0 12.017 24H19a5.005 5.005 0 0 0 5-5v-7.753ZM22 19a3 3 0 0 1-3 3h-6.983a10.04 10.04 0 0 1-7.476-3.343 9.917 9.917 0 0 1-2.476-7.814 10.043 10.043 0 0 1 8.656-8.76c.431-.055.865-.082 1.3-.083A9.92 9.92 0 0 1 18.4 4.3a10.041 10.041 0 0 1 3.6 7.042V19Z"/>
    <path fill="#374957" d="M8 9h4a1 1 0 1 0 0-2H8a1 1 0 1 0 0 2Zm8 2H8a1 1 0 0 0 0 2h8a1 1 0 1 0 0-2Zm0 4H8a1 1 0 0 0 0 2h8a1 1 0 1 0 0-2Z"/>
  </g>
  <defs>
    <clipPath id="a">
      <path fill="#fff" d="M0 0h24v24H0z"/>
    </clipPath>
  </defs>
</svg>
