<svg xmlns="http://www.w3.org/2000/svg" width="24" height="24" fill="none" viewBox="0 0 24 24">
  <g clip-path="url(#a)">
    <path fill="#374957" d="M22.327 18.422C23.055 19.456 24 20.652 24 21.5a2.5 2.5 0 0 1-5 0c0-.775.96-2.008 1.692-3.069a1.001 1.001 0 0 1 1.635-.009Zm-.877-4.558-8.672 8.672a5.006 5.006 0 0 1-7.071 0l-4.242-4.243a5 5 0 0 1 0-7.07l5.709-5.71-2.856-2.89A1 1 0 0 1 5.74 1.215L8.588 4.1l1.548-1.55-.843-.843A1 1 0 0 1 10.707.293l13 13a1 1 0 1 1-1.414 1.414l-.843-.843Zm-1.414-1.414L11.55 3.964 9.993 5.522 14.71 10.3a1 1 0 1 1-1.422 1.4l-4.71-4.765-5.7 5.7a3 3 0 0 0 0 4.243l4.243 4.243a3.005 3.005 0 0 0 4.243 0l8.67-8.67Z"/>
  </g>
  <defs>
    <clipPath id="a">
      <path fill="#fff" d="M0 0h24v24H0z"/>
    </clipPath>
  </defs>
</svg>
