<svg xmlns="http://www.w3.org/2000/svg" width="24" height="24" fill="none" viewBox="0 0 24 24">
  <g clip-path="url(#a)">
    <path fill="#374957" d="M21 18a2.98 2.98 0 0 0-2.077.844l-2.96-1.481c.02-.12.032-.241.037-.363a2.908 2.908 0 0 0-.037-.363l2.96-1.481A2.994 2.994 0 1 0 18 13c.005.122.017.243.037.363l-2.96 1.48a3 3 0 1 0 0 4.313l2.96 1.48c-.02.121-.032.242-.037.364a3 3 0 1 0 3-3Zm0-6a1 1 0 1 1 0 2 1 1 0 0 1 0-2Zm-8 6a1 1 0 1 1 0-2 1 1 0 0 1 0 2Zm8 4a1 1 0 1 1 0-2 1 1 0 0 1 0 2Zm-9 0a1 1 0 0 1-1 1H5.679a5.841 5.841 0 0 1-5.622-4.7 5.443 5.443 0 0 1 2.885-5.651 7.652 7.652 0 0 1-.8-5.18 8 8 0 0 1 15.49-.842 1.09 1.09 0 0 0 .722.735 1 1 0 1 1-.588 1.91 3.1 3.1 0 0 1-2.044-2.052 6 6 0 1 0-11.06 4.513 1.994 1.994 0 0 1-.792 2.686 3.468 3.468 0 0 0-1.835 3.6 3.807 3.807 0 0 0 3.644 2.98H11a1 1 0 0 1 1 1Z"/>
  </g>
  <defs>
    <clipPath id="a">
      <path fill="#fff" d="M0 0h24v24H0z"/>
    </clipPath>
  </defs>
</svg>
