<svg xmlns="http://www.w3.org/2000/svg" width="24" height="24" fill="none" viewBox="0 0 24 24">
  <g clip-path="url(#a)">
    <path fill="#374957" d="M18 24H6a5.006 5.006 0 0 1-5-5V5a5.006 5.006 0 0 1 5-5h12a5.006 5.006 0 0 1 5 5v14a5.006 5.006 0 0 1-5 5ZM6 2a3 3 0 0 0-3 3v14a3 3 0 0 0 3 3h12a3 3 0 0 0 3-3V5a3 3 0 0 0-3-3H6Zm10 8H8a3 3 0 1 1 0-6h8a3 3 0 0 1 0 6ZM8 6a1 1 0 0 0 0 2h8a1 1 0 0 0 0-2H8Zm-2 7a1 1 0 1 0 0 2 1 1 0 0 0 0-2Zm4 0a1 1 0 1 0 0 2 1 1 0 0 0 0-2Zm4 0a1 1 0 1 0 0 2 1 1 0 0 0 0-2Zm-8 4a1 1 0 1 0 0 2 1 1 0 0 0 0-2Zm4 0a1 1 0 1 0 0 2 1 1 0 0 0 0-2Zm8-4a1 1 0 1 0 0 2 1 1 0 0 0 0-2Zm1 5a1 1 0 0 0-1-1h-4a1 1 0 1 0 0 2h4a1 1 0 0 0 1-1Z"/>
  </g>
  <defs>
    <clipPath id="a">
      <path fill="#fff" d="M0 0h24v24H0z"/>
    </clipPath>
  </defs>
</svg>
