<svg xmlns="http://www.w3.org/2000/svg" width="24" height="24" fill="none" viewBox="0 0 24 24">
  <g clip-path="url(#a)">
    <path fill="#374957" d="m13.845 17.267-3.262 3.262a5.028 5.028 0 0 1-7.111-7.11l3.262-3.264a1 1 0 0 0-1.415-1.414l-3.261 3.265A7.028 7.028 0 0 0 12 21.943l3.262-3.262a1 1 0 0 0-1.414-1.414h-.003Zm8.099-15.206a6.98 6.98 0 0 0-4.969-2.06 6.983 6.983 0 0 0-4.968 2.056L8.74 5.32a1 1 0 0 0 1.414 1.415l3.265-3.262A4.994 4.994 0 0 1 16.973 2a5.028 5.028 0 0 1 3.554 8.583l-3.262 3.262a1 1 0 1 0 1.415 1.415L21.942 12a7.037 7.037 0 0 0 .002-9.939Z"/>
    <path fill="#374957" d="m14.293 8.293-6 6a1 1 0 1 0 1.414 1.414l6-6a1 1 0 0 0-1.414-1.414Z"/>
  </g>
  <defs>
    <clipPath id="a">
      <path fill="#fff" d="M0 0h24v24H0z"/>
    </clipPath>
  </defs>
</svg>
