<svg xmlns="http://www.w3.org/2000/svg" width="24" height="24" fill="none" viewBox="0 0 24 24">
  <g clip-path="url(#a)">
    <path fill="#374957" d="M12 0a12 12 0 1 0 12 12A12.013 12.013 0 0 0 12 0Zm7.879 18.136a7.984 7.984 0 0 1-2.041-2.594l1.533-.613a1 1 0 1 0-.742-1.858l-1.445.578a7.482 7.482 0 0 1 0-3.3l1.445.578A1.002 1.002 0 0 0 20 9.985a1 1 0 0 0-.629-.916l-1.533-.613a7.984 7.984 0 0 1 2.041-2.594 9.936 9.936 0 0 1 0 12.272v.002ZM4.121 5.864a7.984 7.984 0 0 1 2.041 2.594l-1.533.613a1 1 0 1 0 .742 1.858l1.445-.578A8 8 0 0 1 7 12a8 8 0 0 1-.184 1.649l-1.445-.578A1.002 1.002 0 0 0 4 14.013a1 1 0 0 0 .629.916l1.533.613a7.985 7.985 0 0 1-2.041 2.594 9.936 9.936 0 0 1 0-12.272ZM5.507 19.59a9.955 9.955 0 0 0 2.511-3.306l1.611.645A1.002 1.002 0 0 0 11 15.987a1 1 0 0 0-.629-.916l-1.666-.666C8.9 13.618 8.999 12.811 9 12c-.001-.809-.1-1.615-.295-2.4l1.666-.666a1 1 0 1 0-.742-1.858l-1.611.645A9.955 9.955 0 0 0 5.507 4.41a9.952 9.952 0 0 1 12.986 0 9.956 9.956 0 0 0-2.511 3.306l-1.611-.645a1 1 0 0 0-.742 1.858L15.3 9.6a9.952 9.952 0 0 0 0 4.81l-1.666.666a1 1 0 1 0 .742 1.858l1.611-.645a9.956 9.956 0 0 0 2.511 3.306 9.952 9.952 0 0 1-12.986 0l-.005-.005Z"/>
  </g>
  <defs>
    <clipPath id="a">
      <path fill="#fff" d="M0 0h24v24H0z"/>
    </clipPath>
  </defs>
</svg>
