<svg xmlns="http://www.w3.org/2000/svg" width="24" height="24" fill="none" viewBox="0 0 24 24">
  <g clip-path="url(#a)">
    <path fill="#374957" d="M9 12A6 6 0 1 0 9 0a6 6 0 0 0 0 12ZM9 2a4 4 0 1 1 0 8 4 4 0 0 1 0-8Zm0 12a9.011 9.011 0 0 0-9 9 1 1 0 1 0 2 0 7 7 0 1 1 14 0 1 1 0 0 0 2 0 9.011 9.011 0 0 0-9-9Zm13-6.125a2.107 2.107 0 0 0-2 2.2 2.107 2.107 0 0 0-2-2.2 2.107 2.107 0 0 0-2 2.2c0 1.73 2.256 3.757 3.38 4.659a.992.992 0 0 0 1.24 0c1.124-.9 3.38-2.929 3.38-4.659a2.107 2.107 0 0 0-2-2.2Z"/>
  </g>
  <defs>
    <clipPath id="a">
      <path fill="#fff" d="M0 0h24v24H0z"/>
    </clipPath>
  </defs>
</svg>
