<svg xmlns="http://www.w3.org/2000/svg" width="24" height="24" fill="none" viewBox="0 0 24 24">
  <g clip-path="url(#a)">
    <path fill="#374957" d="M12.003-.002C5.366-.002-.015 5.378-.015 12.016c0 6.638 5.38 12.019 12.018 12.019 6.638 0 12.019-5.381 12.019-12.019 0-6.637-5.381-12.018-12.019-12.018Zm7.449 8.84.776-2.51a9.94 9.94 0 0 1 1.745 5.132L19.83 9.95a1 1 0 0 1-.38-1.112ZM14.6 2.353h-.008l-2 1.456a1 1 0 0 1-1.176 0l-2-1.456a9.694 9.694 0 0 1 5.184 0ZM3.772 6.33l.776 2.508a1 1 0 0 1-.38 1.113l-2.14 1.509a9.937 9.937 0 0 1 1.745-5.13Zm.235 11.654 2.747.009a1 1 0 0 1 .95.694l.864 2.693a10.032 10.032 0 0 1-4.561-3.396Zm11.426 3.396.863-2.693a1 1 0 0 1 .949-.694l2.748-.01a10.024 10.024 0 0 1-4.56 3.397Zm5.736-5.4-3.93.013a2.992 2.992 0 0 0-2.847 2.084l-1.235 3.85a9.208 9.208 0 0 1-2.314 0l-1.235-3.851a2.992 2.992 0 0 0-2.848-2.083l-3.93-.012a9.916 9.916 0 0 1-.658-2.176l3.149-2.22a2.992 2.992 0 0 0 1.138-3.337L5.324 4.576a9.993 9.993 0 0 1 1.884-1.35l3.028 2.2a2.993 2.993 0 0 0 3.528 0l3.028-2.2c.678.376 1.31.829 1.884 1.35L17.54 8.248a2.992 2.992 0 0 0 1.138 3.338l3.149 2.219a9.899 9.899 0 0 1-.66 2.175Z"/>
    <path fill="#374957" d="m15.386 9.224-1.917-1.392a2.491 2.491 0 0 0-2.938 0L8.614 9.224a2.493 2.493 0 0 0-.908 2.8l.732 2.253A2.494 2.494 0 0 0 10.815 16h2.37a2.5 2.5 0 0 0 2.378-1.728l.73-2.253a2.492 2.492 0 0 0-.907-2.795Zm-.994 2.177-.731 2.253a.5.5 0 0 1-.476.346h-2.37a.5.5 0 0 1-.475-.346L9.608 11.4a.5.5 0 0 1 .182-.56l1.916-1.39a.5.5 0 0 1 .588 0l1.917 1.392a.5.5 0 0 1 .18.559Z"/>
  </g>
  <defs>
    <clipPath id="a">
      <path fill="#fff" d="M0 0h24v24H0z"/>
    </clipPath>
  </defs>
</svg>
