<svg xmlns="http://www.w3.org/2000/svg" width="24" height="24" fill="none" viewBox="0 0 24 24">
  <g clip-path="url(#a)">
    <path fill="#374957" d="M9 10a1 1 0 1 1 2 0 1 1 0 0 1-2 0Zm5 1a1 1 0 1 0 0-2 1 1 0 0 0 0 2Zm-4 2a1 1 0 1 0 0 2.001A1 1 0 0 0 10 13Zm4 2a1 1 0 1 0 0-2 1 1 0 0 0 0 2Zm10-5v4a5.006 5.006 0 0 1-5 5H5a5.006 5.006 0 0 1-5-5v-4a5.006 5.006 0 0 1 5-5h14a5.006 5.006 0 0 1 5 5ZM7 7v10h10V7H7ZM5 17V7a3 3 0 0 0-3 3v4a3 3 0 0 0 3 3Zm17-7a3 3 0 0 0-3-3v10a3 3 0 0 0 3-3v-4Z"/>
  </g>
  <defs>
    <clipPath id="a">
      <path fill="#fff" d="M0 0h24v24H0z"/>
    </clipPath>
  </defs>
</svg>
