<svg xmlns="http://www.w3.org/2000/svg" width="24" height="24" fill="none" viewBox="0 0 24 24">
  <g clip-path="url(#a)">
    <path fill="#374957" d="M19.5 9H19V7a1 1 0 0 0-1-1 3.9 3.9 0 0 0-2.016-3.485 4.093 4.093 0 0 0-2.36-.5.593.593 0 0 1-.54-.223 4.508 4.508 0 0 0-7.331.229A3.993 3.993 0 0 0 2 6a1 1 0 0 0-1 1v12a5.006 5.006 0 0 0 5 5h8a5.006 5.006 0 0 0 5-5h.5a3.5 3.5 0 0 0 3.5-3.5v-3A3.5 3.5 0 0 0 19.5 9ZM6 4a.962.962 0 0 1 .17.021 1 1 0 0 0 1.069-.567A2.5 2.5 0 0 1 11.486 3a2.576 2.576 0 0 0 2.332 1.012 2.15 2.15 0 0 1 1.228.271A1.938 1.938 0 0 1 16 6h-4a3 3 0 0 0-3 3v3a1 1 0 1 1-2 0V9a3 3 0 0 0-3-3 2 2 0 0 1 2-2Zm11 15a3 3 0 0 1-3 3H6a3 3 0 0 1-3-3V8h1a1 1 0 0 1 1 1v3a3 3 0 1 0 6 0V9a1 1 0 0 1 1-1h5v11Zm4-3.5a1.5 1.5 0 0 1-1.5 1.5H19v-6h.5a1.5 1.5 0 0 1 1.5 1.5v3Z"/>
  </g>
  <defs>
    <clipPath id="a">
      <path fill="#fff" d="M0 0h24v24H0z"/>
    </clipPath>
  </defs>
</svg>
