<svg xmlns="http://www.w3.org/2000/svg" width="24" height="24" fill="none" viewBox="0 0 24 24">
  <g clip-path="url(#a)">
    <path fill="#374957" d="M21 12h-3a2 2 0 0 0-2 2 2 2 0 0 1-2 2h-4a2 2 0 0 1-2-2 2 2 0 0 0-2-2H3a3 3 0 0 0-3 3v4a5.006 5.006 0 0 0 5 5h14a5.006 5.006 0 0 0 5-5v-4a3 3 0 0 0-3-3Zm1 7a3 3 0 0 1-3 3H5a3 3 0 0 1-3-3v-4a1 1 0 0 1 1-1h3a4 4 0 0 0 4 4h4a4 4 0 0 0 4-4h3a1 1 0 0 1 1 1v4ZM3 10h18a1 1 0 0 0 0-2H3a1 1 0 0 0 0 2Zm0-4h18a1 1 0 0 0 0-2H3a1 1 0 0 0 0 2Z"/>
  </g>
  <defs>
    <clipPath id="a">
      <path fill="#fff" d="M0 0h24v24H0z"/>
    </clipPath>
  </defs>
</svg>
