<svg xmlns="http://www.w3.org/2000/svg" width="24" height="24" fill="none" viewBox="0 0 24 24">
  <g clip-path="url(#a)">
    <path fill="#374957" d="M21.012 0h-4.98a.997.997 0 0 0 0 1.995h4.567l-6.805 6.817a8.484 8.484 0 0 0-11.93 1.41c-2.904 3.69-2.274 9.04 1.41 11.95a8.484 8.484 0 0 0 11.928-1.411 8.519 8.519 0 0 0 0-10.538l6.806-6.817v4.576a.997.997 0 1 0 1.992 0V2.993A2.99 2.99 0 0 0 21.012 0ZM8.56 21.95c-3.575 0-6.474-2.903-6.474-6.485 0-3.582 2.899-6.485 6.474-6.485a6.48 6.48 0 0 1 6.475 6.485A6.487 6.487 0 0 1 8.56 21.95Z"/>
  </g>
  <defs>
    <clipPath id="a">
      <path fill="#fff" d="M0 0h24v24H0z"/>
    </clipPath>
  </defs>
</svg>
