<svg xmlns="http://www.w3.org/2000/svg" width="24" height="24" fill="none" viewBox="0 0 24 24">
  <g clip-path="url(#a)">
    <path fill="#374957" d="M22.5 3.976h-3.086a1 1 0 0 0-.707 1.707l1.086 1.086-3.586 3.585a1.024 1.024 0 0 1-1.415 0l-.17-.17a3.07 3.07 0 0 0-4.243 0l-5.1 5.1a1.003 1.003 0 1 0 1.42 1.416l5.1-5.1a1.023 1.023 0 0 1 1.416 0l.17.171a3.074 3.074 0 0 0 4.243 0l3.586-3.586L22.3 9.271a1 1 0 0 0 1.7-.709V5.476a1.5 1.5 0 0 0-1.5-1.5Z"/>
    <path fill="#374957" d="M23 21.976H5a3 3 0 0 1-3-3V1a1 1 0 0 0-2 0v17.976a5.006 5.006 0 0 0 5 5h18a1 1 0 0 0 0-2Z"/>
  </g>
  <defs>
    <clipPath id="a">
      <path fill="#fff" d="M0 0h24v24H0z"/>
    </clipPath>
  </defs>
</svg>
