<svg xmlns="http://www.w3.org/2000/svg" width="24" height="24" fill="none" viewBox="0 0 24 24">
  <g clip-path="url(#a)">
    <path fill="#374957" d="M17 24H7.005a4.02 4.02 0 0 1-3.045-1.4 3.945 3.945 0 0 1-.916-3.158A12.517 12.517 0 0 1 7.445 12a12.517 12.517 0 0 1-4.4-7.444A3.945 3.945 0 0 1 3.96 1.4 4.02 4.02 0 0 1 7.005 0H17a4.017 4.017 0 0 1 3.848 2.877 3.95 3.95 0 0 1 .114 1.678A12.557 12.557 0 0 1 16.552 12a12.557 12.557 0 0 1 4.405 7.448 3.945 3.945 0 0 1-.918 3.156A4.018 4.018 0 0 1 17 24Zm0-22H7.005a2.014 2.014 0 0 0-1.928 1.428 1.917 1.917 0 0 0-.055.828c.375 2.5 1.922 4.84 4.6 6.957a1 1 0 0 1 0 1.568c-2.678 2.119-4.222 4.461-4.6 6.96a1.917 1.917 0 0 0 .455 1.559 2.014 2.014 0 0 0 1.528.7H17a2.015 2.015 0 0 0 1.928-1.427c.08-.268.098-.55.056-.827-.373-2.487-1.92-4.829-4.6-6.962a1 1 0 0 1 0-1.564c2.681-2.133 4.228-4.475 4.6-6.963a1.918 1.918 0 0 0-.46-1.557A2.015 2.015 0 0 0 17 2Z"/>
  </g>
  <defs>
    <clipPath id="a">
      <path fill="#fff" d="M0 0h24v24H0z"/>
    </clipPath>
  </defs>
</svg>
