<svg xmlns="http://www.w3.org/2000/svg" width="24" height="24" fill="none" viewBox="0 0 24 24">
  <g clip-path="url(#a)">
    <path fill="#374957" d="m23.707 22.293-1.077-1.078-1.73-1.727 2.79-2.788a1 1 0 0 0-.366-1.646l-8.969-3.255a2 2 0 0 0-2.56 2.56l3.262 8.97a1 1 0 0 0 1.646.364L19.49 20.9l1.727 1.727 1.077 1.077a1 1 0 0 0 1.414-1.413v.003ZM16.4 21.165l-2.724-7.49 7.49 2.723-4.766 4.767Z"/>
    <path fill="#374957" d="M10 20a10 10 0 1 1 10-10 1 1 0 0 1-2 0 8 8 0 1 0-8 8 1 1 0 0 1 0 2Z"/>
    <path fill="#374957" d="M8.084 15.62a.999.999 0 0 1-.383-.076 6 6 0 1 1 7.846-7.834 1 1 0 1 1-1.848.764A4 4 0 1 0 8.468 13.7a1 1 0 0 1-.384 1.924v-.004Z"/>
  </g>
  <defs>
    <clipPath id="a">
      <path fill="#fff" d="M0 0h24v24H0z"/>
    </clipPath>
  </defs>
</svg>
