<svg xmlns="http://www.w3.org/2000/svg" width="24" height="24" fill="none" viewBox="0 0 24 24">
  <g clip-path="url(#a)">
    <path fill="#374957" d="M21.261 2.739a9.836 9.836 0 0 0-12.96-.625 4.49 4.49 0 1 0-4.167 6.849 9.415 9.415 0 0 0 .842 5.668.5.5 0 0 1-.07.564L2 16.945a3.743 3.743 0 0 0 2.192 7.028 3.705 3.705 0 0 0 2.725-1.735l2.068-3.127a.5.5 0 0 1 .575-.09 9.663 9.663 0 0 0 11.315-2.146A10.5 10.5 0 0 0 24 9.758a9.41 9.41 0 0 0-2.739-7.02Zm-19.26 1.76a2.5 2.5 0 1 1 5 0 2.5 2.5 0 0 1-5 0Zm8.44 12.727a2.494 2.494 0 0 0-3.018.632 1.166 1.166 0 0 0-.067.09L5.23 21.166a1.742 1.742 0 1 1-2.889-1.94 1.76 1.76 0 0 1 .641-.538l3.041-1.831a.949.949 0 0 0 .126-.09 2.49 2.49 0 0 0 .623-3.016 7.33 7.33 0 0 1-.693-4.26l8.433 8.434a7.31 7.31 0 0 1-4.07-.7Zm9.02-1.765a8.87 8.87 0 0 1-2.732 1.865c-.009-.01-.012-.023-.022-.033L7.36 7.945A4.473 4.473 0 0 0 9 4.5c0-.12-.026-.231-.035-.347a8.01 8.01 0 0 1 10.882 0A7.422 7.422 0 0 1 22 9.7a8.506 8.506 0 0 1-2.539 5.76Z"/>
  </g>
  <defs>
    <clipPath id="a">
      <path fill="#fff" d="M0 0h24v24H0z"/>
    </clipPath>
  </defs>
</svg>
