<svg xmlns="http://www.w3.org/2000/svg" width="24" height="24" fill="none" viewBox="0 0 24 24">
  <g clip-path="url(#a)">
    <path fill="#374957" d="M18 0H8a5 5 0 0 0-4.576 3H2a1 1 0 0 0 0 2h1v2H2a1 1 0 0 0 0 2h1v2H2a1 1 0 0 0 0 2h1v2H2a1 1 0 0 0 0 2h1v2H2a1 1 0 0 0 0 2h1.424A5 5 0 0 0 8 24h10a5.006 5.006 0 0 0 5-5V5a5.006 5.006 0 0 0-5-5Zm3 19a3 3 0 0 1-3 3H8a3 3 0 0 1-3-3V5a3 3 0 0 1 3-3h10a3 3 0 0 1 3 3v14Zm-8-7a3 3 0 1 0 0-6 3 3 0 0 0 0 6Zm5 6a1 1 0 1 1-2 0 3 3 0 1 0-6 0 1 1 0 1 1-2 0c.211-6.608 9.791-6.606 10 0Z"/>
  </g>
  <defs>
    <clipPath id="a">
      <path fill="#fff" d="M0 0h24v24H0z"/>
    </clipPath>
  </defs>
</svg>
