<svg xmlns="http://www.w3.org/2000/svg" width="24" height="24" fill="none" viewBox="0 0 24 24">
  <g clip-path="url(#a)">
    <path fill="#374957" d="M21.155 19.741a11.954 11.954 0 0 0 0-15.482l.86-.86A1 1 0 0 0 20.6 1.985l-.86.86a11.954 11.954 0 0 0-15.482 0l-.86-.86A1 1 0 0 0 1.985 3.4l.86.86a11.954 11.954 0 0 0 0 15.482l-.86.86A1 1 0 1 0 3.4 22.015l.86-.86a11.954 11.954 0 0 0 15.482 0l.86.86a1 1 0 0 0 1.413-1.415l-.86-.859Zm.845-7.74a9.948 9.948 0 0 1-2.262 6.323l-3.571-3.57a4.966 4.966 0 0 0 0-5.507l3.57-3.57A9.948 9.948 0 0 1 22 12ZM9 12a3 3 0 1 1 6 0 3 3 0 0 1-6 0Zm3-10a9.949 9.949 0 0 1 6.324 2.261l-3.571 3.571a4.966 4.966 0 0 0-5.506 0l-3.571-3.57A9.949 9.949 0 0 1 12 2ZM2 12a9.949 9.949 0 0 1 2.262-6.325l3.57 3.571a4.966 4.966 0 0 0 0 5.506l-3.57 3.571A9.949 9.949 0 0 1 2 12Zm10 10a9.949 9.949 0 0 1-6.324-2.263l3.57-3.57a4.966 4.966 0 0 0 5.507 0l3.57 3.57A9.949 9.949 0 0 1 12 22Z"/>
  </g>
  <defs>
    <clipPath id="a">
      <path fill="#fff" d="M0 0h24v24H0z"/>
    </clipPath>
  </defs>
</svg>
