<svg xmlns="http://www.w3.org/2000/svg" width="24" height="24" fill="none" viewBox="0 0 24 24">
  <path fill="#374957" d="m20.44 16.854-1.48-2.22a2.214 2.214 0 0 0 .618-3.073l-2.09-3.135a2.211 2.211 0 0 0 .372-2.836 1.235 1.235 0 0 0-.082-.109L13.678.7a2.38 2.38 0 0 0-3.4.051L6.206 5.477a.912.912 0 0 0-.08.107 2.212 2.212 0 0 0 .38 2.853l-2.084 3.124a2.214 2.214 0 0 0 .62 3.072L3.56 16.854A3.31 3.31 0 0 0 6.312 22H11v1a1 1 0 1 0 2 0v-1h4.687a3.309 3.309 0 0 0 2.753-5.145Zm-1.6 2.454a1.292 1.292 0 0 1-1.153.691H6.312a1.31 1.31 0 0 1-1.088-2.035l2.276-3.41A1 1 0 0 0 6.666 13h-.405a.2.2 0 0 1-.186-.11.2.2 0 0 1 .011-.218l2.745-4.117a1 1 0 0 0-.334-1.413A1.017 1.017 0 0 0 7.98 7a.2.2 0 0 1-.186-.11.2.2 0 0 1-.01-.178l3.961-4.6a.326.326 0 0 1 .464-.052L16.2 6.712a.201.201 0 0 1-.01.178A.2.2 0 0 1 16 7a1 1 0 0 0-.832 1.554l2.745 4.117a.2.2 0 0 1 .011.217.2.2 0 0 1-.186.111h-.405a1 1 0 0 0-.832 1.555l2.274 3.41a1.29 1.29 0 0 1 .066 1.344Z"/>
  <path fill="#374957" d="M9 18a1 1 0 1 0 0-2 1 1 0 0 0 0 2Zm5 0a1 1 0 1 0 0-2 1 1 0 0 0 0 2Zm-3-4a1 1 0 1 0 0-2 1 1 0 0 0 0 2Zm2-3a1 1 0 1 0 0-2 1 1 0 0 0 0 2Zm-2-3a1 1 0 1 0 0-2 1 1 0 0 0 0 2Z"/>
</svg>
