<svg xmlns="http://www.w3.org/2000/svg" width="24" height="24" fill="none" viewBox="0 0 24 24">
  <g clip-path="url(#a)">
    <path fill="#374957" d="M19.913 8.573v-.072a7.91 7.91 0 0 0-15.82 0v.072a7.91 7.91 0 1 0 7.91 13.696 7.91 7.91 0 1 0 7.91-13.696Zm-7.91 11.271a5.926 5.926 0 0 1-1.93-3.667 7.936 7.936 0 0 0 3.856 0 5.927 5.927 0 0 1-1.926 3.662v.005Zm0-5.41a5.92 5.92 0 0 1-1.838-.292 5.942 5.942 0 0 1 1.838-3.138 5.941 5.941 0 0 1 1.838 3.138 5.92 5.92 0 0 1-1.838.291Zm-3.632-1.247a5.941 5.941 0 0 1-2.16-3.4 5.932 5.932 0 0 1 4.066.143 7.917 7.917 0 0 0-1.906 3.257Zm5.358-3.262a5.932 5.932 0 0 1 4.067-.144 5.941 5.941 0 0 1-2.16 3.406 7.918 7.918 0 0 0-1.906-3.262Zm-1.726-7.356a5.941 5.941 0 0 1 5.885 5.182 7.91 7.91 0 0 0-5.885.823 7.91 7.91 0 0 0-5.884-.823 5.941 5.941 0 0 1 5.884-5.182ZM2.117 15.422c0-1.834.849-3.564 2.3-4.687a7.944 7.944 0 0 0 3.632 4.615v.072a7.884 7.884 0 0 0 2.228 5.497 5.932 5.932 0 0 1-8.16-5.497Zm13.841 5.932c-.764 0-1.52-.147-2.229-.435a7.884 7.884 0 0 0 2.229-5.497v-.072a7.944 7.944 0 0 0 3.633-4.614 5.932 5.932 0 0 1-3.633 10.618Z"/>
  </g>
  <defs>
    <clipPath id="a">
      <path fill="#fff" d="M0 0h24v24H0z"/>
    </clipPath>
  </defs>
</svg>
