<svg xmlns="http://www.w3.org/2000/svg" width="24" height="24" fill="none" viewBox="0 0 24 24">
  <g clip-path="url(#a)">
    <path fill="#374957" d="M23.836 8.794a3.179 3.179 0 0 0-3.067-2.226h-4.37l-1.326-4.136a3.227 3.227 0 0 0-6.146 0L7.6 6.568H3.23a3.227 3.227 0 0 0-1.9 5.832L4.888 15l-1.352 4.187A3.178 3.178 0 0 0 4.719 22.8a3.177 3.177 0 0 0 3.8-.019l3.48-2.562 3.483 2.56a3.227 3.227 0 0 0 4.983-3.592L19.113 15l3.56-2.6a3.177 3.177 0 0 0 1.163-3.606Zm-2.343 1.991-4.144 3.03a1 1 0 0 0-.362 1.115l1.575 4.87a1.227 1.227 0 0 1-1.895 1.365l-4.075-3a1 1 0 0 0-1.184 0l-4.075 3a1.227 1.227 0 0 1-1.9-1.365l1.58-4.87a1 1 0 0 0-.362-1.116l-4.144-3.029a1.227 1.227 0 0 1 .724-2.217h5.1a1 1 0 0 0 .952-.694l1.55-4.83a1.227 1.227 0 0 1 2.336 0l1.55 4.83a1 1 0 0 0 .952.694h5.1a1.227 1.227 0 0 1 .724 2.217h-.002Z"/>
  </g>
  <defs>
    <clipPath id="a">
      <path fill="#fff" d="M0 0h24v24H0z"/>
    </clipPath>
  </defs>
</svg>
