<svg xmlns="http://www.w3.org/2000/svg" width="24" height="24" fill="none" viewBox="0 0 24 24">
  <g clip-path="url(#a)">
    <path fill="#374957" d="M8.174 22.454a5.433 5.433 0 0 0 7.578.018l3.985-3.681c4.316-4.26 4.363-11.21.104-15.527C15.582-1.052 8.63-1.098 4.315 3.16l-.105.104c-4.287 4.288-4.286 11.24.002 15.527l.026.026 3.936 3.637ZM5.622 4.676A8.983 8.983 0 1 1 18.354 17.35l-3.977 3.675a3.508 3.508 0 0 1-4.828-.018L5.622 17.38a8.983 8.983 0 0 1 0-12.703Zm1.361 6.351c0-.55.447-.998.998-.998h7.985a.998.998 0 0 1 0 1.997H7.981a.998.998 0 0 1-.998-.998Z"/>
  </g>
  <defs>
    <clipPath id="a">
      <path fill="#fff" d="M0 0h24v24H0z"/>
    </clipPath>
  </defs>
</svg>
