<svg xmlns="http://www.w3.org/2000/svg" width="24" height="24" fill="none" viewBox="0 0 24 24">
  <g clip-path="url(#a)">
    <path fill="#374957" d="M16 6a1 1 0 0 1 0 2H8a1 1 0 0 1 0-2h8Zm7.707 17.707a1 1 0 0 1-1.414 0L19.886 21.3A4.457 4.457 0 0 1 15 21.242a4.5 4.5 0 1 1 7-3.742 4.458 4.458 0 0 1-.7 2.386l2.407 2.407a1 1 0 0 1 0 1.414ZM17.5 20a2.5 2.5 0 1 0 0-5 2.5 2.5 0 0 0 0 5ZM13 22H7a3 3 0 0 1-3-3V5a3 3 0 0 1 3-3h12a1 1 0 0 1 1 1v8a1 1 0 1 0 2 0V3a3 3 0 0 0-3-3H7a5.006 5.006 0 0 0-5 5v14a5.006 5.006 0 0 0 5 5h6a1 1 0 0 0 0-2Z"/>
  </g>
  <defs>
    <clipPath id="a">
      <path fill="#fff" d="M0 0h24v24H0z"/>
    </clipPath>
  </defs>
</svg>
