<svg xmlns="http://www.w3.org/2000/svg" width="24" height="24" fill="none" viewBox="0 0 24 24">
  <g clip-path="url(#a)">
    <path fill="#374957" d="M19 22H5a5.006 5.006 0 0 1-5-5V7a5.006 5.006 0 0 1 5-5h14a5.006 5.006 0 0 1 5 5v10a5.006 5.006 0 0 1-5 5ZM5 4a3 3 0 0 0-3 3v10a3 3 0 0 0 3 3h14a3 3 0 0 0 3-3V7a3 3 0 0 0-3-3H5Z"/>
    <path fill="#374957" d="M19 13h-8a1 1 0 1 1 0-2h8a1 1 0 0 1 0 2ZM7 13H5a1 1 0 1 1 0-2h2a1 1 0 0 1 0 2Zm6 5H5a1 1 0 0 1 0-2h8a1 1 0 1 1 0 2Zm6 0h-2a1 1 0 0 1 0-2h2a1 1 0 1 1 0 2Z"/>
  </g>
  <defs>
    <clipPath id="a">
      <path fill="#fff" d="M0 0h24v24H0z"/>
    </clipPath>
  </defs>
</svg>
