<svg xmlns="http://www.w3.org/2000/svg" width="24" height="24" fill="none" viewBox="0 0 24 24">
  <g clip-path="url(#a)">
    <path fill="#374957" d="M19 1H5a5.006 5.006 0 0 0-5 5v12a5.006 5.006 0 0 0 5 5h14a5.006 5.006 0 0 0 5-5V6a5.006 5.006 0 0 0-5-5ZM5 3h14a3 3 0 0 1 3 3v1H2V6a3 3 0 0 1 3-3Zm14 18H5a3 3 0 0 1-3-3V9h20v9a3 3 0 0 1-3 3Zm0-8a1 1 0 0 1-1 1H6a1 1 0 1 1 0-2h12a1 1 0 0 1 1 1Zm-4 4a1 1 0 0 1-1 1H6a1 1 0 1 1 0-2h8a1 1 0 0 1 1 1ZM3 5a1 1 0 1 1 2 0 1 1 0 0 1-2 0Zm3 0a1 1 0 1 1 2 0 1 1 0 0 1-2 0Zm3 0a1 1 0 1 1 2 0 1 1 0 0 1-2 0Z"/>
  </g>
  <defs>
    <clipPath id="a">
      <path fill="#fff" d="M0 0h24v24H0z"/>
    </clipPath>
  </defs>
</svg>
