<svg xmlns="http://www.w3.org/2000/svg" width="24" height="24" fill="none" viewBox="0 0 24 24">
  <path fill="#374957" d="m8.337 13.322 2.286-2.286L8.337 8.75a.997.997 0 1 1 1.41-1.41l2.286 2.286L14.32 7.34a.997.997 0 1 1 1.41 1.41l-2.287 2.286 2.287 2.286a.997.997 0 1 1-1.41 1.41l-2.287-2.286-2.286 2.286a.997.997 0 0 1-1.41-1.41Zm-4.031 5.496C-.03 14.588-.113 7.643 4.119 3.308c4.23-4.334 11.175-4.418 15.51-.187l.16.16c4.283 4.283 4.283 11.227 0 15.51l-3.98 3.679a5.427 5.427 0 0 1-7.572-.02l-3.931-3.632Zm-1.247-7.782a8.915 8.915 0 0 0 2.629 6.346l3.923 3.625a3.505 3.505 0 0 0 4.823.019l3.973-3.671A8.974 8.974 0 0 0 5.687 4.69a8.915 8.915 0 0 0-2.628 6.346Z"/>
</svg>
