<svg xmlns="http://www.w3.org/2000/svg" width="24" height="24" fill="none" viewBox="0 0 24 24">
  <g clip-path="url(#a)">
    <path fill="#374957" d="M23.1.9a3.139 3.139 0 0 0-4.33 0L7.563 12.1a5.54 5.54 0 0 0-1.058-.1 5.456 5.456 0 0 0-3.885 1.609C1.268 14.962.314 18.592.03 20.563a3 3 0 0 0 3.409 3.406c1.97-.283 5.6-1.237 6.954-2.59a5.494 5.494 0 0 0 1.5-4.94L23.1 5.229a3.068 3.068 0 0 0 0-4.33ZM8.977 19.966c-.725.725-3.5 1.689-5.824 2.023a1.014 1.014 0 0 1-.86-.283.999.999 0 0 1-.281-.86c.333-2.322 1.3-5.1 2.022-5.823a3.5 3.5 0 0 1 4.943 4.943Zm12.71-16.15-10.62 10.622a5.378 5.378 0 0 0-1.5-1.508L20.184 2.312a1.086 1.086 0 0 1 1.5 0 1.062 1.062 0 0 1 .004 1.504Z"/>
  </g>
  <defs>
    <clipPath id="a">
      <path fill="#fff" d="M0 0h24v24H0z"/>
    </clipPath>
  </defs>
</svg>
