<svg xmlns="http://www.w3.org/2000/svg" width="24" height="24" fill="none" viewBox="0 0 24 24">
  <g clip-path="url(#a)">
    <path fill="#374957" d="M13 24a6.006 6.006 0 0 1-6-6c0-1.56 1.2-4.046 3.552-7.389a3.016 3.016 0 0 1 4.9 0C17.805 13.954 19 16.44 19 18a6.006 6.006 0 0 1-6 6Zm0-12.658a.98.98 0 0 0-.813.422C9.31 15.844 9 17.484 9 18a4 4 0 0 0 8 0c0-.516-.311-2.156-3.187-6.235a.98.98 0 0 0-.813-.422ZM5 11a5.006 5.006 0 0 1-5-5c0-1.26.842-2.854 2.574-4.876a3.2 3.2 0 0 1 4.852 0C9.158 3.144 10 4.739 10 6a5.006 5.006 0 0 1-5 5Zm0-9a1.173 1.173 0 0 0-.906.422C2.151 4.69 2 5.732 2 6a3 3 0 1 0 6 0c0-.266-.151-1.31-2.094-3.576A1.171 1.171 0 0 0 5 2Zm14.5 7.963a4.505 4.505 0 0 1-4.5-4.5c0-1.09.7-2.506 2.146-4.326a3.02 3.02 0 0 1 4.708 0C23.3 2.957 24 4.372 24 5.463a4.505 4.505 0 0 1-4.5 4.5ZM19.5 2a1 1 0 0 0-.787.381C17.123 4.384 17 5.246 17 5.463a2.5 2.5 0 0 0 5 0c0-.217-.123-1.079-1.713-3.082A1 1 0 0 0 19.5 2Z"/>
  </g>
  <defs>
    <clipPath id="a">
      <path fill="#fff" d="M0 0h24v24H0z"/>
    </clipPath>
  </defs>
</svg>
