<svg xmlns="http://www.w3.org/2000/svg" width="24" height="24" fill="none" viewBox="0 0 24 24">
  <g clip-path="url(#a)">
    <path fill="#374957" d="M23.194 11.6a3.942 3.942 0 0 0-2.143-1.447c.417-1.214.726-2.462.922-3.73a3.008 3.008 0 0 0-3.4-3.393c-.126.017-.5.072-1.011.171A4.98 4.98 0 0 0 18 .968a1.001 1.001 0 0 0-2 .064 3.01 3.01 0 0 1-.29 1.4 3.898 3.898 0 0 0-.61-1.08A4.006 4.006 0 0 0 11.5.034 3.8 3.8 0 0 0 9.5.8 3.939 3.939 0 0 0 7.233.01a3.949 3.949 0 0 0-2.885.877A4.028 4.028 0 0 0 3 3.782a4.1 4.1 0 0 0 .73 2.466 4.951 4.951 0 0 0-1.7 4.288A3.967 3.967 0 0 0 .164 15.15a14.749 14.749 0 0 0 3.707 6.316A8.922 8.922 0 0 0 10.139 24h3.722c2.34.01 4.591-.9 6.267-2.534a14.742 14.742 0 0 0 3.708-6.316 4 4 0 0 0-.642-3.55ZM18.85 5.01a1.013 1.013 0 0 1 1.139 1.142A20.036 20.036 0 0 1 18.975 10h-2.561l1.293-1.293a1 1 0 0 0-1.414-1.414L13.586 10h-1.55a3.428 3.428 0 0 1 .977-2.9c.427-.43 2.064-1.6 5.838-2.09ZM5 3.85a2.026 2.026 0 0 1 .665-1.458A2.035 2.035 0 0 1 7.1 2.006a1.748 1.748 0 0 1 1.328.531 1.438 1.438 0 0 0 1.657.352 1.44 1.44 0 0 0 .483-.355 1.64 1.64 0 0 1 1.156-.513 2.03 2.03 0 0 1 1.828.6c.303.389.462.871.448 1.364v.207a6.446 6.446 0 0 0-3.228 2.563 4.916 4.916 0 0 0-5.284-1.5A2.064 2.064 0 0 1 5 3.85ZM4 10a3 3 0 1 1 6 0H4Zm17.916 4.59a12.92 12.92 0 0 1-3.2 5.46A6.9 6.9 0 0 1 13.86 22h-3.722a6.91 6.91 0 0 1-4.857-1.95 12.917 12.917 0 0 1-3.2-5.46 2.02 2.02 0 0 1 .324-1.79A1.978 1.978 0 0 1 4 12h16a1.977 1.977 0 0 1 1.6.8 2.018 2.018 0 0 1 .316 1.79Z"/>
  </g>
  <defs>
    <clipPath id="a">
      <path fill="#fff" d="M0 0h24v24H0z"/>
    </clipPath>
  </defs>
</svg>
