<svg xmlns="http://www.w3.org/2000/svg" width="24" height="24" fill="none" viewBox="0 0 24 24">
  <g clip-path="url(#a)">
    <path fill="#374957" d="M19 0H5a5.006 5.006 0 0 0-5 5v14a5.006 5.006 0 0 0 5 5h11.343a4.968 4.968 0 0 0 3.535-1.465l2.658-2.656A4.967 4.967 0 0 0 24 16.343V5a5.006 5.006 0 0 0-5-5ZM2 19V5a3 3 0 0 1 3-3h14a3 3 0 0 1 3 3v10h-4a3 3 0 0 0-3 3v4H5a3 3 0 0 1-3-3Zm16.464 2.121a3.02 3.02 0 0 1-1.464.8V18a1 1 0 0 1 1-1h3.922a2.978 2.978 0 0 1-.8 1.465l-2.658 2.656ZM14 9.084v-2.1a1.991 1.991 0 0 1 3.035-1.69c.312.19.567.461.737.784a.626.626 0 0 1-1.11.58A.78.78 0 0 0 16 6.25a.742.742 0 0 0-.749.75v2.068a.742.742 0 0 0 .749.751.759.759 0 0 0 .75-.735V9h-.25a.5.5 0 0 1 0-1h.75a.75.75 0 0 1 .75.75v.334a2 2 0 0 1-2 1.984 1.991 1.991 0 0 1-2-1.984ZM8 5.65v3.356a2.069 2.069 0 0 1-2.079 2.063A2.11 2.11 0 0 1 4.072 9.9a.651.651 0 1 1 1.162-.587.818.818 0 0 0 .687.459.77.77 0 0 0 .779-.783v-3.34a.65.65 0 1 1 1.3 0v.001ZM11.09 5H10a1 1 0 0 0-1 1v4.444a.625.625 0 1 0 1.25 0V9.223h.84a2.11 2.11 0 1 0 0-4.223Zm0 2.969h-.832l-.006-1.719h.838a.86.86 0 1 1 0 1.719Z"/>
  </g>
  <defs>
    <clipPath id="a">
      <path fill="#fff" d="M0 0h24v24H0z"/>
    </clipPath>
  </defs>
</svg>
