<svg xmlns="http://www.w3.org/2000/svg" width="24" height="24" fill="none" viewBox="0 0 24 24">
  <g clip-path="url(#a)">
    <path fill="#374957" d="M19.333 14.668a4.66 4.66 0 0 0-3.839 2.024l-6.509-2.94a4.574 4.574 0 0 0 .005-3.487l6.5-2.954a4.66 4.66 0 1 0-.827-2.643c.004.263.031.526.08.786l-6.91 3.14a4.668 4.668 0 1 0-.015 6.827l6.928 3.128a4.742 4.742 0 0 0-.079.785 4.667 4.667 0 1 0 4.666-4.666Zm0-12.667a2.667 2.667 0 1 1 .002 5.334A2.667 2.667 0 0 1 19.333 2ZM4.667 14.668a2.667 2.667 0 1 1-.002-5.335 2.667 2.667 0 0 1 .002 5.335ZM19.333 22a2.667 2.667 0 1 1 0-5.335 2.667 2.667 0 0 1 0 5.335Z"/>
  </g>
  <defs>
    <clipPath id="a">
      <path fill="#fff" d="M0 0h24v24H0z"/>
    </clipPath>
  </defs>
</svg>
