<svg xmlns="http://www.w3.org/2000/svg" width="24" height="24" fill="none" viewBox="0 0 24 24">
  <g clip-path="url(#a)">
    <path fill="#374957" d="M12 2a10.032 10.032 0 0 1 7.122 3H16a1 1 0 0 0 0 2h4.143A1.858 1.858 0 0 0 22 5.143V1a1 1 0 1 0-2 0v2.078A11.98 11.98 0 0 0 .05 10.9a1.007 1.007 0 0 0 1.665.852.982.982 0 0 0 .324-.63A10.014 10.014 0 0 1 12 2Zm10.951 10a.982.982 0 0 0-.989.878A9.987 9.987 0 0 1 4.878 19H8a1 1 0 1 0 0-2H3.857A1.856 1.856 0 0 0 2 18.857V23a1 1 0 1 0 2 0v-2.078A11.981 11.981 0 0 0 23.95 13.1a1.008 1.008 0 0 0-1-1.1h.001Z"/>
  </g>
  <defs>
    <clipPath id="a">
      <path fill="#fff" d="M0 0h24v24H0z"/>
    </clipPath>
  </defs>
</svg>
