<svg xmlns="http://www.w3.org/2000/svg" width="24" height="24" fill="none" viewBox="0 0 24 24">
  <g clip-path="url(#a)">
    <path fill="#374957" d="M7 0H4a4 4 0 0 0-4 4v3a4 4 0 0 0 4 4h3a4 4 0 0 0 4-4V4a4 4 0 0 0-4-4Zm2 7a2 2 0 0 1-2 2H4a2 2 0 0 1-2-2V4a2 2 0 0 1 2-2h3a2 2 0 0 1 2 2v3Zm-2 6H4a4 4 0 0 0-4 4v3a4 4 0 0 0 4 4h3a4 4 0 0 0 4-4v-3a4 4 0 0 0-4-4Zm2 7a2 2 0 0 1-2 2H4a2 2 0 0 1-2-2v-3a2 2 0 0 1 2-2h3a2 2 0 0 1 2 2v3Zm13.293-.951L20 21.339V2.633l2.293 2.29a1 1 0 1 0 1.414-1.415L21.12.925a3 3 0 0 0-4.24 0l-2.587 2.583a1 1 0 0 0 1.414 1.415L18 2.633v18.706l-2.293-2.29a.999.999 0 0 0-1.707.708 1 1 0 0 0 .293.707l2.587 2.583a3 3 0 0 0 4.24 0l2.587-2.583a1.001 1.001 0 0 0-1.414-1.415Z"/>
  </g>
  <defs>
    <clipPath id="a">
      <path fill="#fff" d="M0 0h24v24H0z"/>
    </clipPath>
  </defs>
</svg>
