<svg xmlns="http://www.w3.org/2000/svg" width="24" height="24" fill="none" viewBox="0 0 24 24">
  <g clip-path="url(#a)">
    <path fill="#374957" d="M22.827 1.174A3.969 3.969 0 0 0 19.04.12 31.29 31.29 0 0 0 5.256 7.87 7.757 7.757 0 0 0 3.01 13.7 7.65 7.65 0 0 0 4.58 18L.292 22.293a1 1 0 1 0 1.414 1.414l4.284-4.284A7.446 7.446 0 0 0 10.59 21a8.392 8.392 0 0 0 5.9-2.545c4.4-4.4 6.883-11.446 7.394-13.525a3.931 3.931 0 0 0-1.056-3.756ZM5.007 13.608a5.756 5.756 0 0 1 1.665-4.327C7.1 8.856 7.545 8.457 8 8.067v6.52l-1.99 1.99a5.67 5.67 0 0 1-1.003-2.969Zm10.038 3.46a5.908 5.908 0 0 1-7.618.92l2.279-2.28L12.414 13h5.762a25.78 25.78 0 0 1-3.13 4.067Zm6.9-12.62a29.632 29.632 0 0 1-2.6 6.552h-4.93l3.292-3.293a1.002 1.002 0 0 0-.316-1.645 1 1 0 0 0-1.098.231l-5 5L10 12.586V6.512a30.354 30.354 0 0 1 9.522-4.45c.158-.04.32-.061.484-.062a1.99 1.99 0 0 1 1.41.59 1.926 1.926 0 0 1 .525 1.857h.004Z"/>
  </g>
  <defs>
    <clipPath id="a">
      <path fill="#fff" d="M0 0h24v24H0z"/>
    </clipPath>
  </defs>
</svg>
