<svg xmlns="http://www.w3.org/2000/svg" width="24" height="24" fill="none" viewBox="0 0 24 24">
  <g clip-path="url(#a)">
    <path fill="#374957" d="M21.5 12.932A8.185 8.185 0 0 0 24 7.284c0-5.654-2.767-6.264-3.956-6.264-2.968 0-5.884 2.9-8.041 5.521C9.862 3.942 6.937 1.02 3.96 1.02-.19.76-1.706 9.091 2.506 12.933c.176.174.359.337.544.49a6.554 6.554 0 0 0-1.72 6.687 4.02 4.02 0 0 0 2.3 2.574 3.914 3.914 0 0 0 3.355-.131A16.383 16.383 0 0 0 11 19.621V22a1 1 0 1 0 2 0v-2.379a16.348 16.348 0 0 0 4.018 2.931 3.91 3.91 0 0 0 3.355.132 4.022 4.022 0 0 0 2.3-2.573A6.567 6.567 0 0 0 21 13.384c.17-.142.338-.292.5-.452ZM11 15.636c0 1.478-2.08 3.642-4.947 5.146a1.892 1.892 0 0 1-1.647.06 2.028 2.028 0 0 1-1.158-1.3 4.6 4.6 0 0 1 1.566-5.038A6.25 6.25 0 0 0 7.206 15 9.813 9.813 0 0 0 11 14.293v1.343Zm0-3.651A6.3 6.3 0 0 1 7.18 13a4.56 4.56 0 0 1-3.27-1.49 6.234 6.234 0 0 1-1.9-4.225c0-2.71.713-4.264 1.955-4.264 1.78-.001 4.14 1.837 7.035 5.47v3.494ZM13 8.5c2.88-3.63 5.252-5.48 7.044-5.48C21.287 3.02 22 4.574 22 7.284a6.237 6.237 0 0 1-1.9 4.225c-.84.902-2 1.437-3.23 1.491A6.435 6.435 0 0 1 13 11.98V8.5Zm7.752 11.048a2.025 2.025 0 0 1-1.158 1.3 1.893 1.893 0 0 1-1.647-.061C15.08 19.278 13 17.114 13 15.636v-1.345a9.811 9.811 0 0 0 3.8.709 6.094 6.094 0 0 0 2.424-.51 4.535 4.535 0 0 1 1.528 5.054v.004ZM10 2a2 2 0 1 1 4 0 2 2 0 0 1-4 0Z"/>
  </g>
  <defs>
    <clipPath id="a">
      <path fill="#fff" d="M0 0h24v24H0z"/>
    </clipPath>
  </defs>
</svg>
