<svg xmlns="http://www.w3.org/2000/svg" width="24" height="24" fill="none" viewBox="0 0 24 24">
  <g clip-path="url(#a)">
    <path fill="#374957" d="M13 14.184V8a1 1 0 0 0-2 0v6.184a2.994 2.994 0 1 0 2 0Zm4-2.072V5c-.21-6.609-9.79-6.6-10 0v7.111a7 7 0 1 0 10 0ZM12 22a5.018 5.018 0 0 1-3.332-8.719A1 1 0 0 0 9 12.537V5a3 3 0 1 1 6 0v7.537a1 1 0 0 0 .332.744A5.018 5.018 0 0 1 12 22.002Z"/>
  </g>
  <defs>
    <clipPath id="a">
      <path fill="#fff" d="M0 0h24v24H0z"/>
    </clipPath>
  </defs>
</svg>
