<svg xmlns="http://www.w3.org/2000/svg" width="24" height="24" fill="none" viewBox="0 0 24 24">
  <g clip-path="url(#a)">
    <path fill="#374957" d="M20.137 24a2.798 2.798 0 0 1-1.987-.835L12 17.051l-6.15 6.118a2.8 2.8 0 0 1-3.095.609A2.8 2.8 0 0 1 1 21.154V5a5 5 0 0 1 5-5h12a5 5 0 0 1 5 5v16.154a2.8 2.8 0 0 1-1.75 2.624 2.875 2.875 0 0 1-1.113.222ZM6 2a3 3 0 0 0-3 3v16.154a.843.843 0 0 0 1.437.6l6.863-6.821a1 1 0 0 1 1.41 0l6.855 6.819a.843.843 0 0 0 1.437-.6V5a3 3 0 0 0-3-3H6Z"/>
  </g>
  <defs>
    <clipPath id="a">
      <path fill="#fff" d="M0 0h24v24H0z"/>
    </clipPath>
  </defs>
</svg>
