<svg xmlns="http://www.w3.org/2000/svg" width="24" height="24" fill="none" viewBox="0 0 24 24">
  <g clip-path="url(#a)">
    <path fill="#374957" d="M19 24H5a5.006 5.006 0 0 1-5-5V5a5.006 5.006 0 0 1 5-5h14a5.006 5.006 0 0 1 5 5v14a5.006 5.006 0 0 1-5 5ZM5 2a3 3 0 0 0-3 3v14a3 3 0 0 0 3 3h14a3 3 0 0 0 3-3V5a3 3 0 0 0-3-3H5Zm4.342 15.005a2.368 2.368 0 0 1-1.186-.323 2.313 2.313 0 0 1-1.164-2.021V9.339a2.337 2.337 0 0 1 3.5-2.029l5.278 2.635a2.336 2.336 0 0 1 .049 4.084l-5.376 2.687a2.2 2.2 0 0 1-1.101.289Zm-.025-8a.327.327 0 0 0-.325.334v5.322a.337.337 0 0 0 .5.293l5.376-2.688a.315.315 0 0 0 .12-.266.324.324 0 0 0-.169-.292L9.545 9.073a.462.462 0 0 0-.228-.068Z"/>
  </g>
  <defs>
    <clipPath id="a">
      <path fill="#fff" d="M0 0h24v24H0z"/>
    </clipPath>
  </defs>
</svg>
