<svg xmlns="http://www.w3.org/2000/svg" width="24" height="24" fill="none" viewBox="0 0 24 24">
  <g clip-path="url(#a)">
    <path fill="#374957" d="M24 10a.984.984 0 0 0-.024-.217l-1.3-5.868A4.968 4.968 0 0 0 17.792 0H6.208a4.968 4.968 0 0 0-4.88 3.915L.024 9.783A.988.988 0 0 0 0 10v1c0 .974.355 1.914 1 2.643V19a5.006 5.006 0 0 0 5 5h12a5.005 5.005 0 0 0 5-5v-5.357c.645-.73 1-1.67 1-2.643v-1Zm-22 .11 1.28-5.76A2.982 2.982 0 0 1 6.208 2H7v3a1 1 0 0 0 2 0V2h6v3a1 1 0 0 0 2 0V2h.792a2.982 2.982 0 0 1 2.928 2.35L22 10.11V11a2 2 0 0 1-2 2h-1a2 2 0 0 1-2-2 1 1 0 1 0-2 0 2 2 0 0 1-2 2h-2a2 2 0 0 1-2-2 1 1 0 0 0-2 0 2 2 0 0 1-2 2H4a2 2 0 0 1-2-2v-.89ZM18 22H6a3 3 0 0 1-3-3v-4.127c.327.085.663.127 1 .127h1a3.99 3.99 0 0 0 3-1.357A3.989 3.989 0 0 0 11 15h2a3.99 3.99 0 0 0 3-1.357A3.99 3.99 0 0 0 19 15h1c.337 0 .673-.042 1-.127V19a3 3 0 0 1-3 3Z"/>
  </g>
  <defs>
    <clipPath id="a">
      <path fill="#fff" d="M0 0h24v24H0z"/>
    </clipPath>
  </defs>
</svg>
