<svg xmlns="http://www.w3.org/2000/svg" width="24" height="24" fill="none" viewBox="0 0 24 24">
  <g clip-path="url(#a)">
    <path fill="#374957" d="M19 1h-6a5.006 5.006 0 0 0-5 5v8.026A4.948 4.948 0 0 0 5 13a5 5 0 1 0 5 5V6a3 3 0 0 1 3-3h6a3 3 0 0 1 3 3v8.026A4.948 4.948 0 0 0 19 13a5 5 0 1 0 5 5V6a5.005 5.005 0 0 0-5-5ZM5 21a3 3 0 1 1 0-5.999 3 3 0 0 1 0 6Zm14 0a3 3 0 1 1 0-6 3 3 0 0 1 0 6Z"/>
  </g>
  <defs>
    <clipPath id="a">
      <path fill="#fff" d="M0 0h24v24H0z"/>
    </clipPath>
  </defs>
</svg>
