<svg xmlns="http://www.w3.org/2000/svg" width="24" height="24" fill="none" viewBox="0 0 24 24">
  <g clip-path="url(#a)">
    <path fill="#374957" d="M14.98 7.023v-4a1 1 0 1 1 2 0v2.611C17.61 5 21.681.908 22.273.316a1 1 0 1 1 1.414 1.414c-.592.592-4.642 4.665-5.268 5.293h2.561a1 1 0 1 1 0 2h-4a2 2 0 0 1-2-2Zm8.095 9.739a3.1 3.1 0 0 1 0 4.378l-.912 1.05c-8.19 7.838-28.119-12.084-20.4-20.3l1.15-1A3.081 3.081 0 0 1 7.24.929c.031.03 1.883 2.438 1.883 2.438a3.109 3.109 0 0 1-.006 4.282L7.96 9.105a12.783 12.783 0 0 0 6.931 6.945l1.465-1.165a3.1 3.1 0 0 1 4.28-.006s2.41 1.853 2.44 1.883ZM21.7 18.216s-2.393-1.842-2.424-1.872a1.1 1.1 0 0 0-1.549 0c-.027.026-2.044 1.634-2.044 1.634a1 1 0 0 1-.979.152A15.008 15.008 0 0 1 5.88 9.319a1 1 0 0 1 .145-1s1.608-2.014 1.635-2.04a1.1 1.1 0 0 0 0-1.549c-.03-.03-1.872-2.425-1.872-2.425a1.1 1.1 0 0 0-1.51.039l-1.15 1c-5.642 6.783 11.63 23.097 17.573 17.483l.912-1.051a1.12 1.12 0 0 0 .088-1.56Z"/>
  </g>
  <defs>
    <clipPath id="a">
      <path fill="#fff" d="M0 0h24v24H0z"/>
    </clipPath>
  </defs>
</svg>
