<svg xmlns="http://www.w3.org/2000/svg" width="24" height="24" fill="none" viewBox="0 0 24 24">
  <g clip-path="url(#a)">
    <path fill="#374957" d="M2 11h11a2 2 0 0 0 2-2V2a2 2 0 0 0-2-2H2a2 2 0 0 0-2 2v7a2 2 0 0 0 2 2Zm0-9h11v7H2V2Zm20-2h-3a2 2 0 0 0-2 2v7a2 2 0 0 0 2 2h3a2 2 0 0 0 2-2V2a2 2 0 0 0-2-2Zm0 9h-3V2h3v7ZM5 13H2a2 2 0 0 0-2 2v7a2 2 0 0 0 2 2h3a2 2 0 0 0 2-2v-7a2 2 0 0 0-2-2Zm0 9H2v-7h3v7Zm17-9H11a2 2 0 0 0-2 2v7a2 2 0 0 0 2 2h11a2 2 0 0 0 2-2v-7a2 2 0 0 0-2-2Zm0 9H11v-7h11v7Z"/>
  </g>
  <defs>
    <clipPath id="a">
      <path fill="#fff" d="M0 0h24v24H0z"/>
    </clipPath>
  </defs>
</svg>
