<svg xmlns="http://www.w3.org/2000/svg" width="24" height="24" fill="none" viewBox="0 0 24 24">
  <g clip-path="url(#a)">
    <path fill="#374957" d="M13 1v2a1 1 0 0 1-2 0V1a1 1 0 0 1 2 0Zm-1 19a1 1 0 0 0-1 1v2a1 1 0 0 0 2 0v-2a1 1 0 0 0-1-1Zm-8-8a1 1 0 0 0-1-1H1a1 1 0 0 0 0 2h2a1 1 0 0 0 1-1Zm19-1h-2a1 1 0 0 0 0 2h2a1 1 0 0 0 0-2Zm-4.982-9.382a1 1 0 0 0-1.367.364l-1 1.731a1 1 0 0 0 1.731 1.001l1-1.731a1 1 0 0 0-.364-1.365ZM7.987 18.921a1 1 0 0 0-1.366.364l-1 1.731a1 1 0 1 0 1.731 1.001l1-1.731a1 1 0 0 0-.365-1.365Zm-3.272-12.3-1.731-1a1 1 0 0 0-1 1.731l1.731 1a1 1 0 0 0 1-1.731Zm17.3 10.03-1.731-1a1 1 0 0 0-1 1.731l1.731 1a1 1 0 1 0 1-1.731ZM7.349 1.982a1 1 0 0 0-1.731 1l1 1.731a1 1 0 1 0 1.731-1.001l-1-1.73Zm10.03 17.3a1 1 0 0 0-1.731 1l1 1.731a1 1 0 0 0 1.731-1l-1-1.731Zm2.408-10.8a1 1 0 0 0 .5-.134l1.731-1a1 1 0 0 0-1-1.731l-1.731 1a1 1 0 0 0 .5 1.865ZM3.713 15.648l-1.731 1a1 1 0 1 0 1 1.731l1.731-1a1 1 0 0 0-1-1.731Z"/>
  </g>
  <defs>
    <clipPath id="a">
      <path fill="#fff" d="M0 0h24v24H0z"/>
    </clipPath>
  </defs>
</svg>
