<svg xmlns="http://www.w3.org/2000/svg" width="24" height="24" fill="none" viewBox="0 0 24 24">
  <g clip-path="url(#a)">
    <path fill="#374957" d="M19 0h-6a5.006 5.006 0 0 0-5 5v.1A5.009 5.009 0 0 0 4 10v.1A5.01 5.01 0 0 0 0 15v4a5.006 5.006 0 0 0 5 5h6a5.006 5.006 0 0 0 5-5v-.1a5.01 5.01 0 0 0 4-4.9v-.1A5.01 5.01 0 0 0 24 9V5a5.006 5.006 0 0 0-5-5ZM2 15a3 3 0 0 1 3-3h6a2.988 2.988 0 0 1 2.638 1.6l-3.455 3.463-.475-.479A1.992 1.992 0 0 0 7 16.473l-4.621 3.96A2.96 2.96 0 0 1 2 19v-4Zm12 4a3 3 0 0 1-3 3H5a2.97 2.97 0 0 1-1.118-.221L8.288 18l.476.481a2 2 0 0 0 2.828 0L14 16.068V19Zm4-5a3 3 0 0 1-2 2.816V15a5.006 5.006 0 0 0-5-5H6a3 3 0 0 1 3-3h6a3 3 0 0 1 3 3v4Zm4-5a3 3 0 0 1-2 2.816V10a5.006 5.006 0 0 0-5-5h-5a3 3 0 0 1 3-3h6a3 3 0 0 1 3 3v4ZM4 15a1 1 0 1 1 2 0 1 1 0 0 1-2 0Z"/>
  </g>
  <defs>
    <clipPath id="a">
      <path fill="#fff" d="M0 0h24v24H0z"/>
    </clipPath>
  </defs>
</svg>
