<svg xmlns="http://www.w3.org/2000/svg" width="24" height="24" fill="none" viewBox="0 0 24 24">
  <path fill="#374957" d="M22.207 5.03c-.896-1.495-2.49-2.49-4.282-2.49H5.975c-1.792 0-3.386.995-4.282 2.49C.598 7.02 0 9.211 0 11.501c0 5.477 2.19 9.959 4.98 9.959 1.493 0 2.688-1.394 3.584-4.282.1-.399.498-.697.996-.697h4.88c.398 0 .796.298.996.697.896 2.888 2.091 4.282 3.585 4.282 2.788 0 4.979-4.482 4.979-9.959-.1-2.29-.697-4.481-1.793-6.473Zm-3.286 14.439c-.299 0-.996-.797-1.693-2.888-.398-1.294-1.593-2.091-2.888-2.091H9.56c-1.294 0-2.49.896-2.888 2.091-.697 2.091-1.394 2.888-1.693 2.888-.996 0-2.987-3.087-2.987-7.967 0-1.892.498-3.784 1.394-5.477.597-.896 1.593-1.494 2.59-1.494h11.95c.995 0 1.991.598 2.589 1.494.896 1.693 1.394 3.585 1.394 5.477 0 4.88-1.992 7.967-2.988 7.967Z"/>
  <path fill="#374957" d="M9 9H8V8c0-.6-.4-1-1-1s-1 .4-1 1v1H5c-.6 0-1 .4-1 1s.4 1 1 1h1v1c0 .6.4 1 1 1s1-.4 1-1v-1h1c.6 0 1-.4 1-1s-.4-1-1-1Zm9.5 1a1.5 1.5 0 1 0 0-3 1.5 1.5 0 0 0 0 3Zm-3 3a1.5 1.5 0 1 0 0-3 1.5 1.5 0 0 0 0 3Z"/>
</svg>
