<svg xmlns="http://www.w3.org/2000/svg" width="24" height="24" fill="none" viewBox="0 0 24 24">
  <g clip-path="url(#a)">
    <path fill="#374957" d="M19.981 7.023v-6a1 1 0 1 1 2 0v6a1 1 0 0 1-2 0Zm-3 1a1 1 0 0 0 1-1v-6a1 1 0 0 0-2 0v6a1 1 0 0 0 1 1Zm6.095 13.116-.912 1.05c-8.19 7.84-28.12-12.084-20.4-20.3l1.15-1a3.08 3.08 0 0 1 4.328.04c.031.03 1.882 2.438 1.882 2.438a3.1 3.1 0 0 1-.005 4.28L7.96 9.1a12.784 12.784 0 0 0 6.932 6.947l1.464-1.165a3.1 3.1 0 0 1 4.282-.007s2.407 1.853 2.438 1.884a3.1 3.1 0 0 1 .001 4.38ZM21.7 18.216s-2.4-1.842-2.425-1.872a1.121 1.121 0 0 0-1.549 0 471.44 471.44 0 0 1-2.044 1.635 1 1 0 0 1-.979.15 15 15 0 0 1-8.823-8.81 1 1 0 0 1 .146-.995S7.633 6.307 7.661 6.28a1.1 1.1 0 0 0 0-1.55 448.49 448.49 0 0 1-1.873-2.423 1.1 1.1 0 0 0-1.51.038L3.128 3.35c-5.64 6.779 11.63 23.093 17.572 17.477l.912-1.05a1.122 1.122 0 0 0 .088-1.56Z"/>
  </g>
  <defs>
    <clipPath id="a">
      <path fill="#fff" d="M0 0h24v24H0z"/>
    </clipPath>
  </defs>
</svg>
