<svg xmlns="http://www.w3.org/2000/svg" width="24" height="24" fill="none" viewBox="0 0 24 24">
  <g clip-path="url(#a)">
    <path fill="#374957" d="M24 12a1 1 0 0 1-2 0A10.011 10.011 0 0 0 12 2a1 1 0 1 1 0-2 12.013 12.013 0 0 1 12 12Zm-8 1a1 1 0 0 0 0-2h-2.277a2 2 0 0 0-.723-.723V7a1 1 0 0 0-2 0v3.277A1.994 1.994 0 1 0 13.723 13H16ZM1.827 6.784a1 1 0 1 0 0 2 1 1 0 0 0 0-2ZM2 12a1 1 0 1 0-2 0 1 1 0 0 0 2 0Zm10 10a1 1 0 1 0 0 2 1 1 0 0 0 0-2ZM4.221 3.207a1 1 0 1 0 0 2 1 1 0 0 0 0-2ZM7.779.841a1 1 0 1 0 0 2 1 1 0 0 0 0-2ZM1.827 15.216a1 1 0 1 0 0 2 1 1 0 0 0 0-2Zm2.394 3.577a1 1 0 1 0 0 2 1 1 0 0 0 0-2Zm3.558 2.366a1 1 0 1 0 0 2 1 1 0 0 0 0-2Zm14.394-5.943a1 1 0 1 0 0 2 1 1 0 0 0 0-2Zm-2.394 3.577a1 1 0 1 0 0 2 1 1 0 0 0 0-2Zm-3.558 2.366a1 1 0 1 0 0 2 1 1 0 0 0 0-2Z"/>
  </g>
  <defs>
    <clipPath id="a">
      <path fill="#fff" d="M0 0h24v24H0z"/>
    </clipPath>
  </defs>
</svg>
