<svg xmlns="http://www.w3.org/2000/svg" width="24" height="24" fill="none" viewBox="0 0 24 24">
  <g clip-path="url(#a)">
    <path fill="#374957" d="M22.2 2.163a4.992 4.992 0 0 0-4.1-1.081l-3.822.694A4 4 0 0 0 12 3.065a4 4 0 0 0-2.284-1.289L5.9 1.082A5 5 0 0 0 0 6v10.793a5 5 0 0 0 4.105 4.919l6.286 1.143a8.997 8.997 0 0 0 3.218 0l6.291-1.143a5 5 0 0 0 4.1-4.919V6a4.983 4.983 0 0 0-1.8-3.837ZM11 20.928a7.339 7.339 0 0 1-.252-.041l-6.285-1.142A3 3 0 0 1 2 16.793V6a3 3 0 0 1 3.54-2.951l3.82.7A2 2 0 0 1 11 5.712v15.216Zm11-4.135a3 3 0 0 1-2.463 2.952l-6.285 1.142a7.339 7.339 0 0 1-.252.041V5.712a2 2 0 0 1 1.642-1.968l3.821-.7A3 3 0 0 1 22 6v10.793Z"/>
  </g>
  <defs>
    <clipPath id="a">
      <path fill="#fff" d="M0 0h24v24H0z"/>
    </clipPath>
  </defs>
</svg>
