<svg xmlns="http://www.w3.org/2000/svg" width="24" height="24" fill="none" viewBox="0 0 24 24">
  <g clip-path="url(#a)">
    <path fill="#374957" d="M19.95 5.537 16.464 2.05A6.958 6.958 0 0 0 11.515 0H7a5.006 5.006 0 0 0-5 5v14a5.006 5.006 0 0 0 5 5h10a5.006 5.006 0 0 0 5-5v-8.516a6.95 6.95 0 0 0-2.05-4.948ZM18.534 6.95c.305.314.568.667.781 1.05H15a1 1 0 0 1-1-1V2.685c.383.212.736.475 1.051.78l3.484 3.486ZM20 19a3 3 0 0 1-3 3H7a3 3 0 0 1-3-3V5a3 3 0 0 1 3-3h4.515c.164 0 .323.032.485.047V7a3 3 0 0 0 3 3h4.953c.015.162.047.32.047.485V19Z"/>
  </g>
  <defs>
    <clipPath id="a">
      <path fill="#fff" d="M0 0h24v24H0z"/>
    </clipPath>
  </defs>
</svg>
