<svg xmlns="http://www.w3.org/2000/svg" width="24" height="24" fill="none" viewBox="0 0 24 24">
  <g clip-path="url(#a)">
    <path fill="#374957" d="M10 10a3 3 0 1 0 0 6h4a3 3 0 0 0 0-6h-4Zm5 3a1 1 0 0 1-1 1h-4a1 1 0 0 1 0-2h4a1 1 0 0 1 1 1Zm2 6a1 1 0 0 1-1 1H8a1 1 0 0 1 0-2h8a1 1 0 0 1 1 1Zm2.536-15.88-1.658-1.655A4.967 4.967 0 0 0 14.343 0H8a5.006 5.006 0 0 0-5 5v14a5.006 5.006 0 0 0 5 5h8a5.006 5.006 0 0 0 5-5V6.657a4.967 4.967 0 0 0-1.464-3.536Zm-1.414 1.415c.14.142.267.298.378.465H16V2.5c.167.11.323.236.464.377l1.658 1.658ZM19 19a3 3 0 0 1-3 3H8a3 3 0 0 1-3-3V5a3 3 0 0 1 3-3h6v3a2 2 0 0 0 2 2h3v12Z"/>
  </g>
  <defs>
    <clipPath id="a">
      <path fill="#fff" d="M0 0h24v24H0z"/>
    </clipPath>
  </defs>
</svg>
