<svg xmlns="http://www.w3.org/2000/svg" width="24" height="24" fill="none" viewBox="0 0 24 24">
  <g clip-path="url(#a)">
    <path fill="#374957" d="M11.999 12a4 4 0 1 0 0-8 4 4 0 0 0 0 8Zm0-6a2 2 0 1 1 0 4 2 2 0 0 1 0-4Zm8.66 3.157-.72-.239A8 8 0 0 0 12 0a7.993 7.993 0 0 0-7.914 9.092 5.045 5.045 0 0 0-2.548 1.3A4.946 4.946 0 0 0-.001 14v4.075a5.013 5.013 0 0 0 3.6 4.8l2.87.9a5.045 5.045 0 0 0 2.844.039l5.78-1.71a2.988 2.988 0 0 1 1.573 0l2.387.8a3.999 3.999 0 0 0 4.946-3.883v-5.149a5.015 5.015 0 0 0-3.34-4.716v.001ZM7.757 3.762a5.987 5.987 0 0 1 8.484 0 6.037 6.037 0 0 1 .01 8.5L12.7 15.717a.992.992 0 0 1-1.39 0l-3.552-3.44a6.04 6.04 0 0 1 0-8.515Zm14.242 15.259a1.99 1.99 0 0 1-.764 1.572 1.97 1.97 0 0 1-1.626.395l-2.345-.788a5.023 5.023 0 0 0-2.717-.016l-5.784 1.708a3 3 0 0 1-1.694-.029l-2.894-.9a3.013 3.013 0 0 1-2.176-2.888V14a2.964 2.964 0 0 1 .92-2.163 3.025 3.025 0 0 1 1.669-.806A8.02 8.02 0 0 0 6.353 13.7l3.567 3.453a2.983 2.983 0 0 0 4.174 0l3.563-3.463a7.963 7.963 0 0 0 1.813-2.821l.537.178a3.007 3.007 0 0 1 1.992 2.825v5.149Z"/>
  </g>
  <defs>
    <clipPath id="a">
      <path fill="#fff" d="M0 0h24v24H0z"/>
    </clipPath>
  </defs>
</svg>
