<svg xmlns="http://www.w3.org/2000/svg" width="24" height="24" fill="none" viewBox="0 0 24 24">
  <g clip-path="url(#a)">
    <path fill="#374957" d="M12 0a12 12 0 1 0 12 12A12.013 12.013 0 0 0 12 0Zm0 16c-5.724 0-10-2.111-10-4 0-1.889 4.276-4 10-4s10 2.111 10 4c0 1.889-4.276 4-10 4Zm0-14a10.013 10.013 0 0 1 9.189 6.062A18.635 18.635 0 0 0 12 6c-3.189-.11-6.353.6-9.189 2.062A10.013 10.013 0 0 1 12 2Zm0 20a10.014 10.014 0 0 1-9.189-6.062A18.63 18.63 0 0 0 12 18c3.189.11 6.353-.6 9.189-2.062A10.013 10.013 0 0 1 12 22Z"/>
  </g>
  <defs>
    <clipPath id="a">
      <path fill="#fff" d="M0 0h24v24H0z"/>
    </clipPath>
  </defs>
</svg>
