<svg xmlns="http://www.w3.org/2000/svg" width="24" height="24" fill="none" viewBox="0 0 24 24">
  <g clip-path="url(#a)">
    <path fill="#374957" d="M9 12A6 6 0 1 0 9 0a6 6 0 0 0 0 12ZM9 2a4 4 0 1 1 0 8 4 4 0 0 1 0-8Zm9 21a1 1 0 0 1-2 0 7 7 0 1 0-14 0 1 1 0 1 1-2 0 9 9 0 0 1 18 0Zm5.707-8.707a1 1 0 1 1-1.414 1.414L20.5 13.914l-1.793 1.793a1 1 0 0 1-1.414-1.414l1.793-1.793-1.793-1.793a1 1 0 0 1 1.414-1.414l1.793 1.793 1.793-1.793a1 1 0 0 1 1.414 1.414L21.914 12.5l1.793 1.793Z"/>
  </g>
  <defs>
    <clipPath id="a">
      <path fill="#fff" d="M0 0h24v24H0z"/>
    </clipPath>
  </defs>
</svg>
