<svg xmlns="http://www.w3.org/2000/svg" width="24" height="24" fill="none" viewBox="0 0 24 24">
  <g clip-path="url(#a)">
    <path fill="#374957" d="M20 12a3.994 3.994 0 0 0-3.172 1.566l-.07-.03A5 5 0 0 0 10.75 7.16l-.09-.172a3.995 3.995 0 1 0-1.78.913l.073.137a4.992 4.992 0 0 0-1.134 6.7L5.933 16.5a4 4 0 1 0 1.455 1.377l1.838-1.718a4.993 4.993 0 0 0 6.54-.87l.278.118A4 4 0 1 0 20 12ZM6 4a2 2 0 1 1 4 0 2 2 0 0 1-4 0ZM4 22a2 2 0 1 1 0-4 2 2 0 0 1 0 4Zm8-7a3 3 0 0 1-1.6-5.534l.407-.217A3 3 0 1 1 12 15Zm8 3a2 2 0 1 1 0-3.999 2 2 0 0 1 0 4Z"/>
  </g>
  <defs>
    <clipPath id="a">
      <path fill="#fff" d="M0 0h24v24H0z"/>
    </clipPath>
  </defs>
</svg>
