<svg xmlns="http://www.w3.org/2000/svg" width="24" height="24" fill="none" viewBox="0 0 24 24">
  <g clip-path="url(#a)">
    <path fill="#374957" d="M12.003-.002C5.366-.002-.015 5.378-.015 12.016c0 6.638 5.38 12.019 12.018 12.019 6.638 0 12.019-5.381 12.019-12.019 0-6.637-5.38-12.018-12.019-12.018Zm9.94 10.944-.005-.004a9.935 9.935 0 0 1-5.275-2.2l3.07-3.07a9.95 9.95 0 0 1 2.21 5.274Zm-3.628-6.689L15.25 7.328a9.927 9.927 0 0 1-2.2-5.275 9.95 9.95 0 0 1 5.266 2.2Zm-7.262-2.205a11.934 11.934 0 0 0 2.783 6.702L12 10.586 5.676 4.262a9.956 9.956 0 0 1 5.377-2.214ZM4.262 5.677l-.005-.005.005.004L10.586 12 8.75 13.837a11.92 11.92 0 0 0-6.7-2.784 9.955 9.955 0 0 1 2.213-5.376Zm-2.205 7.381v-.004c1.936.2 3.77.965 5.275 2.2l-3.07 3.07a9.951 9.951 0 0 1-2.205-5.266Zm3.623 6.68 3.066-3.07a9.926 9.926 0 0 1 2.2 5.275 9.95 9.95 0 0 1-5.266-2.205Zm7.267 2.214a11.921 11.921 0 0 0-2.784-6.701L12 13.414l6.324 6.324a9.948 9.948 0 0 1-5.377 2.214Zm6.79-3.628L13.413 12l1.836-1.836a11.933 11.933 0 0 0 6.7 2.783 9.956 9.956 0 0 1-2.214 5.377Z"/>
  </g>
  <defs>
    <clipPath id="a">
      <path fill="#fff" d="M0 0h24v24H0z"/>
    </clipPath>
  </defs>
</svg>
