<svg xmlns="http://www.w3.org/2000/svg" width="24" height="24" fill="none" viewBox="0 0 24 24">
  <g clip-path="url(#a)">
    <path fill="#374957" d="M22 6h-3a1 1 0 0 0 0 2h1.586l-3.4 3.4a6.945 6.945 0 0 0-3.253-1.333A6.944 6.944 0 0 0 12.6 6.816l3.4-3.4V5a1 1 0 0 0 2 0V2a2 2 0 0 0-2-2h-3a1 1 0 0 0 0 2h1.586l-3.4 3.4a6.993 6.993 0 1 0-5.117 12.531 7 7 0 1 0 12.53-5.115l3.4-3.4V11a1 1 0 0 0 2 0V8a2 2 0 0 0-2-2ZM2 11a5 5 0 1 1 10 0 5 5 0 0 1-10 0Zm11 11a5 5 0 0 1-4.908-4.094 7.005 7.005 0 0 0 5.814-5.814A4.995 4.995 0 0 1 13 22Z"/>
  </g>
  <defs>
    <clipPath id="a">
      <path fill="#fff" d="M0 0h24v24H0z"/>
    </clipPath>
  </defs>
</svg>
