<svg xmlns="http://www.w3.org/2000/svg" width="24" height="24" fill="none" viewBox="0 0 24 24">
  <g clip-path="url(#a)">
    <path fill="#374957" d="M13 4.051V2h2a1 1 0 1 0 0-2H9a1 1 0 0 0 0 2h2v2.051a10 10 0 1 0 2 0Zm3 11.619v-3.34c2.634.468 4 1.308 4 1.67 0 .362-1.366 1.2-4 1.67ZM4 14c0-.362 1.366-1.2 4-1.67v3.34C5.366 15.2 4 14.362 4 14Zm6-1.922a25.352 25.352 0 0 1 4 0v3.844a25.354 25.354 0 0 1-4 0v-3.844ZM12 6a7.9 7.9 0 0 1 2 .263v3.812A27.257 27.257 0 0 0 12 10c-.665 0-1.336.026-2 .075V6.263A7.953 7.953 0 0 1 12 6Zm7.5 5.236A14.943 14.943 0 0 0 16 10.3V7.082a8.042 8.042 0 0 1 3.5 4.154ZM8 7.082V10.3a14.95 14.95 0 0 0-3.5.933A8.042 8.042 0 0 1 8 7.082Zm-3.5 9.682c1.124.453 2.3.767 3.5.936v3.221a8.042 8.042 0 0 1-3.5-4.157Zm5.5 4.973v-3.812c.664.049 1.335.075 2 .075s1.336-.026 2-.075v3.812a7.75 7.75 0 0 1-4 0Zm6-.819V17.7c1.2-.168 2.375-.481 3.5-.933a8.042 8.042 0 0 1-3.5 4.151Z"/>
  </g>
  <defs>
    <clipPath id="a">
      <path fill="#fff" d="M0 0h24v24H0z"/>
    </clipPath>
  </defs>
</svg>
