<svg xmlns="http://www.w3.org/2000/svg" width="24" height="24" fill="none" viewBox="0 0 24 24">
  <g clip-path="url(#a)">
    <path fill="#374957" d="M13.5 6.5a1.5 1.5 0 1 1-3 0 1.5 1.5 0 0 1 3 0ZM24 19v-6.66A12.21 12.21 0 0 0 12.836.028 12 12 0 0 0 .029 12.854C.47 19.208 6.082 24 13.083 24H19a5.006 5.006 0 0 0 5-5ZM12.7 2.024A10.2 10.2 0 0 1 22 12.34V19a3 3 0 0 1-3 3h-5.917C7.049 22 2.4 18.1 2.025 12.716A10 10 0 0 1 12.7 2.024ZM14 18v-6a2 2 0 0 0-2-2h-1a1 1 0 0 0 0 2h1v6a1 1 0 0 0 2 0Z"/>
  </g>
  <defs>
    <clipPath id="a">
      <path fill="#fff" d="M0 0h24v24H0z"/>
    </clipPath>
  </defs>
</svg>
