<svg xmlns="http://www.w3.org/2000/svg" width="24" height="24" fill="none" viewBox="0 0 24 24">
  <g clip-path="url(#a)">
    <path fill="#374957" d="M19 9.026V4a4 4 0 0 0-4-4H9a4 4 0 0 0-4 4v5.026A4.977 4.977 0 0 0 3 13v2a9 9 0 0 0 18 0v-2a4.977 4.977 0 0 0-2-3.974ZM7 8V4a2 2 0 0 1 2-2h6a2 2 0 0 1 2 2v4H7Zm12 7a7 7 0 1 1-14 0v-2a3 3 0 0 1 3-3h8a3 3 0 0 1 3 3v2Z"/>
    <path fill="#374957" d="M10 6a1 1 0 1 0 0-2 1 1 0 0 0 0 2Zm4 0a1 1 0 1 0 0-2 1 1 0 0 0 0 2Z"/>
  </g>
  <defs>
    <clipPath id="a">
      <path fill="#fff" d="M0 0h24v24H0z"/>
    </clipPath>
  </defs>
</svg>
