<svg xmlns="http://www.w3.org/2000/svg" width="24" height="24" fill="none" viewBox="0 0 24 24">
  <g clip-path="url(#a)">
    <path fill="#374957" d="M5.5 17a1.5 1.5 0 1 0 0-3 1.5 1.5 0 0 0 0 3Z"/>
    <path fill="#374957" d="M19 3H5a5.006 5.006 0 0 0-5 5v8a5.006 5.006 0 0 0 5 5h14a5.006 5.006 0 0 0 5-5V8a5.006 5.006 0 0 0-5-5ZM5 5h14a3 3 0 0 1 3 3H2a3 3 0 0 1 3-3Zm14 14H5a3 3 0 0 1-3-3v-6h20v6a3 3 0 0 1-3 3Z"/>
  </g>
  <defs>
    <clipPath id="a">
      <path fill="#fff" d="M0 0h24v24H0z"/>
    </clipPath>
  </defs>
</svg>
