<svg xmlns="http://www.w3.org/2000/svg" width="24" height="24" fill="none" viewBox="0 0 24 24">
  <g clip-path="url(#a)">
    <path fill="#374957" d="M10 8a2 2 0 1 1 0 4 2 2 0 0 1 0-4Zm14 2a14.27 14.27 0 0 1-11.484 13.952 2.952 2.952 0 0 1-2.43-.646A3.014 3.014 0 0 1 9 20.99v-1.04a10 10 0 1 1 9.382-15.395 1.001 1.001 0 0 1-1.41 1.371 1.004 1.004 0 0 1-.272-.28 8 8 0 1 0 0 8.708 1.002 1.002 0 0 1 1.822.729 1 1 0 0 1-.145.362A9.958 9.958 0 0 1 11 19.937v1.053a1.017 1.017 0 0 0 .738.977c.137.037.28.043.42.017a12.192 12.192 0 0 0 9.47-9.053 2.96 2.96 0 0 1-.628.07 3 3 0 1 1 3-3Zm-2 0a1 1 0 1 0-2 0 1 1 0 0 0 2 0Z"/>
  </g>
  <defs>
    <clipPath id="a">
      <path fill="#fff" d="M0 0h24v24H0z"/>
    </clipPath>
  </defs>
</svg>
