<svg xmlns="http://www.w3.org/2000/svg" width="24" height="24" fill="none" viewBox="0 0 24 24">
  <g clip-path="url(#a)">
    <path fill="#374957" d="M23.63 3.845A2.024 2.024 0 0 0 21.988 3h-3.544c.52-.847 1.1-2.892-.444-3a1 1 0 0 0-1 1 2 2 0 0 1-2 2H9a2 2 0 0 1-2-2 1 1 0 0 0-1-1c-1.548.109-.962 2.152-.444 3H2.012A2.008 2.008 0 0 0 .1 5.614a6.9 6.9 0 0 0 2.92 3.525c0 .035 3 12.065 3 12.065A2.994 2.994 0 0 0 9 24h6a2.994 2.994 0 0 0 2.98-2.8s3-12.03 3-12.065a6.9 6.9 0 0 0 2.92-3.52 1.936 1.936 0 0 0-.27-1.77Zm-5.25 4.117A5.108 5.108 0 0 0 13 13v5h-2v-5a5.107 5.107 0 0 0-5.38-5.038A9.858 9.858 0 0 1 8.342 4.99l7.3.01a9.812 9.812 0 0 1 2.738 2.962ZM2.012 5h3.321a12.177 12.177 0 0 0-1.6 2.221A4.709 4.709 0 0 1 2.013 5ZM6 10c.353.003.702.069 1.032.194a1.507 1.507 0 0 0 1.774 1.774c.126.33.191.68.194 1.032v5a2.974 2.974 0 0 0-1.6.472L5.263 9.929c.244.04.49.064.737.071Zm9 12H9a1 1 0 0 1 0-2h6a1 1 0 0 1 0 2Zm1.6-3.528A2.974 2.974 0 0 0 15 18v-5c.003-.353.069-.702.194-1.032a1.507 1.507 0 0 0 1.774-1.774 7.777 7.777 0 0 1 1.77-.265L16.6 18.472Zm3.664-11.257a12.085 12.085 0 0 0-1.615-2.24L22 4.97a4.779 4.779 0 0 1-1.736 2.245Z"/>
  </g>
  <defs>
    <clipPath id="a">
      <path fill="#fff" d="M0 0h24v24H0z"/>
    </clipPath>
  </defs>
</svg>
