<svg xmlns="http://www.w3.org/2000/svg" width="24" height="24" fill="none" viewBox="0 0 24 24">
  <g clip-path="url(#a)">
    <path fill="#374957" d="m23.413 18.24-7.82-15.965a4 4 0 0 0-7.185 0L.588 18.24A4 4 0 0 0 4.178 24H19.82a4 4 0 0 0 3.593-5.76ZM19.6 15H4.4l2.45-5h10.3l2.45 5ZM10.2 3.155a2 2 0 0 1 3.592 0L16.17 8H7.83l2.37-4.845Zm11.314 17.9a1.965 1.965 0 0 1-1.7.942H4.18a2 2 0 0 1-1.8-2.88L3.421 17h17.157l1.038 2.12a1.96 1.96 0 0 1-.098 1.938l-.004-.003Z"/>
  </g>
  <defs>
    <clipPath id="a">
      <path fill="#fff" d="M0 0h24v24H0z"/>
    </clipPath>
  </defs>
</svg>
