<svg xmlns="http://www.w3.org/2000/svg" width="24" height="24" fill="none" viewBox="0 0 24 24">
  <g clip-path="url(#a)">
    <path fill="#374957" d="M17.115 8.05a1.5 1.5 0 1 0 .77 2.9 1.5 1.5 0 0 0-.77-2.9Zm-5-3a1.5 1.5 0 1 0 .77 2.9 1.5 1.5 0 0 0-.77-2.9Zm-5 3a1.5 1.5 0 1 0 .77 2.9 1.5 1.5 0 0 0-.77-2.9Zm0 6a1.5 1.5 0 1 0 .77 2.899 1.5 1.5 0 0 0-.77-2.899Z"/>
    <path fill="#374957" d="M12.5.007A12 12 0 0 0 .083 12a12.014 12.014 0 0 0 12 12c.338 0 .67-.022 1-.05a1 1 0 0 0 .916-1l-.032-3.588a3.566 3.566 0 0 1 6.09-2.562l.1.1a1.912 1.912 0 0 0 1.77.52 1.887 1.887 0 0 0 1.376-1.176 11.93 11.93 0 0 0 .777-4.544A12.155 12.155 0 0 0 12.5.007Zm8.982 15.4-.014-.014a5.566 5.566 0 0 0-9.5 3.985L11.992 22a10 10 0 0 1 .09-20c.117 0 .235 0 .353.006a10.127 10.127 0 0 1 9.645 9.743 9.891 9.891 0 0 1-.595 3.65l-.003.008Z"/>
  </g>
  <defs>
    <clipPath id="a">
      <path fill="#fff" d="M0 0h24v24H0z"/>
    </clipPath>
  </defs>
</svg>
