<svg xmlns="http://www.w3.org/2000/svg" width="24" height="24" fill="none" viewBox="0 0 24 24">
  <g clip-path="url(#a)">
    <path fill="#374957" d="M20.485 3.516a11.994 11.994 0 1 0 0 16.97 12.013 12.013 0 0 0 0-16.97Zm1.449 7.417a7.964 7.964 0 0 1-8.865-8.866 9.96 9.96 0 0 1 8.865 8.866ZM2.066 13.069a7.964 7.964 0 0 1 8.865 8.866 9.96 9.96 0 0 1-8.865-8.866Zm17.005 6a9.947 9.947 0 0 1-6.127 2.879 9.972 9.972 0 0 0-10.9-10.894 9.979 9.979 0 0 1 9.012-9.003 9.988 9.988 0 0 0 10.897 10.904 9.95 9.95 0 0 1-2.882 6.117v-.003Z"/>
  </g>
  <defs>
    <clipPath id="a">
      <path fill="#fff" d="M0 0h24v24H0z"/>
    </clipPath>
  </defs>
</svg>
