<svg xmlns="http://www.w3.org/2000/svg" width="24" height="24" fill="none" viewBox="0 0 24 24">
  <g clip-path="url(#a)">
    <path fill="#374957" d="m23.707 22.294-5.97-5.97a10.016 10.016 0 1 0-1.413 1.415l5.969 5.969a1 1 0 0 0 1.414-1.414ZM10 18a8 8 0 1 1 8-8 8.009 8.009 0 0 1-8 8Z"/>
    <path fill="#374957" d="M13 9h-2V7a1 1 0 0 0-2 0v2H7a1 1 0 0 0 0 2h2v2a1 1 0 1 0 2 0v-2h2a1 1 0 0 0 0-2Z"/>
  </g>
  <defs>
    <clipPath id="a">
      <path fill="#fff" d="M0 0h24v24H0z"/>
    </clipPath>
  </defs>
</svg>
