<svg xmlns="http://www.w3.org/2000/svg" width="24" height="24" fill="none" viewBox="0 0 24 24">
  <g clip-path="url(#a)">
    <path fill="#374957" d="M19 0H5a5.006 5.006 0 0 0-5 5v14a5.006 5.006 0 0 0 5 5h14a5.006 5.006 0 0 0 5-5V5a5.006 5.006 0 0 0-5-5Zm3 19a3 3 0 0 1-3 3H5a3 3 0 0 1-3-3V5a3 3 0 0 1 3-3h14a3 3 0 0 1 3 3v14Z"/>
    <path fill="#374957" d="M9.333 15.919 5.413 12A1 1 0 0 0 4 13.414l3.919 3.919a2 2 0 0 0 2.829 0L20 8.081a1 1 0 0 0-1.414-1.414L9.333 15.92Z"/>
  </g>
  <defs>
    <clipPath id="a">
      <path fill="#fff" d="M0 0h24v24H0z"/>
    </clipPath>
  </defs>
</svg>
