<svg xmlns="http://www.w3.org/2000/svg" width="24" height="24" fill="none" viewBox="0 0 24 24">
  <g clip-path="url(#a)">
    <path fill="#374957" d="M7.505 24A7.5 7.5 0 0 1 5.469 9.283a7.368 7.368 0 0 1 3.881-.048l7.908-7.906a4.5 4.5 0 0 1 3.206-1.33A3.54 3.54 0 0 1 24 3.537a4.508 4.508 0 0 1-1.328 3.207L22 7.415A2.014 2.014 0 0 1 20.586 8H19v1a2 2 0 0 1-2 2h-1v1.586A1.984 1.984 0 0 1 15.414 14l-.65.65a7.333 7.333 0 0 1-.047 3.88 7.528 7.528 0 0 1-6.428 5.429 7.69 7.69 0 0 1-.784.04Zm0-13a5.5 5.5 0 1 0 5.289 6.99 5.4 5.4 0 0 0-.1-3.3 1 1 0 0 1 .238-1.035L14 12.585V11a2 2 0 0 1 2-2h1V8a2 2 0 0 1 2-2h1.586l.672-.672A2.517 2.517 0 0 0 22 3.536 1.537 1.537 0 0 0 20.465 2a2.52 2.52 0 0 0-1.793.743l-8.331 8.33a1 1 0 0 1-1.036.237A5.461 5.461 0 0 0 7.5 11h.005ZM5 18a1 1 0 1 0 2 0 1 1 0 0 0-2 0Z"/>
  </g>
  <defs>
    <clipPath id="a">
      <path fill="#fff" d="M0 0h24v24H0z"/>
    </clipPath>
  </defs>
</svg>
