<svg xmlns="http://www.w3.org/2000/svg" width="24" height="24" fill="none" viewBox="0 0 24 24">
  <g clip-path="url(#a)">
    <path fill="#374957" d="M23.119.882a2.966 2.966 0 0 0-2.8-.8l-16 3.37a4.995 4.995 0 0 0-2.853 8.481l1.718 1.717a1.001 1.001 0 0 1 .293.708v3.168c.002.445.105.885.3 1.285l-.008.007.026.026A3 3 0 0 0 5.157 20.2l.026.026.007-.008c.4.195.84.298 1.285.3h3.168a1 1 0 0 1 .707.292l1.717 1.717a4.964 4.964 0 0 0 5.125 1.209 4.933 4.933 0 0 0 3.344-3.986L23.91 3.715a2.975 2.975 0 0 0-.792-2.833ZM4.599 12.238l-1.718-1.717a2.94 2.94 0 0 1-.722-3.074 2.978 2.978 0 0 1 2.5-2.026l15.84-3.335L5.476 17.113v-2.755a2.978 2.978 0 0 0-.875-2.12Zm13.972 7.17a2.998 2.998 0 0 1-5.09 1.712l-1.72-1.72a2.978 2.978 0 0 0-2.118-.878H6.888L21.915 3.5 18.57 19.408Z"/>
  </g>
  <defs>
    <clipPath id="a">
      <path fill="#fff" d="M0 0h24v24H0z"/>
    </clipPath>
  </defs>
</svg>
