<svg xmlns="http://www.w3.org/2000/svg" width="24" height="24" fill="none" viewBox="0 0 24 24">
  <g clip-path="url(#a)">
    <path fill="#374957" d="M22.514 10.972a3.823 3.823 0 0 0-3.028-.944c-2.187.264-4.345.73-6.447 1.39.32-2.505 2.71-3.418 4.96-3.418a3 3 0 0 0 0-6 6.973 6.973 0 0 0-5 2.111V1a1 1 0 1 0-2 0v3.11A6.977 6.977 0 0 0 6 2a3 3 0 1 0 0 6c2.25 0 4.642.913 4.962 3.418a35.892 35.892 0 0 0-6.447-1.39 3.831 3.831 0 0 0-3.028.944 4.529 4.529 0 0 0-1.47 3.4C.017 23.062 4.853 24 6.932 24a5.38 5.38 0 0 0 3.09-1.185 3.67 3.67 0 0 1 1.979-.848c.73.078 1.419.374 1.979.848A5.383 5.383 0 0 0 17.069 24c2.079 0 6.914-.938 6.914-9.625a4.531 4.531 0 0 0-1.47-3.403ZM18 4a1 1 0 1 1 0 2 7.9 7.9 0 0 0-4.732 1.386A5.006 5.006 0 0 1 18 4ZM6 6a1 1 0 0 1 0-2 5.009 5.009 0 0 1 4.733 3.386A7.9 7.9 0 0 0 6 6Zm11.069 16a3.668 3.668 0 0 1-1.98-.848A5.387 5.387 0 0 0 12 19.967a5.387 5.387 0 0 0-3.09 1.185c-.56.474-1.249.77-1.978.848-3.17 0-4.914-2.708-4.914-7.625a2.565 2.565 0 0 1 .8-1.907 1.8 1.8 0 0 1 1.462-.453c2.51.295 4.978.883 7.352 1.75a1 1 0 0 0 .744 0 32.31 32.31 0 0 1 7.352-1.75 1.807 1.807 0 0 1 1.462.453 2.562 2.562 0 0 1 .8 1.907C21.983 19.292 20.238 22 17.069 22Z"/>
    <path fill="#374957" d="M17.83 15.023C15.309 15.6 12 16.648 12 16.648c2.009.213 4.056 2.051 5.114 2.345 1.109.308 1.527-.844 1.867-2.725a1.02 1.02 0 0 0-1.151-1.245ZM5.019 16.268c.34 1.881.758 3.033 1.867 2.725 1.058-.294 3.1-2.132 5.114-2.345 0 0-3.31-1.052-5.83-1.625a1.019 1.019 0 0 0-1.151 1.245Z"/>
  </g>
  <defs>
    <clipPath id="a">
      <path fill="#fff" d="M0 0h24v24H0z"/>
    </clipPath>
  </defs>
</svg>
