<svg xmlns="http://www.w3.org/2000/svg" width="24" height="24" fill="none" viewBox="0 0 24 24">
  <path fill="#374957" d="M20.467 17.3a530.27 530.27 0 0 0-1.557-1.815 2.67 2.67 0 0 0 .616-3.663 477.173 477.173 0 0 0-1.885-2.091c.465-.235.845-.61 1.084-1.073a2.427 2.427 0 0 0-.176-2.526C18.53 6.1 13.886.846 13.886.846a2.609 2.609 0 0 0-3.77 0S5.471 6.1 5.45 6.13a2.428 2.428 0 0 0-.176 2.526c.24.463.619.838 1.084 1.073 0 0-1.859 2.055-1.885 2.09a2.67 2.67 0 0 0 .616 3.664S3.554 17.268 3.533 17.3A3 3 0 0 0 6 22h5v1a1 1 0 1 0 2 0v-1h5a3.001 3.001 0 0 0 2.471-4.7h-.004Zm-1.585 2.167A.985.985 0 0 1 18 20H6a1 1 0 0 1-.85-1.53L7.285 16H13a1 1 0 0 0 0-2H6.67a.667.667 0 0 1-.578-1l2.722-3H12a1 1 0 0 0 0-2H7.5a.488.488 0 0 1-.45-.264.416.416 0 0 1 .01-.418l4.551-5.15a.508.508 0 0 1 .773 0l4.55 5.149a.416.416 0 0 1 .011.418A.489.489 0 0 1 16.5 8h-.868a1.006 1.006 0 0 0-.74 1.672L17.908 13a.667.667 0 0 1-.578 1h-.157a1.007 1.007 0 0 0-.757 1.653l2.43 2.818a.98.98 0 0 1 .036.994v.002Z"/>
</svg>
