<svg xmlns="http://www.w3.org/2000/svg" width="24" height="24" fill="none" viewBox="0 0 24 24">
  <g clip-path="url(#a)">
    <path fill="#374957" d="m23 16.653-2.34-1.8a3.1 3.1 0 0 0-4.281.006l-1.47 1.168a12.782 12.782 0 0 1-6.93-6.945l1.158-1.456a3.1 3.1 0 0 0 .007-4.282L7.346 1A.989.989 0 0 0 7.26.9 3.081 3.081 0 0 0 2.934.859l-1.15 1c-7.72 8.21 12.2 28.145 20.4 20.3l.91-1.05a3.1 3.1 0 0 0 0-4.377 1.142 1.142 0 0 0-.094-.08Zm-1.364 3.1-.911 1.05C14.788 26.418-2.5 10.113 3.147 3.325l1.15-1a1.1 1.1 0 0 1 1.51-.04L7.593 4.61a.9.9 0 0 0 .086.1 1.1 1.1 0 0 1 0 1.549.847.847 0 0 0-.08.082L6.045 8.3a1 1 0 0 0-.145 1 15.009 15.009 0 0 0 8.822 8.81 1 1 0 0 0 .979-.151l1.96-1.56a.991.991 0 0 0 .084-.075 1.129 1.129 0 0 1 1.647.086l2.326 1.787a1.121 1.121 0 0 1-.085 1.557l.004-.001Zm2.07-13.46a1 1 0 0 1-1.413 1.414L20 5.414l-2.293 2.293a1 1 0 0 1-1.414-1.414L18.586 4l-2.293-2.293A1 1 0 0 1 17.707.293L20 2.586 22.293.293a1 1 0 0 1 1.414 1.414L21.414 4l2.293 2.293Z"/>
  </g>
  <defs>
    <clipPath id="a">
      <path fill="#fff" d="M0 0h24v24H0z"/>
    </clipPath>
  </defs>
</svg>
