<svg xmlns="http://www.w3.org/2000/svg" width="24" height="24" fill="none" viewBox="0 0 24 24">
  <g clip-path="url(#a)">
    <path fill="#374957" d="M15.207 14.207 13.414 16l1.793 1.794a1 1 0 1 1-1.414 1.413L12 17.415l-1.793 1.793a1 1 0 0 1-1.414-1.413L10.586 16l-1.793-1.793a1 1 0 0 1 1.414-1.414L12 14.586l1.793-1.793a1 1 0 0 1 1.414 1.415ZM22 10.486V19a5.006 5.006 0 0 1-5 5H7a5.006 5.006 0 0 1-5-5V5a5.006 5.006 0 0 1 5-5h4.515a6.958 6.958 0 0 1 4.95 2.05l3.484 3.487a6.952 6.952 0 0 1 2.05 4.949Zm-6.95-7.02a5.01 5.01 0 0 0-1.05-.78V7a1 1 0 0 0 1 1h4.316a4.987 4.987 0 0 0-.781-1.05L15.05 3.465Zm4.95 7.02c0-.165-.032-.322-.047-.484H15a3 3 0 0 1-3-3V2.048c-.162-.015-.321-.047-.485-.047H7a3 3 0 0 0-3 3v14a3 3 0 0 0 3 3h10a3 3 0 0 0 3-3v-8.516Z"/>
  </g>
  <defs>
    <clipPath id="a">
      <path fill="#fff" d="M0 0h24v24H0z"/>
    </clipPath>
  </defs>
</svg>
