<svg xmlns="http://www.w3.org/2000/svg" width="24" height="24" fill="none" viewBox="0 0 24 24">
  <g clip-path="url(#a)">
    <path fill="#374957" d="M15 3.849a1.02 1.02 0 0 0 .629.926 9 9 0 0 1 5.37 8.517A9.002 9.002 0 0 1 3 13a9 9 0 0 1 5.372-8.224A1.023 1.023 0 0 0 9 3.848a1 1 0 0 0-1.374-.93 11 11 0 1 0 8.75 0 1 1 0 0 0-1.376.93Z"/>
    <path fill="#374957" d="M13 1a1 1 0 0 0-2 0v6a1 1 0 1 0 2 0V1Z"/>
  </g>
  <defs>
    <clipPath id="a">
      <path fill="#fff" d="M0 0h24v24H0z"/>
    </clipPath>
  </defs>
</svg>
