<svg xmlns="http://www.w3.org/2000/svg" width="24" height="24" fill="none" viewBox="0 0 24 24">
  <g clip-path="url(#a)">
    <path fill="#374957" d="M18.581 2.14 12.316.053a1 1 0 0 0-.632 0L5.418 2.14A4.993 4.993 0 0 0 2 6.884V12c0 7.563 9.2 11.74 9.594 11.914a1 1 0 0 0 .812 0C12.8 23.74 22 19.564 22 12V6.884a4.993 4.993 0 0 0-3.419-4.743ZM12.001 19a1 1 0 1 1 0-1.998A1 1 0 0 1 12 19Zm1.927-6.442A1.987 1.987 0 0 0 13 14a1 1 0 1 1-2 0 3.954 3.954 0 0 1 1.963-3.195 1.994 1.994 0 0 0 .445-3.169 2.024 2.024 0 0 0-1.045-.555A2 2 0 0 0 10 9.052a1 1 0 1 1-2 0 4 4 0 0 1 1.43-3.064 4 4 0 1 1 4.5 6.57h-.002Z"/>
  </g>
  <defs>
    <clipPath id="a">
      <path fill="#fff" d="M0 0h24v24H0z"/>
    </clipPath>
  </defs>
</svg>
