<svg xmlns="http://www.w3.org/2000/svg" width="24" height="24" fill="none" viewBox="0 0 24 24">
  <g clip-path="url(#a)">
    <path fill="#374957" d="M12 0a12 12 0 1 0 12 12A12.013 12.013 0 0 0 12 0ZM8 8a2 2 0 0 1 2 2c0 1-.895 1-2 1s-2 0-2-1a2 2 0 0 1 2-2Zm9.666 7.746A9.454 9.454 0 0 1 12 18a9.454 9.454 0 0 1-5.666-2.254 1 1 0 1 1 1.332-1.492A7.51 7.51 0 0 0 12 16a7.508 7.508 0 0 0 4.336-1.748 1 1 0 1 1 1.33 1.494ZM16 11c-1.105 0-2 0-2-1a2 2 0 1 1 4 0c0 1-.895 1-2 1Z"/>
  </g>
  <defs>
    <clipPath id="a">
      <path fill="#fff" d="M0 0h24v24H0z"/>
    </clipPath>
  </defs>
</svg>
