<svg xmlns="http://www.w3.org/2000/svg" width="24" height="24" fill="none" viewBox="0 0 24 24">
  <g clip-path="url(#a)">
    <path fill="#374957" d="m23.72 22.308-5.96-5.96c3.496-4.276 2.864-10.577-1.413-14.074C12.071-1.222 5.77-.59 2.274 3.686-1.223 7.962-.591 14.263 3.686 17.76a10.002 10.002 0 0 0 12.661 0l5.96 5.96a.999.999 0 0 0 1.413-1.412Zm-12.443-7.643c-.728.58-1.76.58-2.489 0-1.71-1.374-3.748-3.434-3.748-5.431a3.104 3.104 0 0 1 2.995-3.195 2.887 2.887 0 0 1 1.997.814 2.887 2.887 0 0 1 1.998-.814 3.105 3.105 0 0 1 2.995 3.195c0 1.997-2.038 4.057-3.748 5.431Zm1.751-5.431c0 .899-1.15 2.387-2.99 3.874-1.85-1.487-3.001-2.975-3.001-3.874a1.112 1.112 0 0 1 .998-1.198c.604.06 1.049.593.999 1.198a.999.999 0 1 0 1.997 0 1.112 1.112 0 0 1 .999-1.198c.604.06 1.048.593.998 1.198Z"/>
  </g>
  <defs>
    <clipPath id="a">
      <path fill="#fff" d="M0 0h24v24H0z"/>
    </clipPath>
  </defs>
</svg>
