<svg xmlns="http://www.w3.org/2000/svg" width="24" height="24" fill="none" viewBox="0 0 24 24">
  <g clip-path="url(#a)">
    <path fill="#374957" d="M9.878 14.546.744 5.411A4.986 4.986 0 0 1 5 3h7.294a7.036 7.036 0 0 0 4.675 8.7l-2.847 2.848a3.007 3.007 0 0 1-4.244-.002Zm5.658 1.414a5.008 5.008 0 0 1-7.072 0L.046 7.542C.032 7.7 0 7.843 0 8v11a5.006 5.006 0 0 0 5 5h14a5.006 5.006 0 0 0 5-5V9.894a6.972 6.972 0 0 1-4.478 2.08l-3.986 3.986ZM15 6h3v3a1 1 0 0 0 2 0V6h3a1 1 0 1 0 0-2h-3V1a1 1 0 0 0-2 0v3h-3a1 1 0 1 0 0 2Z"/>
  </g>
  <defs>
    <clipPath id="a">
      <path fill="#fff" d="M0 0h24v24H0z"/>
    </clipPath>
  </defs>
</svg>
