<svg xmlns="http://www.w3.org/2000/svg" width="24" height="24" fill="none" viewBox="0 0 24 24">
  <g clip-path="url(#a)">
    <path fill="#374957" d="M18.357 7.36a1.087 1.087 0 0 1-.722-.732 8 8 0 0 0-15.49.842 7.648 7.648 0 0 0 .8 5.179 5.448 5.448 0 0 0-2.888 5.65A5.843 5.843 0 0 0 5.683 23h9.1c5.073 0 8.851-3.026 9.19-7.361a7.96 7.96 0 0 0-5.616-8.277Zm.308 11.387L17.08 20.16a2.9 2.9 0 0 1-2.064.839 3.012 3.012 0 0 1-2.136-.882l-1.544-1.374a.999.999 0 0 1 .607-1.745.997.997 0 0 1 .723.25L14 18.445V11a1 1 0 0 1 2 0v7.445l1.335-1.192a1 1 0 1 1 1.33 1.494Z"/>
  </g>
  <defs>
    <clipPath id="a">
      <path fill="#fff" d="M0 0h24v24H0z"/>
    </clipPath>
  </defs>
</svg>
