<svg xmlns="http://www.w3.org/2000/svg" width="24" height="24" fill="none" viewBox="0 0 24 24">
  <g clip-path="url(#a)">
    <path fill="#374957" d="M21.977 11.264C21.613 5.724 16.474 1.041 10.731 1A2 2 0 0 0 9 0H7a4 4 0 0 0-4 4v1h2a1 1 0 0 1 0 2H3v2h2a1 1 0 0 1 0 2H3v2h2a1 1 0 0 1 0 2H3v2h2a1 1 0 0 1 0 2H3v1a4 4 0 0 0 4 4h2a2 2 0 0 0 1.731-1H11a11.042 11.042 0 0 0 10.368-7.3c.507-1.42.715-2.93.609-4.436Zm-11.03 4.725A1 1 0 0 1 10 15V9a1 1 0 0 1 1-1 4 4 0 0 1 3.981 4.393 4.1 4.1 0 0 1-4.034 3.596Z"/>
  </g>
  <defs>
    <clipPath id="a">
      <path fill="#fff" d="M0 0h24v24H0z"/>
    </clipPath>
  </defs>
</svg>
