<svg xmlns="http://www.w3.org/2000/svg" width="24" height="24" fill="none" viewBox="0 0 24 24">
  <g clip-path="url(#a)">
    <path fill="#374957" d="M2 17.5h2.5a2 2 0 0 1 2 2V22a2 2 0 0 1-2 2H2a2 2 0 0 1-2-2v-2.5a2 2 0 0 1 2-2Zm21.118.342A1.987 1.987 0 0 0 22 17.5h-2.5a2 2 0 0 0-2 2V22a2 2 0 0 0 2 2H22a2 2 0 0 0 2-2v-2.5a2 2 0 0 0-.882-1.658ZM2 8.75h2.5a2 2 0 0 1 2 2v2.5a2 2 0 0 1-2 2H2a2 2 0 0 1-2-2v-2.5a2 2 0 0 1 2-2Zm21.118.342A1.988 1.988 0 0 0 22 8.75h-2.5a2 2 0 0 0-2 2v2.5a2 2 0 0 0 2 2H22a2 2 0 0 0 2-2v-2.5a2 2 0 0 0-.882-1.658ZM2 0h2.5a2 2 0 0 1 2 2v2.5a2 2 0 0 1-2 2H2a2 2 0 0 1-2-2V2a2 2 0 0 1 2-2Zm12.368 17.842a1.987 1.987 0 0 0-1.118-.342h-2.5a2 2 0 0 0-2 2V22a2 2 0 0 0 2 2h2.5a2 2 0 0 0 2-2v-2.5a2 2 0 0 0-.882-1.658Zm0-8.75a1.988 1.988 0 0 0-1.118-.342h-2.5a2 2 0 0 0-2 2v2.5a2 2 0 0 0 2 2h2.5a2 2 0 0 0 2-2v-2.5a2 2 0 0 0-.882-1.658Zm0-8.75A1.988 1.988 0 0 0 13.25 0h-2.5a2 2 0 0 0-2 2v2.5a2 2 0 0 0 2 2h2.5a2 2 0 0 0 2-2V2a2 2 0 0 0-.882-1.658Zm9.29.54A2 2 0 0 0 22 0h-2.5a2 2 0 0 0-2 2v2.5a2 2 0 0 0 2 2H22a2 2 0 0 0 2-2V2c0-.399-.119-.788-.342-1.118Z"/>
  </g>
  <defs>
    <clipPath id="a">
      <path fill="#fff" d="M0 0h24v24H0z"/>
    </clipPath>
  </defs>
</svg>
