<svg xmlns="http://www.w3.org/2000/svg" width="24" height="24" fill="none" viewBox="0 0 24 24">
  <g clip-path="url(#a)">
    <path fill="#374957" d="M23.267 9.408a15.857 15.857 0 0 0-3.37-3.908l2.799-2.799a1 1 0 0 0-1.414-1.413L18.24 4.335A12.05 12.05 0 0 0 12 2.646c-6.188 0-9.714 4.237-11.266 6.762a4.906 4.906 0 0 0 0 5.16 15.86 15.86 0 0 0 3.37 3.907l-2.799 2.8a1 1 0 1 0 1.413 1.413l3.051-3.051A12.049 12.049 0 0 0 12 21.329c6.189 0 9.715-4.236 11.267-6.761a4.906 4.906 0 0 0 0-5.16Zm-17.265 2.58a5.988 5.988 0 0 1 9.468-4.884l-1.452 1.452A3.945 3.945 0 0 0 12 7.989a3.999 3.999 0 0 0-3.999 3.999c.004.711.2 1.409.567 2.018l-1.451 1.451a5.959 5.959 0 0 1-1.115-3.47ZM12 17.985a5.959 5.959 0 0 1-3.47-1.114l1.452-1.452c.61.368 1.307.564 2.018.567a3.999 3.999 0 0 0 3.998-3.998 3.946 3.946 0 0 0-.566-2.019l1.451-1.451A5.988 5.988 0 0 1 12 17.985Z"/>
  </g>
  <defs>
    <clipPath id="a">
      <path fill="#fff" d="M0 0h24v24H0z"/>
    </clipPath>
  </defs>
</svg>
