<svg xmlns="http://www.w3.org/2000/svg" width="24" height="24" fill="none" viewBox="0 0 24 24">
  <g clip-path="url(#a)">
    <path fill="#374957" d="M13 11a2 2 0 1 1-4.001 0 2 2 0 0 1 4 0Zm11 2a1.96 1.96 0 0 1-2 2h-.33l-.22 1.655A5.014 5.014 0 0 1 16.495 21H16a3 3 0 0 1-3 3H6a3 3 0 0 1-3-3v-.971a3.886 3.886 0 0 0-.74-2.355A10.993 10.993 0 1 1 19.8 4.419c1.268 1.566 4.2 7.16 4.2 8.58Zm-9.16-3.053.994-.571a1 1 0 1 0-1-1.734l-.982.564A3.994 3.994 0 0 0 12 7.142V6a1 1 0 1 0-2 0v1.142a3.994 3.994 0 0 0-1.855 1.064l-.982-.564a1 1 0 0 0-1 1.734l.993.57c-.1.343-.152.697-.156 1.054.005.356.058.71.159 1.053l-.993.57a1 1 0 1 0 1 1.735l.982-.564c.51.516 1.15.884 1.852 1.064V16a1 1 0 0 0 2 0v-1.142a3.995 3.995 0 0 0 1.855-1.064l.982.564a1.003 1.003 0 0 0 1.492-.737 1 1 0 0 0-.492-.997l-.993-.571c.1-.343.152-.697.156-1.053a3.936 3.936 0 0 0-.16-1.053Z"/>
  </g>
  <defs>
    <clipPath id="a">
      <path fill="#fff" d="M0 0h24v24H0z"/>
    </clipPath>
  </defs>
</svg>
