<svg xmlns="http://www.w3.org/2000/svg" width="24" height="24" fill="none" viewBox="0 0 24 24">
  <g clip-path="url(#a)">
    <path fill="#374957" d="M24 11.507A5.953 5.953 0 0 0 23.8 10H2.673a1.977 1.977 0 0 0-1.789 1.13C-.647 14.839-.531 23.92 4.833 24h2.93a1.5 1.5 0 0 0 1.412-1.01 3.014 3.014 0 0 1 5.65 0A1.5 1.5 0 0 0 16.237 24H18.8a5.047 5.047 0 0 0 5.2-5v-7.493ZM7 17a2 2 0 1 1 0-4 2 2 0 0 1 0 4Zm11 2a2 2 0 1 1 0-4 2 2 0 0 1 0 4Zm4.853-11H2.673a4.032 4.032 0 0 0-.53.039 20.209 20.209 0 0 1 5.9-7.08 4.961 4.961 0 0 1 5.708-.111l4.2 3.132 3.638 2.72c.485.366.911.805 1.264 1.3Z"/>
  </g>
  <defs>
    <clipPath id="a">
      <path fill="#fff" d="M0 0h24v24H0z"/>
    </clipPath>
  </defs>
</svg>
