<svg xmlns="http://www.w3.org/2000/svg" width="24" height="24" fill="none" viewBox="0 0 24 24">
  <g clip-path="url(#a)">
    <path fill="#374957" d="M20.8 12c4.94-2.99.773-10.453-4.4-7.632-.173-5.774-8.629-5.771-8.8 0-5.133-2.817-9.362 4.618-4.4 7.576-4.949 3.035-.8 10.21 4.4 7.692.18 5.77 8.622 5.765 8.8 0C21.562 22.153 25.772 15 20.8 12ZM12 16a4 4 0 1 1 0-8 4 4 0 0 1 0 8Zm2-4a2 2 0 1 1-3.999 0 2 2 0 0 1 4 0Z"/>
  </g>
  <defs>
    <clipPath id="a">
      <path fill="#fff" d="M0 0h24v24H0z"/>
    </clipPath>
  </defs>
</svg>
