<svg xmlns="http://www.w3.org/2000/svg" width="24" height="24" fill="none" viewBox="0 0 24 24">
  <g clip-path="url(#a)">
    <path fill="#374957" d="M12 6a5 5 0 1 0 0 10 5 5 0 0 0 0-10Zm1.707 6.707a1 1 0 0 1-1.414 0l-1-1A1 1 0 0 1 11 11V9a1 1 0 0 1 2 0v1.586l.707.707a1 1 0 0 1 0 1.414Zm6.07-9.485A11 11 0 1 0 4.25 18.805l3.942 3.643a5.445 5.445 0 0 0 7.594.02l3.99-3.69a11 11 0 0 0 0-15.556ZM12 18a7 7 0 1 1 7-7 7.008 7.008 0 0 1-7 7Z"/>
  </g>
  <defs>
    <clipPath id="a">
      <path fill="#fff" d="M0 0h24v24H0z"/>
    </clipPath>
  </defs>
</svg>
