<svg xmlns="http://www.w3.org/2000/svg" width="24" height="24" fill="none" viewBox="0 0 24 24">
  <g clip-path="url(#a)">
    <path fill="#374957" d="M1.225 8.467C1.331 8.344 8.48 1.45 8.48 1.45a5.026 5.026 0 0 1 7.055.015s7.134 6.88 7.239 7l-8.653 8.654a3.074 3.074 0 0 1-4.242 0l-8.654-8.65Zm14.31 10.07a5.024 5.024 0 0 1-7.07 0L.229 10.3c-.144.456-.22.93-.229 1.408V19a5.006 5.006 0 0 0 5 5h14a5.006 5.006 0 0 0 5-5v-7.292a4.96 4.96 0 0 0-.229-1.408l-8.236 8.236Z"/>
  </g>
  <defs>
    <clipPath id="a">
      <path fill="#fff" d="M0 0h24v24H0z"/>
    </clipPath>
  </defs>
</svg>
