<svg xmlns="http://www.w3.org/2000/svg" width="24" height="24" fill="none" viewBox="0 0 24 24">
  <g clip-path="url(#a)">
    <path fill="#374957" d="M8 0a5.006 5.006 0 0 0-5 5v18a1 1 0 0 0 1.564.825l2.106-1.439 2.106 1.439a1 1 0 0 0 1.13 0l2.1-1.439 2.1 1.439a1 1 0 0 0 1.131 0l2.1-1.438 2.1 1.437A1 1 0 0 0 21 23V5a5.006 5.006 0 0 0-5-5H8Zm6 14H8a1 1 0 0 1 0-2h6a1 1 0 0 1 0 2Zm3-5a1 1 0 0 1-1 1H8a1 1 0 0 1 0-2h8a1 1 0 0 1 1 1Z"/>
  </g>
  <defs>
    <clipPath id="a">
      <path fill="#fff" d="M0 0h24v24H0z"/>
    </clipPath>
  </defs>
</svg>
