<svg xmlns="http://www.w3.org/2000/svg" width="24" height="24" fill="none" viewBox="0 0 24 24">
  <g clip-path="url(#a)">
    <path fill="#374957" d="M22.707 22.708a1 1 0 0 1-1.414 0l-1.414-1.414-1.415 1.414a1 1 0 0 1-1.439-1.39l.025-.024 1.414-1.414-1.414-1.415a1 1 0 0 1 1.39-1.44l.024.026 1.415 1.414 1.414-1.414a1 1 0 0 1 1.44 1.389l-.026.025-1.414 1.415 1.414 1.414a.996.996 0 0 1 .008 1.41c-.002.003-.003.005-.008.004Z"/>
    <path fill="#374957" d="M14.035 20.015a5.97 5.97 0 0 1 9.524-4.803C25.332 8.827 21.593 2.214 15.21.44 8.825-1.332 2.213 2.406.44 8.79c-1.773 6.385 1.966 12.999 8.35 14.772 2.1.583 4.32.583 6.42 0a5.951 5.951 0 0 1-1.175-3.548ZM13 12.022a1 1 0 0 1-.294.708l-3.005 3.006a1.001 1.001 0 0 1-1.416-1.417l2.712-2.712V7.013a1.002 1.002 0 1 1 2.003 0v5.009Z"/>
  </g>
  <defs>
    <clipPath id="a">
      <path fill="#fff" d="M0 0h24v24H0z"/>
    </clipPath>
  </defs>
</svg>
