<svg xmlns="http://www.w3.org/2000/svg" width="24" height="24" fill="none" viewBox="0 0 24 24">
  <g clip-path="url(#a)">
    <path fill="#374957" d="M22.554.923A3.977 3.977 0 0 0 19.263.07l-9.184 1.722A5 5 0 0 0 6 6.706v9.85A3.96 3.96 0 0 0 4 16a4 4 0 1 0 4 4v-9.124A2 2 0 0 1 9.632 8.91l11.183-2.1A1 1 0 0 1 22 7.8v5.76a3.96 3.96 0 0 0-2-.56 4 4 0 1 0 4 4V4A3.987 3.987 0 0 0 22.554.923Z"/>
  </g>
  <defs>
    <clipPath id="a">
      <path fill="#fff" d="M0 0h24v24H0z"/>
    </clipPath>
  </defs>
</svg>
