<svg xmlns="http://www.w3.org/2000/svg" width="24" height="24" fill="none" viewBox="0 0 24 24">
  <path fill="#374957" d="M20.467 17.3a530.27 530.27 0 0 0-1.557-1.815 2.67 2.67 0 0 0 .616-3.663 477.173 477.173 0 0 0-1.885-2.091c.465-.235.845-.61 1.084-1.073a2.428 2.428 0 0 0-.176-2.526C18.53 6.1 13.886.846 13.886.846a2.608 2.608 0 0 0-3.77 0S5.472 6.1 5.45 6.13A2.3 2.3 0 0 0 5 7.6 1.409 1.409 0 0 0 6.41 9H12a1 1 0 1 1 0 2H5.205s-.707.784-.732.82A2.936 2.936 0 0 0 4 13.385a1.28 1.28 0 0 0 .091.522A1.84 1.84 0 0 0 5.834 15H13a1 1 0 1 1 0 2H3.782s-.228.268-.249.3a3.018 3.018 0 0 0 .6 4.058A2.881 2.881 0 0 0 5.99 22H11v1a1 1 0 0 0 2 0v-1h5.01a2.883 2.883 0 0 0 1.862-.644 3.019 3.019 0 0 0 .595-4.056Z"/>
</svg>
