<svg xmlns="http://www.w3.org/2000/svg" width="24" height="24" fill="none" viewBox="0 0 24 24">
  <g clip-path="url(#a)">
    <path fill="#374957" d="M13.118.06a11.972 11.972 0 0 1 10.823 10.823A9.536 9.536 0 0 1 15.8 8.2 9.532 9.532 0 0 1 13.118.06ZM22.552 13A11.528 11.528 0 0 1 11.106.05 11.941 11.941 0 0 0 .047 11.124a11.373 11.373 0 0 1 12.829 12.829 11.938 11.938 0 0 0 11.075-11.046c-.464.06-.931.09-1.399.094ZM8.239 15.762A9.412 9.412 0 0 0 .06 13.137a11.975 11.975 0 0 0 10.8 10.8 9.408 9.408 0 0 0-2.621-8.176Z"/>
  </g>
  <defs>
    <clipPath id="a">
      <path fill="#fff" d="M0 0h24v24H0z"/>
    </clipPath>
  </defs>
</svg>
