<svg xmlns="http://www.w3.org/2000/svg" width="24" height="24" fill="none" viewBox="0 0 24 24">
  <g clip-path="url(#a)">
    <path fill="#374957" d="M12 24a1.494 1.494 0 0 1-1.06-.439l-7.676-7.672a5.5 5.5 0 0 1 0-7.778L10.936.439a1.5 1.5 0 0 1 2.121 2.122l-7.672 7.671a2.501 2.501 0 0 0 0 3.536l7.672 7.671A1.5 1.5 0 0 1 12 24Z"/>
    <path fill="#374957" d="M21.542 24a1.5 1.5 0 0 1-1.061-.439L11.4 14.475a3.505 3.505 0 0 1 0-4.95L20.481.44A1.5 1.5 0 0 1 22.6 2.561l-9.086 9.085a.5.5 0 0 0 0 .708L22.6 21.44A1.5 1.5 0 0 1 21.542 24Z"/>
  </g>
  <defs>
    <clipPath id="a">
      <path fill="#fff" d="M0 0h24v24H0z"/>
    </clipPath>
  </defs>
</svg>
