<svg xmlns="http://www.w3.org/2000/svg" width="24" height="24" fill="none" viewBox="0 0 24 24">
  <g clip-path="url(#a)">
    <path fill="#374957" d="M3 6a6 6 0 1 1 12 0A6 6 0 0 1 3 6Zm6 8a9.01 9.01 0 0 0-9 9 1 1 0 0 0 1 1h16a1 1 0 0 0 1-1 9.01 9.01 0 0 0-9-9Zm12.414-2 2.293-2.293a1 1 0 0 0-1.414-1.414L20 10.586l-2.293-2.293a1 1 0 0 0-1.414 1.414L18.586 12l-2.293 2.293a1 1 0 1 0 1.414 1.414L20 13.414l2.293 2.293a1 1 0 0 0 1.414-1.414L21.414 12Z"/>
  </g>
  <defs>
    <clipPath id="a">
      <path fill="#fff" d="M0 0h24v24H0z"/>
    </clipPath>
  </defs>
</svg>
