<svg xmlns="http://www.w3.org/2000/svg" width="24" height="24" fill="none" viewBox="0 0 24 24">
  <g clip-path="url(#a)">
    <path fill="#374957" d="M22.514 10.972a3.823 3.823 0 0 0-3.028-.944c-2.187.264-4.345.73-6.447 1.39.32-2.505 2.71-3.418 4.96-3.418a3 3 0 0 0 0-6 6.973 6.973 0 0 0-5 2.111V1a1 1 0 1 0-2 0v3.11A6.977 6.977 0 0 0 6 2a3 3 0 1 0 0 6c2.25 0 4.642.913 4.962 3.418a35.892 35.892 0 0 0-6.447-1.39 3.831 3.831 0 0 0-3.028.944 4.529 4.529 0 0 0-1.47 3.4C.017 23.062 4.853 24 6.932 24a5.38 5.38 0 0 0 3.09-1.185 3.67 3.67 0 0 1 1.979-.848c.73.078 1.419.374 1.979.848A5.383 5.383 0 0 0 17.069 24c2.079 0 6.914-.938 6.914-9.625a4.531 4.531 0 0 0-1.47-3.403Zm-16.358 8.3c-1.268.352-1.746-.964-2.135-3.114a1.167 1.167 0 0 1 1.316-1.423A37.24 37.24 0 0 1 11 16.6c-2.3.239-3.636 2.339-4.844 2.674v-.002Zm13.823-3.112c-.39 2.15-.867 3.466-2.135 3.114C16.636 18.939 15.3 16.839 13 16.6a37.253 37.253 0 0 1 5.663-1.858 1.166 1.166 0 0 1 1.316 1.418Z"/>
  </g>
  <defs>
    <clipPath id="a">
      <path fill="#fff" d="M0 0h24v24H0z"/>
    </clipPath>
  </defs>
</svg>
