<svg xmlns="http://www.w3.org/2000/svg" width="24" height="24" fill="none" viewBox="0 0 24 24">
  <g clip-path="url(#a)">
    <path fill="#374957" d="m22.83 9.171-3.878-3.879a1 1 0 0 0-1.414 1.414l3.879 3.88c.115.117.216.248.3.39-.015 0-.027-.009-.042-.009L5.99 11a1 1 0 1 0 0 2l15.678-.032c.028 0 .05-.014.078-.016a1.98 1.98 0 0 1-.334.462l-3.88 3.88a1 1 0 1 0 1.415 1.413l3.879-3.879a4 4 0 0 0 0-5.656h.004Z"/>
    <path fill="#374957" d="M7.002 22h-2a3 3 0 0 1-3-3V5a3 3 0 0 1 3-3h2a1 1 0 0 0 0-2h-2a5.006 5.006 0 0 0-5 5v14a5.006 5.006 0 0 0 5 5h2a1 1 0 1 0 0-2Z"/>
  </g>
  <defs>
    <clipPath id="a">
      <path fill="#fff" d="M0 0h24v24H0z"/>
    </clipPath>
  </defs>
</svg>
