<svg xmlns="http://www.w3.org/2000/svg" width="24" height="24" fill="none" viewBox="0 0 24 24">
  <g clip-path="url(#a)">
    <path fill="#374957" d="M23.94 6.573a2.85 2.85 0 0 1-2.516 2.284s-1.051.165-1.51.284c.05-.33.08-.662.086-.995V4.01a6.054 6.054 0 0 0-.217-1.578 11.8 11.8 0 0 1 2.795 1.138 2.765 2.765 0 0 1 1.362 3.002Zm-9.793 7.556a3 3 0 0 0 .6-3.308l-3.756-7.214A4.351 4.351 0 0 0 4.16 2.06c-.342.292-.684.6-1.018.912-.355.334-.717.712-1.077 1.124a4.323 4.323 0 0 0-.957 3.826 4.453 4.453 0 0 0 2.539 3.1l7.2 3.717a2.936 2.936 0 0 0 3.3-.61ZM16.473.862a3.966 3.966 0 0 0-3.391-.753c-.614.147-1.22.328-1.814.543a6.4 6.4 0 0 1 1.524 2.083l3.78 7.27c.067.162.125.326.174.493l.01-.01A5.525 5.525 0 0 0 18 7V4.01A3.993 3.993 0 0 0 16.473.863Zm-9.9 23.077a2.849 2.849 0 0 0 2.283-2.516s.165-1.051.284-1.51c-.33.051-.661.08-.994.087H4.01a6.054 6.054 0 0 1-1.578-.217c.257.978.64 1.92 1.138 2.8a2.766 2.766 0 0 0 3.003 1.356Zm-2.563-5.94H7a5.525 5.525 0 0 0 3.488-1.243l.01-.01a5.08 5.08 0 0 1-.491-.174l-7.271-3.78a6.4 6.4 0 0 1-2.085-1.525c-.215.594-.396 1.2-.542 1.814a3.959 3.959 0 0 0 .753 3.39A3.99 3.99 0 0 0 4.01 18Z"/>
  </g>
  <defs>
    <clipPath id="a">
      <path fill="#fff" d="M0 0h24v24H0z"/>
    </clipPath>
  </defs>
</svg>
