<svg xmlns="http://www.w3.org/2000/svg" width="24" height="24" fill="none" viewBox="0 0 24 24">
  <g clip-path="url(#a)">
    <path fill="#374957" d="M23.782 12.173a4.08 4.08 0 0 1-.966 1.539l-9.1 9.1c-.434.43-.96.754-1.54.95a10.298 10.298 0 0 1-.083-2.851 10.05 10.05 0 0 1 8.827-8.826 10.254 10.254 0 0 1 2.862.088ZM10.1 20.7a12.063 12.063 0 0 1 10.6-10.6 12.33 12.33 0 0 1 3.228.078 12.034 12.034 0 1 0-13.752 13.744A12.305 12.305 0 0 1 10.1 20.7Z"/>
  </g>
  <defs>
    <clipPath id="a">
      <path fill="#fff" d="M0 0h24v24H0z"/>
    </clipPath>
  </defs>
</svg>
