<svg xmlns="http://www.w3.org/2000/svg" width="24" height="24" fill="none" viewBox="0 0 24 24">
  <g clip-path="url(#a)">
    <path fill="#374957" d="M12.582 24a11.95 11.95 0 0 0 10.698-6.561 1 1 0 0 0-1.78-.908c-2.502 4.923-8.52 6.886-13.444 4.385-4.923-2.502-6.886-8.52-4.385-13.444C6.173 2.55 12.191.586 17.115 3.087a9.999 9.999 0 0 1 4.396 4.407 1 1 0 1 0 1.784-.9C20.31.678 13.092-1.696 7.177 1.29 1.26 4.277-1.113 11.493 1.873 17.41A11.998 11.998 0 0 0 12.582 24Z"/>
  </g>
  <defs>
    <clipPath id="a">
      <path fill="#fff" d="M0 0h24v24H0z"/>
    </clipPath>
  </defs>
</svg>
