<svg xmlns="http://www.w3.org/2000/svg" width="24" height="24" fill="none" viewBox="0 0 24 24">
  <g clip-path="url(#a)">
    <path fill="#374957" d="M19 0H5a5.006 5.006 0 0 0-5 5v14a5.006 5.006 0 0 0 5 5h14a5.006 5.006 0 0 0 5-5V5a5.006 5.006 0 0 0-5-5ZM7 18a1 1 0 1 1 0-2 1 1 0 0 1 0 2ZM7 8a1 1 0 1 1 0-2 1 1 0 0 1 0 2Zm5 5a1 1 0 1 1 0-2 1 1 0 0 1 0 2Zm5 5a1 1 0 1 1 0-2 1 1 0 0 1 0 2Zm0-10a1 1 0 1 1 0-2 1 1 0 0 1 0 2Z"/>
  </g>
  <defs>
    <clipPath id="a">
      <path fill="#fff" d="M0 0h24v24H0z"/>
    </clipPath>
  </defs>
</svg>
