<svg xmlns="http://www.w3.org/2000/svg" width="24" height="24" fill="none" viewBox="0 0 24 24">
  <g clip-path="url(#a)">
    <path fill="#374957" d="M22.942 6.837 20.76 4.654l.947-.947a1 1 0 1 0-1.414-1.414l-.947.947-2.183-2.182a3.7 3.7 0 0 0-5.105 0 3.607 3.607 0 0 0 0 5.106l2.182 2.182-5.894 5.894-2.183-2.182a3.7 3.7 0 0 0-5.105 0 3.61 3.61 0 0 0 0 5.106l2.182 2.182-.947.947a1 1 0 1 0 1.414 1.414l.947-.947 2.183 2.182a3.61 3.61 0 1 0 5.105-5.105L9.76 15.655l5.9-5.895 2.182 2.182a3.61 3.61 0 1 0 5.105-5.105h-.005Z"/>
  </g>
  <defs>
    <clipPath id="a">
      <path fill="#fff" d="M0 0h24v24H0z"/>
    </clipPath>
  </defs>
</svg>
