<svg xmlns="http://www.w3.org/2000/svg" width="24" height="24" fill="none" viewBox="0 0 24 24">
  <g clip-path="url(#a)">
    <path fill="#374957" d="M10 23a1 1 0 0 1-1 1H1a1 1 0 0 1 0-2h8a1 1 0 0 1 1 1Zm-9-3h6a1 1 0 1 0 0-2H1a1 1 0 0 0 0 2Zm0-4h4a1 1 0 1 0 0-2H1a1 1 0 0 0 0 2Z"/>
    <path fill="#374957" d="M12 0A12 12 0 0 0 0 12c0 .061.008.12.009.181A2.97 2.97 0 0 1 1 12h4a2.99 2.99 0 0 1 2.78 4.116 2.974 2.974 0 0 1 2 4 2.949 2.949 0 0 1 2.039 3.875c.061 0 .12.009.181.009a12 12 0 0 0 0-24Zm3.707 15.707a1 1 0 0 1-1.414 0l-3-3A1 1 0 0 1 11 12V7a1 1 0 0 1 2 0v4.586l2.707 2.707a1 1 0 0 1 0 1.414Z"/>
  </g>
  <defs>
    <clipPath id="a">
      <path fill="#fff" d="M0 0h24v24H0z"/>
    </clipPath>
  </defs>
</svg>
