<svg xmlns="http://www.w3.org/2000/svg" width="24" height="24" fill="none" viewBox="0 0 24 24">
  <g clip-path="url(#a)">
    <path fill="#374957" d="M14 11a1 1 0 0 1-.707-1.707l2.966-2.966a5.894 5.894 0 0 0-7.7.232c-.16.16-.308.329-.445.508a2.283 2.283 0 0 1-1.554.96 7.055 7.055 0 0 0-4.5 2.037c-2.956 2.957-2.7 8.025.575 11.3A8.8 8.8 0 0 0 8.814 24a7.165 7.165 0 0 0 5.122-2.059 7.055 7.055 0 0 0 2.038-4.5 2.282 2.282 0 0 1 .959-1.554c.18-.136.349-.285.508-.445a5.9 5.9 0 0 0 .232-7.7l-2.966 2.966A1 1 0 0 1 14 11Zm-6.293 8.707a1 1 0 0 1-1.414 0l-2-2a1 1 0 0 1 1.414-1.414l2 2a1 1 0 0 1 0 1.414ZM10 17a3 3 0 1 1 0-5.999 3 3 0 0 1 0 6Zm1-3a1 1 0 1 1-2.001 0A1 1 0 0 1 11 14ZM23.482 3.018l-.214.214a6.035 6.035 0 0 1-2.62 1.534l-2.975 2.975a6.738 6.738 0 0 0-.642-.772 6.74 6.74 0 0 0-.772-.642l2.975-2.975c.28-.99.808-1.891 1.534-2.62l.214-.214a1.768 1.768 0 0 1 2.5 2.5Z"/>
  </g>
  <defs>
    <clipPath id="a">
      <path fill="#fff" d="M0 0h24v24H0z"/>
    </clipPath>
  </defs>
</svg>
