<svg xmlns="http://www.w3.org/2000/svg" width="24" height="24" fill="none" viewBox="0 0 24 24">
  <g clip-path="url(#a)">
    <path fill="#374957" d="M5.82 19.306c.054.044.116.074.17.117l-4.283 4.284a1 1 0 0 1-1.414-1.414l4.285-4.285c.363.479.78.915 1.242 1.298Zm4.18-6.72 6.293-6.293a1 1 0 1 1 1.414 1.414L14.414 11H21.6a30.728 30.728 0 0 0 2.28-6.075A3.992 3.992 0 0 0 19.04.12 31.837 31.837 0 0 0 10 4.107v8.48Zm2.5.414c-.025 0-.047-.013-.072-.014l-6.437 6.437A7.446 7.446 0 0 0 10.589 21a8.185 8.185 0 0 0 5.9-2.545A28.72 28.72 0 0 0 20.533 13H12.5ZM8 14.5V5.507A26.453 26.453 0 0 0 5.256 7.87a7.757 7.757 0 0 0-2.247 5.83c.072 1.56.62 3.06 1.569 4.3l3.436-3.437C8.013 14.547 8 14.525 8 14.5Z"/>
  </g>
  <defs>
    <clipPath id="a">
      <path fill="#fff" d="M0 0h24v24H0z"/>
    </clipPath>
  </defs>
</svg>
