<svg xmlns="http://www.w3.org/2000/svg" width="24" height="24" fill="none" viewBox="0 0 24 24">
  <g clip-path="url(#a)">
    <path fill="#374957" d="M0 9v9a5.006 5.006 0 0 0 5 5h14a5.006 5.006 0 0 0 5-5V9H0Zm14 10H6a1 1 0 0 1 0-2h8a1 1 0 0 1 0 2Zm4-4H6a1 1 0 0 1 0-2h12a1 1 0 0 1 0 2Zm6-8V6a5.006 5.006 0 0 0-5-5H5a5.006 5.006 0 0 0-5 5v1h24ZM10 3a1 1 0 1 1 0 2 1 1 0 0 1 0-2ZM7 3a1 1 0 1 1 0 2 1 1 0 0 1 0-2ZM4 3a1 1 0 1 1 0 2 1 1 0 0 1 0-2Z"/>
  </g>
  <defs>
    <clipPath id="a">
      <path fill="#fff" d="M0 0h24v24H0z"/>
    </clipPath>
  </defs>
</svg>
