<svg xmlns="http://www.w3.org/2000/svg" width="24" height="24" fill="none" viewBox="0 0 24 24">
  <g clip-path="url(#a)">
    <path fill="#374957" d="M3 6.255V2.089A2.047 2.047 0 0 1 5 0h4a1.045 1.045 0 0 1 0 2.089H6.44l5.905 6.178c.04.044.098.068.157.068a.21.21 0 0 0 .156-.067l6.886-7.179c.962-.97 2.324.542 1.414 1.475L14.073 9.74a2.162 2.162 0 0 1-1.57.678 2.165 2.165 0 0 1-1.572-.681l-5.93-6.204v2.722a1 1 0 0 1-2 0Zm19.445 9.8c-4.489-4.678-16.4-4.679-20.889 0A5.588 5.588 0 0 0 0 19.989l.081 1.174A2.784 2.784 0 0 0 2.801 24c.043 0 2.522-.336 2.522-.336a2.784 2.784 0 0 0 2.648-2.767l.158-1.878A10.3 10.3 0 0 1 12 18.243c1.33.02 2.643.286 3.875.786l.156 1.868a2.784 2.784 0 0 0 2.648 2.767s2.48.336 2.523.336a2.764 2.764 0 0 0 2.72-2.764L24 19.919a5.55 5.55 0 0 0-1.556-3.861l.001-.003Z"/>
  </g>
  <defs>
    <clipPath id="a">
      <path fill="#fff" d="M0 0h24v24H0z"/>
    </clipPath>
  </defs>
</svg>
