<svg xmlns="http://www.w3.org/2000/svg" width="24" height="24" fill="none" viewBox="0 0 24 24">
  <g clip-path="url(#a)">
    <path fill="#374957" d="M14.181.207A1 1 0 0 0 13 1.19v2.88A7.954 7.954 0 0 0 4.07 13H1.19a.998.998 0 0 0-.983 1.181A12 12 0 1 0 14.181.207ZM12 14.001a1.994 1.994 0 0 1-1.723-1H8a1 1 0 0 1 0-2h2.277a2 2 0 0 1 .723-.723V7a1 1 0 0 1 2 0v3.277a1.993 1.993 0 0 1-1 3.724ZM9.972.1a1 1 0 1 1 0 2 1 1 0 0 1 0-2Zm-4.1 1.755a1 1 0 1 1-.003-.002l.003.002ZM2.779 4.841a1 1 0 1 1 0 2 1 1 0 0 1 0-2Zm-1.6 4.167a1 1 0 1 1-.002 0h.002Z"/>
  </g>
  <defs>
    <clipPath id="a">
      <path fill="#fff" d="M0 0h24v24H0z"/>
    </clipPath>
  </defs>
</svg>
