<svg xmlns="http://www.w3.org/2000/svg" width="24" height="24" fill="none" viewBox="0 0 24 24">
  <g clip-path="url(#a)">
    <path fill="#374957" d="M10.007 3 8 2.986A3 3 0 0 0 5 0H3a3 3 0 0 0-3 3v2a3 3 0 0 0 2.993 3l-.014 1.993A1 1 0 0 0 3.973 11h.006a1 1 0 0 0 1-.993L4.993 8H5a3 3 0 0 0 3-3v-.014L9.993 5H10a1 1 0 0 0 .007-2ZM21 0h-2a3 3 0 0 0-3 2.993l-1.994-.014H14a1 1 0 1 0-.007 2L16 4.993V5a3 3 0 0 0 3 3h.014L19 9.993A.999.999 0 0 0 19.993 11H20a1 1 0 0 0 1-.993L21.014 8A3 3 0 0 0 24 5V3a3 3 0 0 0-3-3Zm.007 16 .014-1.995A1 1 0 0 0 20.027 13h-.006a1 1 0 0 0-1 .993L19.007 16H19a3 3 0 0 0-3 3v.014L14.007 19H14a1 1 0 1 0-.007 2l2.007.014A3 3 0 0 0 19 24h2a3 3 0 0 0 3-3v-2a3 3 0 0 0-2.993-3Zm-11 3.02L8 19.006V19a3 3 0 0 0-3-3h-.014L5 14.006A1 1 0 0 0 4.007 13H4a1 1 0 0 0-1 .993L2.986 16A3 3 0 0 0 0 19v2a3 3 0 0 0 3 3h2a3 3 0 0 0 3-2.993l1.994.014H10a1 1 0 0 0 .007-2Z"/>
  </g>
  <defs>
    <clipPath id="a">
      <path fill="#fff" d="M0 0h24v24H0z"/>
    </clipPath>
  </defs>
</svg>
