<svg xmlns="http://www.w3.org/2000/svg" width="24" height="24" fill="none" viewBox="0 0 24 24">
  <g clip-path="url(#a)">
    <path fill="#374957" d="M9 0h6a1 1 0 1 1 0 2h-2v2.056a9.948 9.948 0 0 1 2 .405v4.69A30.357 30.357 0 0 0 12 9c-1.008 0-2.017.053-3 .151v-4.69a9.949 9.949 0 0 1 2-.405V2H9a1 1 0 0 1 0-2ZM2 14c0 .82 1.879 1.927 5 2.541v-5.082C3.879 12.073 2 13.18 2 14Zm15-8.647v4.072c1.552.244 3.059.716 4.473 1.4A10.033 10.033 0 0 0 17 5.353ZM9 11.16v5.68a28.093 28.093 0 0 0 6 0v-5.68a28.196 28.196 0 0 0-6 0Zm8 .3v5.082c3.12-.614 5-1.721 5-2.541 0-.82-1.88-1.928-5-2.542v.001Zm-8 7.39v4.69a9.991 9.991 0 0 0 6 0v-4.69a29.758 29.758 0 0 1-6-.001v.001Zm8 3.8a10.033 10.033 0 0 0 4.473-5.468A15.947 15.947 0 0 1 17 18.575v4.075Zm-10 0v-4.075a15.948 15.948 0 0 1-4.473-1.4A10.033 10.033 0 0 0 7 22.647v.003ZM2.527 10.821A15.95 15.95 0 0 1 7 9.425V5.353a10.033 10.033 0 0 0-4.473 5.468Z"/>
  </g>
  <defs>
    <clipPath id="a">
      <path fill="#fff" d="M0 0h24v24H0z"/>
    </clipPath>
  </defs>
</svg>
