<svg xmlns="http://www.w3.org/2000/svg" width="24" height="24" fill="none" viewBox="0 0 24 24">
  <g clip-path="url(#a)">
    <path fill="#374957" d="M23.699 1.718 5.189 20.223c.4.195.84.298 1.284.3h3.17c.266 0 .52.105.707.293l1.718 1.717a4.967 4.967 0 0 0 5.126 1.202 4.931 4.931 0 0 0 3.345-3.987l3.377-16.04a2.956 2.956 0 0 0-.217-1.99ZM20.32.077l-16 3.371a4.997 4.997 0 0 0-2.855 8.483l1.717 1.717a1 1 0 0 1 .293.708v3.17c.002.445.105.884.3 1.284L22.282.3A2.93 2.93 0 0 0 20.32.077Z"/>
  </g>
  <defs>
    <clipPath id="a">
      <path fill="#fff" d="M0 0h24v24H0z"/>
    </clipPath>
  </defs>
</svg>
