<svg xmlns="http://www.w3.org/2000/svg" width="24" height="24" fill="none" viewBox="0 0 24 24">
  <g clip-path="url(#a)">
    <path fill="#374957" d="M24 21a1 1 0 0 1-1 1h-8.184a2.983 2.983 0 0 1-5.632 0H1a1 1 0 0 1 0-2h8.184A3 3 0 0 1 11 18.184V14H5a3 3 0 0 1-3-3 1 1 0 0 1 1-1h5.586l.414.414a1.985 1.985 0 0 0 1.414.586h3.172A1.986 1.986 0 0 0 15 10.414l.414-.414H21a1 1 0 0 1 1 1 3 3 0 0 1-3 3h-6v4.184A3.001 3.001 0 0 1 14.816 20H23a1 1 0 0 1 1 1ZM10 8.586l.414.414h3.172L14 8.586A1.986 1.986 0 0 1 15.414 8H21V4a4 4 0 0 0-4-4H7a4 4 0 0 0-4 4v4h5.586A1.986 1.986 0 0 1 10 8.586Z"/>
  </g>
  <defs>
    <clipPath id="a">
      <path fill="#fff" d="M0 0h24v24H0z"/>
    </clipPath>
  </defs>
</svg>
