<svg xmlns="http://www.w3.org/2000/svg" width="24" height="24" fill="none" viewBox="0 0 24 24">
  <g clip-path="url(#a)">
    <path fill="#374957" d="M17 10a7 7 0 1 0 7 7 7.008 7.008 0 0 0-7-7Zm2.707 9.707a1 1 0 0 1-1.414 0l-2-2A1 1 0 0 1 16 17v-3a1 1 0 1 1 2 0v2.586l1.707 1.707a1 1 0 0 1 0 1.414ZM8.474 11a5.5 5.5 0 1 1 0-11 5.5 5.5 0 0 1 0 11Zm2.882 13H1a1 1 0 0 1-1-1.011 10.275 10.275 0 0 1 6.553-9.6 6.686 6.686 0 0 1 2.394-.384 9.099 9.099 0 0 0-.424.995A8.853 8.853 0 0 0 8 17a8.983 8.983 0 0 0 3.356 7Z"/>
  </g>
  <defs>
    <clipPath id="a">
      <path fill="#fff" d="M0 0h24v24H0z"/>
    </clipPath>
  </defs>
</svg>
