<svg xmlns="http://www.w3.org/2000/svg" width="24" height="24" fill="none" viewBox="0 0 24 24">
  <g clip-path="url(#a)">
    <path fill="#374957" d="M9.4 24a3.797 3.797 0 0 1-.832-.146 3.5 3.5 0 0 1-.451-6.589 6.38 6.38 0 0 1 .057-2.732 6 6 0 0 1 11.367-.856 1 1 0 0 0 .766.471 5.012 5.012 0 0 1 3.557 6 4.946 4.946 0 0 1-3.7 3.7A5.316 5.316 0 0 1 19.1 24H9.4ZM6 16.23c-.02-.73.058-1.46.23-2.169A8 8 0 0 1 21.106 12.3c1.095.349 2.09.96 2.894 1.781a7.954 7.954 0 0 0-5.644-7.721 1.087 1.087 0 0 1-.722-.733 8 8 0 0 0-15.49.842 7.648 7.648 0 0 0 .8 5.179A5.449 5.449 0 0 0 .056 17.3a5.8 5.8 0 0 0 4.1 4.472A5.5 5.5 0 0 1 6 16.23Z"/>
  </g>
  <defs>
    <clipPath id="a">
      <path fill="#fff" d="M0 0h24v24H0z"/>
    </clipPath>
  </defs>
</svg>
