<svg xmlns="http://www.w3.org/2000/svg" width="24" height="24" fill="none" viewBox="0 0 24 24">
  <g clip-path="url(#a)">
    <path fill="#374957" d="M12 2a10.032 10.032 0 0 1 7.122 3H16a1 1 0 1 0 0 2h4.142A1.858 1.858 0 0 0 22 5.143V1a1 1 0 0 0-2 0v2.078C15.083-1.35 7.507-.954 3.08 3.963A11.98 11.98 0 0 0 .05 10.9a1.007 1.007 0 0 0 1 1.1.982.982 0 0 0 .99-.878A10.014 10.014 0 0 1 12 2Zm10.95 10a.982.982 0 0 0-.988.878c-.478 5.494-5.319 9.562-10.813 9.084A9.986 9.986 0 0 1 4.88 19H8a1 1 0 0 0 0-2H3.857c-1.025 0-1.856.83-1.857 1.855V23a1 1 0 0 0 2 0v-2.078c4.917 4.428 12.492 4.032 16.92-.885a11.98 11.98 0 0 0 3.03-6.937 1.007 1.007 0 0 0-1-1.1Z"/>
  </g>
  <defs>
    <clipPath id="a">
      <path fill="#fff" d="M0 0h24v24H0z"/>
    </clipPath>
  </defs>
</svg>
