<svg xmlns="http://www.w3.org/2000/svg" width="24" height="24" fill="none" viewBox="0 0 24 24">
  <g clip-path="url(#a)">
    <path fill="#374957" d="M24 11.5a3.5 3.5 0 0 1-3.268 3.492A11.037 11.037 0 0 1 16 19.954V23a1 1 0 0 1-1 1H9a1 1 0 0 1-1-1v-3.047a11.264 11.264 0 0 1-4.542-4.572 1 1 0 1 1 1.776-.92C6.4 16.717 9.1 19.001 12 19.001c3.129 0 6.212-2.78 7.128-5.377a.994.994 0 0 1 1.117-.65c.084.015.17.024.255.026a1.5 1.5 0 0 0 .27-2.972 1 1 0 0 1-.816-.878 7.96 7.96 0 0 0-4.013-6.11c-.283.886-.66 1.738-1.128 2.541a15.09 15.09 0 0 1-4.956 4.467 1.5 1.5 0 1 1-1.724.84 15.807 15.807 0 0 1-7.257 1.1A1 1 0 0 1 .5 10.136a6.372 6.372 0 0 0 1.319-2.369C3.124 4.674 5.1 0 12 0a9.975 9.975 0 0 1 9.851 8.274A3.5 3.5 0 0 1 24 11.5Zm-8 0a1.5 1.5 0 1 0-2.999 0 1.5 1.5 0 0 0 2.999 0Z"/>
  </g>
  <defs>
    <clipPath id="a">
      <path fill="#fff" d="M0 0h24v24H0z"/>
    </clipPath>
  </defs>
</svg>
