<svg xmlns="http://www.w3.org/2000/svg" width="24" height="24" fill="none" viewBox="0 0 24 24">
  <g clip-path="url(#a)">
    <path fill="#374957" d="M14 7V.46c.925.35 1.765.891 2.465 1.59l3.484 3.486A6.953 6.953 0 0 1 21.54 8H15a1 1 0 0 1-1-1Zm7.976 3H15a3 3 0 0 1-3-3V.024C11.84.013 11.678 0 11.515 0H7a5.006 5.006 0 0 0-5 5v14a5.006 5.006 0 0 0 5 5h10a5.006 5.006 0 0 0 5-5v-8.515c0-.163-.013-.324-.024-.485ZM14 14h-1v4.5a2.5 2.5 0 1 1-2-2.45V14a2 2 0 0 1 2-2h1a1 1 0 0 1 0 2Z"/>
  </g>
  <defs>
    <clipPath id="a">
      <path fill="#fff" d="M0 0h24v24H0z"/>
    </clipPath>
  </defs>
</svg>
