<svg xmlns="http://www.w3.org/2000/svg" width="24" height="24" fill="none" viewBox="0 0 24 24">
  <g clip-path="url(#a)">
    <path fill="#374957" d="m22.761 13.97-2.445.646a2.7 2.7 0 0 0-.984.491L16.738 13.6a5.042 5.042 0 0 0 0-3.2l2.594-1.509c.291.23.626.397.984.491 0 0 2.617.68 2.7.68a1 1 0 0 0 .256-1.962l-2.444-.647a.715.715 0 0 1-.508-.873l.647-2.444a1 1 0 1 0-1.934-.512l-.646 2.444a2.702 2.702 0 0 0-.06 1.1l-2.6 1.51A5 5 0 0 0 13 7.1v-3c.344-.135.657-.34.92-.6l1.787-1.788a1.002 1.002 0 1 0-1.414-1.42L12.505 2.08a.718.718 0 0 1-1.01 0L9.707.292a1 1 0 0 0-1.414 1.414L10.081 3.5c.262.26.575.465.92.6v3a5 5 0 0 0-2.73 1.574l-2.6-1.51a2.7 2.7 0 0 0-.062-1.1L4.967 3.62a1 1 0 0 0-1.934.512l.647 2.444a.715.715 0 0 1-.508.873L.728 8.1a1 1 0 0 0 .254 1.966c.085 0 2.7-.679 2.7-.679a2.7 2.7 0 0 0 .984-.49L7.262 10.4a5.042 5.042 0 0 0 0 3.2l-2.594 1.508a2.7 2.7 0 0 0-.984-.49L1.24 13.97a1 1 0 0 0-.51 1.93l2.443.646a.715.715 0 0 1 .508.873l-.647 2.444a1 1 0 0 0 1.934.512l.646-2.444a2.7 2.7 0 0 0 .061-1.1l2.6-1.51A5 5 0 0 0 11 16.9v3c-.344.136-.657.34-.919.6l-1.788 1.793a1 1 0 0 0 1.414 1.414l1.793-1.788a.718.718 0 0 1 1.01 0l1.788 1.788a1 1 0 0 0 1.414-1.414l-1.788-1.788A2.707 2.707 0 0 0 13 19.9v-3a5 5 0 0 0 2.73-1.573l2.6 1.51c-.055.367-.035.742.061 1.1l.646 2.444a1 1 0 1 0 1.934-.512l-.647-2.444a.715.715 0 0 1 .508-.873l2.444-.647a1 1 0 1 0-.51-1.933h-.005Z"/>
  </g>
  <defs>
    <clipPath id="a">
      <path fill="#fff" d="M0 0h24v24H0z"/>
    </clipPath>
  </defs>
</svg>
