<svg xmlns="http://www.w3.org/2000/svg" width="24" height="24" fill="none" viewBox="0 0 24 24">
  <g clip-path="url(#a)">
    <path fill="#374957" d="M14 7V.46c.925.35 1.765.891 2.465 1.59l3.484 3.486A6.956 6.956 0 0 1 21.54 8H15a1 1 0 0 1-1-1Zm8 3.485V19a5.006 5.006 0 0 1-5 5H7a5.006 5.006 0 0 1-5-5V5a5.006 5.006 0 0 1 5-5h4.515c.163 0 .324.013.485.024V7a3 3 0 0 0 3 3h6.976c.011.161.024.322.024.485ZM16 17a1 1 0 0 0-1-1h-2v-2a1 1 0 0 0-2 0v2H9a1 1 0 0 0 0 2h2v2a1 1 0 1 0 2 0v-2h2a1 1 0 0 0 1-1Z"/>
  </g>
  <defs>
    <clipPath id="a">
      <path fill="#fff" d="M0 0h24v24H0z"/>
    </clipPath>
  </defs>
</svg>
