<svg xmlns="http://www.w3.org/2000/svg" width="24" height="24" fill="none" viewBox="0 0 24 24">
  <g clip-path="url(#a)">
    <path fill="#374957" d="M15.848 16a1.999 1.999 0 0 0-1.527.708l-.247.292H9.925l-.246-.292A2 2 0 0 0 8.151 16H2.5A2.5 2.5 0 0 0 0 18.5 2.5 2.5 0 0 0 2.5 21h19a2.5 2.5 0 0 0 0-5h-5.652ZM3 14h5.151a3.994 3.994 0 0 1 2.65 1h2.4a4 4 0 0 1 2.646-1H21c.336.002.672.04 1 .11V8a5.006 5.006 0 0 0-5-5H7a5.006 5.006 0 0 0-5 5v6.11c.329-.07.664-.108 1-.11Z"/>
  </g>
  <defs>
    <clipPath id="a">
      <path fill="#fff" d="M0 0h24v24H0z"/>
    </clipPath>
  </defs>
</svg>
