<svg xmlns="http://www.w3.org/2000/svg" width="24" height="24" fill="none" viewBox="0 0 24 24">
  <g clip-path="url(#a)">
    <path fill="#374957" d="M2 15h9v9H7a5 5 0 0 1-5-5v-4Zm22-4a2 2 0 0 1-2 2h-9V8.957c-.336.026-.671.043-1 .043-.329 0-.664-.017-1-.043V13H2a2 2 0 0 1-2-2 4 4 0 0 1 4-4h1.738A5.137 5.137 0 0 1 4 3a1 1 0 0 1 2 0c0 2.622 2.371 3.53 4.174 3.841A9.332 9.332 0 0 1 9 3a3 3 0 1 1 6 0 9.332 9.332 0 0 1-1.174 3.841C15.629 6.53 18 5.622 18 3a1 1 0 0 1 2 0 5.138 5.138 0 0 1-1.738 4H20a4 4 0 0 1 4 4ZM11 3a7.71 7.71 0 0 0 1 3.013A7.71 7.71 0 0 0 13 3a1 1 0 0 0-2 0Zm2 21h4a5 5 0 0 0 5-5v-4h-9v9Z"/>
  </g>
  <defs>
    <clipPath id="a">
      <path fill="#fff" d="M0 0h24v24H0z"/>
    </clipPath>
  </defs>
</svg>
