<svg xmlns="http://www.w3.org/2000/svg" width="24" height="24" fill="none" viewBox="0 0 24 24">
  <path fill="#374957" d="M16 13a4.999 4.999 0 0 1-8 0 4.955 4.955 0 0 1-7 .976V19a5.006 5.006 0 0 0 5 5h12a5.006 5.006 0 0 0 5-5v-5.026A4.956 4.956 0 0 1 16 13Z"/>
  <path fill="#374957" d="M21.7 3.131a3.975 3.975 0 0 0-3.908-3.13H17v3a1 1 0 1 1-2 0V0H9v3a1 1 0 0 1-2 0V0h-.792A3.975 3.975 0 0 0 2.3 3.131L1.022 8.9 1 10.02A3 3 0 1 0 7 10a1 1 0 0 1 2 0 3 3 0 0 0 6 0 1 1 0 0 1 2 0 3 3 0 0 0 6 0v-.893l-1.3-5.976Z"/>
</svg>
