<svg xmlns="http://www.w3.org/2000/svg" width="24" height="24" fill="none" viewBox="0 0 24 24">
  <g clip-path="url(#a)">
    <path fill="#374957" d="M20 8a4 4 0 1 1 0-8 4 4 0 0 1 0 8Zm1.452 16H12.59a2.548 2.548 0 0 1-2.568-2.492 2.463 2.463 0 0 1 .318-1.239l4.436-7.959a2.599 2.599 0 0 1 4.5 0l4.425 7.953a2.468 2.468 0 0 1-.028 2.475A2.551 2.551 0 0 1 21.452 24Zm-12.808-.246a4.45 4.45 0 0 1-.053-4.454l4.437-7.96a4.518 4.518 0 0 1 1.507-1.605l-1.59-2.98a3.344 3.344 0 0 0-5.886 0l-6.653 12.3A3.35 3.35 0 0 0 3.35 24H8.8a3.92 3.92 0 0 1-.156-.246Z"/>
  </g>
  <defs>
    <clipPath id="a">
      <path fill="#fff" d="M0 0h24v24H0z"/>
    </clipPath>
  </defs>
</svg>
