<svg xmlns="http://www.w3.org/2000/svg" width="24" height="24" fill="none" viewBox="0 0 24 24">
  <g clip-path="url(#a)">
    <path fill="#374957" d="M19 24H5a5.006 5.006 0 0 1-5-5v-2a3 3 0 0 1 3-3h18a3 3 0 0 1 3 3v2a5.006 5.006 0 0 1-5 5Zm3-12v-2a2 2 0 0 0-2-2H4a2 2 0 0 0-2 2v2h20Zm-3.039-6A12.665 12.665 0 0 0 17.339.406a.994.994 0 0 0-1.692.15 3.938 3.938 0 0 1-3.685 2.457H10A4.506 4.506 0 0 0 5.412 6h13.549Z"/>
  </g>
  <defs>
    <clipPath id="a">
      <path fill="#fff" d="M0 0h24v24H0z"/>
    </clipPath>
  </defs>
</svg>
