<svg xmlns="http://www.w3.org/2000/svg" width="24" height="24" fill="none" viewBox="0 0 24 24">
  <g clip-path="url(#a)">
    <path fill="#374957" d="M11.107 14.447a1.002 1.002 0 0 0 1.345.455 1 1 0 0 0 .444-1.349l-5.5-11a1 1 0 0 0-1.789 0l-5.5 11a1 1 0 1 0 1.79.894L3.618 11h5.764l1.724 3.447ZM4.62 9 6.5 5.236 8.383 9H4.62Z"/>
    <path fill="#374957" d="M23.707 11.292a1 1 0 0 0-1.414 0L13 20.585l-4.293-4.293a.998.998 0 0 0-1.72.704 1 1 0 0 0 .306.71l5 5a1 1 0 0 0 1.414 0l10-10a1 1 0 0 0 0-1.414Z"/>
  </g>
  <defs>
    <clipPath id="a">
      <path fill="#fff" d="M0 0h24v24H0z"/>
    </clipPath>
  </defs>
</svg>
