<svg xmlns="http://www.w3.org/2000/svg" width="24" height="24" fill="none" viewBox="0 0 24 24">
  <g clip-path="url(#a)">
    <path fill="#374957" d="M11 4.5c0-1.218-.345-2.41-.995-3.44A9.7 9.7 0 0 1 21.26 2.74 9.407 9.407 0 0 1 24 9.757a10.5 10.5 0 0 1-3.121 7.117c-.774.78-1.657 1.44-2.623 1.963l-9.47-9.465A6.48 6.48 0 0 0 11 4.5Zm-2 0a4.5 4.5 0 1 0-9 0 4.5 4.5 0 0 0 9 0Zm-1.941 5.973a6.463 6.463 0 0 1-2.56.527c-.157 0-.313-.013-.468-.024a9.44 9.44 0 0 0 .5 2.546c.143.507.327 1 .55 1.478a.483.483 0 0 1-.081.578l-3.814 2.664v.014a3.237 3.237 0 1 0 4.634 4.46l.01.005 2.57-3.72a.5.5 0 0 1 .6-.12 10.083 10.083 0 0 0 4.514 1.112 9.33 9.33 0 0 0 2.725-.34l-9.18-9.18Z"/>
  </g>
  <defs>
    <clipPath id="a">
      <path fill="#fff" d="M0 0h24v24H0z"/>
    </clipPath>
  </defs>
</svg>
