<svg xmlns="http://www.w3.org/2000/svg" width="24" height="24" fill="none" viewBox="0 0 24 24">
  <g clip-path="url(#a)">
    <path fill="#374957" d="M10.357 2.92 8.94 5.22a1 1 0 0 1-1.7-1.048l1.416-2.3a3.948 3.948 0 0 1 6.692 0l4.2 6.834.44-2.365a1 1 0 1 1 1.968.366l-.5 2.67a2.999 2.999 0 0 1-3.53 2.393l-2.63-.518a1 1 0 0 1 .387-1.962l2.133.421-4.174-6.79a1.934 1.934 0 0 0-3.286 0Zm13.052 12.06-.968-1.573a1 1 0 1 0-1.7 1.048l.968 1.572a1.933 1.933 0 0 1 .04 1.98 1.91 1.91 0 0 1-1.687.992h-7.386l1.27-1.269a1 1 0 0 0-1.411-1.416L10.843 18A2.862 2.862 0 0 0 10 19.944v.062a2.884 2.884 0 0 0 .858 2.078l1.682 1.652a1.001 1.001 0 1 0 1.4-1.427L12.609 21h7.453a3.948 3.948 0 0 0 3.347-6.02ZM8.047 9.144a3 3 0 0 0-3.53-2.393l-2.63.518a1 1 0 1 0 .387 1.962l2.108-.415L.59 14.98A3.948 3.948 0 0 0 3.937 21H7.08a1 1 0 0 0 0-2H3.937a1.91 1.91 0 0 1-1.684-.992 1.934 1.934 0 0 1 .04-1.98l3.84-6.238.446 2.394a1 1 0 0 0 1.967-.368l-.498-2.67Z"/>
  </g>
  <defs>
    <clipPath id="a">
      <path fill="#fff" d="M0 0h24v24H0z"/>
    </clipPath>
  </defs>
</svg>
