<svg xmlns="http://www.w3.org/2000/svg" width="24" height="24" fill="none" viewBox="0 0 24 24">
  <g clip-path="url(#a)">
    <path fill="#374957" d="M18.713 12H14a2 2 0 0 1-2-2V5.274a3 3 0 0 0-1.166-2.383 2.871 2.871 0 0 0-2.48-.534C2.473 3.817-1.11 9.766.35 15.646a10.97 10.97 0 0 0 8.556 8.125 11 11 0 0 0 12.734-8.114 2.876 2.876 0 0 0-.533-2.485A3.055 3.055 0 0 0 18.713 12Z"/>
    <path fill="#374957" d="M23.65 7.446a9.922 9.922 0 0 0-1.01-2.422A10.09 10.09 0 0 0 16.582.372C16.414.327 16.038.3 16.038.3c-.135 0-.713 0-1.171.371-.673.53-.78 1.132-.79 1.18a2.006 2.006 0 0 0-.053.45V7a3 3 0 0 0 3 3h4.719a1.961 1.961 0 0 0 1.586-.8c.274-.37.415-.822.4-1.282a2.106 2.106 0 0 0-.078-.473Z"/>
  </g>
  <defs>
    <clipPath id="a">
      <path fill="#fff" d="M0 0h24v24H0z"/>
    </clipPath>
  </defs>
</svg>
