<svg xmlns="http://www.w3.org/2000/svg" width="24" height="24" fill="none" viewBox="0 0 24 24">
  <path fill="#374957" d="m20.44 16.854-1.481-2.22a2.212 2.212 0 0 0 .619-3.073l-2.091-3.135a2.21 2.21 0 0 0 .372-2.836C17.834 5.552 13.678.7 13.678.7a2.379 2.379 0 0 0-3.4.05s-4.126 4.8-4.15 4.832a2.212 2.212 0 0 0 .38 2.853l-2.086 3.126a2.214 2.214 0 0 0 .619 3.072L3.56 16.854A3.31 3.31 0 0 0 6.312 22H11v1a1 1 0 0 0 2 0v-1h4.687a3.31 3.31 0 0 0 2.753-5.145ZM12 4a1 1 0 1 1 0 2 1 1 0 0 1 0-2ZM8 19a1 1 0 1 1 0-2 1 1 0 0 1 0 2Zm0-5a1 1 0 1 1 0-2 1 1 0 0 1 0 2Zm4-4a1 1 0 1 1 0-2 1 1 0 0 1 0 2Zm4 2a1 1 0 1 1 0-2 1 1 0 0 1 0 2Zm0 6a1 1 0 1 1 0-2 1 1 0 0 1 0 2Zm-4-2a1 1 0 1 1 0-2 1 1 0 0 1 0 2Z"/>
</svg>
