<svg xmlns="http://www.w3.org/2000/svg" width="24" height="24" fill="none" viewBox="0 0 24 24">
  <g clip-path="url(#a)">
    <path fill="#374957" d="M16.339 2.975c.636-.86 2.623-1.536 4.044-1.928A1.272 1.272 0 0 1 22 2.252c.028 1.493-.056 3.629-.7 4.492a3.077 3.077 0 0 1-4.341.628 3.169 3.169 0 0 1-.62-4.397Zm.181 16.078A3.992 3.992 0 0 1 20 23a1 1 0 0 1-2 0 2 2 0 0 0-2-2h-1.7c.183.2.346.418.487.649a1.517 1.517 0 0 1 .008 1.544 1.593 1.593 0 0 1-1.384.807h-2.822a1.594 1.594 0 0 1-1.59-1.58c.002-.272.077-.538.216-.771.267-.437.601-.828.991-1.16C6.635 19.278 0 16.119 0 12.077A3.04 3.04 0 0 1 3.082 9h17.836A3.04 3.04 0 0 1 24 12.077c0 3.259-4.079 5.623-7.48 6.976Zm-.288-6.024a1 1 0 0 0-1.2.739A11.728 11.728 0 0 1 12 18.622a11.727 11.727 0 0 1-3.027-4.854 1 1 0 1 0-1.947.46c.029.124.5 2.893 4.168 6.386.215.22.5.356.806.386.41 0 1.325-.871 1.325-.871a16.179 16.179 0 0 0 3.649-5.9 1 1 0 0 0-.742-1.2ZM12 7.999a3.283 3.283 0 0 0 3.283-3.282c0-1.13-1.272-2.972-2.232-4.2a1.333 1.333 0 0 0-2.1 0c-.96 1.232-2.232 3.075-2.232 4.2A3.283 3.283 0 0 0 12 8Zm-4.959-.627a3.169 3.169 0 0 0 .62-4.4c-.636-.86-2.623-1.536-4.044-1.928a1.272 1.272 0 0 0-1.612 1.2c-.028 1.493.056 3.629.7 4.492a3.076 3.076 0 0 0 4.336.636Z"/>
  </g>
  <defs>
    <clipPath id="a">
      <path fill="#fff" d="M0 0h24v24H0z"/>
    </clipPath>
  </defs>
</svg>
