<svg xmlns="http://www.w3.org/2000/svg" width="24" height="24" fill="none" viewBox="0 0 24 24">
  <g clip-path="url(#a)">
    <path fill="#374957" d="M18 12a5.993 5.993 0 0 1-5.191-9H4.242L4.2 2.648A3 3 0 0 0 1.222 0H1a1 1 0 0 0 0 2h.222a1 1 0 0 1 .993.883l1.376 11.7A5 5 0 0 0 8.557 19H19a1 1 0 0 0 0-2H8.557a3 3 0 0 1-2.821-2h11.921a5 5 0 0 0 4.921-4.113l.238-1.319A5.985 5.985 0 0 1 18 12ZM7 24a2 2 0 1 0 0-4 2 2 0 0 0 0 4Zm10 0a2 2 0 1 0 0-4 2 2 0 0 0 0 4Z"/>
    <path fill="#374957" d="M15 7h2v2a1 1 0 0 0 2 0V7h2a1 1 0 1 0 0-2h-2V3a1 1 0 1 0-2 0v2h-2a1 1 0 0 0 0 2Z"/>
  </g>
  <defs>
    <clipPath id="a">
      <path fill="#fff" d="M0 0h24v24H0z"/>
    </clipPath>
  </defs>
</svg>
