<svg xmlns="http://www.w3.org/2000/svg" width="24" height="24" fill="none" viewBox="0 0 24 24">
  <g clip-path="url(#a)">
    <path fill="#374957" d="M14 11a6.95 6.95 0 0 0-1.4-4.184l3.4-3.4V5a1 1 0 1 0 2 0V2a2 2 0 0 0-2-2h-3a1 1 0 1 0 0 2h1.586l-3.4 3.4A6.991 6.991 0 1 0 14 11Z"/>
    <path fill="#374957" d="M22 6h-3a1 1 0 1 0 0 2h1.586l-3.413 3.413a6.973 6.973 0 0 0-1.189-.736c0 .108.016.214.016.323a9.01 9.01 0 0 1-9 9c-.109 0-.215-.013-.323-.016A6.994 6.994 0 0 0 20 17a6.923 6.923 0 0 0-1.411-4.175L22 9.414V11a1 1 0 0 0 2 0V8a2 2 0 0 0-2-2Z"/>
  </g>
  <defs>
    <clipPath id="a">
      <path fill="#fff" d="M0 0h24v24H0z"/>
    </clipPath>
  </defs>
</svg>
