<svg xmlns="http://www.w3.org/2000/svg" width="24" height="24" fill="none" viewBox="0 0 24 24">
  <g clip-path="url(#a)">
    <path fill="#374957" d="M9.34 10.793a6.179 6.179 0 0 1 .545-8.275l.633-.634a6.179 6.179 0 0 1 8.274-.544 5.947 5.947 0 0 1 2.146 4.343 6.01 6.01 0 0 1-1.75 4.5l-1 1a6.018 6.018 0 0 1-6.904 1.143 5.95 5.95 0 0 1-1.944-1.533ZM18.757 16a5.215 5.215 0 0 0-3.707 1.535A15.14 15.14 0 0 1 4.272 22h-1.15a1.121 1.121 0 0 1-.794-1.914l.7-.7a7.176 7.176 0 0 0 4.6-2.092l3.054-3.054a8 8 0 0 1-2.873-2.16 7.568 7.568 0 0 1-1.082-1.725L3.7 13.379a7.17 7.17 0 0 0-2.092 4.6l-.7.7a3.121 3.121 0 0 0 2.214 5.32h1.15a17.13 17.13 0 0 0 12.192-5.05A3.244 3.244 0 0 1 22 21.243V23a1 1 0 0 0 2 0v-1.758A5.249 5.249 0 0 0 18.757 16Z"/>
  </g>
  <defs>
    <clipPath id="a">
      <path fill="#fff" d="M0 0h24v24H0z"/>
    </clipPath>
  </defs>
</svg>
