<svg xmlns="http://www.w3.org/2000/svg" width="24" height="24" fill="none" viewBox="0 0 24 24">
  <g clip-path="url(#a)">
    <path fill="#374957" d="M23.9 11.437A12 12 0 0 0 0 13a11.878 11.878 0 0 0 3.76 8.712A4.84 4.84 0 0 0 7.112 23h9.767a4.994 4.994 0 0 0 3.51-1.429 11.944 11.944 0 0 0 3.51-10.134ZM7.472 19.661a1 1 0 0 1-1.412.09A8.993 8.993 0 0 1 12 4.001a9.1 9.1 0 0 1 2.25.282 1 1 0 1 1-.5 1.938A6.994 6.994 0 0 0 7.381 18.25a1 1 0 0 1 .09 1.412ZM12 15.001a1.999 1.999 0 1 1 .512-3.927l3.781-3.78a1 1 0 1 1 1.414 1.413l-3.78 3.781A1.975 1.975 0 0 1 12 15Zm5.94 4.75a1 1 0 0 1-1.322-1.5 6.992 6.992 0 0 0 2.161-7 1 1 0 1 1 1.938-.5 8.999 8.999 0 0 1-2.777 9Z"/>
  </g>
  <defs>
    <clipPath id="a">
      <path fill="#fff" d="M0 0h24v24H0z"/>
    </clipPath>
  </defs>
</svg>
