<svg xmlns="http://www.w3.org/2000/svg" width="24" height="24" fill="none" viewBox="0 0 24 24">
  <g clip-path="url(#a)">
    <path fill="#374957" d="M5 8a8 8 0 1 1 8 8 8.01 8.01 0 0 1-8-8Zm17.646 5.383a1 1 0 0 0-1.39.26A10.001 10.001 0 0 1 3.408 5.18a10 10 0 0 1 1.877-3.544A1 1 0 0 0 3.743.363 11.994 11.994 0 0 0 12 19.949v2.05H8a1 1 0 0 0 0 2h10a1 1 0 1 0 0-2h-4v-2.06a11.992 11.992 0 0 0 8.907-5.166 1 1 0 0 0-.261-1.39Z"/>
  </g>
  <defs>
    <clipPath id="a">
      <path fill="#fff" d="M0 0h24v24H0z"/>
    </clipPath>
  </defs>
</svg>
