<svg xmlns="http://www.w3.org/2000/svg" width="24" height="24" fill="none" viewBox="0 0 24 24">
  <g clip-path="url(#a)">
    <path fill="#374957" d="M16 9V7H8v2a5.006 5.006 0 0 0-5 5v5a5.006 5.006 0 0 0 5 5h8a5.006 5.006 0 0 0 5-5v-5a5.006 5.006 0 0 0-5-5Zm-1 8h-2v2a1 1 0 0 1-2 0v-2H9a1 1 0 0 1 0-2h2v-2a1 1 0 0 1 2 0v2h2a1 1 0 0 1 0 2Zm.5-12h-7a2.5 2.5 0 1 1 0-5h7a2.5 2.5 0 0 1 0 5Z"/>
  </g>
  <defs>
    <clipPath id="a">
      <path fill="#fff" d="M0 0h24v24H0z"/>
    </clipPath>
  </defs>
</svg>
