<svg xmlns="http://www.w3.org/2000/svg" width="24" height="24" fill="none" viewBox="0 0 24 24">
  <g clip-path="url(#a)">
    <path fill="#374957" d="M11 20a1 1 0 0 1-1 1H8v2a1 1 0 0 1-2 0v-2H4a1 1 0 0 1 0-2h2v-4.15A7.5 7.5 0 1 1 10.124.477a9.454 9.454 0 0 0 0 14.044A7.523 7.523 0 0 1 8 14.977V19h2a1 1 0 0 1 1 1ZM24 7.5a7.5 7.5 0 1 0-8 7.475V19h-2a1 1 0 1 0 0 2h2v2a1 1 0 1 0 2 0v-2h2a1 1 0 0 0 0-2h-2v-4.15a7.513 7.513 0 0 0 6-7.35Z"/>
  </g>
  <defs>
    <clipPath id="a">
      <path fill="#fff" d="M0 0h24v24H0z"/>
    </clipPath>
  </defs>
</svg>
