<svg xmlns="http://www.w3.org/2000/svg" width="24" height="24" fill="none" viewBox="0 0 24 24">
  <g clip-path="url(#a)">
    <path fill="#374957" d="M6.139 8.514h1.363l-.679-1.799-.684 1.8Z"/>
    <path fill="#374957" d="M19 0H5a5.006 5.006 0 0 0-5 5v14a5.006 5.006 0 0 0 5 5h10.515c.163 0 .324-.013.485-.024V19a3 3 0 0 1 3-3h4.976c.011-.161.024-.322.024-.485V5a5.006 5.006 0 0 0-5-5ZM9.114 11.016a.625.625 0 0 1-.805-.365l-.335-.887H5.663l-.339.889a.626.626 0 0 1-1.168-.448l1.975-5.184a.748.748 0 0 1 .695-.477.744.744 0 0 1 .687.464l1.964 5.2a.626.626 0 0 1-.363.808Zm2.743-.585a.624.624 0 1 1-1.25 0V5.169a.625.625 0 1 1 1.25 0v5.262Z"/>
    <path fill="#374957" d="M18 19v4.54a6.976 6.976 0 0 0 2.465-1.59l1.484-1.485A6.96 6.96 0 0 0 23.54 18H19a1 1 0 0 0-1 1Z"/>
  </g>
  <defs>
    <clipPath id="a">
      <path fill="#fff" d="M0 0h24v24H0z"/>
    </clipPath>
  </defs>
</svg>
