<svg xmlns="http://www.w3.org/2000/svg" width="24" height="24" fill="none" viewBox="0 0 24 24">
  <g clip-path="url(#a)">
    <path fill="#374957" d="M7 22v1a1 1 0 1 1-2 0v-1a1 1 0 0 0-1-1H2v2a1 1 0 1 1-2 0v-7a1 1 0 1 1 2 0v3h2a3 3 0 0 1 3 3Zm16-7a1 1 0 0 0-1 1v3h-2a3 3 0 0 0-3 3v1a1 1 0 0 0 2 0v-1a1 1 0 0 1 1-1h2v2a1 1 0 0 0 2 0v-7a1 1 0 0 0-1-1Zm-1.106-9.015L14.869.979a4.979 4.979 0 0 0-2.823-.97.98.98 0 0 1 .74.4c.009.005 5.32 6.479 5.32 6.479.58.836.891 1.829.894 2.846V10a1 1 0 0 1-2 0v-.266a2.986 2.986 0 0 0-.5-1.659L13 3.8V10a1 1 0 0 1-2 0V3.8L7.442 8.154A2.974 2.974 0 0 0 7 9.734V10a1 1 0 1 1-2 0v-.266c0-.984.29-1.947.835-2.766 0 0 5.365-6.554 5.382-6.562A.981.981 0 0 1 12 0a5.083 5.083 0 0 0-2.921.963L2.106 5.985A5.13 5.13 0 0 0 0 10.122 2.881 2.881 0 0 0 2.878 13H11v10a1 1 0 0 0 2 0V13h8.122A2.881 2.881 0 0 0 24 10.122a5.13 5.13 0 0 0-2.106-4.137Z"/>
  </g>
  <defs>
    <clipPath id="a">
      <path fill="#fff" d="M0 0h24v24H0z"/>
    </clipPath>
  </defs>
</svg>
