<svg xmlns="http://www.w3.org/2000/svg" width="24" height="24" fill="none" viewBox="0 0 24 24">
  <g clip-path="url(#a)">
    <path fill="#374957" d="M12 0a12 12 0 1 0 12 12A12.013 12.013 0 0 0 12 0Zm0 20a1 1 0 1 1 0-2 1 1 0 0 1 0 2Zm1.93-7.494a1.982 1.982 0 0 0-.93 1.751V15a1 1 0 0 1-2 0v-.743a3.954 3.954 0 0 1 1.964-3.5 2 2 0 0 0 1-2.125 2.024 2.024 0 0 0-1.6-1.595A2 2 0 0 0 10 9a1 1 0 1 1-2 0 4 4 0 1 1 5.93 3.505v.001Z"/>
  </g>
  <defs>
    <clipPath id="a">
      <path fill="#fff" d="M0 0h24v24H0z"/>
    </clipPath>
  </defs>
</svg>
