<svg xmlns="http://www.w3.org/2000/svg" width="24" height="24" fill="none" viewBox="0 0 24 24">
  <g clip-path="url(#a)">
    <path fill="#374957" d="M20 10v4a4.977 4.977 0 0 1-2 3.974V15a7.009 7.009 0 0 0-7-7H5c-.2 0-.4.013-.592.03A5.006 5.006 0 0 1 9 5h6a5.006 5.006 0 0 1 5 5Zm-8.406 8.577a1.998 1.998 0 0 1-2.83 0l-.476-.48-5.909 5.128c.791.504 1.71.772 2.647.775h6a5.006 5.006 0 0 0 5-5v-4a4.983 4.983 0 0 0-.081-.8l-4.351 4.377Zm3.551-6.4-4.962 4.994-.475-.479A1.993 1.993 0 0 0 7 16.578L.922 21.843A4.962 4.962 0 0 1 .026 19v-4a5.006 5.006 0 0 1 5-5h6a4.999 4.999 0 0 1 4.119 2.175v.002ZM5 14.1a1 1 0 1 0-2 0 1 1 0 0 0 2 0ZM19 0h-6a4.994 4.994 0 0 0-4.579 3.029C8.612 3.014 8.805 3 9 3h6a7.009 7.009 0 0 1 7 7v2.974A4.979 4.979 0 0 0 24 9V5a5.006 5.006 0 0 0-5-5Z"/>
  </g>
  <defs>
    <clipPath id="a">
      <path fill="#fff" d="M0 0h24v24H0z"/>
    </clipPath>
  </defs>
</svg>
