<svg xmlns="http://www.w3.org/2000/svg" width="24" height="24" fill="none" viewBox="0 0 24 24">
  <g clip-path="url(#a)">
    <path fill="#374957" d="M23 19a1 1 0 0 0-1 1 2 2 0 0 1-2 2h-4v-4h2.1a3.905 3.905 0 0 0 3.9-3.9 6.014 6.014 0 0 0-4.823-5.883l-1.741-.35-2.067 3.633a1 1 0 1 1-1.738-.99l1.738-3.051-.069-.02a1.968 1.968 0 0 1-.605-.23L9.674 9.047a1 1 0 1 1-1.039-1.71l3.043-1.848-.064-.49H8a1 1 0 0 1 0-2h3.352l-.052-.423A3 3 0 0 0 7.619.086L2.91 1.42A4.015 4.015 0 0 0 0 5.269v8.73a4 4 0 0 0 4 4h1v4H1a1 1 0 0 0 0 2h19a4 4 0 0 0 4-4 1 1 0 0 0-1-1ZM7 18h7v4H7v-4Z"/>
  </g>
  <defs>
    <clipPath id="a">
      <path fill="#fff" d="M0 0h24v24H0z"/>
    </clipPath>
  </defs>
</svg>
