<svg xmlns="http://www.w3.org/2000/svg" width="24" height="24" fill="none" viewBox="0 0 24 24">
  <g clip-path="url(#a)">
    <path fill="#374957" d="M11.967 9.73a8.145 8.145 0 0 1 7.045-1.36c.017-.2.035-.388.035-.586a7.1 7.1 0 0 0-14.2-.002v.002c0 .199.02.398.037.597a8.175 8.175 0 0 1 7.083 1.35Zm-.748 4.106c.496.059.997.057 1.493-.006a6.173 6.173 0 0 0-.748-1.308 6.198 6.198 0 0 0-.745 1.314Zm9.826-3.364a7.09 7.09 0 0 0-1.246-.717 8.133 8.133 0 0 1-4.668 5.461 7.9 7.9 0 0 1 .065.975 8.041 8.041 0 0 1-2.44 5.785 7.09 7.09 0 0 0 8.289-11.504ZM8.74 16.19c.002-.319.023-.638.063-.955a8.116 8.116 0 0 1-4.706-5.443 7.091 7.091 0 1 0 7.104 12.205 8.04 8.04 0 0 1-2.46-5.806Zm4.45-.407a8.118 8.118 0 0 1-2.444.007 6.056 6.056 0 0 0 1.222 4.081 6.055 6.055 0 0 0 1.223-4.088ZM9.285 13.28a8.094 8.094 0 0 1 1.235-2.154 6.12 6.12 0 0 0-4.234-1.015 6.142 6.142 0 0 0 2.999 3.17Zm4.131-2.154a8.05 8.05 0 0 1 1.228 2.137A6.154 6.154 0 0 0 17.6 10.11a6.09 6.09 0 0 0-4.185 1.016Z"/>
  </g>
  <defs>
    <clipPath id="a">
      <path fill="#fff" d="M0 0h24v24H0z"/>
    </clipPath>
  </defs>
</svg>
