<svg xmlns="http://www.w3.org/2000/svg" width="24" height="24" fill="none" viewBox="0 0 24 24">
  <g clip-path="url(#a)">
    <path fill="#374957" d="M18.5 3a1.5 1.5 0 1 0 0-3 1.5 1.5 0 0 0 0 3Zm3 5a1.5 1.5 0 1 0 0-3 1.5 1.5 0 0 0 0 3Z"/>
    <path fill="#374957" d="M23.943 10.854a1 1 0 0 0-.9-.9A10 10 0 0 1 14.048.958a1 1 0 0 0-.9-.9A11.801 11.801 0 0 0 12 0C5.373 0 0 5.373 0 12s5.373 12 12 12 12-5.373 12-12c0-.387-.021-.769-.057-1.146ZM14.5 16a1.5 1.5 0 1 1 0-3 1.5 1.5 0 0 1 0 3Zm-5-5a1.5 1.5 0 1 1 0-3 1.5 1.5 0 0 1 0 3Zm1.5 3.5a1.5 1.5 0 1 1-3 0 1.5 1.5 0 0 1 3 0Z"/>
  </g>
  <defs>
    <clipPath id="a">
      <path fill="#fff" d="M0 0h24v24H0z"/>
    </clipPath>
  </defs>
</svg>
