<svg xmlns="http://www.w3.org/2000/svg" width="24" height="24" fill="none" viewBox="0 0 24 24">
  <g clip-path="url(#a)">
    <path fill="#374957" d="M2.748 24a2.755 2.755 0 0 1-2.719-3.151c.259-1.806 1.133-5.134 2.373-6.374A5.037 5.037 0 1 1 9.525 21.6c-1.239 1.239-4.567 2.113-6.374 2.372a2.853 2.853 0 0 1-.403.028ZM23.1.9a3.139 3.139 0 0 0-4.33 0L8.27 11.4a6.977 6.977 0 0 1 4.33 4.338L23.1 5.23a3.068 3.068 0 0 0 0-4.33Z"/>
  </g>
  <defs>
    <clipPath id="a">
      <path fill="#fff" d="M0 0h24v24H0z"/>
    </clipPath>
  </defs>
</svg>
