<svg xmlns="http://www.w3.org/2000/svg" width="24" height="24" fill="none" viewBox="0 0 24 24">
  <g clip-path="url(#a)">
    <path fill="#374957" d="M16 .3a4.97 4.97 0 0 1 1.879 1.164l1.656 1.658c.525.53.923 1.172 1.165 1.878H16V.3ZM21 7v12a5.006 5.006 0 0 1-5 5H8a5.006 5.006 0 0 1-5-5V5a5.006 5.006 0 0 1 5-5h6v5a2 2 0 0 0 2 2h5Zm-4.192 10.413a1 1 0 0 0-1.4-.222 4.587 4.587 0 0 1-2.273.809 1.347 1.347 0 0 1-.864-.345A3.025 3.025 0 0 0 10.439 17a5.86 5.86 0 0 0-3.046 1.206 1 1 0 1 0 1.214 1.588A3.952 3.952 0 0 1 10.439 19c.246 0 .371.078.7.3a3.25 3.25 0 0 0 2 .7 6.464 6.464 0 0 0 3.456-1.193 1 1 0 0 0 .213-1.394ZM17 14a1 1 0 0 0-1-1H8a1 1 0 0 0 0 2h8a1 1 0 0 0 1-1Zm0-4a1 1 0 0 0-1-1H8a1 1 0 0 0 0 2h8a1 1 0 0 0 1-1Z"/>
  </g>
  <defs>
    <clipPath id="a">
      <path fill="#fff" d="M0 0h24v24H0z"/>
    </clipPath>
  </defs>
</svg>
