<svg xmlns="http://www.w3.org/2000/svg" width="24" height="24" fill="none" viewBox="0 0 24 24">
  <g clip-path="url(#a)">
    <path fill="#374957" d="m21.45 13.864-8.672 8.672a5.006 5.006 0 0 1-7.071 0l-4.242-4.243a5 5 0 0 1 0-7.071l5.9-5.9L4.51 2.429a1 1 0 1 1 1.422-1.4l8.97 9.081.009.013a.995.995 0 0 0 1.376-1.436l-7.21-7.3a1 1 0 0 1 1.63-1.094l13 13a1 1 0 1 1-1.414 1.414l-.843-.843Zm-.758 4.567C19.96 19.492 19 20.725 19 21.5a2.5 2.5 0 0 0 5 0c0-.849-.945-2.044-1.673-3.078a1 1 0 0 0-1.635.009Z"/>
  </g>
  <defs>
    <clipPath id="a">
      <path fill="#fff" d="M0 0h24v24H0z"/>
    </clipPath>
  </defs>
</svg>
