<svg xmlns="http://www.w3.org/2000/svg" width="24" height="24" fill="none" viewBox="0 0 24 24">
  <g clip-path="url(#a)">
    <path fill="#374957" d="m23.3 22.57-4.458 1.385a1 1 0 1 1-.594-1.91l1.244-.386-.918-2.7a4.908 4.908 0 0 1-.581.04 5 5 0 0 1-4.807-3.661l-.127-.375 1-2.965h8.54l.2.607a4.953 4.953 0 0 1-2.332 5.72l.93 2.738 1.3-.4a1 1 0 0 1 .595 1.91l.008-.002ZM14.656 10h7.267l-.966-2.868A3.023 3.023 0 0 0 17.28 5.11l-3.524.982c.143.181.274.372.39.57.557 1.019.738 2.2.51 3.338Zm-4.084-3.816L6.719 5.11A3.008 3.008 0 0 0 3.052 7.1L2.078 10h10.54l.02-.06a3 3 0 0 0-2.066-3.756Zm-9.387 6.473a4.956 4.956 0 0 0 2.364 5.682l-.944 2.728L1.3 20.66a1 1 0 1 0-.6 1.91l4.458 1.384a1 1 0 1 0 .594-1.91l-1.236-.385.935-2.7c.185.024.372.037.559.04a5 5 0 0 0 4.79-3.608L11.945 12H1.405l-.22.657ZM15.553 3.9a1 1 0 0 0 1.347-.453l1-2a1 1 0 0 0-1.79-.894l-1 2a1.001 1.001 0 0 0 .443 1.347Zm-8.448-.453A1.003 1.003 0 0 0 8.9 2.553l-1-2a1 1 0 1 0-1.79.894l.995 2ZM12 0a1 1 0 0 0-1 1v2a1 1 0 1 0 2 0V1a1 1 0 0 0-1-1Z"/>
  </g>
  <defs>
    <clipPath id="a">
      <path fill="#fff" d="M0 0h24v24H0z"/>
    </clipPath>
  </defs>
</svg>
