<svg xmlns="http://www.w3.org/2000/svg" width="24" height="24" fill="none" viewBox="0 0 24 24">
  <g clip-path="url(#a)">
    <path fill="#374957" d="M19 4a4 4 0 0 0-4-4H9a4 4 0 0 0-4 4v1h14V4Zm-3 11H8a3 3 0 0 0-3 3v3a3 3 0 0 0 3 3h8a3 3 0 0 0 3-3v-3a3 3 0 0 0-3-3Z"/>
    <path fill="#374957" d="M19 7H5a5.006 5.006 0 0 0-5 5v4a5 5 0 0 0 3 4.576V18a5.006 5.006 0 0 1 5-5h8a5.006 5.006 0 0 1 5 5v2.576A5 5 0 0 0 24 16v-4a5.006 5.006 0 0 0-5-5Zm-1 4h-2a1 1 0 0 1 0-2h2a1 1 0 1 1 0 2Z"/>
  </g>
  <defs>
    <clipPath id="a">
      <path fill="#fff" d="M0 0h24v24H0z"/>
    </clipPath>
  </defs>
</svg>
