<svg xmlns="http://www.w3.org/2000/svg" width="24" height="24" fill="none" viewBox="0 0 24 24">
  <g clip-path="url(#a)">
    <path fill="#374957" d="m23.707 1.71-22 22a1.001 1.001 0 1 1-1.414-1.417l5.043-5.041C1.146 12.594-2.236 6.317 1.784 1.868l1.15-1A3.081 3.081 0 0 1 7.26.91c.03.03 1.884 2.437 1.884 2.437a3.1 3.1 0 0 1-.007 4.28l-1.6 1.9c.54 1.231 1.25 2.38 2.113 3.41L22.293.3a1 1 0 0 1 1.414 1.41Zm-3.051 13.148a3.1 3.1 0 0 0-4.281.006l-1.906 1.606c-.4-.17-.785-.36-1.157-.562a.983.983 0 0 0-1.162.178l-3.061 3.06a1 1 0 0 0 .1 1.51c4.408 2.976 9.11 5.042 12.99 1.51l.91-1.048a3.1 3.1 0 0 0 0-4.377 359.274 359.274 0 0 0-2.433-1.883Z"/>
  </g>
  <defs>
    <clipPath id="a">
      <path fill="#fff" d="M0 0h24v24H0z"/>
    </clipPath>
  </defs>
</svg>
