<svg xmlns="http://www.w3.org/2000/svg" width="24" height="24" fill="none" viewBox="0 0 24 24">
  <g clip-path="url(#a)">
    <path fill="#374957" d="M20.8 4.293a1 1 0 0 0-1.41 1.414 8.911 8.911 0 0 1 0 12.586.998.998 0 0 0 .294 1.675 1.002 1.002 0 0 0 1.116-.261 10.911 10.911 0 0 0 0-15.414Z"/>
    <path fill="#374957" d="M18.093 7.294a1 1 0 1 0-1.414 1.414 4.664 4.664 0 0 1 0 6.586 1 1 0 1 0 1.414 1.414 6.665 6.665 0 0 0 0-9.414ZM13.819.206A12.055 12.055 0 0 0 6.268 5H5a5.006 5.006 0 0 0-5 5v4a5.006 5.006 0 0 0 5 5h1.269a12.05 12.05 0 0 0 7.55 4.793A.998.998 0 0 0 15 22.81V1.19a1.001 1.001 0 0 0-1.181-.983Z"/>
  </g>
  <defs>
    <clipPath id="a">
      <path fill="#fff" d="M0 0h24v24H0z"/>
    </clipPath>
  </defs>
</svg>
