<svg xmlns="http://www.w3.org/2000/svg" width="24" height="24" fill="none" viewBox="0 0 24 24">
  <g clip-path="url(#a)">
    <path fill="#374957" d="M1.001 4.75h2.736a3.728 3.728 0 0 0 7.194 0H23a1 1 0 0 0 0-1.999H10.931a3.728 3.728 0 0 0-7.194 0H1.001a1 1 0 1 0 0 2ZM22.999 11h-2.736a3.727 3.727 0 0 0-7.193 0H1.001a1 1 0 1 0 0 2H13.07a3.727 3.727 0 0 0 7.193 0H23a1 1 0 1 0 0-2Zm0 8.25H10.931a3.728 3.728 0 0 0-7.194 0H1.001a1 1 0 0 0 0 2h2.736a3.728 3.728 0 0 0 7.194 0H23a1 1 0 0 0 0-2Z"/>
  </g>
  <defs>
    <clipPath id="a">
      <path fill="#fff" d="M0 0h24v24H0z"/>
    </clipPath>
  </defs>
</svg>
