<svg xmlns="http://www.w3.org/2000/svg" width="24" height="24" fill="none" viewBox="0 0 24 24">
  <path fill="#374957" d="M12 21a7.008 7.008 0 0 1-7-7V5c0-.2.013-.4.03-.592A5.006 5.006 0 0 0 2 9v10a5.006 5.006 0 0 0 5 5h6a5.006 5.006 0 0 0 4.592-3.03c-.2.017-.392.03-.592.03h-5Zm9.155-17.728L18.871.913A3 3 0 0 0 18 .3V4h3.66a2.986 2.986 0 0 0-.505-.728Z"/>
  <path fill="#374957" d="M17 4a1 1 0 0 0 1 1h3.966a2.982 2.982 0 0 0-.811-1.728L18.871.912A3.011 3.011 0 0 0 17 .03V4Z"/>
  <path fill="#374957" d="M15 4V0h-3a5.006 5.006 0 0 0-5 5v9a5.006 5.006 0 0 0 5 5h5a5.006 5.006 0 0 0 5-5V7h-4a3 3 0 0 1-3-3Z"/>
</svg>
