<svg xmlns="http://www.w3.org/2000/svg" width="24" height="24" fill="none" viewBox="0 0 24 24">
  <g clip-path="url(#a)">
    <path fill="#374957" d="M5.868 15.583a8.938 8.938 0 0 1-2.793-7.761 9 9 0 1 1 14.857 7.941A5.74 5.74 0 0 0 16.338 18H13v-7.184A3 3 0 0 0 15 8a1 1 0 1 0-2 0 1 1 0 1 1-2 0 1 1 0 1 0-2 0 3 3 0 0 0 2 2.816V18H7.563a6.838 6.838 0 0 0-1.695-2.417ZM8 20v.31A3.694 3.694 0 0 0 11.69 24h.62A3.694 3.694 0 0 0 16 20.31V20H8Z"/>
  </g>
  <defs>
    <clipPath id="a">
      <path fill="#fff" d="M0 0h24v24H0z"/>
    </clipPath>
  </defs>
</svg>
