<svg xmlns="http://www.w3.org/2000/svg" width="24" height="24" fill="none" viewBox="0 0 24 24">
  <g clip-path="url(#a)">
    <path fill="#374957" d="M13 4a1 1 0 0 0 1 1h3.966a2.98 2.98 0 0 0-.81-1.728L14.87.913A3.01 3.01 0 0 0 13 .029V4Zm-2 0V0H7a5.006 5.006 0 0 0-5 5v10a5.006 5.006 0 0 0 5 5h6a5.006 5.006 0 0 0 5-5V7h-4a3 3 0 0 1-3-3Zm6 20H8a1 1 0 0 1 0-2h9a3 3 0 0 0 3-3V8a1 1 0 0 1 2 0v11a5.006 5.006 0 0 1-5 5Z"/>
  </g>
  <defs>
    <clipPath id="a">
      <path fill="#fff" d="M0 0h24v24H0z"/>
    </clipPath>
  </defs>
</svg>
