<svg xmlns="http://www.w3.org/2000/svg" width="24" height="24" fill="none" viewBox="0 0 24 24">
  <g clip-path="url(#a)">
    <path fill="#374957" d="M16 17a1 1 0 0 1-1 1H9a1 1 0 0 1 0-2h6a1 1 0 0 1 1 1Zm6 0v1a6.006 6.006 0 0 1-6 6H8a6.006 6.006 0 0 1-6-6v-1a8.942 8.942 0 0 1 4.928-8h10.144A8.942 8.942 0 0 1 22 17Zm-4 0a3 3 0 0 0-3-3H9a3 3 0 0 0 0 6h6a3 3 0 0 0 3-3ZM17 6a2 2 0 0 0-2-2V2h4a1 1 0 0 0 0-2h-7a3 3 0 0 0-3 3v1a2 2 0 0 0-2 2v1h10V6Z"/>
  </g>
  <defs>
    <clipPath id="a">
      <path fill="#fff" d="M0 0h24v24H0z"/>
    </clipPath>
  </defs>
</svg>
