<svg xmlns="http://www.w3.org/2000/svg" width="24" height="24" fill="none" viewBox="0 0 24 24">
  <g clip-path="url(#a)">
    <path fill="#374957" d="M19.923 7.284a1.549 1.549 0 0 0-1.949.152 8.172 8.172 0 0 1-4 1.559A1 1 0 0 1 13 8V6.965a5.978 5.978 0 0 0 5.991-5.648A1.174 1.174 0 0 0 17.683.009c-1.855.077-4.583 1.52-5.151 3.7A8.715 8.715 0 0 0 10.711.271a1 1 0 0 0-1.428 1.4A7.542 7.542 0 0 1 10.949 6H8.5A8.771 8.771 0 0 0 0 15c-.161 5.6 5.644 10.773 10.75 8.385a2.401 2.401 0 0 1 2.605.019A4.443 4.443 0 0 0 15.5 24c8.713-.078 11.564-12.126 4.423-16.716Z"/>
  </g>
  <defs>
    <clipPath id="a">
      <path fill="#fff" d="M0 0h24v24H0z"/>
    </clipPath>
  </defs>
</svg>
