<svg xmlns="http://www.w3.org/2000/svg" width="24" height="24" fill="none" viewBox="0 0 24 24">
  <g clip-path="url(#a)">
    <path fill="#374957" d="M20.657 14.858a3.1 3.1 0 0 0-4.282.007l-1.906 1.606a12.785 12.785 0 0 1-6.932-6.945l1.6-1.9a3.1 3.1 0 0 0 .006-4.28S7.293.941 7.261.91A3.081 3.081 0 0 0 2.934.865l-1.15 1c-7.72 8.208 12.2 28.138 20.4 20.3l.912-1.05a3.1 3.1 0 0 0 0-4.376c-.032-.029-2.439-1.88-2.439-1.88Zm1.908-2.283c4.991-7.346-3.8-16.123-11.138-11.136a1 1 0 1 0 1.145 1.64c5.472-3.758 12.11 2.883 8.353 8.352a.999.999 0 1 0 1.64 1.144Zm-3.858-1.865a1 1 0 0 0 0-1.414L17 7.59V5a1 1 0 1 0-2 0v3a1 1 0 0 0 .293.707l2 2a1 1 0 0 0 1.414 0v.003Z"/>
  </g>
  <defs>
    <clipPath id="a">
      <path fill="#fff" d="M0 0h24v24H0z"/>
    </clipPath>
  </defs>
</svg>
