<svg xmlns="http://www.w3.org/2000/svg" width="24" height="24" fill="none" viewBox="0 0 24 24">
  <g clip-path="url(#a)">
    <path fill="#374957" d="M15 24a12.022 12.022 0 0 1-8.914-3.966 11.9 11.9 0 0 1-3.02-9.31A12.122 12.122 0 0 1 13.085.153a13.06 13.06 0 0 1 5.031.205 2.5 2.5 0 0 1 1.108 4.226c-4.56 4.166-4.164 10.644.807 14.41a2.5 2.5 0 0 1-.7 4.32c-1.398.457-2.86.689-4.331.687Z"/>
  </g>
  <defs>
    <clipPath id="a">
      <path fill="#fff" d="M0 0h24v24H0z"/>
    </clipPath>
  </defs>
</svg>
