<svg xmlns="http://www.w3.org/2000/svg" width="24" height="24" fill="none" viewBox="0 0 24 24">
  <g clip-path="url(#a)">
    <path fill="#374957" d="M0 11.986a4.643 4.643 0 0 0 7.809 3.416l6.919 3.124a4.732 4.732 0 0 0-.079.784 4.675 4.675 0 1 0 .826-2.639l-6.5-2.935a4.568 4.568 0 0 0 .004-3.484l6.492-2.95a4.654 4.654 0 1 0-.826-2.64c.004.264.031.526.08.785L7.824 8.583A4.644 4.644 0 0 0 0 11.986Z"/>
  </g>
  <defs>
    <clipPath id="a">
      <path fill="#fff" d="M0 0h24v24H0z"/>
    </clipPath>
  </defs>
</svg>
