<svg xmlns="http://www.w3.org/2000/svg" width="24" height="24" fill="none" viewBox="0 0 24 24">
  <g clip-path="url(#a)">
    <path fill="#374957" d="M18.5 11c7.269-.231 7.267-10.77 0-11-7.269.231-7.267 10.77 0 11Zm0-2a3.45 3.45 0 0 1-1.652-.434l4.718-4.718A3.5 3.5 0 0 1 18.5 9Zm0-7a3.45 3.45 0 0 1 1.652.434l-4.718 4.718A3.5 3.5 0 0 1 18.5 2Zm0 11a7.475 7.475 0 0 0 5.5-2.413V19a5.006 5.006 0 0 1-5 5H5a5.006 5.006 0 0 1-5-5V8c0-.157.032-.3.046-.458l8.418 8.418a5.008 5.008 0 0 0 7.072 0L18.5 13Zm-8.622 1.546L.744 5.411A4.986 4.986 0 0 1 5 3h6.436a7.53 7.53 0 0 0 4.64 9.592l-1.954 1.954a3.008 3.008 0 0 1-4.244 0Z"/>
  </g>
  <defs>
    <clipPath id="a">
      <path fill="#fff" d="M0 0h24v24H0z"/>
    </clipPath>
  </defs>
</svg>
