<svg xmlns="http://www.w3.org/2000/svg" width="24" height="24" fill="none" viewBox="0 0 24 24">
  <g clip-path="url(#a)">
    <path fill="#374957" d="M16.585 9.616 15.21 6h2.422a5.885 5.885 0 0 1 4.728 2.4l.787 1.075c.335.457.58.975.72 1.525h-6.915a6.496 6.496 0 0 0-.367-1.384ZM12 4a1 1 0 0 0 1-1V1a1 1 0 1 0-2 0v2a1 1 0 0 0 1 1Zm2.722 6.343L13.071 6h-2.133L9.26 10.452c-.064.18-.118.362-.16.548h5.821a4.608 4.608 0 0 0-.199-.657ZM16.553 3.9a1 1 0 0 0 1.347-.453l1-2a1 1 0 1 0-1.79-.894l-1 2a1 1 0 0 0 .443 1.347Zm-4.565 14.987 2.786-5.253a4.62 4.62 0 0 0 .167-.634H9c.045.258.112.51.2.757l2.788 5.13ZM7.4 9.729l1.4-3.73H6.383a5.892 5.892 0 0 0-4.662 2.31L.9 9.383A4.366 4.366 0 0 0 .141 11h6.9A6.6 6.6 0 0 1 7.4 9.729Zm9.569 3.27a6.57 6.57 0 0 1-.344 1.4c-.015.04-3.756 7.075-3.759 7.076a.972.972 0 0 1-1.726.008s-3.774-6.912-3.79-6.955A6.586 6.586 0 0 1 6.994 13H.121a4.3 4.3 0 0 0 1.328 2.32l7.99 7.707a3.82 3.82 0 0 0 2.55.969 3.9 3.9 0 0 0 2.6-1l7.936-7.633A4.373 4.373 0 0 0 23.89 13h-6.921ZM6.105 3.448A1.003 1.003 0 0 0 7.9 2.553l-1-2a1 1 0 1 0-1.79.894l.995 2Z"/>
  </g>
  <defs>
    <clipPath id="a">
      <path fill="#fff" d="M0 0h24v24H0z"/>
    </clipPath>
  </defs>
</svg>
