<svg xmlns="http://www.w3.org/2000/svg" width="24" height="24" fill="none" viewBox="0 0 24 24">
  <g clip-path="url(#a)">
    <path fill="#374957" d="M8.7 18H3c-1.493 0-3-1.134-3-3.666v-5.04A9.418 9.418 0 0 1 8.349.023a9 9 0 0 1 9.628 9.628A9.419 9.419 0 0 1 8.7 18ZM20 9.08h-.012c0 .237 0 .474-.012.712-.386 5.408-5.329 9.986-10.892 10.189v.015A8 8 0 0 0 16 24h5a3 3 0 0 0 3-3v-5a8 8 0 0 0-4-6.92Z"/>
  </g>
  <defs>
    <clipPath id="a">
      <path fill="#fff" d="M0 0h24v24H0z"/>
    </clipPath>
  </defs>
</svg>
