<svg xmlns="http://www.w3.org/2000/svg" width="24" height="24" fill="none" viewBox="0 0 24 24">
  <g clip-path="url(#a)">
    <path fill="#374957" d="M23.119.872a2.984 2.984 0 0 0-2.405-.857C17.92.285 8.528 1.448 4.9 5.072a9.931 9.931 0 0 0-.671 13.28l11.06-11.06a1 1 0 0 1 1.414 1.415L5.647 19.767a9.929 9.929 0 0 0 13.28-.668c3.677-3.677 4.8-13.04 5.06-15.822a2.986 2.986 0 0 0-.868-2.405ZM4.9 19.099c.239.238.486.462.743.671l-3.94 3.94a1 1 0 0 1-1.41-1.418l3.94-3.94c.21.256.432.506.667.747Z"/>
  </g>
  <defs>
    <clipPath id="a">
      <path fill="#fff" d="M0 0h24v24H0z"/>
    </clipPath>
  </defs>
</svg>
