<svg xmlns="http://www.w3.org/2000/svg" width="24" height="24" fill="none" viewBox="0 0 24 24">
  <g clip-path="url(#a)">
    <path fill="#374957" d="M1 6h22a1 1 0 1 0 0-2H1a1 1 0 0 0 0 2Zm22 3H9a1 1 0 0 0 0 2h14a1 1 0 0 0 0-2Zm0 10H1a1 1 0 1 0 0 2h22a1 1 0 0 0 0-2Zm0-5H9a1 1 0 0 0 0 2h14a1 1 0 1 0 0-2ZM1.707 16.245l2.974-2.974a1.092 1.092 0 0 0 0-1.542L1.707 8.755A1 1 0 0 0 0 9.463v6.074a1 1 0 0 0 1.707.708Z"/>
  </g>
  <defs>
    <clipPath id="a">
      <path fill="#fff" d="M0 0h24v24H0z"/>
    </clipPath>
  </defs>
</svg>
