<svg xmlns="http://www.w3.org/2000/svg" width="24" height="24" fill="none" viewBox="0 0 24 24">
  <g clip-path="url(#a)">
    <path fill="#374957" d="M15.746 18.254c0-1.5-1.031-3.55-2.9-5.773a1.087 1.087 0 0 0-.846-.389 1.118 1.118 0 0 0-.854.391C9.1 14.88 8.1 17 8.273 18.625a3.669 3.669 0 0 0 1.582 2.557c.607.498 1.36.785 2.145.818a3.75 3.75 0 0 0 3.746-3.746Z"/>
    <path fill="#374957" d="M16.629 2.9c-.786-.668-1.611-1.368-2.451-2.132A2.952 2.952 0 0 0 11.8.028a2.847 2.847 0 0 0-2.032 1.3 20.39 20.39 0 0 0-2.492 6.448 6.234 6.234 0 0 1-.476-.815 2 2 0 0 0-3.3-.473A9.069 9.069 0 0 0 .915 12.91a10.979 10.979 0 0 0 8.221 10.73c.908.229 1.84.347 2.776.352a5.553 5.553 0 0 1-3.278-1.226 5.632 5.632 0 0 1-2.35-3.933c-.23-2.21.893-4.783 3.338-7.647A3.112 3.112 0 0 1 12 10.091h.01a3.098 3.098 0 0 1 2.366 1.1c1.538 1.828 3.373 4.535 3.373 7.061a5.749 5.749 0 0 1-5.359 5.727 11.056 11.056 0 0 0 10.7-11.065c-.005-4.53-2.997-7.07-6.461-10.015Z"/>
  </g>
  <defs>
    <clipPath id="a">
      <path fill="#fff" d="M0 0h24v24H0z"/>
    </clipPath>
  </defs>
</svg>
