<svg xmlns="http://www.w3.org/2000/svg" width="24" height="24" fill="none" viewBox="0 0 24 24">
  <g clip-path="url(#a)">
    <path fill="#374957" d="m8.081 5.505 2.926-2.927L11 18.016a1 1 0 0 0 2 0l.007-15.42 2.912 2.912a1 1 0 0 0 1.414-1.414L14.122.88A3 3 0 0 0 9.879.878l-.001.001-3.211 3.212a1 1 0 0 0 1.414 1.414Z"/>
    <path fill="#374957" d="M23 16a1 1 0 0 0-1 1v4a1 1 0 0 1-1 1H3a1 1 0 0 1-1-1v-4a1 1 0 1 0-2 0v4a3 3 0 0 0 3 3h18a3 3 0 0 0 3-3v-4a1 1 0 0 0-1-1Z"/>
  </g>
  <defs>
    <clipPath id="a">
      <path fill="#fff" d="M0 0h24v24H0z"/>
    </clipPath>
  </defs>
</svg>
