<svg xmlns="http://www.w3.org/2000/svg" width="24" height="24" fill="none" viewBox="0 0 24 24">
  <g clip-path="url(#a)">
    <path fill="#374957" d="M18 0c-1.33 0-2.65.207-3.915.614A7.037 7.037 0 0 1 12 1 7.037 7.037 0 0 1 9.915.614 12.8 12.8 0 0 0 6 0a5.785 5.785 0 0 0-6 6c0 6.443 3.355 12.786 5.768 16.885A2.275 2.275 0 0 0 10 21.725v-6.619a2.075 2.075 0 0 1 1.664-2.08A2 2 0 0 1 14 15v6.726a2.275 2.275 0 0 0 4.232 1.16C20.646 18.784 24 12.44 24 5.998a5.785 5.785 0 0 0-6-6Z"/>
  </g>
  <defs>
    <clipPath id="a">
      <path fill="#fff" d="M0 0h24v24H0z"/>
    </clipPath>
  </defs>
</svg>
