<svg xmlns="http://www.w3.org/2000/svg" width="24" height="24" fill="none" viewBox="0 0 24 24">
  <g clip-path="url(#a)">
    <path fill="#374957" d="M16.551 12a12.556 12.556 0 0 0 4.406-7.449A3.944 3.944 0 0 0 20.04 1.4 4.018 4.018 0 0 0 17 0H7.005a4.014 4.014 0 0 0-3.848 2.879 3.94 3.94 0 0 0-.113 1.679A12.522 12.522 0 0 0 7.445 12a12.522 12.522 0 0 0-4.4 7.444 3.94 3.94 0 0 0 .916 3.156A4.013 4.013 0 0 0 7.005 24H17a4.017 4.017 0 0 0 3.848-2.878 3.945 3.945 0 0 0 .114-1.678A12.557 12.557 0 0 0 16.552 12Zm1.277 8.559A1.001 1.001 0 0 1 17 21H7a1 1 0 0 1-.928-1.374 14.856 14.856 0 0 1 4.6-5.656l.7-.559a1 1 0 0 1 1.245 0l.69.551a15.014 15.014 0 0 1 4.61 5.662 1.001 1.001 0 0 1-.089.935ZM15.35 19h-6.7a14.96 14.96 0 0 1 3.271-3.462l.08-.066.071.055A15.3 15.3 0 0 1 15.35 19Z"/>
  </g>
  <defs>
    <clipPath id="a">
      <path fill="#fff" d="M0 0h24v24H0z"/>
    </clipPath>
  </defs>
</svg>
