<svg xmlns="http://www.w3.org/2000/svg" width="24" height="24" fill="none" viewBox="0 0 24 24">
  <g clip-path="url(#a)">
    <path fill="#374957" d="M23 13H1a1 1 0 1 1 0-2h22a1 1 0 0 1 0 2Zm-4.066-5.873a2.427 2.427 0 0 0-1.284-2.731L9.668.429A3.3 3.3 0 0 0 6.4.434 2.81 2.81 0 0 0 5 2.914v3.087a3 3 0 0 0 3 3h8.318a2.538 2.538 0 0 0 2.616-1.874ZM9.628 23.593l8.033-3.992a2.425 2.425 0 0 0 1.273-2.726A2.538 2.538 0 0 0 16.318 15H8a3 3 0 0 0-3 3v3.085a2.808 2.808 0 0 0 1.4 2.48A3.211 3.211 0 0 0 8.032 24a3.286 3.286 0 0 0 1.596-.408Z"/>
  </g>
  <defs>
    <clipPath id="a">
      <path fill="#fff" d="M0 0h24v24H0z"/>
    </clipPath>
  </defs>
</svg>
