<svg xmlns="http://www.w3.org/2000/svg" width="24" height="24" fill="none" viewBox="0 0 24 24">
  <g clip-path="url(#a)">
    <path fill="#374957" d="M7 5a5 5 0 1 1 10 0 2 2 0 0 1-2 2h-2.8l1.63-2.445a1 1 0 0 0-1.664-1.11L9.8 7H9a2 2 0 0 1-2-2Zm12-3h-.674A6.98 6.98 0 0 1 19 5a4 4 0 0 1-4 4H8.466l.008-.013A3.79 3.79 0 0 1 5 5.215 7.432 7.432 0 0 1 5.747 2H5a5 5 0 0 0-5 5v12a5 5 0 0 0 5 5h14a5 5 0 0 0 5-5V7a5 5 0 0 0-5-5Z"/>
  </g>
  <defs>
    <clipPath id="a">
      <path fill="#fff" d="M0 0h24v24H0z"/>
    </clipPath>
  </defs>
</svg>
