<svg xmlns="http://www.w3.org/2000/svg" width="24" height="24" fill="none" viewBox="0 0 24 24">
  <g clip-path="url(#a)">
    <path fill="#374957" d="M20.044 1.02C24.2.761 25.71 9.091 21.5 12.932A6.707 6.707 0 0 1 16.8 15a9.817 9.817 0 0 1-3.8-.7V5.38c2.018-2.246 4.512-4.36 7.044-4.36ZM12 4a2 2 0 1 0 0-4 2 2 0 0 0 0 4Zm4.791 13A11.685 11.685 0 0 1 12 16c-2.1 1.11-7.2 1.783-10.213-1.025a6.606 6.606 0 0 0-.454 5.136 4.02 4.02 0 0 0 2.3 2.573 3.91 3.91 0 0 0 3.355-.132A16.366 16.366 0 0 0 11 19.622V22a1 1 0 0 0 2 0v-2.378a16.369 16.369 0 0 0 4.018 2.93 3.911 3.911 0 0 0 3.355.132 4.021 4.021 0 0 0 2.3-2.573 6.604 6.604 0 0 0-.454-5.136A8.57 8.57 0 0 1 16.791 17Zm-9.585-2A9.842 9.842 0 0 0 11 14.3V5.373C7.52 1.116.239-2.567.006 7.284a8.183 8.183 0 0 0 2.5 5.649A6.819 6.819 0 0 0 7.206 15Z"/>
  </g>
  <defs>
    <clipPath id="a">
      <path fill="#fff" d="M0 0h24v24H0z"/>
    </clipPath>
  </defs>
</svg>
