<svg xmlns="http://www.w3.org/2000/svg" width="24" height="24" fill="none" viewBox="0 0 24 24">
  <g clip-path="url(#a)">
    <path fill="#374957" d="M5.972 22.284a1 1 0 0 1-.515-1.857C9 18.299 9 13.729 9 10.999a3 3 0 1 1 6 0 1 1 0 0 1-2 0 1 1 0 0 0-2 0c0 2.947 0 8.434-4.514 11.143a1.001 1.001 0 0 1-.514.142Zm4.963 1.421c2.282-2.3 3.615-5.534 3.961-9.621a1 1 0 0 0-.911-1.085.982.982 0 0 0-1.081.911c-.311 3.657-1.419 6.4-3.388 8.381a1 1 0 1 0 1.419 1.41v.004Zm5.2-.186a17.796 17.796 0 0 0 1.508-3.181 1 1 0 0 0-1.881-.678 15.83 15.83 0 0 1-1.338 2.821 1 1 0 1 0 1.711 1.038ZM18.5 17.19c.37-2.042.538-4.116.5-6.191A7 7 0 0 0 6.787 6.332a1 1 0 1 0 1.489 1.334A5 5 0 0 1 17 10.999a29.688 29.688 0 0 1-.462 5.809 1 1 0 0 0 1.962.382ZM7 10.999c0-.28.023-.558.069-.833A1 1 0 1 0 5.1 9.832c-.066.385-.1.776-.1 1.167 0 4.645-1.346 7-4 7a1 1 0 1 0 0 2c3.869 0 6-3.2 6-9Zm13.7 12.414A29.76 29.76 0 0 0 23 10.999a10.865 10.865 0 0 0-1.1-4.794 1.001 1.001 0 0 0-1.8.875 8.9 8.9 0 0 1 .9 3.919 27.91 27.91 0 0 1-2.119 11.586 1 1 0 0 0 1.819.828ZM3 13.999v-3a9.01 9.01 0 0 1 9-9 8.91 8.91 0 0 1 5.4 1.8 1 1 0 0 0 1.2-1.6 10.9 10.9 0 0 0-6.6-2.2 11.013 11.013 0 0 0-11 11v3a1 1 0 0 0 2 0Z"/>
  </g>
  <defs>
    <clipPath id="a">
      <path fill="#fff" d="M0 0h24v24H0z"/>
    </clipPath>
  </defs>
</svg>
