<svg xmlns="http://www.w3.org/2000/svg" width="24" height="24" fill="none" viewBox="0 0 24 24">
  <g clip-path="url(#a)">
    <path fill="#374957" d="M14 7a2 2 0 1 1-4 0 2 2 0 0 1 4 0Zm2.958 5.184L13.9 15.215a2.671 2.671 0 0 1-3.79 0L7.054 12.2a7.262 7.262 0 0 1-.012-10.1 6.9 6.9 0 0 1 9.916 0 7.257 7.257 0 0 1 0 10.084ZM16 7a4 4 0 1 0-7.999 0 4 4 0 0 0 8 0Zm4.753 2.2a9.101 9.101 0 0 1-2.364 4.384l-3.078 3.053a4.669 4.669 0 0 1-5.086 1.017 4.667 4.667 0 0 1-1.514-1.012L5.648 13.62a9.2 9.2 0 0 1-2.365-4.31 5.067 5.067 0 0 0-1.745 1.082A4.947 4.947 0 0 0 0 14.001v4.074a5.013 5.013 0 0 0 3.6 4.8l2.87.9a5.043 5.043 0 0 0 2.844.039l5.78-1.71a2.976 2.976 0 0 1 1.573 0l2.387.8A4.002 4.002 0 0 0 24 19.021v-5.149A5.01 5.01 0 0 0 20.753 9.2Z"/>
  </g>
  <defs>
    <clipPath id="a">
      <path fill="#fff" d="M0 0h24v24H0z"/>
    </clipPath>
  </defs>
</svg>
