<svg xmlns="http://www.w3.org/2000/svg" width="24" height="24" fill="none" viewBox="0 0 24 24">
  <g clip-path="url(#a)">
    <path fill="#374957" d="M5.5 21A2.5 2.5 0 0 1 3 18.5v-17A1.5 1.5 0 0 0 1.5 0 1.5 1.5 0 0 0 0 1.5v17A5.5 5.5 0 0 0 5.5 24h17a1.5 1.5 0 1 0 0-3h-17Z"/>
    <path fill="#374957" d="M19.5 18a1.5 1.5 0 0 0 1.5-1.5v-6a1.5 1.5 0 1 0-3 0v6a1.5 1.5 0 0 0 1.5 1.5Zm-12 0A1.5 1.5 0 0 0 9 16.5v-6a1.5 1.5 0 0 0-3 0v6A1.5 1.5 0 0 0 7.5 18Zm6 0a1.5 1.5 0 0 0 1.5-1.5v-11a1.5 1.5 0 1 0-3 0v11a1.5 1.5 0 0 0 1.5 1.5Z"/>
  </g>
  <defs>
    <clipPath id="a">
      <path fill="#fff" d="M0 0h24v24H0z"/>
    </clipPath>
  </defs>
</svg>
