<svg xmlns="http://www.w3.org/2000/svg" width="24" height="24" fill="none" viewBox="0 0 24 24">
  <g clip-path="url(#a)">
    <path fill="#374957" d="M10.207.068H10.2a1 1 0 0 0-1.13.56L.375 19.76A3 3 0 0 0 3.105 24H10a1 1 0 0 0 1-1V1.046a1.01 1.01 0 0 0-.793-.978ZM9 22H3.106a1 1 0 0 1-.911-1.414L9 5.616V22Zm14.625-2.241L14.93.628A1.022 1.022 0 0 0 13.778.07a1 1 0 0 0-.778.975V23a1 1 0 0 0 1 1h6.894a3 3 0 0 0 2.73-4.241Z"/>
  </g>
  <defs>
    <clipPath id="a">
      <path fill="#fff" d="M0 0h24v24H0z"/>
    </clipPath>
  </defs>
</svg>
