<svg xmlns="http://www.w3.org/2000/svg" width="24" height="24" fill="none" viewBox="0 0 24 24">
  <g clip-path="url(#a)">
    <path fill="#374957" d="M12 0a12 12 0 1 0 12 12A12.013 12.013 0 0 0 12 0ZM6 10a2 2 0 1 1 4 0c0 1-.895 1-2 1s-2 0-2-1Zm10.01 8H8a1 1 0 0 1-.963-1.285A5.5 5.5 0 0 1 12.007 13a5.47 5.47 0 0 1 4.966 3.715A1.02 1.02 0 0 1 16.01 18ZM16 11c-1.105 0-2 0-2-1a2 2 0 1 1 4 0c0 1-.895 1-2 1Z"/>
  </g>
  <defs>
    <clipPath id="a">
      <path fill="#fff" d="M0 0h24v24H0z"/>
    </clipPath>
  </defs>
</svg>
