<svg xmlns="http://www.w3.org/2000/svg" width="24" height="24" fill="none" viewBox="0 0 24 24">
  <g clip-path="url(#a)">
    <path fill="#374957" d="M5 19a5.006 5.006 0 0 1-5-5v-4a5.006 5.006 0 0 1 5-5v14ZM7 5h10v14H7V5Zm4 9a1 1 0 1 0-2 0 1 1 0 0 0 2 0Zm2-4a1 1 0 1 0 2 0 1 1 0 0 0-2 0Zm0 4a1 1 0 1 0 2 0 1 1 0 0 0-2 0Zm-4-4a1 1 0 1 0 2 0 1 1 0 0 0-2 0Zm10-5v14a5.006 5.006 0 0 0 5-5v-4a5.006 5.006 0 0 0-5-5Z"/>
  </g>
  <defs>
    <clipPath id="a">
      <path fill="#fff" d="M0 0h24v24H0z"/>
    </clipPath>
  </defs>
</svg>
