<svg xmlns="http://www.w3.org/2000/svg" width="24" height="24" fill="none" viewBox="0 0 24 24">
  <g clip-path="url(#a)">
    <path fill="#374957" d="M7 12c0-.98.29-1.937.833-2.753L2.845 4.26a11.954 11.954 0 0 0 0 15.482l4.988-4.988A4.969 4.969 0 0 1 7 12Zm14.155-7.74-4.988 4.987a4.966 4.966 0 0 1 0 5.506l4.988 4.988a11.954 11.954 0 0 0 0-15.482ZM12 17c-.98 0-1.938-.29-2.753-.834l-4.988 4.988a11.954 11.954 0 0 0 15.482 0l-4.988-4.988A4.969 4.969 0 0 1 12 17Zm0-10c.98 0 1.938.29 2.753.833l4.988-4.988a11.954 11.954 0 0 0-15.482 0l4.988 4.988A4.969 4.969 0 0 1 12 7Z"/>
  </g>
  <defs>
    <clipPath id="a">
      <path fill="#fff" d="M0 0h24v24H0z"/>
    </clipPath>
  </defs>
</svg>
