<svg xmlns="http://www.w3.org/2000/svg" width="24" height="24" fill="none" viewBox="0 0 24 24">
  <g clip-path="url(#a)">
    <path fill="#374957" d="m17.72 3-1.412-1.832A3.023 3.023 0 0 0 13.932 0h-3.864a3.023 3.023 0 0 0-2.376 1.168L6.279 3H17.72ZM12 18a4 4 0 1 0 0-8 4 4 0 0 0 0 8Z"/>
    <path fill="#374957" d="M19 5H5a5.006 5.006 0 0 0-5 5v9a5.006 5.006 0 0 0 5 5h14a5.005 5.005 0 0 0 5-5v-9a5.006 5.006 0 0 0-5-5Zm-7 15a6 6 0 1 1 0-12 6 6 0 0 1 0 12Z"/>
  </g>
  <defs>
    <clipPath id="a">
      <path fill="#fff" d="M0 0h24v24H0z"/>
    </clipPath>
  </defs>
</svg>
