<svg xmlns="http://www.w3.org/2000/svg" width="24" height="24" fill="none" viewBox="0 0 24 24">
  <g clip-path="url(#a)">
    <path fill="#374957" d="M17 7a1 1 0 0 1-1 1H8a1 1 0 0 1 0-2h8a1 1 0 0 1 1 1Zm6-2v14a5.006 5.006 0 0 1-5 5H6a5.006 5.006 0 0 1-5-5V5a5.006 5.006 0 0 1 5-5h12a5.006 5.006 0 0 1 5 5ZM7 18a1 1 0 1 0-2 0 1 1 0 0 0 2 0Zm0-4a1 1 0 1 0-2 0 1 1 0 0 0 2 0Zm4 4a1 1 0 1 0-2 0 1 1 0 0 0 2 0Zm0-4a1 1 0 1 0-2 0 1 1 0 0 0 2 0Zm8 4a1 1 0 0 0-1-1h-4a1 1 0 1 0 0 2h4a1 1 0 0 0 1-1Zm-5-3a1 1 0 1 0 0-2 1 1 0 0 0 0 2Zm5-1a1 1 0 1 0-2 0 1 1 0 0 0 2 0Zm0-7a3 3 0 0 0-3-3H8a3 3 0 1 0 0 6h8a3 3 0 0 0 3-3Z"/>
  </g>
  <defs>
    <clipPath id="a">
      <path fill="#fff" d="M0 0h24v24H0z"/>
    </clipPath>
  </defs>
</svg>
