<svg xmlns="http://www.w3.org/2000/svg" width="24" height="24" fill="none" viewBox="0 0 24 24">
  <g clip-path="url(#a)">
    <path fill="#374957" d="M19.675 2.758A11.937 11.937 0 0 0 10.475.1 12 12 0 0 0 12.017 24H19a5.005 5.005 0 0 0 5-5v-7.754a12.044 12.044 0 0 0-4.325-8.488ZM8 7h4a1 1 0 0 1 0 2H8a1 1 0 1 1 0-2Zm8 10H8a1 1 0 1 1 0-2h8a1 1 0 0 1 0 2Zm0-4H8a1 1 0 1 1 0-2h8a1 1 0 0 1 0 2Z"/>
  </g>
  <defs>
    <clipPath id="a">
      <path fill="#fff" d="M0 0h24v24H0z"/>
    </clipPath>
  </defs>
</svg>
