<svg xmlns="http://www.w3.org/2000/svg" width="24" height="24" fill="none" viewBox="0 0 24 24">
  <g clip-path="url(#a)">
    <path fill="#374957" d="M11 18h2v1a5.006 5.006 0 0 1-5 5H5a5.006 5.006 0 0 1-5-5v-3a5.006 5.006 0 0 1 5-5h1v2a5.006 5.006 0 0 0 5 5Zm-3-5a3 3 0 0 0 3 3 3 3 0 0 0-3-3ZM19 0h-8a5.006 5.006 0 0 0-5 5v6h2c.98 0 1.938.29 2.753.833L16.586 6H14a1 1 0 1 1 0-2h3a3 3 0 0 1 3 3v3a1 1 0 0 1-2 0V7.414l-5.833 5.833A4.97 4.97 0 0 1 13 16v2h6a5.006 5.006 0 0 0 5-5V5a5.006 5.006 0 0 0-5-5Z"/>
  </g>
  <defs>
    <clipPath id="a">
      <path fill="#fff" d="M0 0h24v24H0z"/>
    </clipPath>
  </defs>
</svg>
