<svg xmlns="http://www.w3.org/2000/svg" width="24" height="24" fill="none" viewBox="0 0 24 24">
  <g clip-path="url(#a)">
    <path fill="#374957" d="M7 0H4a4 4 0 0 0-4 4v3a4 4 0 0 0 4 4h3a4 4 0 0 0 4-4V4a4 4 0 0 0-4-4Zm0 13H4a4 4 0 0 0-4 4v3a4 4 0 0 0 4 4h3a4 4 0 0 0 4-4v-3a4 4 0 0 0-4-4Zm15.293 6.126L20 21.416V2.584l2.293 2.29a1 1 0 0 0 1.414-1.415L21.12.876a3 3 0 0 0-4.24 0l-2.587 2.583a1 1 0 1 0 1.414 1.415L18 2.584v18.832l-2.293-2.29a1.002 1.002 0 0 0-1.631 1.092 1 1 0 0 0 .217.324l2.587 2.583a3.005 3.005 0 0 0 4.24 0l2.587-2.583a1 1 0 0 0-1.414-1.416Z"/>
  </g>
  <defs>
    <clipPath id="a">
      <path fill="#fff" d="M0 0h24v24H0z"/>
    </clipPath>
  </defs>
</svg>
