<svg xmlns="http://www.w3.org/2000/svg" width="24" height="24" fill="none" viewBox="0 0 24 24">
  <g clip-path="url(#a)">
    <path fill="#374957" d="M.024 11.523A11.943 11.943 0 0 1 2.755 4.36l1.106 3.6a1 1 0 0 1-.382 1.114l-3.455 2.45Zm11.39-8.712a1 1 0 0 0 1.174 0L15.627.563a11.948 11.948 0 0 0-7.28.01l3.067 2.238Zm9.1 6.256 3.457 2.456A11.942 11.942 0 0 0 21.24 4.36l-1.1 3.594a1 1 0 0 0 .379 1.114h-.005ZM6.7 18.683a1 1 0 0 0-.949-.69l-4.139-.007a12.052 12.052 0 0 0 6.567 5.381L6.7 18.683Zm11.541-.69a1 1 0 0 0-.948.694l-1.525 4.7a12.055 12.055 0 0 0 6.615-5.4l-4.142.006Zm-4.583-4.339.731-2.253a.5.5 0 0 0-.181-.559L12.294 9.45a.5.5 0 0 0-.588 0L9.79 10.842a.5.5 0 0 0-.182.56l.732 2.252a.5.5 0 0 0 .475.346h2.37a.5.5 0 0 0 .476-.346h-.003ZM13.5 23.9c-.497.065-.998.099-1.5.1-.52-.003-1.04-.041-1.556-.113l-1.836-5.81a2.992 2.992 0 0 0-2.849-2.084l-5.065-.009a11.837 11.837 0 0 1-.532-2.106L4.634 10.7a2.99 2.99 0 0 0 1.138-3.335L4.356 2.758a12.006 12.006 0 0 1 1.859-1.265l4.021 2.934a3 3 0 0 0 3.534 0l3.987-2.946c.668.367 1.3.796 1.887 1.282l-1.416 4.601a2.992 2.992 0 0 0 1.135 3.336l4.475 3.178c-.113.717-.29 1.421-.532 2.105l-5.067.01a2.992 2.992 0 0 0-2.846 2.08L13.5 23.9Zm-.315-7.9a2.5 2.5 0 0 0 2.378-1.728l.731-2.253a2.491 2.491 0 0 0-.908-2.795l-1.917-1.392a2.49 2.49 0 0 0-2.938 0L8.614 9.224a2.493 2.493 0 0 0-.908 2.8l.732 2.253A2.494 2.494 0 0 0 10.815 16h2.37Z"/>
  </g>
  <defs>
    <clipPath id="a">
      <path fill="#fff" d="M0 0h24v24H0z"/>
    </clipPath>
  </defs>
</svg>
