<svg xmlns="http://www.w3.org/2000/svg" width="24" height="24" fill="none" viewBox="0 0 24 24">
  <g clip-path="url(#a)">
    <path fill="#374957" d="M9 23.913c-.449.04-.9.068-1.33.068A8.106 8.106 0 0 1 1.9 22.1C.382 20.579-.174 17.91.083 15L9 23.913ZM23.945 8.532C24.1 5.807 23.535 3.34 22.1 1.9 20.665.46 18.2-.1 15.471.054l8.474 8.478Zm-.336 2.492a16.889 16.889 0 0 1-4.26 8.325 16.743 16.743 0 0 1-7.924 4.163L.475 12.562c.65-2.966 2.095-5.7 4.177-7.91a16.888 16.888 0 0 1 8.325-4.26L23.61 11.024Zm-5.9-.73-4-4a1 1 0 0 0-1.414 1.414L13.586 9 12 10.587l-1.293-1.293a1 1 0 0 0-1.414 1.414L10.586 12 9 13.587l-1.293-1.293a1 1 0 0 0-1.414 1.414l4 4a1 1 0 0 0 1.414-1.414L10.414 15 12 13.415l1.293 1.293a1 1 0 0 0 1.414-1.414L13.414 12 15 10.415l1.293 1.293a1 1 0 0 0 1.414-1.414h.002Z"/>
  </g>
  <defs>
    <clipPath id="a">
      <path fill="#fff" d="M0 0h24v24H0z"/>
    </clipPath>
  </defs>
</svg>
