<svg xmlns="http://www.w3.org/2000/svg" width="24" height="24" fill="none" viewBox="0 0 24 24">
  <g clip-path="url(#a)">
    <path fill="#374957" d="M16 0H8a5.006 5.006 0 0 0-5 5v14a5.006 5.006 0 0 0 5 5h8a5.006 5.006 0 0 0 5-5V5a5.006 5.006 0 0 0-5-5ZM9 8a3 3 0 1 1 6 0v4a1 1 0 0 1-2 0v-1h-2v1a1 1 0 0 1-2 0V8Zm3 14a1 1 0 1 1 0-2 1 1 0 0 1 0 2Zm3-5H9a1 1 0 0 1 0-2h6a1 1 0 0 1 0 2Zm-4-8V8a1 1 0 0 1 2 0v1h-2Z"/>
  </g>
  <defs>
    <clipPath id="a">
      <path fill="#fff" d="M0 0h24v24H0z"/>
    </clipPath>
  </defs>
</svg>
