<svg xmlns="http://www.w3.org/2000/svg" width="24" height="24" fill="none" viewBox="0 0 24 24">
  <g clip-path="url(#a)">
    <path fill="#374957" d="M21.5 2h-8A2.5 2.5 0 0 0 11 4.5v.3L9.735 2.608A2.536 2.536 0 0 0 8.213 1.38a2.5 2.5 0 0 0-2.846 1.163L.375 11.188a2.537 2.537 0 0 0-.3 1.93A2.5 2.5 0 0 0 2.5 15.002h2.7a7.074 7.074 0 1 0 13.6 0h2.7a2.5 2.5 0 0 0 2.5-2.5v-8A2.5 2.5 0 0 0 21.5 2ZM3.37 12l4.162-7.208L10.542 10a7.052 7.052 0 0 0-3.613 2h-3.56ZM12 21a4.074 4.074 0 1 1 0-8.148 4.074 4.074 0 0 1 0 8.149Zm9-9h-3.93A7.473 7.473 0 0 0 14 10.14V5h7v7Z"/>
  </g>
  <defs>
    <clipPath id="a">
      <path fill="#fff" d="M0 0h24v24H0z"/>
    </clipPath>
  </defs>
</svg>
