<svg xmlns="http://www.w3.org/2000/svg" width="24" height="24" fill="none" viewBox="0 0 24 24">
  <path fill="#374957" d="M15 5.026a3 3 0 0 1-6 0A11.2 11.2 0 0 1 10.739.691a1.5 1.5 0 0 1 2.522 0A11.2 11.2 0 0 1 15 5.026ZM5.8 18h12.4a3.896 3.896 0 0 0-.421-.5c-1.923-1.859-2.708-4.015-2.766-7.5H16a1 1 0 1 0 0-2H8a1 1 0 1 0 0 2h.989c-.058 3.487-.843 5.643-2.766 7.5a4.066 4.066 0 0 0-.423.5ZM20 22h-1v-1.629c0-.125-.026-.247-.038-.371H5.038c-.012.124-.038.246-.038.371V22H4a1 1 0 1 0 0 2h16a1 1 0 0 0 0-2Z"/>
</svg>
