<svg xmlns="http://www.w3.org/2000/svg" width="24" height="24" fill="none" viewBox="0 0 24 24">
  <g clip-path="url(#a)">
    <path fill="#374957" d="M22.563 1.437C20.189-.937 16.643-.358 12 3.137 7.357-.358 3.813-.938 1.437 1.437-.94 3.812-.358 7.357 3.137 12c-3.495 4.643-4.075 8.188-1.7 10.563A4.7 4.7 0 0 0 4.879 24c1.97 0 4.35-1.052 7.12-3.136C14.77 22.948 17.15 24 19.122 24a4.7 4.7 0 0 0 3.442-1.437c2.375-2.375 1.8-5.919-1.7-10.563 3.495-4.644 4.075-8.188 1.7-10.563Zm-3.478.591a2.806 2.806 0 0 1 2.067.82c1.746 1.746.456 4.712-1.588 7.538a51.622 51.622 0 0 0-2.858-3.092 51.378 51.378 0 0 0-3.094-2.86c1.898-1.373 3.86-2.406 5.473-2.406ZM18.31 12a50.122 50.122 0 0 1-3.016 3.3c-.934.94-2.075 2-3.295 3.011a50.084 50.084 0 0 1-3.295-3.01A47.695 47.695 0 0 1 5.689 12a48.485 48.485 0 0 1 3.016-3.296A49.256 49.256 0 0 1 12 5.688 49.844 49.844 0 0 1 18.31 12ZM2.848 2.848a2.8 2.8 0 0 1 2.067-.82c1.613 0 3.575 1.033 5.473 2.406a52 52 0 0 0-3.094 2.86 50.146 50.146 0 0 0-2.86 3.092C2.393 7.56 1.1 4.594 2.849 2.848Zm0 18.3c-1.746-1.746-.456-4.713 1.587-7.538a51.979 51.979 0 0 0 2.859 3.092 50.788 50.788 0 0 0 3.089 2.861c-2.825 2.046-5.791 3.337-7.535 1.59v-.005Zm18.3 0c-1.745 1.744-4.71.457-7.535-1.585a52.383 52.383 0 0 0 3.089-2.86 49.865 49.865 0 0 0 2.858-3.093c2.048 2.83 3.34 5.796 1.592 7.542l-.004-.004Z"/>
    <path fill="#374957" d="M12 14a2 2 0 1 0 0-4 2 2 0 0 0 0 4Z"/>
  </g>
  <defs>
    <clipPath id="a">
      <path fill="#fff" d="M0 0h24v24H0z"/>
    </clipPath>
  </defs>
</svg>
