<svg xmlns="http://www.w3.org/2000/svg" width="24" height="24" fill="none" viewBox="0 0 24 24">
  <g clip-path="url(#a)">
    <path fill="#374957" d="M11 5.272a16.493 16.493 0 0 0-7.755 2.62 6.55 6.55 0 0 1 5.122-4.839A2.2 2.2 0 0 1 11 5.273Zm12.654-.023a4.528 4.528 0 0 0-3.083-1.82 4.529 4.529 0 0 0-1.82-3.083A1.718 1.718 0 0 0 16 1.716V7C8.483 7 4.194 8.437 1.963 12.194a13.757 13.757 0 0 1 9.837 9.85C15.561 19.813 17 15.523 17 8h5.285a1.718 1.718 0 0 0 1.369-2.75ZM19.2 13h-.475a22.788 22.788 0 0 1-.813 4h.814c2.487.077 3.286-3.876.474-4Zm-9.249 9.911c-2.4.688-6.537 2.143-8.78-.082a3.983 3.983 0 0 1-1.162-3.086c.093-1.94.457-3.86 1.081-5.7a11.724 11.724 0 0 1 8.861 8.868ZM5 20.001a1 1 0 1 0-2 0 1 1 0 0 0 2 0Z"/>
  </g>
  <defs>
    <clipPath id="a">
      <path fill="#fff" d="M0 0h24v24H0z"/>
    </clipPath>
  </defs>
</svg>
