<svg xmlns="http://www.w3.org/2000/svg" width="24" height="24" fill="none" viewBox="0 0 24 24">
  <g clip-path="url(#a)">
    <path fill="#374957" d="M23.71 7.3a1 1 0 0 1-1.419 1.41l-2.79-2.795-2.8 2.8a1 1 0 1 1-1.4-1.423L18.085 4.5 15.29 1.707A1 1 0 1 1 16.71.3l2.79 2.788L22.3.293a1 1 0 0 1 1.406 1.417L20.914 4.5l2.795 2.8Zm-3.055 7.56a3.1 3.1 0 0 0-4.28.006l-1.906 1.606a12.78 12.78 0 0 1-6.932-6.948l1.6-1.9a3.1 3.1 0 0 0 .006-4.28S7.291.939 7.261.907A3.085 3.085 0 0 0 2.933.86l-1.149 1c-7.72 8.209 12.2 28.138 20.4 20.3l.912-1.05a3.1 3.1 0 0 0 0-4.377l-2.44-1.878v.004Z"/>
  </g>
  <defs>
    <clipPath id="a">
      <path fill="#fff" d="M0 0h24v24H0z"/>
    </clipPath>
  </defs>
</svg>
