<svg xmlns="http://www.w3.org/2000/svg" width="24" height="24" fill="none" viewBox="0 0 24 24">
  <g clip-path="url(#a)">
    <path fill="#374957" d="M24 11.5a3.5 3.5 0 0 0-2.15-3.226 10 10 0 0 0-19.7 0 3.5 3.5 0 0 0 1.12 6.718 10.608 10.608 0 0 0 2.07 2.955 8.908 8.908 0 0 0-2.271 4.928A1 1 0 0 0 4.059 24h15.86a1.002 1.002 0 0 0 .992-1.124 8.9 8.9 0 0 0-2.261-4.918 10.622 10.622 0 0 0 2.082-2.966A3.5 3.5 0 0 0 24 11.5Zm-3.752 1.473a.992.992 0 0 0-1.117.651C18.215 16.222 15.13 19 12 19s-6.215-2.78-7.131-5.378a.994.994 0 0 0-1.117-.651A1.604 1.604 0 0 1 3.5 13a1.5 1.5 0 0 1-.27-2.972 1 1 0 0 0 .816-.878A7.966 7.966 0 0 1 8.71 2.71a3.534 3.534 0 1 0 6.578 0 7.966 7.966 0 0 1 4.665 6.44 1 1 0 0 0 .816.878A1.5 1.5 0 0 1 20.5 13a1.617 1.617 0 0 1-.252-.027Z"/>
    <path fill="#374957" d="M9.5 13a1.5 1.5 0 1 0 0-3 1.5 1.5 0 0 0 0 3Zm5 0a1.5 1.5 0 1 0 0-3 1.5 1.5 0 0 0 0 3Z"/>
  </g>
  <defs>
    <clipPath id="a">
      <path fill="#fff" d="M0 0h24v24H0z"/>
    </clipPath>
  </defs>
</svg>
