<svg xmlns="http://www.w3.org/2000/svg" width="24" height="24" fill="none" viewBox="0 0 24 24">
  <g clip-path="url(#a)">
    <path fill="#374957" d="M16.243 10.764a6 6 0 0 0-8.486 8.485l3.507 3.43a1.053 1.053 0 0 0 1.472 0l3.507-3.43a6 6 0 0 0 0-8.485ZM12 16.994a2 2 0 1 1 0-4 2 2 0 0 1 0 4Z"/>
    <path fill="#374957" d="m21.8 5.58-7-4.725a4.981 4.981 0 0 0-5.6 0l-7 4.724A4.993 4.993 0 0 0 0 9.724V19a5.006 5.006 0 0 0 5 5h4.754l-3.395-3.32A8 8 0 1 1 17.657 9.35a8 8 0 0 1 0 11.313L14.245 24H19a5.005 5.005 0 0 0 5-5V9.724a5 5 0 0 0-2.2-4.145Z"/>
  </g>
  <defs>
    <clipPath id="a">
      <path fill="#fff" d="M0 0h24v24H0z"/>
    </clipPath>
  </defs>
</svg>
