<svg xmlns="http://www.w3.org/2000/svg" width="24" height="24" fill="none" viewBox="0 0 24 24">
  <g clip-path="url(#a)">
    <path fill="#374957" d="M21.018 13.427c-.771 0-1.512.3-2.066.838l-1.177-.589a5.964 5.964 0 0 0-7.498-7.427l-.69-1.245a2.973 2.973 0 1 0-2.187.968c.143-.004.286-.019.427-.043l.683 1.236a5.936 5.936 0 0 0-1.309 8.194l-2.896 2.783A3.049 3.049 0 1 0 5.754 19.5l2.839-2.728a5.934 5.934 0 0 0 8.284-1.321l1.193.596c-.02.12-.03.24-.034.362a2.982 2.982 0 1 0 2.982-2.982Z"/>
  </g>
  <defs>
    <clipPath id="a">
      <path fill="#fff" d="M0 0h24v24H0z"/>
    </clipPath>
  </defs>
</svg>
