<svg xmlns="http://www.w3.org/2000/svg" width="24" height="24" fill="none" viewBox="0 0 24 24">
  <g clip-path="url(#a)">
    <path fill="#374957" d="M23.863 6.88 0 6.991v-.99a5.006 5.006 0 0 1 5-5h2.528c.465 0 .924.108 1.341.315L12.025 2.9c.14.067.292.101.447.1H19a5 5 0 0 1 4.863 3.88Zm.137 2V18a5.006 5.006 0 0 1-5 5H5a5.005 5.005 0 0 1-5-5V8.991l24-.11ZM16 16a1 1 0 0 0-1-1h-2v-2a1 1 0 0 0-2 0v2H9a1 1 0 0 0 0 2h2v2a1 1 0 0 0 2 0v-2h2a1 1 0 0 0 1-1Z"/>
  </g>
  <defs>
    <clipPath id="a">
      <path fill="#fff" d="M0 0h24v24H0z"/>
    </clipPath>
  </defs>
</svg>
