<svg xmlns="http://www.w3.org/2000/svg" width="24" height="24" fill="none" viewBox="0 0 24 24">
  <g clip-path="url(#a)">
    <path fill="#374957" d="M22.485 10.975 12 17.267 1.515 10.975A1 1 0 1 0 .486 12.69l11 6.6a1 1 0 0 0 1.03 0l11-6.6a1 1 0 0 0-1.029-1.715h-.002Z"/>
    <path fill="#374957" d="M22.485 15.543 12 21.833l-10.485-6.29a.999.999 0 1 0-1.029 1.715l11 6.6a1 1 0 0 0 1.03 0l11-6.6a1 1 0 0 0-1.029-1.715h-.002Zm-22-7.186 9.984 5.991a2.97 2.97 0 0 0 3.062 0l9.984-5.99a1 1 0 0 0 0-1.715L13.53.653a2.973 2.973 0 0 0-3.062 0L.485 6.642a1 1 0 0 0 0 1.714Z"/>
  </g>
  <defs>
    <clipPath id="a">
      <path fill="#fff" d="M0 0h24v24H0z"/>
    </clipPath>
  </defs>
</svg>
