<svg xmlns="http://www.w3.org/2000/svg" width="24" height="24" fill="none" viewBox="0 0 24 24">
  <g clip-path="url(#a)">
    <path fill="#374957" d="M14.823 11.708a.325.325 0 0 1 .169.292.314.314 0 0 1-.12.266L9.5 14.954a.336.336 0 0 1-.5-.293V9.339a.327.327 0 0 1 .325-.334.46.46 0 0 1 .228.068l5.27 2.635ZM24 5v14a5.006 5.006 0 0 1-5 5H5a5.006 5.006 0 0 1-5-5V5a5.006 5.006 0 0 1 5-5h14a5.006 5.006 0 0 1 5 5Zm-7.008 7a2.332 2.332 0 0 0-1.226-2.055L10.488 7.31a2.337 2.337 0 0 0-3.5 2.029v5.322a2.313 2.313 0 0 0 1.164 2.021c.36.21.77.322 1.186.323a2.2 2.2 0 0 0 1.1-.289l5.376-2.687A2.313 2.313 0 0 0 16.992 12Z"/>
  </g>
  <defs>
    <clipPath id="a">
      <path fill="#fff" d="M0 0h24v24H0z"/>
    </clipPath>
  </defs>
</svg>
