<svg xmlns="http://www.w3.org/2000/svg" width="24" height="24" fill="none" viewBox="0 0 24 24">
  <g clip-path="url(#a)">
    <path fill="#374957" d="M19.79 3.279c-4.247-4.32-11.193-4.38-15.514-.132-4.32 4.247-4.38 11.193-.132 15.514l.16.16 3.933 3.632a5.428 5.428 0 0 0 7.572.02l3.981-3.68c4.284-4.284 4.284-11.23 0-15.514Zm-4.06 10.044a.997.997 0 1 1-1.41 1.41l-2.287-2.287-2.287 2.287a.997.997 0 0 1-1.41-1.41l2.287-2.287-2.287-2.287a.997.997 0 1 1 1.41-1.41l2.287 2.287 2.287-2.287a.997.997 0 1 1 1.41 1.41l-2.287 2.287 2.287 2.287Z"/>
  </g>
  <defs>
    <clipPath id="a">
      <path fill="#fff" d="M0 0h24v24H0z"/>
    </clipPath>
  </defs>
</svg>
