<svg xmlns="http://www.w3.org/2000/svg" width="24" height="24" fill="none" viewBox="0 0 24 24">
  <g clip-path="url(#a)">
    <path fill="#374957" d="M20.976 12h-5.352c-.61 0-1.208.18-1.716.52l-1.959 1.306a1 1 0 0 1-.555.168H1a1 1 0 0 0-1 1v8a1 1 0 0 0 1 1h11.537a11.97 11.97 0 0 0 11.309-8.112A2.984 2.984 0 0 0 20.976 12ZM4 20a1 1 0 1 1 0-2 1 1 0 0 1 0 2Zm4 0a1 1 0 1 1 0-2 1 1 0 0 1 0 2Zm4 0a1 1 0 1 1 0-2 1 1 0 0 1 0 2ZM1 12a2.97 2.97 0 0 0-1 .184V9h10a1 1 0 1 0 0-2H0V4.861a1 1 0 0 1 1-1h2.392l-.321-1.218A2.106 2.106 0 0 1 5.107 0a2.107 2.107 0 0 1 2.037 1.569l.6 2.292H10A5.04 5.04 0 0 1 13.179 5a25.491 25.491 0 0 1 4.44 5h-1.974a5.224 5.224 0 0 0-2.822.84L11.092 12H1Z"/>
  </g>
  <defs>
    <clipPath id="a">
      <path fill="#fff" d="M0 0h24v24H0z"/>
    </clipPath>
  </defs>
</svg>
