<svg xmlns="http://www.w3.org/2000/svg" width="24" height="24" fill="none" viewBox="0 0 24 24">
  <g clip-path="url(#a)">
    <path fill="#374957" d="M23 20h-8.184A3 3 0 0 0 13 18.184V14.02c1.344 0 2.52-.012 3.1-.023a4.952 4.952 0 0 0 4.765-3.831 5.012 5.012 0 0 0-3.56-6l-.176-.043c-.3-.067-.452-.1-.588-.428a6 6 0 0 0-11.367.855 6.369 6.369 0 0 0-.056 2.733 3.5 3.5 0 0 0 .448 6.588c.272.074.552.118.834.129.653.018 2.549.026 4.521.026H11v4.16A3 3 0 0 0 9.184 20H1a1 1 0 0 0 0 2h8.184a2.983 2.983 0 0 0 5.632 0H23a1 1 0 0 0 0-2Z"/>
  </g>
  <defs>
    <clipPath id="a">
      <path fill="#fff" d="M0 0h24v24H0z"/>
    </clipPath>
  </defs>
</svg>
