<svg xmlns="http://www.w3.org/2000/svg" width="24" height="24" fill="none" viewBox="0 0 24 24">
  <g clip-path="url(#a)">
    <path fill="#374957" d="m6.224 8.685-2.074.608a5.036 5.036 0 0 0-3.113 2.635A4.973 4.973 0 0 0 .9 15.947L.923 16l1.72-.281a9.6 9.6 0 0 0 4.3-2.434 1 1 0 1 1 1.4 1.43 11.65 11.65 0 0 1-5.295 2.961l-1.172.194a12.773 12.773 0 0 0 2.48 2.93l2.053-.762 1.4-.7A9.544 9.544 0 0 0 11.4 16.2l.519-.761a.999.999 0 1 1 1.652 1.126l-.518.761a11.535 11.535 0 0 1-4.347 3.8l-1.55.773-.843.312a13.227 13.227 0 0 0 6.694 1.8h.924c.207 0 .409-.064.578-.182a16.508 16.508 0 0 0 5.123-5.586L8.74 7.549c-.795.47-1.638.85-2.516 1.136Zm17.491-6.4a1.013 1.013 0 0 0-1.43 0l-4.764 4.764-.32-.313a5.008 5.008 0 0 0-6.429-.479c-.092.066-.183.121-.276.185l10.027 9.844c.32-.864.554-1.757.7-2.666a5.028 5.028 0 0 0-1.453-4.374l-.8-.784 4.747-4.747a1.013 1.013 0 0 0-.002-1.43Z"/>
  </g>
  <defs>
    <clipPath id="a">
      <path fill="#fff" d="M0 0h24v24H0z"/>
    </clipPath>
  </defs>
</svg>
