<svg xmlns="http://www.w3.org/2000/svg" width="24" height="24" fill="none" viewBox="0 0 24 24">
  <g clip-path="url(#a)">
    <path fill="#374957" d="M21 6h-3A6 6 0 1 0 6 6H3a3 3 0 0 0-3 3v10a5.006 5.006 0 0 0 5 5h11.686A6 6 0 1 1 24 14.537V9a3 3 0 0 0-3-3ZM8 6a4 4 0 0 1 8 0H8Z"/>
    <path fill="#374957" d="M23 18h-2v-2a1 1 0 0 0-2 0v2h-2a1 1 0 0 0 0 2h2v2a1 1 0 1 0 2 0v-2h2a1 1 0 0 0 0-2Z"/>
  </g>
  <defs>
    <clipPath id="a">
      <path fill="#fff" d="M0 0h24v24H0z"/>
    </clipPath>
  </defs>
</svg>
