<svg xmlns="http://www.w3.org/2000/svg" width="24" height="24" fill="none" viewBox="0 0 24 24">
  <path fill="#374957" d="M19.784 3.254c-4.27-4.308-11.222-4.34-15.531-.072-4.309 4.269-4.341 11.222-.072 15.53.033.034.066.068.1.1l3.937 3.636a5.433 5.433 0 0 0 7.58.02l3.986-3.683c4.288-4.289 4.288-11.242 0-15.53Zm-1.775 10.261a2.496 2.496 0 0 1-2.496 2.496H8.524a2.496 2.496 0 0 1-2.496-2.495v-3.367c0-.982.481-1.901 1.288-2.461l2.995-2.078a3.003 3.003 0 0 1 3.415 0l2.995 2.078a2.995 2.995 0 0 1 1.288 2.461v3.367Zm-1.997-3.366v3.366a.5.5 0 0 1-.5.5h-1.497v-1.997a.998.998 0 0 0-.998-.998H11.02a.998.998 0 0 0-.998.998v1.997H8.524a.5.5 0 0 1-.499-.5V10.15c0-.327.16-.634.43-.82l2.994-2.078a1.004 1.004 0 0 1 1.138 0l2.995 2.077c.27.187.43.494.43.821Z"/>
</svg>
