<svg xmlns="http://www.w3.org/2000/svg" width="24" height="24" fill="none" viewBox="0 0 24 24">
  <g clip-path="url(#a)">
    <path fill="#374957" d="M23.535 14.725a1.99 1.99 0 0 0-1.726-.716A10.422 10.422 0 0 0 13 19.95v-6.035A6.01 6.01 0 0 0 18 8c0-2.793-1.943-5.152-3.844-7.091a2.856 2.856 0 0 0-.356-.31A16.956 16.956 0 0 0 12 7.967a.999.999 0 0 1-1.351.97A1 1 0 0 1 10 8.035c.01-2.771.642-5.505 1.846-8a3 3 0 0 0-2 .874C7.943 2.848 6 5.207 6 8a6.009 6.009 0 0 0 5 5.916v6.036a10.422 10.422 0 0 0-8.809-5.943 1.992 1.992 0 0 0-1.726.716 1.97 1.97 0 0 0-.393 1.792C2.112 23.855 11.592 24 11.994 24h.012c.4 0 9.884-.145 11.923-7.483a1.975 1.975 0 0 0-.394-1.792Z"/>
  </g>
  <defs>
    <clipPath id="a">
      <path fill="#fff" d="M0 0h24v24H0z"/>
    </clipPath>
  </defs>
</svg>
