<svg xmlns="http://www.w3.org/2000/svg" width="24" height="24" fill="none" viewBox="0 0 24 24">
  <g clip-path="url(#a)">
    <path fill="#374957" d="M10 6V0h4v6a2 2 0 1 1-4 0Zm6-1h8a5.006 5.006 0 0 0-5-5h-3v5ZM8 0H5a5.006 5.006 0 0 0-5 5h8V0Zm16 7v12a5.006 5.006 0 0 1-5 5H5a5.006 5.006 0 0 1-5-5V7h8.142a3.981 3.981 0 0 0 7.716 0H24Zm-4 12a1 1 0 0 0-1-1h-3a1 1 0 0 0 0 2h3a1 1 0 0 0 1-1Z"/>
  </g>
  <defs>
    <clipPath id="a">
      <path fill="#fff" d="M0 0h24v24H0z"/>
    </clipPath>
  </defs>
</svg>
