<svg xmlns="http://www.w3.org/2000/svg" width="24" height="24" fill="none" viewBox="0 0 24 24">
  <g clip-path="url(#a)">
    <path fill="#374957" d="M19 14a4.929 4.929 0 0 0-2.352.616L13.3 10.6l7.467-8.96A1 1 0 0 0 19.23.36L12 9.039 4.768.36a1 1 0 0 0-1.536 1.28L10.7 10.6l-3.348 4.015A4.94 4.94 0 0 0 5 14a5 5 0 1 0 5 5 4.947 4.947 0 0 0-1.112-3.1L12 12.163l3.11 3.738A4.955 4.955 0 0 0 14 19a5 5 0 1 0 5-5ZM5 22a3 3 0 1 1 0-6 3 3 0 0 1 0 6Zm14 0a3 3 0 1 1 0-6 3 3 0 0 1 0 6Z"/>
  </g>
  <defs>
    <clipPath id="a">
      <path fill="#fff" d="M0 0h24v24H0z"/>
    </clipPath>
  </defs>
</svg>
