<svg xmlns="http://www.w3.org/2000/svg" width="24" height="24" fill="none" viewBox="0 0 24 24">
  <g clip-path="url(#a)">
    <path fill="#374957" d="M0 19a5.006 5.006 0 0 0 5 5h14a5.006 5.006 0 0 0 5-5v-9H0v9Zm17-4.5a1.5 1.5 0 1 1 0 3 1.5 1.5 0 0 1 0-3Zm-5 0a1.5 1.5 0 1 1 0 3 1.5 1.5 0 0 1 0-3Zm-5 0a1.5 1.5 0 1 1 0 3 1.5 1.5 0 0 1 0-3ZM19 2h-1V1a1 1 0 0 0-2 0v1H8V1a1 1 0 0 0-2 0v1H5a5.006 5.006 0 0 0-5 5v1h24V7a5.006 5.006 0 0 0-5-5Z"/>
  </g>
  <defs>
    <clipPath id="a">
      <path fill="#fff" d="M0 0h24v24H0z"/>
    </clipPath>
  </defs>
</svg>
