<svg xmlns="http://www.w3.org/2000/svg" width="24" height="24" fill="none" viewBox="0 0 24 24">
  <g clip-path="url(#a)">
    <path fill="#374957" d="M24 2v4a1 1 0 0 1-2 0V3.439l-5.3 5.27a1 1 0 1 1-1.4-1.417L20.61 2H18a1 1 0 1 1 0-2h4a2 2 0 0 1 2 2Zm-3.345 12.856a3.1 3.1 0 0 0-4.28.006l-1.906 1.606a12.778 12.778 0 0 1-6.932-6.944l1.6-1.9a3.1 3.1 0 0 0 .006-4.28S7.29.939 7.26.907A3.085 3.085 0 0 0 2.933.86l-1.15 1c-7.72 8.209 12.2 28.138 20.4 20.3l.913-1.05a3.1 3.1 0 0 0 0-4.377l-2.441-1.878Z"/>
  </g>
  <defs>
    <clipPath id="a">
      <path fill="#fff" d="M0 0h24v24H0z"/>
    </clipPath>
  </defs>
</svg>
