<svg xmlns="http://www.w3.org/2000/svg" width="24" height="24" fill="none" viewBox="0 0 24 24">
  <g clip-path="url(#a)">
    <path fill="#374957" d="M10.42 20.656a3.77 3.77 0 0 1-2.233-.735l-6.64-4.87a3.784 3.784 0 0 1 0-6.1l6.64-4.87A3.783 3.783 0 0 1 14.2 6.853l3.782-2.774A3.784 3.784 0 0 1 24 7.13v9.74a3.784 3.784 0 0 1-6.02 3.051l-3.78-2.774a3.79 3.79 0 0 1-3.777 3.509h-.003Z"/>
  </g>
  <defs>
    <clipPath id="a">
      <path fill="#fff" d="M0 0h24v24H0z"/>
    </clipPath>
  </defs>
</svg>
