<svg xmlns="http://www.w3.org/2000/svg" width="24" height="24" fill="none" viewBox="0 0 24 24">
  <g clip-path="url(#a)">
    <path fill="#374957" d="M12 14c4.276 0 7.634-6.292 8.665-10.055a4.966 4.966 0 0 0-3.14-2.988A18.329 18.329 0 0 0 12 0c-1.88.034-3.743.356-5.525.956a4.97 4.97 0 0 0-3.14 2.989C4.366 7.708 7.724 14 12 14ZM10 3h4a1 1 0 1 1 0 2h-4a1 1 0 0 1 0-2Zm11 5.585C19.109 12.323 15.971 16 12 16s-7.109-3.677-9-7.415v7.592a5 5 0 0 0 1.325 3.39l-1.249 3.054a1 1 0 1 0 1.851.757L6 20.745c1.878.87 3.93 1.3 6 1.255 2.07.045 4.122-.385 6-1.255l1.077 2.633a1 1 0 0 0 1.852-.757l-1.25-3.054A5 5 0 0 0 21 16.177V8.585ZM12 20a1 1 0 1 1 0-1.999A1 1 0 0 1 12 20Z"/>
  </g>
  <defs>
    <clipPath id="a">
      <path fill="#fff" d="M0 0h24v24H0z"/>
    </clipPath>
  </defs>
</svg>
