<svg xmlns="http://www.w3.org/2000/svg" width="24" height="24" fill="none" viewBox="0 0 24 24">
  <g clip-path="url(#a)">
    <path fill="#374957" d="M20.678 7.393c-.916.916-.707 2.838.025 4.167a2.489 2.489 0 0 1-3.96 2.924L9.515 7.258A2.489 2.489 0 0 1 12.44 3.3c1.33.73 3.251.94 4.167.025l2.48-2.482a2.947 2.947 0 0 1 4.07 0 2.88 2.88 0 0 1 0 4.075l-2.479 2.475ZM1.97 17.347a3.307 3.307 0 0 0-.585 3.853l-1.09 1.093a1 1 0 0 0 1.413 1.414L2.8 22.616a3.264 3.264 0 0 0 3.855-.586l7.4-7.4-4.682-4.686-7.404 7.403Z"/>
  </g>
  <defs>
    <clipPath id="a">
      <path fill="#fff" d="M0 0h24v24H0z"/>
    </clipPath>
  </defs>
</svg>
