<svg xmlns="http://www.w3.org/2000/svg" width="24" height="24" fill="none" viewBox="0 0 24 24">
  <g clip-path="url(#a)">
    <path fill="#374957" d="M13 22H5.683a5.844 5.844 0 0 1-5.626-4.7 5.446 5.446 0 0 1 2.885-5.651 7.652 7.652 0 0 1-.8-5.18 8 8 0 0 1 15.49-.841 1.086 1.086 0 0 0 .72.732 8.023 8.023 0 0 1 2.98 1.674C21.223 8.026 21.116 8 21 8a5.009 5.009 0 0 0-4.92 4.105l-.847.424A5 5 0 1 0 13 22Zm8-6a3 3 0 1 0-3-3c.005.122.017.243.037.363l-2.96 1.48a3 3 0 1 0 0 4.313l2.96 1.48c-.02.121-.032.242-.037.364a3.015 3.015 0 1 0 .923-2.156l-2.96-1.481c.02-.12.032-.241.037-.363a2.89 2.89 0 0 0-.037-.363l2.96-1.481c.556.54 1.301.843 2.077.844Z"/>
  </g>
  <defs>
    <clipPath id="a">
      <path fill="#fff" d="M0 0h24v24H0z"/>
    </clipPath>
  </defs>
</svg>
