<svg xmlns="http://www.w3.org/2000/svg" width="24" height="24" fill="none" viewBox="0 0 24 24">
  <g clip-path="url(#a)">
    <path fill="#374957" d="M6.205 5.794h-.838l.006 1.724h.832a.86.86 0 1 0 0-1.72v-.004Zm10.813.078H16.2v3.853c.306 0 .649 0 .844-.009.97-.016 1.405-.974 1.405-1.916s-.372-1.928-1.431-1.928ZM18 19v4.54a6.977 6.977 0 0 0 2.465-1.59l1.484-1.485A6.96 6.96 0 0 0 23.54 18H19a1 1 0 0 0-1 1Z"/>
    <path fill="#374957" d="M19 0H5a5.006 5.006 0 0 0-5 5v14a5.006 5.006 0 0 0 5 5h10.515c.163 0 .324-.013.485-.024V19a3 3 0 0 1 3-3h4.976c.011-.161.024-.322.024-.485V5a5.006 5.006 0 0 0-5-5ZM4.734 4.544h1.471a2.11 2.11 0 1 1 0 4.22h-.84v1.663a.625.625 0 1 1-1.25 0V5.169a.613.613 0 0 1 .179-.457.61.61 0 0 1 .44-.168ZM13.631 9.4a2.138 2.138 0 0 1-2.182 1.656 3.134 3.134 0 0 1-2.3-.985.625.625 0 0 1 .05-.882l.001-.001a.6.6 0 0 1 .76-.051c.016.011.1.077.127.1.25.218.537.387.848.5.32.095.662.082.974-.035a.723.723 0 0 0 .457-.408.566.566 0 0 0-.149-.58 1.317 1.317 0 0 0-.482-.275 34.324 34.324 0 0 1-1.233-.483 1.931 1.931 0 0 1-.961-.735 1.62 1.62 0 0 1-.234-1.1c.03-.213.1-.418.207-.605a1.815 1.815 0 0 1 1.026-.826 3.178 3.178 0 0 1 2.426.33c.164.083.304.205.407.356a.608.608 0 0 1-.032.737c-.237.28-.584.2-.878.074a7.584 7.584 0 0 0-.82-.31 1.487 1.487 0 0 0-.607-.088.6.6 0 0 0-.49.328.587.587 0 0 0 .151.618c.167.152.373.256.594.3.279.073.562.124.835.217.333.112.641.29.906.52a1.77 1.77 0 0 1 .599 1.628Zm3.439 1.566c-.414.008-1.486.012-1.486.012a.625.625 0 0 1-.625-.623l-.011-5.106c0-.346.28-.626.625-.627h1.447c1.604 0 2.68 1.278 2.68 3.178 0 1.808-1.1 3.14-2.63 3.166Z"/>
  </g>
  <defs>
    <clipPath id="a">
      <path fill="#fff" d="M0 0h24v24H0z"/>
    </clipPath>
  </defs>
</svg>
