<svg xmlns="http://www.w3.org/2000/svg" width="24" height="24" fill="none" viewBox="0 0 24 24">
  <g clip-path="url(#a)">
    <path fill="#374957" d="M21.77 8.948a1.239 1.239 0 0 1-.7-1.7 3.239 3.239 0 0 0-4.315-4.316 1.239 1.239 0 0 1-1.7-.7 3.239 3.239 0 0 0-6.1 0 1.238 1.238 0 0 1-1.7.7A3.239 3.239 0 0 0 2.934 7.25a1.237 1.237 0 0 1-.7 1.7 3.24 3.24 0 0 0 0 6.1 1.238 1.238 0 0 1 .705 1.7 3.238 3.238 0 0 0 4.311 4.317 1.24 1.24 0 0 1 1.7.7 3.24 3.24 0 0 0 6.1 0 1.239 1.239 0 0 1 1.7-.7 3.239 3.239 0 0 0 4.316-4.315 1.239 1.239 0 0 1 .7-1.7 3.239 3.239 0 0 0 0-6.1l.004-.003Z"/>
  </g>
  <defs>
    <clipPath id="a">
      <path fill="#fff" d="M0 0h24v24H0z"/>
    </clipPath>
  </defs>
</svg>
