<svg xmlns="http://www.w3.org/2000/svg" width="24" height="24" fill="none" viewBox="0 0 24 24">
  <g clip-path="url(#a)">
    <path fill="#374957" d="M2.446 5.825A7.168 7.168 0 0 1 2 4a4 4 0 0 1 8 0 7.17 7.17 0 0 1-.446 1.825C9.3 6.53 9.114 7.259 9 8H3c-.114-.741-.3-1.47-.554-2.175ZM9.511 10H2.489c-.217.5-.48 1.012-.753 1.537A11.78 11.78 0 0 0 0 17a11.08 11.08 0 0 0 .986 4.7A4 4 0 0 0 4.61 24h2.78a4 4 0 0 0 3.624-2.3A11.081 11.081 0 0 0 12 17a11.781 11.781 0 0 0-1.736-5.463A24.822 24.822 0 0 1 9.511 10Zm14.49 6a8.006 8.006 0 0 1-11.53 7.183c.132-.206.251-.42.357-.642A13.052 13.052 0 0 0 14 17a13.58 13.58 0 0 0-1.96-6.385c-.21-.4-.408-.795-.586-1.181A7.98 7.98 0 0 1 24 16Zm-6-1A1 1 0 1 0 16 15a1 1 0 0 0 2 0Zm2-3A1 1 0 1 0 18 12a1 1 0 0 0 2 0Zm2 3A1 1 0 1 0 20 15a1 1 0 0 0 2 0Z"/>
  </g>
  <defs>
    <clipPath id="a">
      <path fill="#fff" d="M0 0h24v24H0z"/>
    </clipPath>
  </defs>
</svg>
