<svg xmlns="http://www.w3.org/2000/svg" width="24" height="24" fill="none" viewBox="0 0 24 24">
  <g clip-path="url(#a)">
    <path fill="#374957" d="M14 18c-.34 0-.679.058-1 .171v-.17a1 1 0 0 1 1.75-.662 1 1 0 1 0 1.5-1.322A3 3 0 0 0 11 18v3a3 3 0 0 0 5.544 1.59 3.054 3.054 0 0 0 .121-3.01A2.942 2.942 0 0 0 14 18Zm.85 3.53A1 1 0 1 1 14 20a.954.954 0 0 1 .866.455 1.068 1.068 0 0 1-.017 1.074ZM21 15a3 3 0 0 0-3 3v3a3 3 0 1 0 6 0v-3a3 3 0 0 0-3-3Zm1 6a1 1 0 0 1-2 0v-3a1 1 0 1 1 2 0v3Zm-10-8H8a1 1 0 1 1 0-2h3V7a1 1 0 1 1 2 0v5a1 1 0 0 1-1 1ZM24 3v3a3 3 0 0 1-3 3h-3a1 1 0 1 1 0-2h2.637A9.991 9.991 0 1 0 8.364 21.318a1 1 0 0 1-.728 1.864A12 12 0 1 1 22 5.374V3a1 1 0 1 1 2 0Z"/>
  </g>
  <defs>
    <clipPath id="a">
      <path fill="#fff" d="M0 0h24v24H0z"/>
    </clipPath>
  </defs>
</svg>
