<svg xmlns="http://www.w3.org/2000/svg" width="24" height="24" fill="none" viewBox="0 0 24 24">
  <g clip-path="url(#a)">
    <path fill="#374957" d="M14 7V.46c.925.35 1.765.891 2.465 1.59l3.484 3.486A6.953 6.953 0 0 1 21.539 8H15a1 1 0 0 1-1-1Zm8 3.485V19a5.006 5.006 0 0 1-5 5H7a5.006 5.006 0 0 1-5-5V5a5.006 5.006 0 0 1 5-5h4.515c.163 0 .324.013.485.024V7a3 3 0 0 0 3 3h6.976c.01.161.024.322.024.485Zm-5.276 3.826a1 1 0 0 0-1.413-.035l-3.6 3.431a1 1 0 0 1-1.456-.04l-1.59-1.414a1 1 0 0 0-1.331 1.494l1.544 1.374a3 3 0 0 0 4.226.017l3.585-3.414a1 1 0 0 0 .035-1.413Z"/>
  </g>
  <defs>
    <clipPath id="a">
      <path fill="#fff" d="M0 0h24v24H0z"/>
    </clipPath>
  </defs>
</svg>
