<svg xmlns="http://www.w3.org/2000/svg" width="24" height="24" fill="none" viewBox="0 0 24 24">
  <g clip-path="url(#a)">
    <path fill="#374957" d="m23.421 16.582-3.291-3.29a1 1 0 1 0-1.413 1.413L21.007 17a9.332 9.332 0 0 1-6.686-2.8.983.983 0 0 0-1.408.08l-.013.02a1 1 0 0 0 .075 1.382A11.175 11.175 0 0 0 21.01 19l-2.293 2.293A1 1 0 1 0 20.13 22.7l3.291-3.29a2 2 0 0 0 0-2.827Z"/>
    <path fill="#374957" d="m21.007 7-2.29 2.29a.916.916 0 0 0-.054.082.993.993 0 0 0 1.467 1.332L21.836 9l1.586-1.585a2 2 0 0 0 .457-2.1 1.968 1.968 0 0 0-.458-.728L20.13 1.3a1 1 0 1 0-1.413 1.413l2.293 2.292c-4.933.012-7.637 2.674-10.089 5.474-2.252-2.542-4.92-5.08-9.434-5.433L1.007 5a1 1 0 0 0-1 1 1.02 1.02 0 0 0 1 1c.071 0 .286.033.286.033 3.896.295 6.132 2.489 8.307 4.966-2.162 2.466-4.383 4.7-8.247 4.96l-.4.021a.995.995 0 0 0 .124 1.985c.156-.006.41-.012.535-.023 5.02-.387 7.743-3.6 10.171-6.409C14.235 9.7 16.551 7.019 21.007 7Z"/>
  </g>
  <defs>
    <clipPath id="a">
      <path fill="#fff" d="M0 0h24v24H0z"/>
    </clipPath>
  </defs>
</svg>
