<svg xmlns="http://www.w3.org/2000/svg" width="24" height="24" fill="none" viewBox="0 0 24 24">
  <g clip-path="url(#a)">
    <path fill="#374957" d="M16 2h-.171A3.006 3.006 0 0 0 13 0h-2a3.006 3.006 0 0 0-2.829 2H8a5.006 5.006 0 0 0-5 5v12a5.006 5.006 0 0 0 5 5h8a5.006 5.006 0 0 0 5-5V7a5.006 5.006 0 0 0-5-5ZM9 7h2V5a1 1 0 0 1 2 0v2h2a1 1 0 1 1 0 2h-2v2a1 1 0 0 1-2 0V9H9a1 1 0 0 1 0-2Zm3 13H8a1 1 0 0 1 0-2h4a1 1 0 0 1 0 2Zm4-4H8a1 1 0 0 1 0-2h8a1 1 0 0 1 0 2Z"/>
  </g>
  <defs>
    <clipPath id="a">
      <path fill="#fff" d="M0 0h24v24H0z"/>
    </clipPath>
  </defs>
</svg>
