<svg xmlns="http://www.w3.org/2000/svg" width="24" height="24" fill="none" viewBox="0 0 24 24">
  <g clip-path="url(#a)">
    <path fill="#374957" d="M20 7V1a1 1 0 0 1 2 0v6a1 1 0 1 1-2 0Zm-3 1a1 1 0 0 0 1-1V1a1 1 0 1 0-2 0v6a1 1 0 0 0 1 1Zm6.094 8.738a510.87 510.87 0 0 0-2.437-1.883 3.1 3.1 0 0 0-4.283.007l-1.9 1.606a12.78 12.78 0 0 1-6.937-6.945l1.6-1.9a3.1 3.1 0 0 0 .005-4.28S7.292.94 7.26.909A3.08 3.08 0 0 0 2.933.862l-1.149 1c-7.721 8.209 12.2 28.139 20.4 20.3l.912-1.05a3.1 3.1 0 0 0-.002-4.373v-.001Z"/>
  </g>
  <defs>
    <clipPath id="a">
      <path fill="#fff" d="M0 0h24v24H0z"/>
    </clipPath>
  </defs>
</svg>
