<svg xmlns="http://www.w3.org/2000/svg" width="24" height="24" fill="none" viewBox="0 0 24 24">
  <g clip-path="url(#a)">
    <path fill="#374957" d="m13.846 17.265-3.262 3.262a5.027 5.027 0 0 1-7.11-7.108l3.262-3.265A1 1 0 0 0 5.32 8.74l-3.26 3.265A7.028 7.028 0 0 0 12 21.941l3.261-3.262a1 1 0 0 0-1.413-1.413h-.003Zm8.098-15.204a6.978 6.978 0 0 0-4.969-2.06 6.982 6.982 0 0 0-4.967 2.056L8.74 5.32a1 1 0 1 0 1.414 1.415l3.265-3.262a5.027 5.027 0 0 1 7.107 7.11l-3.262 3.26a1 1 0 1 0 1.415 1.416l3.262-3.26a7.036 7.036 0 0 0 .002-9.938Z"/>
    <path fill="#374957" d="m14.294 8.293-6 6a1 1 0 1 0 1.414 1.413l6-6a1 1 0 0 0-1.414-1.413Z"/>
  </g>
  <defs>
    <clipPath id="a">
      <path fill="#fff" d="M0 0h24v24H0z"/>
    </clipPath>
  </defs>
</svg>
