<svg xmlns="http://www.w3.org/2000/svg" width="24" height="24" fill="none" viewBox="0 0 24 24">
  <g clip-path="url(#a)">
    <path fill="#374957" d="M23.707 22.293a1.002 1.002 0 0 1 .012 1.426.997.997 0 0 1-1.426-.012l-22-22A1 1 0 0 1 1.707.293l2.87 2.87a7.871 7.871 0 0 1 4.237-2.078 7.985 7.985 0 0 1 8.82 5.54 1.087 1.087 0 0 0 .722.736 7.96 7.96 0 0 1 5.62 8.277 7.38 7.38 0 0 1-2.2 4.729l1.93 1.926ZM3.44 7.663a.81.81 0 0 0-1.38.464c-.039.302-.06.607-.061.912a7.422 7.422 0 0 0 .94 3.609A5.443 5.443 0 0 0 .058 18.3 5.843 5.843 0 0 0 5.683 23h9.1c.654.001 1.307-.052 1.952-.158a.839.839 0 0 0 .462-1.42L3.44 7.662Z"/>
  </g>
  <defs>
    <clipPath id="a">
      <path fill="#fff" d="M0 0h24v24H0z"/>
    </clipPath>
  </defs>
</svg>
