<svg xmlns="http://www.w3.org/2000/svg" width="24" height="24" fill="none" viewBox="0 0 24 24">
  <g clip-path="url(#a)">
    <path fill="#374957" d="M23.925 18.143A5 5 0 0 1 19 24h-3a1 1 0 0 1-1-1v-2.59a8.218 8.218 0 0 1-3 .59 8.221 8.221 0 0 1-3-.6V23a1 1 0 0 1-1 1H5a5 5 0 0 1-4.925-5.856l.3-1.74a2.94 2.94 0 0 1 5.337-1.138C6.976 17.123 9.409 19 12 19c3.13 0 6.214-2.779 7.13-5.376a1.03 1.03 0 0 1 .959-.667l.432.007A1.46 1.46 0 0 0 22 11.5a1.5 1.5 0 0 0-1.23-1.474 1 1 0 0 1-.816-.879 7.96 7.96 0 0 0-4.013-6.107c-.283.886-.66 1.738-1.127 2.541a15.088 15.088 0 0 1-4.956 4.467 1.5 1.5 0 1 1-1.725.84 15.807 15.807 0 0 1-7.257 1.1A1 1 0 0 1 .5 10.135a6.372 6.372 0 0 0 1.319-2.369C3.124 4.673 5.1 0 12 0a9.972 9.972 0 0 1 9.85 8.274A3.5 3.5 0 0 1 24 11.5a3.427 3.427 0 0 1-.854 2.257c.007.026.025.047.03.075l.749 4.312ZM16 11.5a1.499 1.499 0 1 0-2.998 0 1.499 1.499 0 0 0 2.998 0Z"/>
  </g>
  <defs>
    <clipPath id="a">
      <path fill="#fff" d="M0 0h24v24H0z"/>
    </clipPath>
  </defs>
</svg>
