<svg xmlns="http://www.w3.org/2000/svg" width="24" height="24" fill="none" viewBox="0 0 24 24">
  <g clip-path="url(#a)">
    <path fill="#374957" d="M14.181.208a1 1 0 0 0-1.18.983V4.07a8 8 0 1 0 0 15.862v2.879a1 1 0 0 0 1.18.983 11.99 11.99 0 0 0 0-23.586Zm-1.18 13.516V16a1 1 0 1 1-2 0v-2.277a1.983 1.983 0 0 1 0-3.446V7a1 1 0 0 1 2 0v3.277a1.984 1.984 0 0 1 0 3.446ZM2.985 4.969a1 1 0 1 1-.373 1.965 1 1 0 0 1 .373-1.965Zm-1.6 3.987a1 1 0 1 1-.003 0h.003Zm8.742 12.868a1 1 0 1 1-.003 0h.003ZM6.008 1.9a1 1 0 1 1-.373 1.965A1 1 0 0 1 6.008 1.9ZM10.182.21a1 1 0 1 1-.407 1.957A1 1 0 0 1 10.182.21ZM.234 14.047a1 1 0 1 1 1.965.373 1 1 0 0 1-1.965-.373Zm1.681 3.963a1 1 0 1 1 1.965.373 1 1 0 0 1-1.965-.373ZM4.967 21a1 1 0 1 1 1.965.374 1 1 0 0 1-1.965-.373Z"/>
  </g>
  <defs>
    <clipPath id="a">
      <path fill="#fff" d="M0 0h24v24H0z"/>
    </clipPath>
  </defs>
</svg>
