<svg xmlns="http://www.w3.org/2000/svg" width="24" height="24" fill="none" viewBox="0 0 24 24">
  <g clip-path="url(#a)">
    <path fill="#374957" d="M23.274 6.743 17.328.8a2.58 2.58 0 0 0-3.293-.349 2.501 2.501 0 0 0-.318 3.806l.592.591a.81.81 0 0 1 0 1.142l-2.1 2.1a1.506 1.506 0 0 1-1.43.393l-.82-.21a8.124 8.124 0 0 0-2.9-.219A3.368 3.368 0 0 0 4.22 10.31a3.509 3.509 0 0 0 .817 3.682L6.784 15.8l-6.49 6.493a1 1 0 1 0 1.413 1.414l6.467-6.467 1.25 1.294A4.675 4.675 0 0 0 12.675 20c.4 0 .796-.067 1.172-.2a3.143 3.143 0 0 0 2.106-2.7 8.093 8.093 0 0 0-.214-2.874l-.212-1.026a1.507 1.507 0 0 1 .4-1.414l2.09-2.086a.93.93 0 0 1 .592-.244.728.728 0 0 1 .52.217l.506.506a2.575 2.575 0 0 0 3.32.374 2.5 2.5 0 0 0 .32-3.806v-.004Z"/>
  </g>
  <defs>
    <clipPath id="a">
      <path fill="#fff" d="M0 0h24v24H0z"/>
    </clipPath>
  </defs>
</svg>
