<svg xmlns="http://www.w3.org/2000/svg" width="24" height="24" fill="none" viewBox="0 0 24 24">
  <g clip-path="url(#a)">
    <path fill="#374957" d="M14.762 11.587a5.5 5.5 0 0 1-1.762.636v11.65a4.919 4.919 0 0 0 1.5-.556l6.027-3.48a5.014 5.014 0 0 0 2.5-4.33v-6.96a4.957 4.957 0 0 0-.265-1.57l-8 4.61Zm-4.52-1.73a3.53 3.53 0 0 0 3.52 0l8.001-4.61a4.985 4.985 0 0 0-1.238-1.027L14.5.737a5.015 5.015 0 0 0-5 0l-6.027 3.48a4.974 4.974 0 0 0-1.2.983l7.969 4.657ZM11 12.223a5.493 5.493 0 0 1-1.763-.636l-7.98-4.664a4.956 4.956 0 0 0-.284 1.624v6.96a5.016 5.016 0 0 0 2.5 4.331l6.027 3.48a4.92 4.92 0 0 0 1.5.556v-11.65Z"/>
  </g>
  <defs>
    <clipPath id="a">
      <path fill="#fff" d="M0 0h24v24H0z"/>
    </clipPath>
  </defs>
</svg>
