<svg xmlns="http://www.w3.org/2000/svg" width="24" height="24" fill="none" viewBox="0 0 24 24">
  <g clip-path="url(#a)">
    <path fill="#374957" d="M21.5 2.5a8.578 8.578 0 0 0-12.075 0c-2.377 2.377-3.157 7.909-3.41 11-.07.868.135 1.737.585 2.483l-3.8 3.8a1.5 1.5 0 1 0-.649 2.063 1.5 1.5 0 1 0 2.063-.649l3.8-3.8a4.136 4.136 0 0 0 2.484.592c3.086-.253 8.617-1.032 11-3.41A8.577 8.577 0 0 0 21.5 2.5Z"/>
  </g>
  <defs>
    <clipPath id="a">
      <path fill="#fff" d="M0 0h24v24H0z"/>
    </clipPath>
  </defs>
</svg>
