<svg xmlns="http://www.w3.org/2000/svg" width="24" height="24" fill="none" viewBox="0 0 24 24">
  <g clip-path="url(#a)">
    <path fill="#374957" d="M23 11a1 1 0 0 1-1-1 8.008 8.008 0 0 0-8-8 1 1 0 1 1 0-2 10.011 10.011 0 0 1 10 10 1 1 0 0 1-1 1Zm-3-1a6 6 0 0 0-6-6 1 1 0 1 0 0 2 4 4 0 0 1 4 4 1 1 0 1 0 2 0Zm2.183 12.164.91-1.05a3.1 3.1 0 0 0 0-4.376 565.523 565.523 0 0 0-2.437-1.882 3.1 3.1 0 0 0-4.28.006l-1.907 1.606a12.784 12.784 0 0 1-6.932-6.944l1.6-1.9a3.1 3.1 0 0 0 .007-4.282S7.291.939 7.26.908A3.082 3.082 0 0 0 2.934.862l-1.15 1C-5.01 9.744 9.62 24.26 17.762 24a6.157 6.157 0 0 0 4.421-1.836Z"/>
  </g>
  <defs>
    <clipPath id="a">
      <path fill="#fff" d="M0 0h24v24H0z"/>
    </clipPath>
  </defs>
</svg>
