<svg xmlns="http://www.w3.org/2000/svg" width="24" height="24" fill="none" viewBox="0 0 24 24">
  <g clip-path="url(#a)">
    <path fill="#374957" d="M10 6h13a1 1 0 1 0 0-2H10a1 1 0 0 0 0 2Zm13 5H10a1 1 0 1 0 0 2h13a1 1 0 0 0 0-2Zm0 7H10a1 1 0 0 0 0 2h13a1 1 0 1 0 0-2ZM6.087 6a.5.5 0 0 0 .353-.854L4 2.707a1 1 0 0 0-1.414 0l-2.44 2.44A.5.5 0 0 0 .5 6h1.794v12H.5a.5.5 0 0 0-.354.854l2.44 2.44a1 1 0 0 0 1.414 0l2.44-2.44A.5.5 0 0 0 6.087 18H4.294V6h1.793Z"/>
  </g>
  <defs>
    <clipPath id="a">
      <path fill="#fff" d="M0 0h24v24H0z"/>
    </clipPath>
  </defs>
</svg>
