<svg xmlns="http://www.w3.org/2000/svg" width="24" height="24" fill="none" viewBox="0 0 24 24">
  <path fill="#374957" d="M1.607 18a3 3 0 0 0 4.097 1.102l.003-.002.445-.257A8.98 8.98 0 0 0 9 20.487V21a3 3 0 0 0 6 0v-.513a8.978 8.978 0 0 0 2.848-1.646l.447.258a3.002 3.002 0 0 0 3-5.2l-.444-.256c.2-1.088.2-2.203 0-3.29l.444-.256a3.002 3.002 0 0 0-3-5.2l-.445.257A8.979 8.979 0 0 0 15 3.513V3a3 3 0 0 0-6 0v.513a8.976 8.976 0 0 0-2.848 1.646L5.705 4.9a3.002 3.002 0 1 0-3 5.2l.444.256a9.1 9.1 0 0 0 0 3.29l-.444.256A3.006 3.006 0 0 0 1.607 18ZM12 8a4 4 0 1 1 0 8 4 4 0 0 1 0-8Z"/>
</svg>
