<svg xmlns="http://www.w3.org/2000/svg" width="24" height="24" fill="none" viewBox="0 0 24 24">
  <g clip-path="url(#a)">
    <path fill="#374957" d="M13 0C6.935 0 2 4.037 2 9a7.544 7.544 0 0 0 .685 3.107 2.94 2.94 0 0 0-.435 3.072A6.976 6.976 0 0 0 0 20a3.888 3.888 0 0 0 4 4 1 1 0 1 0 .008-2A1.886 1.886 0 0 1 2 20a5.04 5.04 0 0 1 1.683-3.426 10.81 10.81 0 0 0 3.43.435c.3 0 .577-.007.843-.016A13.049 13.049 0 0 0 13 18c6.065 0 11-4.037 11-9s-4.935-9-11-9Zm0 16c-1.334 0-2.658-.242-3.907-.712A14.454 14.454 0 0 0 7.1 11.876a3.042 3.042 0 0 0-2.69-.795A5.535 5.535 0 0 1 4 9c0-3.859 4.037-7 9-7s9 3.141 9 7-4.037 7-9 7Z"/>
  </g>
  <defs>
    <clipPath id="a">
      <path fill="#fff" d="M0 0h24v24H0z"/>
    </clipPath>
  </defs>
</svg>
