<svg xmlns="http://www.w3.org/2000/svg" width="24" height="24" fill="none" viewBox="0 0 24 24">
  <g clip-path="url(#a)">
    <path fill="#374957" d="M12 6c6.841 0 12 2.579 12 6a12 12 0 0 0-24 0c0-3.421 5.159-6 12-6Z"/>
    <path fill="#374957" d="M12 16c5.523 0 10-1.79 10-4 0-2.209-4.477-4-10-4S2 9.792 2 12c0 2.21 4.477 4 10 4Z"/>
    <path fill="#374957" d="M12 18c-6.841 0-12-2.579-12-6a12 12 0 0 0 24 0c0 3.421-5.159 6-12 6Z"/>
  </g>
  <defs>
    <clipPath id="a">
      <path fill="#fff" d="M0 0h24v24H0z"/>
    </clipPath>
  </defs>
</svg>
