<svg xmlns="http://www.w3.org/2000/svg" width="24" height="24" fill="none" viewBox="0 0 24 24">
  <g clip-path="url(#a)">
    <path fill="#374957" d="M11.994 10H2.362l-.306-2.444A3.021 3.021 0 0 1 5 4h7.66l-.666 6Zm1 9.11a1 1 0 1 1-1.988-.22l.766-6.89h-9.16l.956 7.622A5.008 5.008 0 0 0 8.528 24h6.942a5.01 5.01 0 0 0 4.962-4.379L21.384 12h-7.6l-.79 7.11Zm8.64-9.11.293-2.347A3 3 0 0 0 19 4h-4.327l-.666 6h7.627ZM14.8 2.89a1 1 0 0 1 .99-.89H20a1 1 0 1 0 0-2h-4.21a3 3 0 0 0-2.981 2.669L12.66 4h2.012l.127-1.11Z"/>
  </g>
  <defs>
    <clipPath id="a">
      <path fill="#fff" d="M0 0h24v24H0z"/>
    </clipPath>
  </defs>
</svg>
