<svg xmlns="http://www.w3.org/2000/svg" width="24" height="24" fill="none" viewBox="0 0 24 24">
  <g clip-path="url(#a)">
    <path fill="#374957" d="M23 5h-2.586l2.293-2.293a1 1 0 0 0-1.414-1.414L19 3.586V1a1 1 0 0 0-2 0v4.456a10.14 10.14 0 0 0-2.854-2.126A3.754 3.754 0 0 0 9.76 4.345l2.948 2.948a1 1 0 0 1-1.414 1.414L8.521 5.936C7.384 7.605 5.861 10.2 4.334 12.92l2.373 2.373a1 1 0 0 1-1.414 1.414l-1.97-1.971A434.819 434.819 0 0 0 .3 20.319 2.511 2.511 0 0 0 3.681 23.7c2.825-1.5 6.762-3.633 10.055-5.55l-2.443-2.443a1 1 0 0 1 1.414-1.414l2.805 2.807a27.061 27.061 0 0 0 4.11-2.821 3.766 3.766 0 0 0 1.05-4.422A10.168 10.168 0 0 0 18.543 7H23a1 1 0 1 0 0-2Z"/>
  </g>
  <defs>
    <clipPath id="a">
      <path fill="#fff" d="M0 0h24v24H0z"/>
    </clipPath>
  </defs>
</svg>
