<svg xmlns="http://www.w3.org/2000/svg" width="24" height="24" fill="none" viewBox="0 0 24 24">
  <g clip-path="url(#a)">
    <path fill="#374957" d="M12 9a4 4 0 0 0-2.829 6.83l2.287 2.235a.78.78 0 0 0 1.083 0l2.3-2.244A4 4 0 0 0 12 9.001Zm0 4.992a1 1 0 1 1 0-2 1 1 0 0 1 0 2Zm9.8-8.413-7-4.724a4.98 4.98 0 0 0-5.6 0l-7 4.724A5 5 0 0 0 0 9.724V19a5.006 5.006 0 0 0 5 5h14a5.006 5.006 0 0 0 5-5V9.724a5 5 0 0 0-2.2-4.145Zm-5.557 11.664L13.94 19.5a2.79 2.79 0 0 1-3.88 0l-2.3-2.245a6 6 0 0 1 8.478-8.493 6.008 6.008 0 0 1 .005 8.481Z"/>
  </g>
  <defs>
    <clipPath id="a">
      <path fill="#fff" d="M0 0h24v24H0z"/>
    </clipPath>
  </defs>
</svg>
