<svg xmlns="http://www.w3.org/2000/svg" width="24" height="24" fill="none" viewBox="0 0 24 24">
  <g clip-path="url(#a)">
    <path fill="#374957" d="M12.3 10.178c.104.232.225.457.363.67l10.862-2.16A11.962 11.962 0 0 0 8.216.62l4.084 9.557Z"/>
    <path fill="#374957" d="M12.631 13.742a7.007 7.007 0 0 1-2.169-2.773L6.377 1.406a11.991 11.991 0 1 0 14.512 18.626l-8.258-6.29Z"/>
    <path fill="#374957" d="m14.365 12.549 7.741 5.9A11.916 11.916 0 0 0 24 11.999a12.055 12.055 0 0 0-.08-1.35l-9.555 1.9Z"/>
  </g>
  <defs>
    <clipPath id="a">
      <path fill="#fff" d="M0 0h24v24H0z"/>
    </clipPath>
  </defs>
</svg>
