<svg xmlns="http://www.w3.org/2000/svg" width="24" height="24" fill="none" viewBox="0 0 24 24">
  <g clip-path="url(#a)">
    <path fill="#374957" d="M24 4.5a1 1 0 0 1-2 0A2.59 2.59 0 0 0 19.215 2a1 1 0 1 1 0-2A4.6 4.6 0 0 1 24 4.5Zm-22 0A2.59 2.59 0 0 1 4.785 2a1 1 0 0 0 0-2A4.6 4.6 0 0 0 0 4.5a1 1 0 0 0 2 0Zm18.32 15.676A10.98 10.98 0 0 0 13 2.051V1a1 1 0 0 0-2 0v1.051a10.98 10.98 0 0 0-7.319 18.125A3.024 3.024 0 0 0 2 23a1 1 0 1 0 2 0 1.2 1.2 0 0 1 1.11-1.229.933.933 0 0 0 .2-.062 10.924 10.924 0 0 0 13.39 0c.059.027.12.048.182.064A1.2 1.2 0 0 1 20 23a1 1 0 1 0 2 0 3.025 3.025 0 0 0-1.68-2.824Zm-4.613-4.469a1 1 0 0 1-1.414 0l-3-3A1 1 0 0 1 11 12V7a1 1 0 1 1 2 0v4.586l2.707 2.707a1 1 0 0 1 0 1.414Z"/>
  </g>
  <defs>
    <clipPath id="a">
      <path fill="#fff" d="M0 0h24v24H0z"/>
    </clipPath>
  </defs>
</svg>
