<svg xmlns="http://www.w3.org/2000/svg" width="24" height="24" fill="none" viewBox="0 0 24 24">
  <g clip-path="url(#a)">
    <path fill="#374957" d="M24 11.983a3.993 3.993 0 0 0-2.607-3.735l-.038-.09a10.07 10.07 0 0 0-5.294-5.42l-.329-.144a3.98 3.98 0 0 0-7.462 0l-.418.188a10.19 10.19 0 0 0-5.235 5.463 3.98 3.98 0 0 0-.03 7.468l.128.3a10.1 10.1 0 0 0 5.162 5.228l.393.176a3.982 3.982 0 0 0 7.46 0l.367-.163a10.193 10.193 0 0 0 5.31-5.534A4 4 0 0 0 24 11.983Zm-8.107 7.131a3.99 3.99 0 0 0-7.787 0 8.093 8.093 0 0 1-3.23-3.234A3.99 3.99 0 0 0 4.9 8.1a8.19 8.19 0 0 1 3.206-3.2 3.991 3.991 0 0 0 7.785 0 8.225 8.225 0 0 1 3.21 3.193 3.991 3.991 0 0 0 .014 7.785 8.208 8.208 0 0 1-3.222 3.236Z"/>
  </g>
  <defs>
    <clipPath id="a">
      <path fill="#fff" d="M0 0h24v24H0z"/>
    </clipPath>
  </defs>
</svg>
