<svg xmlns="http://www.w3.org/2000/svg" width="24" height="24" fill="none" viewBox="0 0 24 24">
  <g clip-path="url(#a)">
    <path fill="#374957" d="M18 6c-2.972 0-4.943 2.227-6 3.882C10.943 8.227 8.972 6 6 6a6 6 0 1 0 0 12c2.972 0 4.943-2.227 6-3.882C13.057 15.773 15.028 18 18 18a6 6 0 1 0 0-12ZM6 16a4 4 0 1 1 0-8c2.693 0 4.382 2.945 4.9 4-.514 1.06-2.192 4-4.9 4Zm12 0c-2.693 0-4.382-2.945-4.9-4 .515-1.058 2.193-4 4.9-4a4 4 0 1 1 0 8Z"/>
  </g>
  <defs>
    <clipPath id="a">
      <path fill="#fff" d="M0 0h24v24H0z"/>
    </clipPath>
  </defs>
</svg>
