<svg xmlns="http://www.w3.org/2000/svg" width="24" height="24" fill="none" viewBox="0 0 24 24">
  <g clip-path="url(#a)">
    <path fill="#374957" d="M19.051 0h-14a5.006 5.006 0 0 0-5 5v14a5.006 5.006 0 0 0 5 5h14a5.006 5.006 0 0 0 5-5V5a5.006 5.006 0 0 0-5-5Zm1 11h2v2h-2v-2Zm0-2V7h2v2h-2Zm-16 4h-2v-2h2v2Zm1.95 0v-2h12v2H6ZM4.05 9h-2V7h2v2Zm-2 6h2v2h-2v-2Zm18 0h2v2h-2v-2Zm2-10h-2V2.184a3 3 0 0 1 2 2.816Zm-18-2.816V5h-2a3 3 0 0 1 2-2.816ZM2.051 19h2v2.816a3 3 0 0 1-2-2.816Zm18 2.816V19h2a3 3 0 0 1-2 2.816Z"/>
  </g>
  <defs>
    <clipPath id="a">
      <path fill="#fff" d="M0 0h24v24H0z"/>
    </clipPath>
  </defs>
</svg>
