<svg xmlns="http://www.w3.org/2000/svg" width="24" height="24" fill="none" viewBox="0 0 24 24">
  <g clip-path="url(#a)">
    <path fill="#374957" d="M23 16a1 1 0 0 1-.446-.105l-2-1a1 1 0 1 1 .894-1.79l2 1A1 1 0 0 1 23 16Zm-1.553-9.1 2-1a1 1 0 1 0-.894-1.79l-2 1a1 1 0 1 0 .894 1.79ZM24 10a1 1 0 0 0-1-1h-2a1 1 0 1 0 0 2h2a1 1 0 0 0 1-1Zm-6 9V1a1 1 0 0 0-2 0c0 2.949-2.583 4-5 4H4a4 4 0 0 0-4 4v2a4 4 0 0 0 4 4h7c2.417 0 5 1.051 5 4a1 1 0 0 0 2 0Zm-9.814-2H4a6.002 6.002 0 0 1-1.382-.167l2.5 5.582A2.67 2.67 0 0 0 7.558 24 2.46 2.46 0 0 0 9.8 20.528L8.186 17Z"/>
  </g>
  <defs>
    <clipPath id="a">
      <path fill="#fff" d="M0 0h24v24H0z"/>
    </clipPath>
  </defs>
</svg>
