<svg xmlns="http://www.w3.org/2000/svg" width="24" height="24" fill="none" viewBox="0 0 24 24">
  <g clip-path="url(#a)">
    <path fill="#374957" d="M6 9h4a2 2 0 1 0-4 0Z"/>
    <path fill="#374957" d="M8 5c.457.005.91.088 1.339.247l1.954-1.954a1 1 0 1 1 1.414 1.414L11.014 6.4c.632.72.982 1.643.986 2.6h4V5a5.006 5.006 0 0 0-5-5H5a5.006 5.006 0 0 0-5 5v4h4a4 4 0 0 1 4-4Z"/>
    <path fill="#374957" d="M23.681 3.267a1 1 0 0 0-1.414 0L19.293 6.24a1 1 0 0 0-.293.707V18a1 1 0 0 1-1 1h-2v-8H0v8a5.006 5.006 0 0 0 5 5h6a5 5 0 0 0 4.576-3H18a3 3 0 0 0 3-3V7.36l2.681-2.68a1 1 0 0 0 0-1.413Z"/>
  </g>
  <defs>
    <clipPath id="a">
      <path fill="#fff" d="M0 0h24v24H0z"/>
    </clipPath>
  </defs>
</svg>
