<svg xmlns="http://www.w3.org/2000/svg" width="24" height="24" fill="none" viewBox="0 0 24 24">
  <g clip-path="url(#a)">
    <path fill="#374957" d="m14.28 13.456 9.139-9.138c.76-.758.889-2.249-.425-3.063-1.125-.553-1.994-.082-2.4.39l-8.767 9.712a5.006 5.006 0 0 1 2.454 2.099ZM5 19h5a3 3 0 0 0 0-6c-4 0-5 6-5 6Z"/>
    <path fill="#374957" d="M16 19a3 3 0 0 1 3-3h5V6.565l-9.04 9.04c.011.133.04.26.04.395a5.006 5.006 0 0 1-5 5H5a2 2 0 0 1-1.973-2.329c.454-2.722 2.308-7.234 6.393-7.632L19.105.313a3.68 3.68 0 0 1 .3-.272C19.269.03 19.139 0 19 0H5a5.006 5.006 0 0 0-5 5v14a5.006 5.006 0 0 0 5 5h11v-5Z"/>
    <path fill="#374957" d="M19 18a1 1 0 0 0-1 1v4.7a4.964 4.964 0 0 0 1.878-1.164l2.658-2.658A4.964 4.964 0 0 0 23.7 18H19Z"/>
  </g>
  <defs>
    <clipPath id="a">
      <path fill="#fff" d="M0 0h24v24H0z"/>
    </clipPath>
  </defs>
</svg>
