<svg xmlns="http://www.w3.org/2000/svg" width="24" height="24" fill="none" viewBox="0 0 24 24">
  <g clip-path="url(#a)">
    <path fill="#374957" d="m23.72 22.305-1.078-1.078L20.91 19.5l2.79-2.79a1 1 0 0 0-.365-1.647l-8.974-3.256a2.001 2.001 0 0 0-2.562 2.562l3.265 8.973a1 1 0 0 0 1.647.365l2.787-2.795 1.728 1.728 1.077 1.078a1 1 0 0 0 1.415-1.415v.003Z"/>
    <path fill="#374957" d="M10.005 20.01C4.48 20.01 0 15.532 0 10.007 0 4.48 4.48 0 10.005 0 15.531 0 20.01 4.48 20.01 10.006a1 1 0 0 1-2 0 8.004 8.004 0 1 0-8.005 8.004 1 1 0 1 1 0 2Z"/>
    <path fill="#374957" d="M8.088 15.628a1 1 0 0 1-.383-.076 6.003 6.003 0 1 1 7.85-7.838 1 1 0 1 1-1.849.765 4.002 4.002 0 1 0-5.234 5.228 1 1 0 0 1-.384 1.925v-.004Z"/>
  </g>
  <defs>
    <clipPath id="a">
      <path fill="#fff" d="M0 0h24v24H0z"/>
    </clipPath>
  </defs>
</svg>
