<svg xmlns="http://www.w3.org/2000/svg" width="24" height="24" fill="none" viewBox="0 0 24 24">
  <g clip-path="url(#a)">
    <path fill="#374957" d="M20 .01c-3.812 0-8.125 2.038-11.539 5.451A38.467 38.467 0 0 0 .323 17.312a3.975 3.975 0 0 0 .708 4.243L15.293 7.293a1 1 0 1 1 1.414 1.414L2.449 22.965a3.941 3.941 0 0 0 4.236.713 38.33 38.33 0 0 0 11.854-8.139C21.952 12.126 23.99 7.813 23.99 4A3.631 3.631 0 0 0 20 .01Z"/>
  </g>
  <defs>
    <clipPath id="a">
      <path fill="#fff" d="M0 0h24v24H0z"/>
    </clipPath>
  </defs>
</svg>
