<svg xmlns="http://www.w3.org/2000/svg" width="24" height="24" fill="none" viewBox="0 0 24 24">
  <g clip-path="url(#a)">
    <path fill="#374957" d="M24 11a3 3 0 0 0-2.841-2.984 9.918 9.918 0 0 0-5.175-5.175A3 3 0 0 0 13 0h-2a3 3 0 0 0-2.984 2.841A9.921 9.921 0 0 0 2.84 8.016a2.985 2.985 0 0 0-.66 5.856 9.964 9.964 0 0 0 5.333 7.069l-.48 1.8a1 1 0 0 0 1.932.517l.434-1.606a9.928 9.928 0 0 0 5.21 0l.429 1.606a1 1 0 0 0 1.932-.516l-.48-1.8a9.974 9.974 0 0 0 5.333-7.07A2.994 2.994 0 0 0 24 11Zm-12 9a8.023 8.023 0 0 1-2.09-.28l1.7-6.364a.407.407 0 0 1 .787 0l1.7 6.364A8.033 8.033 0 0 1 12 20Zm3.955-1.049-1.63-6.11A2.38 2.38 0 0 0 12 11.054a2.38 2.38 0 0 0-2.326 1.787l-1.63 6.11A7.962 7.962 0 0 1 4.26 14H5a3 3 0 0 0 .08-5.992 8.1 8.1 0 0 1 3.508-3.241A2.99 2.99 0 0 0 11 6h2a2.988 2.988 0 0 0 2.412-1.233 8.094 8.094 0 0 1 3.506 3.241A3 3 0 0 0 19 14h.74a7.97 7.97 0 0 1-3.785 4.951Z"/>
  </g>
  <defs>
    <clipPath id="a">
      <path fill="#fff" d="M0 0h24v24H0z"/>
    </clipPath>
  </defs>
</svg>
