<svg xmlns="http://www.w3.org/2000/svg" width="24" height="24" fill="none" viewBox="0 0 24 24">
  <g clip-path="url(#a)">
    <path fill="#374957" d="M12 16a2 2 0 1 0 0-4 2 2 0 0 0 0 4Z"/>
    <path fill="#374957" d="m22.536 4.122-2.658-2.658A4.99 4.99 0 0 0 19 .775V3a5.006 5.006 0 0 1-5 5h-4a5.006 5.006 0 0 1-5-5V0a5.006 5.006 0 0 0-5 5v14a5.006 5.006 0 0 0 5 5h14a5.006 5.006 0 0 0 5-5V7.657a4.966 4.966 0 0 0-1.464-3.535ZM12 18a4 4 0 1 1 0-8 4 4 0 0 1 0 8Z"/>
    <path fill="#374957" d="M10 6h4a3 3 0 0 0 3-3V.064A5.12 5.12 0 0 0 16.343 0H7v3a3 3 0 0 0 3 3Z"/>
  </g>
  <defs>
    <clipPath id="a">
      <path fill="#fff" d="M0 0h24v24H0z"/>
    </clipPath>
  </defs>
</svg>
