<svg xmlns="http://www.w3.org/2000/svg" width="24" height="24" fill="none" viewBox="0 0 24 24">
  <path fill="#374957" d="M7.39 3.068a5.023 5.023 0 0 1 9.22 0A6.5 6.5 0 0 0 12 6.051a6.515 6.515 0 0 0-4.61-2.983ZM11 9.5c-.246-6.289-9.467-5.743-8.965.524 2.872.548 5.783.861 8.706.937.168-.469.255-.963.259-1.46ZM17.5 5a4.5 4.5 0 0 0-4.24 5.964 52.567 52.567 0 0 0 8.705-.934A4.504 4.504 0 0 0 17.5 5ZM2.736 12.19c.014.03 6.283 10.143 6.283 10.143a3.522 3.522 0 0 0 5.96 0S21.248 12.224 21.26 12.2A54.996 54.996 0 0 1 12 13a55.481 55.481 0 0 1-9.264-.81Z"/>
</svg>
