<svg xmlns="http://www.w3.org/2000/svg" width="24" height="24" fill="none" viewBox="0 0 24 24">
  <g clip-path="url(#a)">
    <path fill="#374957" d="M20.732 4.792c.407.143.836.214 1.268.208a1 1 0 1 0 0-2c-.785 0-1-.215-1-1a1 1 0 0 0-2 0c-.006.487.09.97.28 1.417l-.706.784A10.923 10.923 0 0 0 13 2.051V1a1 1 0 0 0-2 0v1.051A10.923 10.923 0 0 0 5.426 4.2l-.706-.783c.19-.448.286-.93.28-1.417a1 1 0 0 0-2 0c0 .785-.215 1-1 1a1 1 0 0 0 0 2c.432.006.86-.065 1.268-.208l.672.747a11 11 0 1 0 16.12 0l.672-.747ZM12 15a1.994 1.994 0 0 1-1-3.723V7a1 1 0 0 1 2 0v4.277A1.994 1.994 0 0 1 12 15Z"/>
  </g>
  <defs>
    <clipPath id="a">
      <path fill="#fff" d="M0 0h24v24H0z"/>
    </clipPath>
  </defs>
</svg>
