<svg xmlns="http://www.w3.org/2000/svg" width="24" height="24" fill="none" viewBox="0 0 24 24">
  <g clip-path="url(#a)">
    <path fill="#374957" d="M19 4H5a5.006 5.006 0 0 0-5 5v6a5.006 5.006 0 0 0 5 5h14a5.006 5.006 0 0 0 5-5V9a5.006 5.006 0 0 0-5-5ZM4 17a1 1 0 1 1 0-2 1 1 0 0 1 0 2Zm0-8a1 1 0 1 1 0-2 1 1 0 0 1 0 2Zm8 7a4 4 0 1 1 0-8 4 4 0 0 1 0 8Zm8 1a1 1 0 1 1 0-2 1 1 0 0 1 0 2Zm0-8a1 1 0 1 1 0-2 1 1 0 0 1 0 2Zm-6 3a2 2 0 1 1-4 0 2 2 0 0 1 4 0Z"/>
  </g>
  <defs>
    <clipPath id="a">
      <path fill="#fff" d="M0 0h24v24H0z"/>
    </clipPath>
  </defs>
</svg>
