<svg xmlns="http://www.w3.org/2000/svg" width="24" height="24" fill="none" viewBox="0 0 24 24">
  <g clip-path="url(#a)">
    <path fill="#374957" d="M11.832 24a1.5 1.5 0 0 1-1.06-2.561l7.671-7.671a2.502 2.502 0 0 0 0-3.536l-7.672-7.671A1.5 1.5 0 0 1 12.893.439l7.671 7.672a5.5 5.5 0 0 1 0 7.778l-7.67 7.672a1.5 1.5 0 0 1-1.062.439Z"/>
    <path fill="#374957" d="M2.287 24a1.5 1.5 0 0 1-1.06-2.561l9.085-9.085a.498.498 0 0 0 0-.708L1.227 2.561A1.5 1.5 0 0 1 3.348.439l9.086 9.086a3.507 3.507 0 0 1 0 4.949l-9.086 9.087a1.5 1.5 0 0 1-1.06.439Z"/>
  </g>
  <defs>
    <clipPath id="a">
      <path fill="#fff" d="M0 0h24v24H0z"/>
    </clipPath>
  </defs>
</svg>
