<svg xmlns="http://www.w3.org/2000/svg" width="24" height="24" fill="none" viewBox="0 0 24 24">
  <g clip-path="url(#a)">
    <path fill="#374957" d="M12 9a1 1 0 1 1 2 0 1 1 0 0 1-2 0Zm11-4v14a5.006 5.006 0 0 1-5 5H8a5 5 0 0 1-4.576-3H2a1 1 0 0 1 0-2h1v-2H2a1 1 0 0 1 0-2h1v-2H2a1 1 0 0 1 0-2h1V9H2a1 1 0 0 1 0-2h1V5H2a1 1 0 0 1 0-2h1.424A5 5 0 0 1 8 0h10a5.006 5.006 0 0 1 5 5ZM10 9a3 3 0 1 0 6 0 3 3 0 0 0-6 0Zm8 9c-.21-6.608-9.79-6.606-10 0a1 1 0 1 0 2 0 3 3 0 0 1 6 0 1 1 0 0 0 2 0Z"/>
  </g>
  <defs>
    <clipPath id="a">
      <path fill="#fff" d="M0 0h24v24H0z"/>
    </clipPath>
  </defs>
</svg>
