<svg xmlns="http://www.w3.org/2000/svg" width="24" height="24" fill="none" viewBox="0 0 24 24">
  <g clip-path="url(#a)">
    <path fill="#374957" d="M24 13.5a2.499 2.499 0 0 1-2.5 2.5h-4.036l-4.226 6.487A2.973 2.973 0 0 1 10.633 24a2.63 2.63 0 0 1-2.462-3.553L10.02 16H6a4 4 0 0 1-3.473-2.015L.2 10.16a1.443 1.443 0 0 1 .525-2 1.412 1.412 0 0 1 1.652.25l1.417 1.418A4 4 0 0 0 6.622 11H21.5a2.5 2.5 0 0 1 2.5 2.5ZM17.731 9l-4.5-7.487A2.972 2.972 0 0 0 10.63 0a2.63 2.63 0 0 0-2.462 3.553L10.285 9h7.446Z"/>
  </g>
  <defs>
    <clipPath id="a">
      <path fill="#fff" d="M0 0h24v24H0z"/>
    </clipPath>
  </defs>
</svg>
