<svg xmlns="http://www.w3.org/2000/svg" width="24" height="24" fill="none" viewBox="0 0 24 24">
  <g clip-path="url(#a)">
    <path fill="#374957" d="M14.997 3.847c.006.406.253.77.629.925a8.995 8.995 0 0 1 5.367 8.512 8.996 8.996 0 0 1-17.99-.291 8.995 8.995 0 0 1 5.369-8.22A1.02 1.02 0 0 0 9 3.846a1 1 0 0 0-1.373-.928C2.057 5.333-.5 11.806 1.914 17.377c2.415 5.57 8.888 8.129 14.459 5.713 5.57-2.415 8.129-8.888 5.713-14.459a10.994 10.994 0 0 0-5.713-5.713 1 1 0 0 0-1.376.929Z"/>
    <path fill="#374957" d="M11.999 0a1 1 0 0 1 .999 1v5.996a1 1 0 1 1-1.999 0V.999A1 1 0 0 1 12 0Z"/>
  </g>
  <defs>
    <clipPath id="a">
      <path fill="#fff" d="M0 0h24v24H0z"/>
    </clipPath>
  </defs>
</svg>
