<svg xmlns="http://www.w3.org/2000/svg" width="24" height="24" fill="none" viewBox="0 0 24 24">
  <g clip-path="url(#a)">
    <path fill="#374957" d="M16.424 21.974a4.944 4.944 0 0 1-5.176 1.874A15.858 15.858 0 0 1 .153 12.753a4.937 4.937 0 0 1 1.874-5.169 14.429 14.429 0 0 0 14.397 14.39Zm7.408-18.3L17.4 20H17A12.575 12.575 0 0 1 4 7v-.4L20.3.178a2.749 2.749 0 0 1 3.532 3.495v.001ZM12 10a2 2 0 1 0-4 0 2 2 0 0 0 4 0Zm6.122 2.716 2.554-6.486c-4.26-1.492-6.618 4.676-2.554 6.486Z"/>
  </g>
  <defs>
    <clipPath id="a">
      <path fill="#fff" d="M0 0h24v24H0z"/>
    </clipPath>
  </defs>
</svg>
