<svg xmlns="http://www.w3.org/2000/svg" width="24" height="24" fill="none" viewBox="0 0 24 24">
  <g clip-path="url(#a)">
    <path fill="#374957" d="M18.581 2.14 12.316.053a1 1 0 0 0-.632 0L5.418 2.14A4.993 4.993 0 0 0 2 6.884V12c0 7.563 9.2 11.74 9.594 11.914a1 1 0 0 0 .812 0C12.8 23.74 22 19.564 22 12V6.884a4.993 4.993 0 0 0-3.419-4.743ZM12.001 19a1 1 0 1 1 0-1.998A1 1 0 0 1 12 19Zm1-5a1 1 0 1 1-2 0V6a1 1 0 0 1 2 0v8Z"/>
  </g>
  <defs>
    <clipPath id="a">
      <path fill="#fff" d="M0 0h24v24H0z"/>
    </clipPath>
  </defs>
</svg>
