<svg xmlns="http://www.w3.org/2000/svg" width="24" height="24" fill="none" viewBox="0 0 24 24">
  <g clip-path="url(#a)">
    <path fill="#374957" d="M3 5V4a4 4 0 0 1 4-4h1.47a3 3 0 0 1 1.7.528l1.885 1.3a1 1 0 0 0 .566.172H17a4 4 0 0 1 3.858 3H3Zm20 15h-8.184A3 3 0 0 0 13 18.184V15h4a4 4 0 0 0 4-4V7H3v4a4 4 0 0 0 4 4h4v3.184A3 3 0 0 0 9.184 20H1a1 1 0 0 0 0 2h8.184a2.983 2.983 0 0 0 5.632 0H23a1 1 0 0 0 0-2Z"/>
  </g>
  <defs>
    <clipPath id="a">
      <path fill="#fff" d="M0 0h24v24H0z"/>
    </clipPath>
  </defs>
</svg>
