<svg xmlns="http://www.w3.org/2000/svg" width="24" height="24" fill="none" viewBox="0 0 24 24">
  <g clip-path="url(#a)">
    <path fill="#374957" d="M16 23a1 1 0 1 1 2 0 1 1 0 0 1-2 0Zm4.535-2.123a1 1 0 0 0 0-1.414 5 5 0 0 0-7.07 0 1 1 0 0 0 1.414 1.414 3.074 3.074 0 0 1 4.242 0 1 1 0 0 0 1.414 0Zm2.829-2.828a1 1 0 0 0 0-1.414 9.01 9.01 0 0 0-12.728 0 1 1 0 0 0 1.414 1.414 7.011 7.011 0 0 1 9.9 0 1 1 0 0 0 1.414 0ZM9.222 19.463a3 3 0 0 1 0-4.243 11.014 11.014 0 0 1 14.757-.72 7.945 7.945 0 0 0-5.622-7.14 1.087 1.087 0 0 1-.722-.734 8 8 0 0 0-15.49.842 7.648 7.648 0 0 0 .8 5.18 5.447 5.447 0 0 0-2.888 5.651A5.844 5.844 0 0 0 5.683 23h7.1a2588.548 2588.548 0 0 1-3.561-3.536Z"/>
  </g>
  <defs>
    <clipPath id="a">
      <path fill="#fff" d="M0 0h24v24H0z"/>
    </clipPath>
  </defs>
</svg>
