<svg xmlns="http://www.w3.org/2000/svg" width="24" height="24" fill="none" viewBox="0 0 24 24">
  <g clip-path="url(#a)">
    <path fill="#374957" d="M8.164 8a2.49 2.49 0 0 1-1.58-.594 4.832 4.832 0 0 1-1.556-3.261C4.785 1.65 6.145.18 7.614.017A2.651 2.651 0 0 1 9.6.61a4.176 4.176 0 0 1 1.376 2.9C11.2 5.834 9.962 8 8.164 8Zm-5.311 6a2.118 2.118 0 0 1-1.423-.594 5.041 5.041 0 0 1-1.4-3.261C-.19 7.65 1.036 6.18 2.36 6.017a2.234 2.234 0 0 1 1.787.594 4.364 4.364 0 0 1 1.24 2.9C5.59 11.834 4.36 14 2.854 14Zm12.983-6c-1.81 0-3.034-2.166-2.807-4.492a4.176 4.176 0 0 1 1.376-2.9 2.655 2.655 0 0 1 1.98-.591c1.47.164 2.83 1.634 2.587 4.128a4.835 4.835 0 0 1-1.557 3.262 2.5 2.5 0 0 1-1.58.593Zm5.217 6c-1.886 0-2.827-2.166-2.615-4.492a4.3 4.3 0 0 1 1.28-2.9 2.351 2.351 0 0 1 1.847-.594c1.368.164 2.635 1.634 2.409 4.128a4.976 4.976 0 0 1-1.451 3.262 2.23 2.23 0 0 1-1.47.596ZM16 24a4.866 4.866 0 0 1-2.447-.605 3.331 3.331 0 0 0-3.106 0C7.434 25.082 3.922 23.227 4 19c0-4.636 4.507-9 8-9 3.493 0 8 4.364 8 9 0 2.944-1.645 5-4 5Z"/>
  </g>
  <defs>
    <clipPath id="a">
      <path fill="#fff" d="M0 0h24v24H0z"/>
    </clipPath>
  </defs>
</svg>
