<svg xmlns="http://www.w3.org/2000/svg" width="24" height="24" fill="none" viewBox="0 0 24 24">
  <g clip-path="url(#a)">
    <path fill="#374957" d="m20.057 16.8.1.1a1.912 1.912 0 0 0 1.769.52 1.887 1.887 0 0 0 1.377-1.176 11.93 11.93 0 0 0 .777-4.544A12.155 12.155 0 0 0 12.5.007 12 12 0 0 0 .083 12a12.014 12.014 0 0 0 12 12c.338 0 .67-.022 1-.05a1 1 0 0 0 .916-1l-.032-3.588a3.566 3.566 0 0 1 6.09-2.562Zm-2.942-8.75a1.5 1.5 0 1 1 .77 2.9 1.5 1.5 0 0 1-.77-2.9Zm-9.23 8.9a1.5 1.5 0 1 1-.77-2.9 1.5 1.5 0 0 1 .77 2.9Zm0-6a1.5 1.5 0 1 1-.77-2.9 1.5 1.5 0 0 1 .77 2.9Zm5-3a1.5 1.5 0 1 1-.77-2.9 1.5 1.5 0 0 1 .77 2.9Z"/>
  </g>
  <defs>
    <clipPath id="a">
      <path fill="#fff" d="M0 0h24v24H0z"/>
    </clipPath>
  </defs>
</svg>
