<svg xmlns="http://www.w3.org/2000/svg" width="24" height="24" fill="none" viewBox="0 0 24 24">
  <g clip-path="url(#a)">
    <path fill="#374957" d="m23.924 18.134-2.464-14A4.992 4.992 0 0 0 16.536 0H7.451a4.992 4.992 0 0 0-4.926 4.138l-2.449 14A5 5 0 0 0 5 24h14a5 5 0 0 0 4.925-5.866ZM13 20a1 1 0 0 1-2 0v-2a1 1 0 1 1 2 0v2Zm0-7a1 1 0 0 1-2 0v-2a1 1 0 1 1 2 0v2Zm0-7a1 1 0 0 1-2 0V4a1 1 0 1 1 2 0v2Z"/>
  </g>
  <defs>
    <clipPath id="a">
      <path fill="#fff" d="M0 0h24v24H0z"/>
    </clipPath>
  </defs>
</svg>
