<svg xmlns="http://www.w3.org/2000/svg" width="24" height="24" fill="none" viewBox="0 0 24 24">
  <g clip-path="url(#a)">
    <path fill="#374957" d="M21 17H10v2a1 1 0 1 1-2 0v-2H6v2a1 1 0 1 1-2 0v-2H3a3 3 0 0 0 0 6h18a3 3 0 1 0 0-6Zm0-8H10v2a1 1 0 1 1-2 0V9H6v2a1 1 0 1 1-2 0V9H3a3 3 0 1 0 0 6h18a3 3 0 0 0 0-6Zm0-8H10v2a1 1 0 0 1-2 0V1H6v2a1 1 0 0 1-2 0V1H3a3 3 0 0 0 0 6h18a3 3 0 0 0 0-6Z"/>
  </g>
  <defs>
    <clipPath id="a">
      <path fill="#fff" d="M0 0h24v24H0z"/>
    </clipPath>
  </defs>
</svg>
