<svg xmlns="http://www.w3.org/2000/svg" width="24" height="24" fill="none" viewBox="0 0 24 24">
  <g clip-path="url(#a)">
    <path fill="#374957" d="M19 2H9.956A4.966 4.966 0 0 0 6.01 3.931l-5.8 7.455a1 1 0 0 0 0 1.228l5.8 7.455A4.965 4.965 0 0 0 9.956 22H19a5.005 5.005 0 0 0 5-5V7a5.005 5.005 0 0 0-5-5Zm-1.293 12.293a1 1 0 1 1-1.414 1.414L14 13.414l-2.293 2.293a1 1 0 0 1-1.414-1.414L12.586 12l-2.293-2.293a1 1 0 0 1 1.414-1.414L14 10.586l2.293-2.293a1 1 0 0 1 1.414 1.414L15.414 12l2.293 2.293Z"/>
  </g>
  <defs>
    <clipPath id="a">
      <path fill="#fff" d="M0 0h24v24H0z"/>
    </clipPath>
  </defs>
</svg>
