<svg xmlns="http://www.w3.org/2000/svg" width="24" height="24" fill="none" viewBox="0 0 24 24">
  <g clip-path="url(#a)">
    <path fill="#374957" d="M21.946 11a2.03 2.03 0 0 1-1.277-.451L19.5 9.613l-1.169.936A2.052 2.052 0 0 1 15 8.948V2a2 2 0 0 1 2-2h5a2 2 0 0 1 2 2v6.948A2.057 2.057 0 0 1 21.946 11ZM12 15.422a3 3 0 0 0 2.122-.876l1.747-1.746A3.857 3.857 0 0 1 13 8.948V3H5A4.986 4.986 0 0 0 .744 5.411l9.134 9.135a3 3 0 0 0 2.122.876ZM23.7 12.6a4.048 4.048 0 0 1-4.2-.425.915.915 0 0 0-.123-.054l-3.841 3.839a5.008 5.008 0 0 1-7.072 0L.046 7.542C.032 7.7 0 7.843 0 8v11a5.006 5.006 0 0 0 5 5h14a5.006 5.006 0 0 0 5-5v-6.57c-.1.057-.192.118-.3.17Z"/>
  </g>
  <defs>
    <clipPath id="a">
      <path fill="#fff" d="M0 0h24v24H0z"/>
    </clipPath>
  </defs>
</svg>
