<svg xmlns="http://www.w3.org/2000/svg" width="24" height="24" fill="none" viewBox="0 0 24 24">
  <g clip-path="url(#a)">
    <path fill="#374957" d="M18 13a3.986 3.986 0 0 0-2 7.444v2.833a.722.722 0 0 0 1.231.51l.769-.768.769.768a.722.722 0 0 0 1.231-.51v-2.833A3.987 3.987 0 0 0 18 13Z"/>
    <path fill="#374957" d="M12 17a5.993 5.993 0 0 1 9-5.191V5a5.006 5.006 0 0 0-5-5H8a5.006 5.006 0 0 0-5 5v12a5.006 5.006 0 0 0 5 5h6v-.54A5.976 5.976 0 0 1 12 17ZM8 4h8a1 1 0 1 1 0 2H8a1 1 0 0 1 0-2Zm0 4h8a1 1 0 1 1 0 2H8a1 1 0 0 1 0-2Zm3 6H8a1 1 0 0 1 0-2h3a1 1 0 0 1 0 2Z"/>
  </g>
  <defs>
    <clipPath id="a">
      <path fill="#fff" d="M0 0h24v24H0z"/>
    </clipPath>
  </defs>
</svg>
