<svg xmlns="http://www.w3.org/2000/svg" width="24" height="24" fill="none" viewBox="0 0 24 24">
  <g clip-path="url(#a)">
    <path fill="#374957" d="M19 0H5a5.006 5.006 0 0 0-5 5v14a5.006 5.006 0 0 0 5 5v-3a7 7 0 1 1 14 0v3a5.006 5.006 0 0 0 5-5V5a5.006 5.006 0 0 0-5-5Zm-7 12a4 4 0 1 1 0-8 4 4 0 0 1 0 8Z"/>
    <path fill="#374957" d="M12 10a2 2 0 1 0 0-4 2 2 0 0 0 0 4Zm0 6a5.006 5.006 0 0 0-5 5v3h10v-3a5.005 5.005 0 0 0-5-5Z"/>
  </g>
  <defs>
    <clipPath id="a">
      <path fill="#fff" d="M0 0h24v24H0z"/>
    </clipPath>
  </defs>
</svg>
