<svg xmlns="http://www.w3.org/2000/svg" width="24" height="24" fill="none" viewBox="0 0 24 24">
  <g clip-path="url(#a)">
    <path fill="#374957" d="M16 8a7.974 7.974 0 0 0-5.974 2.7 6.883 6.883 0 0 0-1.495-.524L9.9 7.447a1 1 0 0 0-.043-.971A3.4 3.4 0 0 0 7 5a3.4 3.4 0 0 0-2.852 1.476 1 1 0 0 0-.043.971l1.364 2.727a7 7 0 1 0 5.866 12.312A8 8 0 1 0 16 8Zm-4.766 11.63a5.945 5.945 0 0 1-.678-6.137 4.946 4.946 0 0 1 .678 6.137ZM2 17a4.987 4.987 0 0 1 6.879-4.627 7.957 7.957 0 0 0 .966 8.73A4.99 4.99 0 0 1 2 17Zm14 5a5.96 5.96 0 0 1-3.278-.981 6.964 6.964 0 0 0-1.022-9.193A6 6 0 1 1 16 22ZM10.105 3.553l1-2a1 1 0 1 1 1.79.894l-1 2a1 1 0 0 1-1.79-.894Zm-9-1.106A1.003 1.003 0 0 1 2.9 1.553l1 2a1 1 0 1 1-1.79.894l-1.005-2ZM6 3V1a1 1 0 0 1 2 0v2a1 1 0 1 1-2 0Z"/>
  </g>
  <defs>
    <clipPath id="a">
      <path fill="#fff" d="M0 0h24v24H0z"/>
    </clipPath>
  </defs>
</svg>
