<svg xmlns="http://www.w3.org/2000/svg" width="24" height="24" fill="none" viewBox="0 0 24 24">
  <g clip-path="url(#a)">
    <path fill="#374957" d="M23.63 3.845A2.024 2.024 0 0 0 21.988 3h-3.525C18.97 2.152 19.539.1 18 0a1 1 0 0 0-1 1 2 2 0 0 1-2 2H9a2 2 0 0 1-2-2 1 1 0 0 0-1-1c-1.54.105-.97 2.151-.463 3H2.013A2.007 2.007 0 0 0 .106 5.615 6.6 6.6 0 0 0 1.594 8 54.78 54.78 0 0 1 4.7 5.228a1 1 0 1 1 1.272 1.544c-.518.426-1 .846-1.434 1.228H6a5.006 5.006 0 0 1 5 5v4a1 1 0 1 1-2 0v-4a2.99 2.99 0 0 0-.184-1.034 1.5 1.5 0 0 1-1.781-1.781A2.985 2.985 0 0 0 6 10H3.22L6 21.135A3 3 0 0 0 9 24h6a3 3 0 0 0 3-2.865L20.78 10H18a2.99 2.99 0 0 0-1.034.184 1.499 1.499 0 0 1-1.781 1.781A2.987 2.987 0 0 0 15 13v4a1 1 0 1 1-2 0v-4a5.006 5.006 0 0 1 5-5h1.463c-.43-.382-.916-.8-1.434-1.228a1 1 0 0 1 1.27-1.544A54.897 54.897 0 0 1 22.408 8 6.613 6.613 0 0 0 23.9 5.615a1.936 1.936 0 0 0-.27-1.77ZM15 20a1 1 0 0 1 0 2H9a1 1 0 0 1 0-2h6Z"/>
  </g>
  <defs>
    <clipPath id="a">
      <path fill="#fff" d="M0 0h24v24H0z"/>
    </clipPath>
  </defs>
</svg>
