<svg xmlns="http://www.w3.org/2000/svg" width="24" height="24" fill="none" viewBox="0 0 24 24">
  <g clip-path="url(#a)">
    <path fill="#374957" d="M14.021 6.105 9.793 1.878A2.976 2.976 0 0 0 7.672 1H1a1 1 0 0 0 0 2h6.672c.265 0 .52.106.707.293L11.086 6H5a5.006 5.006 0 0 0-5 5v8a5.006 5.006 0 0 0 5 5h8a5.006 5.006 0 0 0 5-5v-8a5.008 5.008 0 0 0-3.979-4.894ZM22.9 8.956a1.987 1.987 0 0 0-2.092.184l-.8.6v10.522l.8.6a2.001 2.001 0 0 0 3.2-1.6v-8.518A1.988 1.988 0 0 0 22.9 8.956Z"/>
  </g>
  <defs>
    <clipPath id="a">
      <path fill="#fff" d="M0 0h24v24H0z"/>
    </clipPath>
  </defs>
</svg>
