<svg xmlns="http://www.w3.org/2000/svg" width="24" height="24" fill="none" viewBox="0 0 24 24">
  <g clip-path="url(#a)">
    <path fill="#374957" d="M12 0a12 12 0 1 0 12 12A12.013 12.013 0 0 0 12 0Zm3.222 7H8.778A19.615 19.615 0 0 1 12 2.412 19.57 19.57 0 0 1 15.222 7Zm.8 2c.307.97.468 1.982.476 3a10.21 10.21 0 0 1-.476 3H7.976a10.211 10.211 0 0 1-.476-3 10.21 10.21 0 0 1 .476-3h8.046ZM9.4 2.356A19.676 19.676 0 0 0 6.574 7H3.353A10.03 10.03 0 0 1 9.4 2.356ZM2 12c0-1.018.155-2.03.461-3H5.9c-.26.98-.394 1.987-.4 3 .006 1.013.14 2.02.4 3H2.461A9.986 9.986 0 0 1 2 12Zm1.353 5h3.221A19.676 19.676 0 0 0 9.4 21.644 10.031 10.031 0 0 1 3.353 17Zm5.425 0h6.444A19.615 19.615 0 0 1 12 21.588 19.572 19.572 0 0 1 8.778 17Zm5.827 4.644c1.15-1.41 2.1-2.973 2.821-4.644h3.221a10.031 10.031 0 0 1-6.042 4.644ZM22 12c0 1.018-.155 2.03-.461 3H18.1c.26-.98.394-1.987.4-3a12.02 12.02 0 0 0-.4-3h3.437c.306.97.463 1.982.463 3Zm-4.574-5a19.674 19.674 0 0 0-2.821-4.644A10.031 10.031 0 0 1 20.647 7h-3.221Z"/>
  </g>
  <defs>
    <clipPath id="a">
      <path fill="#fff" d="M0 0h24v24H0z"/>
    </clipPath>
  </defs>
</svg>
