<svg xmlns="http://www.w3.org/2000/svg" width="24" height="24" fill="none" viewBox="0 0 24 24">
  <g clip-path="url(#a)">
    <path fill="#374957" d="M0 12a1 1 0 0 1 1-1h6a1 1 0 1 1 0 2H1a1 1 0 0 1-1-1Zm20.915-.895A5 5 0 1 0 12 8a1 1 0 0 0 2 0 3 3 0 1 1 3 3h-6a1 1 0 1 0 0 2h9a2 2 0 0 1 2 2c-.009 2.337-3.281 2.648-4.057.667a1 1 0 0 0-1.886.666C17.615 20.414 23.952 19.578 24 15a4.007 4.007 0 0 0-3.085-3.894ZM11 16H1a1 1 0 1 0 0 2h10a2 2 0 0 1 2 2c-.009 2.337-3.281 2.648-4.057.667a.998.998 0 0 0-1.612-.41 1 1 0 0 0-.274 1.076C8.615 25.414 14.952 24.578 15 20a4 4 0 0 0-4-4ZM1 8h6a4 4 0 0 0 4-4c-.048-4.58-6.387-5.414-7.943-1.333a1 1 0 1 0 1.886.666C5.72 1.35 8.991 1.662 9 4a2 2 0 0 1-2 2H1a1 1 0 0 0 0 2Z"/>
  </g>
  <defs>
    <clipPath id="a">
      <path fill="#fff" d="M0 0h24v24H0z"/>
    </clipPath>
  </defs>
</svg>
