<svg xmlns="http://www.w3.org/2000/svg" width="24" height="24" fill="none" viewBox="0 0 24 24">
  <g clip-path="url(#a)">
    <path fill="#374957" d="M19 18h4.54a6.958 6.958 0 0 1-1.591 2.465l-1.484 1.485c-.7.699-1.54 1.24-2.465 1.59V19a1 1 0 0 1 1-1Zm5-13v10.515c0 .163-.013.324-.024.485H19a3 3 0 0 0-3 3v4.976c-.161.011-.322.024-.485.024H5a5.006 5.006 0 0 1-5-5V5a5.006 5.006 0 0 1 5-5h14a5.006 5.006 0 0 1 5 5ZM7 7.75A.75.75 0 0 0 6.25 7H5.5a.5.5 0 1 0 0 1h.249v.084a.759.759 0 0 1-1.037.68.742.742 0 0 1-.461-.696V6A.742.742 0 0 1 5 5.25a.779.779 0 0 1 .662.409.626.626 0 1 0 1.11-.58A2.022 2.022 0 0 0 5 4a1.991 1.991 0 0 0-2 1.985v2.1a1.99 1.99 0 0 0 2 1.985 2 2 0 0 0 2-1.986V7.75Zm3-3.125a.625.625 0 0 0-1.25 0v4.819a.625.625 0 0 0 1.25 0V4.625Zm3 1.763V5.25h1.388a.625.625 0 1 0 0-1.25h-2.013a.625.625 0 0 0-.625.625v4.811a.625.625 0 1 0 1.25 0v-1.8h1.239a.625.625 0 1 0 0-1.25L13 6.388Z"/>
  </g>
  <defs>
    <clipPath id="a">
      <path fill="#fff" d="M0 0h24v24H0z"/>
    </clipPath>
  </defs>
</svg>
