<svg xmlns="http://www.w3.org/2000/svg" width="24" height="24" fill="none" viewBox="0 0 24 24">
  <g clip-path="url(#a)">
    <path fill="#374957" d="M2.886 6.836a1 1 0 0 0 .83-.436 10.015 10.015 0 0 1 2.808-2.77 1 1 0 1 0-1.1-1.672A12 12 0 0 0 2.06 5.275a1 1 0 0 0 .826 1.561ZM2 12c0-.661.064-1.32.193-1.97a1 1 0 1 0-1.961-.39c-.31 1.56-.31 3.167 0 4.728a1 1 0 0 0 1.18.78 1 1 0 0 0 .784-1.176A10.1 10.1 0 0 1 2 12Zm4.528 8.372a10.001 10.001 0 0 1-2.81-2.766.999.999 0 0 0-1.39-.266 1 1 0 0 0-.266 1.39 11.994 11.994 0 0 0 3.37 3.314 1 1 0 0 0 1.1-1.672h-.004ZM12 0c-.728.001-1.455.068-2.171.2a1 1 0 1 0 .36 1.968c.597-.11 1.204-.167 1.811-.168v20a10.09 10.09 0 0 1-1.811-.164 1 1 0 0 0-.36 1.968A12.01 12.01 0 0 0 24 12 12.014 12.014 0 0 0 12 0Z"/>
  </g>
  <defs>
    <clipPath id="a">
      <path fill="#fff" d="M0 0h24v24H0z"/>
    </clipPath>
  </defs>
</svg>
