<svg xmlns="http://www.w3.org/2000/svg" width="24" height="24" fill="none" viewBox="0 0 24 24">
  <g clip-path="url(#a)">
    <path fill="#374957" d="M16 4.018a6 6 0 0 1 5.233 3.545L22.761 11H17a1 1 0 0 1-1-1V4.018ZM8.942 21c.037.164.056.332.058.5a2.5 2.5 0 0 1-5 0c.002-.168.021-.336.058-.5h4.884Zm11 0c.037.164.056.332.058.5a2.5 2.5 0 0 1-5 0c.002-.168.021-.336.058-.5h4.884ZM24 16.122A2.852 2.852 0 0 1 21 19H3a3 3 0 0 1-3-3V9a5.006 5.006 0 0 1 5-5h4.2l.66-2.642a1.794 1.794 0 0 1 3.48 0L14 4v6a3 3 0 0 0 3 3h6.537c.256 1.023.411 2.069.463 3.122ZM10 12a1 1 0 0 0-1-1H8v-1a1 1 0 0 0-2 0v1H5a1 1 0 0 0 0 2h1v1a1 1 0 1 0 2 0v-1h1a1 1 0 0 0 1-1Z"/>
  </g>
  <defs>
    <clipPath id="a">
      <path fill="#fff" d="M0 0h24v24H0z"/>
    </clipPath>
  </defs>
</svg>
