<svg xmlns="http://www.w3.org/2000/svg" width="24" height="24" fill="none" viewBox="0 0 24 24">
  <g clip-path="url(#a)">
    <path fill="#374957" d="M20.43 15.33 14.32 24h-3.915l8.071-11.47 1.954 2.8Zm-5.165-7.4L4.046 23.89c.356.073.718.11 1.081.11h2.834l9.3-13.214-1.996-2.856Zm6.382 9.144L16.767 24h2.106a3.989 3.989 0 0 0 3.727-1.98 4.123 4.123 0 0 0-.465-4.242l-.488-.704ZM15 3a3 3 0 1 0-4.592 2.534L1.861 17.778a4.122 4.122 0 0 0-.46 4.241c.203.385.479.726.812 1.006l11.833-16.84-.454-.65A2.99 2.99 0 0 0 15 3Z"/>
  </g>
  <defs>
    <clipPath id="a">
      <path fill="#fff" d="M0 0h24v24H0z"/>
    </clipPath>
  </defs>
</svg>
