<svg xmlns="http://www.w3.org/2000/svg" width="24" height="24" fill="none" viewBox="0 0 24 24">
  <g clip-path="url(#a)">
    <path fill="#374957" d="M12 12a3 3 0 1 0 0 6 3 3 0 0 0 0-6Zm0 4a1 1 0 1 1 0-2 1 1 0 0 1 0 2Z"/>
    <path fill="#374957" d="M16 0H8a5.006 5.006 0 0 0-5 5v14a5.006 5.006 0 0 0 5 5h8a5.006 5.006 0 0 0 5-5V5a5.006 5.006 0 0 0-5-5Zm-4 4.5a1.5 1.5 0 1 1 0 3 1.5 1.5 0 0 1 0-3ZM12 20a5 5 0 1 1 0-9.999A5 5 0 0 1 12 20Z"/>
  </g>
  <defs>
    <clipPath id="a">
      <path fill="#fff" d="M0 0h24v24H0z"/>
    </clipPath>
  </defs>
</svg>
