<svg xmlns="http://www.w3.org/2000/svg" width="24" height="24" fill="none" viewBox="0 0 24 24">
  <g clip-path="url(#a)">
    <path fill="#374957" d="M4 7.938V3.173c0-1.2.634-3.167 3.673-3.167A8.68 8.68 0 0 1 8.856.1 2.975 2.975 0 0 1 11 2.948v7.925c.656.17 1.344.17 2 0V2.948A2.975 2.975 0 0 1 15.144.1a8.613 8.613 0 0 1 1.183-.09C19.366.006 20 1.973 20 3.173v4.765a4.013 4.013 0 0 1-2.9 3.845l-3.451.987a6.02 6.02 0 0 1-3.3 0L6.9 11.783A4.014 4.014 0 0 1 4 7.938Zm18-3.912v3.912a6.022 6.022 0 0 1-4.353 5.768l-3.449.986a8 8 0 0 1-4.394 0l-3.452-.987A6.023 6.023 0 0 1 2 7.938V4.026A4.977 4.977 0 0 0 0 8v7a5.006 5.006 0 0 0 5 5h6v2H8a1 1 0 0 0 0 2h8a1 1 0 0 0 0-2h-3v-2h6a5.006 5.006 0 0 0 5-5V8a4.977 4.977 0 0 0-2-3.974Z"/>
  </g>
  <defs>
    <clipPath id="a">
      <path fill="#fff" d="M0 0h24v24H0z"/>
    </clipPath>
  </defs>
</svg>
