<svg xmlns="http://www.w3.org/2000/svg" width="24" height="24" fill="none" viewBox="0 0 24 24">
  <g clip-path="url(#a)">
    <path fill="#374957" d="M.142 4A4 4 0 0 1 4 1h11a4 4 0 0 1 3.858 3H.142Zm8.8 16c.037.164.056.331.058.5a2.5 2.5 0 0 1-5 0c.002-.169.021-.336.058-.5h4.884Zm11 0c.037.164.056.331.058.5a2.5 2.5 0 0 1-5 0c.002-.169.021-.336.058-.5h4.884ZM10 18h3V6h-3v12Zm9-8V6h-4v4h4ZM8 10V6H5v4h3Zm12 2h-5v6h7a2 2 0 0 0 2-2 4 4 0 0 0-4-4ZM3 10V6H0v4h3Zm5 2H0v3a3 3 0 0 0 3 3h5v-6Z"/>
  </g>
  <defs>
    <clipPath id="a">
      <path fill="#fff" d="M0 0h24v24H0z"/>
    </clipPath>
  </defs>
</svg>
