<svg xmlns="http://www.w3.org/2000/svg" width="24" height="24" fill="none" viewBox="0 0 24 24">
  <g clip-path="url(#a)">
    <path fill="#374957" d="M12 4v1a4 4 0 0 1-4 4H7v2h2a1 1 0 0 1 0 2H3a1 1 0 0 1 0-2h2V9H4a4 4 0 0 1-4-4V4a4 4 0 0 1 4-4h4a4 4 0 0 1 4 4Zm3 1h2a1 1 0 0 1 1 1v2a1 1 0 0 0 2 0V6a3 3 0 0 0-3-3h-2a1 1 0 1 0 0 2Zm-4 14H8a1 1 0 0 1-1-1v-2a1 1 0 1 0-2 0v2a3 3 0 0 0 3 3h3a1 1 0 0 0 0-2Zm13-4v5a4 4 0 0 1-4 4h-2a4 4 0 0 1-4-4v-5a4 4 0 0 1 4-4h2a4 4 0 0 1 4 4Zm-4 5a1 1 0 1 0-2 0 1 1 0 0 0 2 0Z"/>
  </g>
  <defs>
    <clipPath id="a">
      <path fill="#fff" d="M0 0h24v24H0z"/>
    </clipPath>
  </defs>
</svg>
