<svg xmlns="http://www.w3.org/2000/svg" width="24" height="24" fill="none" viewBox="0 0 24 24">
  <g clip-path="url(#a)">
    <path fill="#374957" d="M20 0h-1.757a3.975 3.975 0 0 0-2.83 1.172l-3.241 3.242A4.022 4.022 0 0 0 11 7.242v3.748c-2.855 1.986-7.51 5.276-8.121 5.89a2.993 2.993 0 0 0-.577 3.4l-2.01 2.013a1 1 0 0 0 1.415 1.414L3.714 21.7a2.964 2.964 0 0 0 3.407-.579c.613-.612 3.9-5.266 5.889-8.12h3.747a3.974 3.974 0 0 0 2.829-1.173l3.242-3.242A4.022 4.022 0 0 0 24 5.758V4a4 4 0 0 0-4-4Zm-.293 5.707-5 5a1 1 0 0 1-1.414-1.414l5-5a1 1 0 1 1 1.414 1.414Z"/>
  </g>
  <defs>
    <clipPath id="a">
      <path fill="#fff" d="M0 0h24v24H0z"/>
    </clipPath>
  </defs>
</svg>
