<svg xmlns="http://www.w3.org/2000/svg" width="24" height="24" fill="none" viewBox="0 0 24 24">
  <g clip-path="url(#a)">
    <path fill="#374957" d="M7 23.894a4.572 4.572 0 0 1-.527-.122l-2.869-.9a5.013 5.013 0 0 1-3.6-4.8V6A5 5 0 0 1 6.92 1.388l.08.037v22.469ZM20.68 1.167l-.021-.007-2.715-.9A4.95 4.95 0 0 0 17 .053v22.262l2.054.592A4 4 0 0 0 24 19.02V5.876a5.01 5.01 0 0 0-3.32-4.71ZM15 .19S9.157 1.863 9 1.88v22c.1-.021 6-1.636 6-1.636V.19Z"/>
  </g>
  <defs>
    <clipPath id="a">
      <path fill="#fff" d="M0 0h24v24H0z"/>
    </clipPath>
  </defs>
</svg>
