<svg xmlns="http://www.w3.org/2000/svg" width="24" height="24" fill="none" viewBox="0 0 24 24">
  <g clip-path="url(#a)">
    <path fill="#374957" d="M21 7a3 3 0 0 0 0 6c.211 0 .422-.024.628-.07a12.192 12.192 0 0 1-9.47 9.054.949.949 0 0 1-.791-.213A1.016 1.016 0 0 1 11 20.99v-1.061a9.999 9.999 0 0 0 7.905-5.4 4.978 4.978 0 0 1 0-9.052A10 10 0 1 0 9 19.949v1.04a3.014 3.014 0 0 0 2.228 2.912c.42.112.86.13 1.288.05A14.27 14.27 0 0 0 24 10a3 3 0 0 0-3-3ZM10 8a2 2 0 1 1 0 4 2 2 0 0 1 0-4Z"/>
  </g>
  <defs>
    <clipPath id="a">
      <path fill="#fff" d="M0 0h24v24H0z"/>
    </clipPath>
  </defs>
</svg>
