<svg xmlns="http://www.w3.org/2000/svg" width="24" height="24" fill="none" viewBox="0 0 24 24">
  <g clip-path="url(#a)">
    <path fill="#374957" d="M10 17H7.329a2.979 2.979 0 0 1-2.122-.88L.052 10.967C.023 11.308 0 11.65 0 12a12.009 12.009 0 0 0 11 11.949v-5.95a1 1 0 0 0-1-1ZM20.436 3.478l-1.79 1.79c-.47.467-1.105.73-1.767.732H15.5a.5.5 0 0 0-.5.5v1a2.5 2.5 0 0 1-2.5 2.5.5.5 0 0 0-.5.5v.5a1 1 0 0 0 1 1h3a3 3 0 0 1 3 3v.962a.5.5 0 0 0 .146.353l2.625 2.626a11.95 11.95 0 0 0-1.335-15.463Z"/>
    <path fill="#374957" d="M17 15.963V15a1 1 0 0 0-1-1h-3a3 3 0 0 1-3-3v-.5A2.5 2.5 0 0 1 12.5 8a.5.5 0 0 0 .5-.5v-1A2.5 2.5 0 0 1 15.5 4h1.379a.507.507 0 0 0 .353-.146l1.66-1.661A11.974 11.974 0 0 0 .5 8.588l6.12 6.12a.999.999 0 0 0 .709.293h2.67a3 3 0 0 1 3 3v5.949a11.962 11.962 0 0 0 7.484-3.47l-2.751-2.75A2.516 2.516 0 0 1 17 15.963Z"/>
  </g>
  <defs>
    <clipPath id="a">
      <path fill="#fff" d="M0 0h24v24H0z"/>
    </clipPath>
  </defs>
</svg>
