<svg xmlns="http://www.w3.org/2000/svg" width="24" height="24" fill="none" viewBox="0 0 24 24">
  <g clip-path="url(#a)">
    <path fill="#374957" d="M.291 8.552a2.443 2.443 0 0 1 .153-2.566c.427-.627 1-1.142 1.668-1.5L9.613.582a5.174 5.174 0 0 1 4.774 0l7.5 3.907c.669.358 1.24.873 1.668 1.5a2.442 2.442 0 0 1 .153 2.566A2.713 2.713 0 0 1 21.292 10H2.708A2.713 2.713 0 0 1 .291 8.552ZM23 22a2 2 0 0 0-2-2v-8h-2v8h-3v-8h-2v8h-4v-8H8v8H5v-8H3v8a2 2 0 0 0-2 2 1 1 0 0 0 0 2h22a1 1 0 1 0 0-2Z"/>
  </g>
  <defs>
    <clipPath id="a">
      <path fill="#fff" d="M0 0h24v24H0z"/>
    </clipPath>
  </defs>
</svg>
