<svg xmlns="http://www.w3.org/2000/svg" width="24" height="24" fill="none" viewBox="0 0 24 24">
  <g clip-path="url(#a)">
    <path fill="#374957" d="M23 4a2 2 0 0 1-2 2H3a2 2 0 1 1 0-4h1.184A3 3 0 0 1 7 0h10a3 3 0 0 1 2.816 2H21a2 2 0 0 1 2 2ZM10 16c.105 3.954 3.895 3.953 4 0-.1-3.954-3.895-3.953-4 0Zm-1.919-1c.892-5.287 6.948-5.284 7.838 0h5.088l.735-5.876A1.002 1.002 0 0 0 20.75 8H3.25a1 1 0 0 0-.992 1.124L2.992 15h5.09Zm7.838 2c-.892 5.287-6.947 5.284-7.838 0H3.242l.328 2.62A5.008 5.008 0 0 0 8.531 24h6.938a5.008 5.008 0 0 0 4.961-4.38l.327-2.62H15.92Z"/>
  </g>
  <defs>
    <clipPath id="a">
      <path fill="#fff" d="M0 0h24v24H0z"/>
    </clipPath>
  </defs>
</svg>
