<svg xmlns="http://www.w3.org/2000/svg" width="24" height="24" fill="none" viewBox="0 0 24 24">
  <g clip-path="url(#a)">
    <path fill="#374957" d="M12 24c-7.851 0-12-1.383-12-4s4.149-4 12-4c7.963 0 12 1.346 12 4s-4.037 4-12 4Zm.5-9C4.648 15 3 12.825 3 11c0-1.825 1.648-4 9.5-4 5.948 0 9.5 1.495 9.5 4s-3.552 4-9.5 4ZM10 6C6.355 6 4 4.822 4 3s2.355-3 6-3 6 1.178 6 3-2.355 3-6 3Z"/>
  </g>
  <defs>
    <clipPath id="a">
      <path fill="#fff" d="M0 0h24v24H0z"/>
    </clipPath>
  </defs>
</svg>
