<svg xmlns="http://www.w3.org/2000/svg" width="24" height="24" fill="none" viewBox="0 0 24 24">
  <g clip-path="url(#a)">
    <path fill="#374957" d="M23.717 9.549A12.834 12.834 0 0 0 13 2.043V1a1 1 0 0 0-2 0v1.043A12.843 12.843 0 0 0 .267 9.549a3.945 3.945 0 0 0 .405 3.682A4.016 4.016 0 0 0 4 15h7v6a1 1 0 0 1-2 0 1 1 0 1 0-2 0 3 3 0 0 0 6 0v-6h6.983a4.017 4.017 0 0 0 3.99-3.56 3.948 3.948 0 0 0-.256-1.891Z"/>
  </g>
  <defs>
    <clipPath id="a">
      <path fill="#fff" d="M0 0h24v24H0z"/>
    </clipPath>
  </defs>
</svg>
