<svg xmlns="http://www.w3.org/2000/svg" width="24" height="24" fill="none" viewBox="0 0 24 24">
  <path fill="#374957" d="M22.101 5.033c-.895-1.592-2.488-2.487-4.28-2.487H5.98c-1.79 0-3.383.895-4.279 2.487C.606 7.023.008 9.213.008 11.502c0 5.473 2.19 9.952 4.976 9.952 1.493 0 2.687-1.394 3.583-4.28.1-.398.498-.696.995-.696h4.876c.398 0 .796.298.995.696.896 2.886 2.09 4.28 3.583 4.28 2.787 0 4.976-4.479 4.976-9.952-.199-2.289-.796-4.478-1.89-6.469ZM8.965 10.507H7.97v.995c0 .597-.398.995-.995.995s-.995-.398-.995-.995v-.995h-.996c-.597 0-.995-.398-.995-.995s.398-.995.995-.995h.996V7.52c0-.597.398-.995.995-.995s.995.398.995.995v.996h.995c.597 0 .995.398.995.995s-.398.995-.995.995Zm6.568 1.99c-.796 0-1.493-.697-1.493-1.493 0-.796.697-1.492 1.493-1.492.796 0 1.493.696 1.493 1.492s-.796 1.493-1.493 1.493Zm2.886-2.985c-.697 0-1.493-.697-1.493-1.493 0-.796.797-1.493 1.493-1.493.697 0 1.493.697 1.493 1.493 0 .796-.697 1.493-1.493 1.493Z"/>
</svg>
