<svg xmlns="http://www.w3.org/2000/svg" width="24" height="24" fill="none" viewBox="0 0 24 24">
  <g clip-path="url(#a)">
    <path fill="#374957" d="M18.356 7.36a1.084 1.084 0 0 1-.72-.732 8 8 0 0 0-15.49.841 7.652 7.652 0 0 0 .8 5.18A5.446 5.446 0 0 0 .056 18.3 5.844 5.844 0 0 0 5.683 23h9.1c5.073 0 8.852-3.028 9.19-7.362a7.963 7.963 0 0 0-5.617-8.278Zm.872 7.347-5.415 5.414a3 3 0 0 1-4.242 0L6.184 16.7A1 1 0 1 1 7.6 15.3l3.384 3.414a1.025 1.025 0 0 0 1.411 0L17.81 13.3a1 1 0 0 1 1.415 1.414l.004-.007Z"/>
  </g>
  <defs>
    <clipPath id="a">
      <path fill="#fff" d="M0 0h24v24H0z"/>
    </clipPath>
  </defs>
</svg>
