<svg xmlns="http://www.w3.org/2000/svg" width="24" height="24" fill="none" viewBox="0 0 24 24">
  <g clip-path="url(#a)">
    <path fill="#374957" d="M22.959 12a.982.982 0 0 0-.989.875c-.467 5.52-5.32 9.616-10.84 9.149-5.52-.467-9.615-5.32-9.149-10.84.467-5.52 5.32-9.615 10.84-9.149A10.03 10.03 0 0 1 19.13 5h-3.122a1 1 0 1 0 0 2h4.143a1.858 1.858 0 0 0 1.857-1.857V1a1 1 0 1 0-2 0v2.078c-4.936-4.41-12.512-3.985-16.923.951-4.41 4.936-3.984 12.512.951 16.923C8.972 25.362 16.55 24.936 20.96 20a11.985 11.985 0 0 0 2.999-6.901 1.007 1.007 0 0 0-.999-1.1Z"/>
  </g>
  <defs>
    <clipPath id="a">
      <path fill="#fff" d="M0 0h24v24H0z"/>
    </clipPath>
  </defs>
</svg>
