<svg xmlns="http://www.w3.org/2000/svg" width="24" height="24" fill="none" viewBox="0 0 24 24">
  <g clip-path="url(#a)">
    <path fill="#374957" d="M14.181.208a1 1 0 0 0-1.18.983V4.07A8.053 8.053 0 1 0 19.93 11h2.886a1 1 0 0 0 .983-1.18A12.047 12.047 0 0 0 14.181.208ZM16.001 13h-2.278a1.993 1.993 0 0 1-3.705-1.257A1.994 1.994 0 0 1 11 10.278V7a1 1 0 0 1 2 0v3.277a2 2 0 0 1 .723.723H16a1 1 0 0 1 0 2ZM2.985 4.969a1 1 0 1 1-.373 1.965 1 1 0 0 1 .373-1.965Zm-1.6 3.987a1 1 0 1 1-.003 0h.003Zm8.742 12.868a1 1 0 1 1-.003 0h.003ZM6.008 1.9a1 1 0 1 1-.373 1.965A1 1 0 0 1 6.008 1.9ZM10.182.21a1 1 0 1 1-.407 1.957A1 1 0 0 1 10.182.21ZM.234 14.047a1 1 0 1 1 1.965.373 1 1 0 0 1-1.965-.373Zm1.681 3.963a1 1 0 1 1 1.965.373 1 1 0 0 1-1.965-.373ZM4.967 21a1 1 0 1 1 1.965.374 1 1 0 0 1-1.965-.373Zm16.047-1.966a1 1 0 1 1 .374-1.964 1 1 0 0 1-.374 1.963ZM17.992 22.1a1 1 0 1 1 .374-1.966 1 1 0 0 1-.374 1.966Zm-3.939 1.656a1 1 0 1 1 1.17-.795 1 1 0 0 1-1.17.79v.005ZM23.713 14a1 1 0 1 1-2 0 1 1 0 0 1 2 0Z"/>
  </g>
  <defs>
    <clipPath id="a">
      <path fill="#fff" d="M0 0h24v24H0z"/>
    </clipPath>
  </defs>
</svg>
