<svg xmlns="http://www.w3.org/2000/svg" width="24" height="24" fill="none" viewBox="0 0 24 24">
  <g clip-path="url(#a)">
    <path fill="#374957" d="M13 24a6.006 6.006 0 0 1-6-6c0-1.56 1.2-4.046 3.552-7.389a3.016 3.016 0 0 1 4.9 0C17.805 13.954 19 16.44 19 18a6.006 6.006 0 0 1-6 6ZM5 11a5.006 5.006 0 0 1-5-5c0-1.26.842-2.855 2.574-4.877a3.2 3.2 0 0 1 4.852 0C9.158 3.143 10 4.738 10 6a5.006 5.006 0 0 1-5 5Zm14.5-1.036a4.505 4.505 0 0 1-4.5-4.5c0-1.09.7-2.506 2.146-4.326a3.02 3.02 0 0 1 4.708 0C23.3 2.958 24 4.373 24 5.464a4.505 4.505 0 0 1-4.5 4.5Z"/>
  </g>
  <defs>
    <clipPath id="a">
      <path fill="#fff" d="M0 0h24v24H0z"/>
    </clipPath>
  </defs>
</svg>
