<svg xmlns="http://www.w3.org/2000/svg" width="24" height="24" fill="none" viewBox="0 0 24 24">
  <g clip-path="url(#a)">
    <path fill="#374957" d="M15.989 12.7V10a1 1 0 0 1 1-1h1a1 1 0 0 0 1-1V7a1 1 0 0 1 1-1h2.685a1.016 1.016 0 0 0 .922-.6 4.521 4.521 0 0 0 .376-2.377A3.49 3.49 0 0 0 20.466 0a4.537 4.537 0 0 0-3.208 1.33L9.35 9.234a7.368 7.368 0 0 0-3.881.048 7.5 7.5 0 0 0 2.82 14.676 7.53 7.53 0 0 0 6.428-5.429 7.333 7.333 0 0 0 .047-3.88l.65-.65c.346-.347.55-.81.575-1.3ZM5.5 20a1.5 1.5 0 1 1 0-3 1.5 1.5 0 0 1 0 3Z"/>
  </g>
  <defs>
    <clipPath id="a">
      <path fill="#fff" d="M0 0h24v24H0z"/>
    </clipPath>
  </defs>
</svg>
