<svg xmlns="http://www.w3.org/2000/svg" width="24" height="24" fill="none" viewBox="0 0 24 24">
  <g clip-path="url(#a)">
    <path fill="#374957" d="M22 10a12.642 12.642 0 0 1-5 9.775V23a1 1 0 0 1-2 0V2A1.9 1.9 0 0 1 16.13.217a2.194 2.194 0 0 1 2.357.459A13.474 13.474 0 0 1 22 10ZM11 0a1 1 0 0 0-1 1v6a3 3 0 0 1-2 2.816V1a1 1 0 0 0-2 0v8.816A3 3 0 0 1 4 7V1a1 1 0 0 0-2 0v6a5.01 5.01 0 0 0 4 4.9V23a1 1 0 1 0 2 0V11.9A5.01 5.01 0 0 0 12 7V1a1 1 0 0 0-1-1Z"/>
  </g>
  <defs>
    <clipPath id="a">
      <path fill="#fff" d="M0 0h24v24H0z"/>
    </clipPath>
  </defs>
</svg>
