<svg xmlns="http://www.w3.org/2000/svg" width="24" height="24" fill="none" viewBox="0 0 24 24">
  <g clip-path="url(#a)">
    <path fill="#374957" d="M14 2a2 2 0 1 1-4 0 2 2 0 0 1 4 0Zm5.848 16.636A4.983 4.983 0 0 1 16 18.575a5 5 0 0 1-4 0 5 5 0 0 1-4 0 4.994 4.994 0 0 1-3.851.061 5.307 5.307 0 0 1-1.632.357l.157.882A4.993 4.993 0 0 0 7.6 24h8.8a4.99 4.99 0 0 0 4.922-4.125l.157-.882a5.274 5.274 0 0 1-1.631-.357Zm3.676-7.224A11.889 11.889 0 0 0 15.2 4.383a4.012 4.012 0 0 1-6.393 0 11.89 11.89 0 0 0-8.33 7.03A9.12 9.12 0 0 0 0 14.462 2.406 2.406 0 0 0 2.385 17c.454 0 1.563-.308 1.685-.723A2.982 2.982 0 0 0 8 16.22a2.99 2.99 0 0 0 4 0 2.99 2.99 0 0 0 4 0 2.982 2.982 0 0 0 3.93.057c.122.415 1.232.723 1.685.723A2.407 2.407 0 0 0 24 14.462a9.12 9.12 0 0 0-.476-3.05Z"/>
  </g>
  <defs>
    <clipPath id="a">
      <path fill="#fff" d="M0 0h24v24H0z"/>
    </clipPath>
  </defs>
</svg>
