<svg xmlns="http://www.w3.org/2000/svg" width="24" height="24" fill="none" viewBox="0 0 24 24">
  <g clip-path="url(#a)">
    <path fill="#374957" d="m23.8 8.156-3.413 10.4a4.944 4.944 0 0 1-2.952 3.2A6.97 6.97 0 0 0 18 19V9a7.008 7.008 0 0 0-7-7H9.335A5.016 5.016 0 0 1 14.78.22l5.686 1.747A5.02 5.02 0 0 1 23.8 8.156ZM16 9v10a5.006 5.006 0 0 1-5 5H5a5.006 5.006 0 0 1-5-5V9a5.006 5.006 0 0 1 5-5h6a5.006 5.006 0 0 1 5 5Zm-4 4a2 2 0 0 0-4 0 2 2 0 0 0-4 0c0 1.45 1.544 3.39 2.714 4.378a1.991 1.991 0 0 0 2.572 0C10.456 16.39 12 14.45 12 13Z"/>
  </g>
  <defs>
    <clipPath id="a">
      <path fill="#fff" d="M0 0h24v24H0z"/>
    </clipPath>
  </defs>
</svg>
