<svg xmlns="http://www.w3.org/2000/svg" width="24" height="24" fill="none" viewBox="0 0 24 24">
  <g clip-path="url(#a)">
    <path fill="#374957" d="M12.883 15.216 4.948 23.15a2.9 2.9 0 1 1-4.1-4.1l7.935-7.935 4.1 4.1ZM17.1 6.9a2.967 2.967 0 0 0-4.1 0l-2.8 2.8 4.1 4.1 2.8-2.8a2.9 2.9 0 0 0 0-4.1ZM4.863 5.145l1.55.442.442 1.55a1.191 1.191 0 0 0 2.29 0l.442-1.55 1.55-.442a1.191 1.191 0 0 0 0-2.29l-1.55-.442-.442-1.55a1.191 1.191 0 0 0-2.29 0l-.442 1.55-1.55.442a1.191 1.191 0 0 0 0 2.29Zm12 12 1.55.442.442 1.55a1.19 1.19 0 0 0 2.29 0l.442-1.55 1.55-.442a1.192 1.192 0 0 0 0-2.29l-1.55-.442-.442-1.55a1.19 1.19 0 0 0-2.29 0l-.442 1.55-1.55.442a1.191 1.191 0 0 0 0 2.29ZM17.756 4.5l1.355.387.39 1.357a1.042 1.042 0 0 0 2 0l.386-1.355 1.357-.39a1.042 1.042 0 0 0 0-2l-1.355-.386L21.5.756a1.042 1.042 0 0 0-2 0l-.387 1.355-1.357.389a1.042 1.042 0 0 0 0 2Z"/>
  </g>
  <defs>
    <clipPath id="a">
      <path fill="#fff" d="M0 0h24v24H0z"/>
    </clipPath>
  </defs>
</svg>
