<svg xmlns="http://www.w3.org/2000/svg" width="24" height="24" fill="none" viewBox="0 0 24 24">
  <g clip-path="url(#a)">
    <path fill="#374957" d="M8 3a3 3 0 1 1 6 0 3 3 0 0 1-6 0Zm15 18h-1.279L20.4 17.051A3 3 0 0 0 17.559 15H14a2 2 0 0 1-2-2h6a1 1 0 0 0 0-2h-6V8a1 1 0 1 0-2 0v5a4 4 0 0 0 4 4h3.559a1 1 0 0 1 .949.684l1.544 4.632A1 1 0 0 0 21 23h2a1 1 0 0 0 0-2Zm-9.214-2.012A5.973 5.973 0 0 1 8 13V9.071a1 1 0 0 0-1.142-.99A8.005 8.005 0 0 0 7.87 24H8a7.994 7.994 0 0 0 6.573-3.442 1.001 1.001 0 0 0-.786-1.57h-.001Z"/>
  </g>
  <defs>
    <clipPath id="a">
      <path fill="#fff" d="M0 0h24v24H0z"/>
    </clipPath>
  </defs>
</svg>
