<svg xmlns="http://www.w3.org/2000/svg" width="24" height="24" fill="none" viewBox="0 0 24 24">
  <g clip-path="url(#a)">
    <path fill="#374957" d="M2 11h11a2 2 0 0 0 2-2V2a2 2 0 0 0-2-2H2a2 2 0 0 0-2 2v7a2 2 0 0 0 2 2ZM23.658.882A2 2 0 0 0 22 0h-3a2 2 0 0 0-2 2v7a2 2 0 0 0 2 2h3a2 2 0 0 0 2-2V2c0-.399-.119-.788-.342-1.118Zm-17.54 12.46A1.987 1.987 0 0 0 5 13H2a2 2 0 0 0-2 2v7a2 2 0 0 0 2 2h3a2 2 0 0 0 2-2v-7a2 2 0 0 0-.882-1.658Zm17 0A1.988 1.988 0 0 0 22 13H11a2 2 0 0 0-2 2v7a2 2 0 0 0 2 2h11a2 2 0 0 0 2-2v-7a2 2 0 0 0-.882-1.658Z"/>
  </g>
  <defs>
    <clipPath id="a">
      <path fill="#fff" d="M0 0h24v24H0z"/>
    </clipPath>
  </defs>
</svg>
