<svg xmlns="http://www.w3.org/2000/svg" width="24" height="24" fill="none" viewBox="0 0 24 24">
  <g clip-path="url(#a)">
    <path fill="#374957" d="M0 7h5v4H0V7Zm5 6H0v4h5v-4Zm6 0H7v4h4v-4Zm0-2V7H7v4h4Zm2 0h4V7h-4v4Zm6 0h5V7h-5v4ZM7 5h4V0H7v5Zm6-5v5h4V0h-4Zm-2 24v-5H7v5h4ZM5 0a5.006 5.006 0 0 0-5 5h5V0Zm12 19h-4v5h4v-5Zm2 5a5.006 5.006 0 0 0 5-5h-5v5ZM5 19H0a5.006 5.006 0 0 0 5 5v-5Zm8-6v4h4v-4h-4Zm6-8h5a5.006 5.006 0 0 0-5-5v5Zm5 8h-5v4h5v-4Z"/>
  </g>
  <defs>
    <clipPath id="a">
      <path fill="#fff" d="M0 0h24v24H0z"/>
    </clipPath>
  </defs>
</svg>
