<svg xmlns="http://www.w3.org/2000/svg" width="24" height="24" fill="none" viewBox="0 0 24 24">
  <g clip-path="url(#a)">
    <path fill="#374957" d="M21 14a5.006 5.006 0 0 0-5-5H8a5.006 5.006 0 0 0-5 5v1a9 9 0 0 0 18 0v-1ZM15 0H9a4 4 0 0 0-4 4v3.685A6.952 6.952 0 0 1 8 7h8a6.952 6.952 0 0 1 3 .685V4a4 4 0 0 0-4-4Zm-5 5a1 1 0 1 1 0-2 1 1 0 0 1 0 2Zm4 0a1 1 0 1 1 0-2 1 1 0 0 1 0 2Z"/>
  </g>
  <defs>
    <clipPath id="a">
      <path fill="#fff" d="M0 0h24v24H0z"/>
    </clipPath>
  </defs>
</svg>
