<svg xmlns="http://www.w3.org/2000/svg" width="24" height="24" fill="none" viewBox="0 0 24 24">
  <g clip-path="url(#a)">
    <path fill="#374957" d="M8 4H4a4 4 0 0 0-4 4v4a2 2 0 0 0 2 2h5.91A6.006 6.006 0 0 1 2 19a1 1 0 0 0 0 2 8.009 8.009 0 0 0 8-8V6a2 2 0 0 0-2-2Zm14 0h-4a4 4 0 0 0-4 4v4a2 2 0 0 0 2 2h5.91A6.006 6.006 0 0 1 16 19a1 1 0 0 0 0 2 8.009 8.009 0 0 0 8-8V6a2 2 0 0 0-2-2Z"/>
  </g>
  <defs>
    <clipPath id="a">
      <path fill="#fff" d="M0 0h24v24H0z"/>
    </clipPath>
  </defs>
</svg>
