<svg xmlns="http://www.w3.org/2000/svg" width="24" height="24" fill="none" viewBox="0 0 24 24">
  <g clip-path="url(#a)">
    <path fill="#374957" d="M4.343 11H0a5.006 5.006 0 0 1 5-5h6V1.636A1.638 1.638 0 0 1 13.33.154l3.2 1.5a1 1 0 0 1 0 1.7L13 5v1h6a5.006 5.006 0 0 1 5 5h-4.343a3 3 0 0 1-2.092-.85l-2.736-2.978a4.074 4.074 0 0 0-5.687.03L6.464 10.12a3.017 3.017 0 0 1-2.121.88ZM12 19a1 1 0 0 0-1 1v4h2v-4a1 1 0 0 0-1-1Zm7.657-6H24v8a3 3 0 0 1-3 3h-6v-4a3 3 0 0 0-6 0v4H3a3 3 0 0 1-3-3v-8h4.343a4.994 4.994 0 0 0 3.565-1.495l2.678-2.92a2.07 2.07 0 0 1 2.8-.03l2.738 2.98A4.97 4.97 0 0 0 19.657 13ZM6 21a1 1 0 0 0-1-1H4a1 1 0 1 0 0 2h1a1 1 0 0 0 1-1Zm0-4a1 1 0 0 0-1-1H4a1 1 0 1 0 0 2h1a1 1 0 0 0 1-1Zm8-4a2 2 0 1 0-4 0 2 2 0 0 0 4 0Zm7 8a1 1 0 0 0-1-1h-1a1 1 0 1 0 0 2h1a1 1 0 0 0 1-1Zm-1-5h-1a1 1 0 1 0 0 2h1a1 1 0 0 0 0-2Z"/>
  </g>
  <defs>
    <clipPath id="a">
      <path fill="#fff" d="M0 0h24v24H0z"/>
    </clipPath>
  </defs>
</svg>
