<svg xmlns="http://www.w3.org/2000/svg" width="24" height="24" fill="none" viewBox="0 0 24 24">
  <g clip-path="url(#a)">
    <path fill="#374957" d="M12 4a1 1 0 0 1-1-1V1a1 1 0 0 1 2 0v2a1 1 0 0 1-1 1Zm1 19v-2a1 1 0 0 0-2 0v2a1 1 0 0 0 2 0ZM4 12a1 1 0 0 0-1-1H1a1 1 0 0 0 0 2h2a1 1 0 0 0 1-1Zm20 0a1 1 0 0 0-1-1h-2a1 1 0 0 0 0 2h2a1 1 0 0 0 1-1Zm-6.621-7.285 1-1.731a1 1 0 0 0-1.731-1l-1 1.731a1 1 0 1 0 1.731 1Zm-10.03 17.3 1-1.731a1 1 0 0 0-1.731-1l-1 1.731a1 1 0 0 0 1.731 1.003v-.003ZM5.079 7.987a1 1 0 0 0-.364-1.366l-1.731-1a1 1 0 0 0-1 1.731l1.731 1a1 1 0 0 0 1.366-.365h-.002Zm17.3 10.031a.999.999 0 0 0-.364-1.367l-1.731-1a1 1 0 0 0-1 1.731l1.731 1a1 1 0 0 0 1.367-.364h-.003ZM7.987 5.079a1 1 0 0 0 .365-1.366l-1-1.731a1 1 0 0 0-1.731 1l1 1.731a1 1 0 0 0 1.366.366Zm10.031 17.3a1 1 0 0 0 .364-1.366l-1-1.731a1 1 0 0 0-1.731 1l1 1.731a.998.998 0 0 0 1.367.364v.002Zm2.269-14.03 1.731-1a1 1 0 0 0-1-1.731l-1.731 1a1 1 0 0 0 1 1.731Zm-17.3 10.03 1.731-1a1 1 0 0 0-1-1.731l-1.731 1a1 1 0 0 0 .997 1.734l.003-.003Z"/>
  </g>
  <defs>
    <clipPath id="a">
      <path fill="#fff" d="M0 0h24v24H0z"/>
    </clipPath>
  </defs>
</svg>
