<svg xmlns="http://www.w3.org/2000/svg" width="24" height="24" fill="none" viewBox="0 0 24 24">
  <g clip-path="url(#a)">
    <path fill="#374957" d="M12 10a21.7 21.7 0 0 0-2 .1V17a1 1 0 1 1-2 0l-.022-8.885 5.009-2.076a2 2 0 0 0 .271-3.4A779.48 779.48 0 0 0 8.9.212 2 2 0 0 0 6 2v8.922C2.392 12.115 0 14.36 0 17c0 3.925 5.271 7 12 7s12-3.075 12-7-5.271-7-12-7Zm4 9a2 2 0 1 1 0-4 2 2 0 0 1 0 4Z"/>
  </g>
  <defs>
    <clipPath id="a">
      <path fill="#fff" d="M0 0h24v24H0z"/>
    </clipPath>
  </defs>
</svg>
