<svg xmlns="http://www.w3.org/2000/svg" width="24" height="24" fill="none" viewBox="0 0 24 24">
  <g clip-path="url(#a)">
    <path fill="#374957" d="M19 0H5a5.006 5.006 0 0 0-5 5v14a5.006 5.006 0 0 0 5 5h10.515c.163 0 .324-.013.485-.024V19a3 3 0 0 1 3-3h4.976c.011-.161.024-.322.024-.485V5a5.006 5.006 0 0 0-5-5ZM6.8 7.175a.625.625 0 0 1 0 1.25H5.391v1.357h1.571a.625.625 0 0 1 0 1.25h-2.2a.625.625 0 0 1-.625-.625V5.193c0-.345.28-.625.625-.625h2.2a.625.625 0 0 1 0 1.25H5.391v1.357H6.8Zm2.676-2.631h1.464a2.11 2.11 0 0 1 0 4.22h-.84v1.663a.625.625 0 0 1-1.25 0V5.169a.664.664 0 0 1 .198-.443.661.661 0 0 1 .428-.182Zm8.89 4.856a2.138 2.138 0 0 1-2.182 1.656 3.134 3.134 0 0 1-2.3-.985.625.625 0 0 1 .043-.883.6.6 0 0 1 .76-.051c.016.011.1.077.127.1.25.218.537.387.848.5.321.095.665.082.978-.037a.723.723 0 0 0 .46-.4.564.564 0 0 0-.15-.579 1.3 1.3 0 0 0-.482-.276 34.281 34.281 0 0 1-1.232-.483 1.93 1.93 0 0 1-.961-.735 1.62 1.62 0 0 1-.234-1.1c.03-.213.1-.418.207-.605a1.815 1.815 0 0 1 1.026-.826 3.18 3.18 0 0 1 2.426.331c.163.082.303.204.407.355a.61.61 0 0 1-.032.737c-.238.28-.584.2-.879.074a7.478 7.478 0 0 0-.819-.309 1.487 1.487 0 0 0-.607-.089.6.6 0 0 0-.491.328.589.589 0 0 0 .152.618c.167.152.373.256.594.3.279.073.562.124.835.217.333.112.641.29.906.521.469.399.696 1.013.6 1.621Z"/>
    <path fill="#374957" d="M19 18a1 1 0 0 0-1 1v4.54a6.977 6.977 0 0 0 2.465-1.59l1.484-1.485A6.96 6.96 0 0 0 23.54 18H19ZM10.939 5.794h-.84v1.724h.833a.86.86 0 0 0 0-1.72l.007-.004Z"/>
  </g>
  <defs>
    <clipPath id="a">
      <path fill="#fff" d="M0 0h24v24H0z"/>
    </clipPath>
  </defs>
</svg>
