<svg xmlns="http://www.w3.org/2000/svg" width="24" height="24" fill="none" viewBox="0 0 24 24">
  <g clip-path="url(#a)">
    <path fill="#374957" d="M24 12a11.94 11.94 0 0 1-2.9 7.805 9.509 9.509 0 0 1-3.383-4.213l1.658-.663a1.002 1.002 0 0 0 .345-1.627 1 1 0 0 0-1.087-.23l-1.466.586A9.426 9.426 0 0 1 17 12a9.42 9.42 0 0 1 .163-1.658l1.466.587a1.001 1.001 0 0 0 .742-1.858l-1.658-.663A9.508 9.508 0 0 1 21.1 4.2 11.94 11.94 0 0 1 24 12Zm-8.143 4.334-1.486.595a1 1 0 0 1-.742-1.858l1.644-.657A11.552 11.552 0 0 1 15 12c.006-.812.097-1.621.273-2.414l-1.644-.657a1 1 0 0 1 .742-1.858l1.486.6a11.467 11.467 0 0 1 3.808-4.889 11.97 11.97 0 0 0-15.313-.021 11.544 11.544 0 0 1 3.8 4.9l1.481-.593a1 1 0 0 1 .742 1.858l-1.643.657A11.6 11.6 0 0 1 9 12a11.6 11.6 0 0 1-.272 2.414l1.643.657a1 1 0 1 1-.742 1.858l-1.481-.593a11.545 11.545 0 0 1-3.8 4.9 11.97 11.97 0 0 0 15.313-.016 11.466 11.466 0 0 1-3.804-4.886Zm-9.566-.74-1.662-.665A1.002 1.002 0 0 1 4.987 13a.998.998 0 0 1 .384.072l1.467.587A9.516 9.516 0 0 0 7 12a9.515 9.515 0 0 0-.162-1.658l-1.467.587a1 1 0 0 1-.742-1.858l1.662-.665A9.547 9.547 0 0 0 2.919 4.18a11.937 11.937 0 0 0 0 15.642 9.547 9.547 0 0 0 3.372-4.227Z"/>
  </g>
  <defs>
    <clipPath id="a">
      <path fill="#fff" d="M0 0h24v24H0z"/>
    </clipPath>
  </defs>
</svg>
