<svg xmlns="http://www.w3.org/2000/svg" width="24" height="24" fill="none" viewBox="0 0 24 24">
  <g clip-path="url(#a)">
    <path fill="#374957" d="M23.992 12.16a11.898 11.898 0 0 1-1.2 5.047.966.966 0 0 0-.219.023 18.975 18.975 0 0 1-5.6.77 19.098 19.098 0 0 1-6.029-.8 1.478 1.478 0 0 1-.619-2.395c.337-.375.697-.728 1.078-1.057a1.462 1.462 0 0 1 1.422-.233c1.279.427 2.617.645 3.965.646a14.493 14.493 0 0 0 7.202-2.002Zm-8.744-.137a1.488 1.488 0 0 0 1.717-1.635A17.118 17.118 0 0 0 12.106.393a.982.982 0 0 1-.22-.388 11.908 11.908 0 0 0-4.6.961 13.914 13.914 0 0 1 5.5 9.542 1.483 1.483 0 0 0 1.094 1.226c.45.127.906.223 1.368.29Zm5.674-.643a13.622 13.622 0 0 0 2.884-1.468 12.019 12.019 0 0 0-9.114-9.6 19 19 0 0 1 4.255 9.864 1.473 1.473 0 0 0 1.975 1.204ZM16.8 20a20.99 20.99 0 0 1-7.241-1.162 1.442 1.442 0 0 0-1.884.975 11.824 11.824 0 0 0-.359 3.231 11.984 11.984 0 0 0 13.936-3.407c-1.467.278-2.96.4-4.452.362Zm-6-9.17a11.775 11.775 0 0 0-.323-1.748 1.466 1.466 0 0 0-2.368-.724 19.134 19.134 0 0 0-5.9 9.583 6.63 6.63 0 0 0-.093.842 12.08 12.08 0 0 0 3.2 3.171 13.914 13.914 0 0 1 4.939-9.868 1.458 1.458 0 0 0 .545-1.256ZM7.767 4.108A11.759 11.759 0 0 0 5.3 2.048a11.937 11.937 0 0 0-4.6 13.97 21.14 21.14 0 0 1 6.876-9.825 1.442 1.442 0 0 0 .191-2.085Z"/>
  </g>
  <defs>
    <clipPath id="a">
      <path fill="#fff" d="M0 0h24v24H0z"/>
    </clipPath>
  </defs>
</svg>
