<svg xmlns="http://www.w3.org/2000/svg" width="24" height="24" fill="none" viewBox="0 0 24 24">
  <g clip-path="url(#a)">
    <path fill="#374957" d="m2.31 17.192 5.5 5.5a4.22 4.22 0 0 1-5.5-5.5ZM7.327 1.98a1 1 0 1 0-.4-1.96A10.689 10.689 0 0 0 .213 4.145 1 1 0 0 0 1.82 5.334 8.641 8.641 0 0 1 7.327 1.98ZM23.2 16.023a1 1 0 0 0-1.191.762 8.639 8.639 0 0 1-3.317 5.407 1 1 0 0 0 1.18 1.616 10.7 10.7 0 0 0 4.09-6.593 1.002 1.002 0 0 0-.762-1.192ZM20.167 5.247l1.54-1.54a1.002 1.002 0 0 0-.704-1.72 1 1 0 0 0-.71.306L18.75 3.835a8.456 8.456 0 0 0-9.822-.5l-5.5 3.4a5.026 5.026 0 0 0-.912 7.829l6.959 6.959a5.027 5.027 0 0 0 7.839-.926l3.6-5.876a8.544 8.544 0 0 0-.748-9.474Z"/>
  </g>
  <defs>
    <clipPath id="a">
      <path fill="#fff" d="M0 0h24v24H0z"/>
    </clipPath>
  </defs>
</svg>
