<svg xmlns="http://www.w3.org/2000/svg" width="24" height="24" fill="none" viewBox="0 0 24 24">
  <g clip-path="url(#a)">
    <path fill="#374957" d="M23 16a1 1 0 0 0-1 1v2a3 3 0 0 1-3 3h-2a1 1 0 1 0 0 2h2a5.006 5.006 0 0 0 5-5v-2a1 1 0 0 0-1-1ZM7 0H5a5.006 5.006 0 0 0-5 5v2a1 1 0 0 0 2 0V5a3 3 0 0 1 3-3h2a1 1 0 0 0 0-2Zm0 22H5a3 3 0 0 1-3-3v-2a1 1 0 1 0-2 0v2a5.006 5.006 0 0 0 5 5h2a1 1 0 0 0 0-2ZM19 0h-2a1 1 0 1 0 0 2h2a3 3 0 0 1 3 3v2a1 1 0 1 0 2 0V5a5.006 5.006 0 0 0-5-5Z"/>
  </g>
  <defs>
    <clipPath id="a">
      <path fill="#fff" d="M0 0h24v24H0z"/>
    </clipPath>
  </defs>
</svg>
