<svg xmlns="http://www.w3.org/2000/svg" width="24" height="24" fill="none" viewBox="0 0 24 24">
  <g clip-path="url(#a)">
    <path fill="#374957" d="M12 7.946A1.523 1.523 0 1 0 12 4.9a1.523 1.523 0 0 0 0 3.046Z"/>
    <path fill="#374957" d="M20 0H4a4.032 4.032 0 0 0-4 4.057v12.17a4.033 4.033 0 0 0 4 4.057h2.923l3.748 3.2a1.97 1.97 0 0 0 2.63.023l3.846-3.224H20a4.033 4.033 0 0 0 4-4.057V4.056a4.032 4.032 0 0 0-4-4.055Zm-8 3.043c4.615.122 4.614 6.977 0 7.1-4.615-.123-4.614-6.975 0-7.1Zm4.249 14.166a1 1 0 0 1-1.216-.722l-.002-.007a3.17 3.17 0 0 0-6.063 0 1 1 0 0 1-1.936-.506 5.162 5.162 0 0 1 9.937 0c.14.539-.182 1.09-.72 1.235Z"/>
  </g>
  <defs>
    <clipPath id="a">
      <path fill="#fff" d="M0 0h24v24H0z"/>
    </clipPath>
  </defs>
</svg>
