<svg xmlns="http://www.w3.org/2000/svg" width="24" height="24" fill="none" viewBox="0 0 24 24">
  <g clip-path="url(#a)">
    <path fill="#374957" d="M4 22a2.982 2.982 0 0 1-2.122-.879L.334 19.747a1.001 1.001 0 0 1 1.332-1.494l1.585 1.414a1 1 0 0 0 1.456.04l3.6-3.43a.998.998 0 0 1 1.649.348 1 1 0 0 1-.271 1.1L6.1 21.137A2.964 2.964 0 0 1 4 22Zm19-1H13a1 1 0 0 1 0-2h10a1 1 0 1 1 0 2ZM4 14a2.982 2.982 0 0 1-2.122-.879L.293 11.536a1 1 0 0 1 1.414-1.414l1.586 1.585a1.023 1.023 0 0 0 1.414 0l3.6-3.43a1 1 0 1 1 1.382 1.447l-3.59 3.414A2.964 2.964 0 0 1 4 14Zm19-1H13a1 1 0 0 1 0-2h10a1 1 0 1 1 0 2ZM4 6a2.982 2.982 0 0 1-2.122-.879L.334 3.747a1 1 0 0 1 1.332-1.494L3.25 3.667a1 1 0 0 0 1.456.04L8.31.277a1 1 0 0 1 1.378 1.447l-3.59 3.414A2.964 2.964 0 0 1 4 6Zm19-1H13a1 1 0 1 1 0-2h10a1 1 0 0 1 0 2Z"/>
  </g>
  <defs>
    <clipPath id="a">
      <path fill="#fff" d="M0 0h24v24H0z"/>
    </clipPath>
  </defs>
</svg>
